G04 #@! TF.FileFunction,Soldermask,Bot*
%FSLAX46Y46*%
G04 Gerber Fmt 4.6, Leading zero omitted, Abs format (unit mm)*
G04 Created by KiCad (PCBNEW 4.0.0-rc1-stable) date 17/11/2015 22:26:30*
%MOMM*%
G01*
G04 APERTURE LIST*
%ADD10C,0.100000*%
%ADD11C,1.397000*%
%ADD12R,1.397000X1.397000*%
G04 APERTURE END LIST*
D10*
D11*
X125094984Y-107315000D03*
X127634984Y-107315000D03*
X130174984Y-107315000D03*
X125095000Y-140335000D03*
X127635000Y-140335000D03*
X130175000Y-140335000D03*
D12*
X120015000Y-99695000D03*
D11*
X120015000Y-102235000D03*
X120015000Y-104775000D03*
X120015000Y-107315000D03*
X120015000Y-109855000D03*
X120015000Y-112395000D03*
X120015000Y-114935000D03*
X120015000Y-117475000D03*
X120015000Y-120015000D03*
X120015000Y-122555000D03*
X120015000Y-125095000D03*
X120015000Y-127635000D03*
X120015000Y-130175000D03*
X120015000Y-132715000D03*
X120015000Y-135255000D03*
X120015000Y-137795000D03*
X120015000Y-140335000D03*
X120015000Y-142875000D03*
X120015000Y-145415000D03*
X120015000Y-147955000D03*
X135255000Y-147955000D03*
X135255000Y-145415000D03*
X135255000Y-142875000D03*
X135255000Y-140335000D03*
X135255000Y-137795000D03*
X135255000Y-135255000D03*
X135255000Y-132715000D03*
X135255000Y-130175000D03*
X135255000Y-127635000D03*
X135255000Y-125095000D03*
X135255000Y-122555000D03*
X135255000Y-120015000D03*
X135255000Y-117475000D03*
X135255000Y-114935000D03*
X135255000Y-112395000D03*
X135255000Y-109855000D03*
X135255000Y-107315000D03*
X135255000Y-104775000D03*
X135255000Y-102235000D03*
X135255000Y-99695000D03*
M02*
