G04 #@! TF.FileFunction,Copper,L2,Bot,Signal*
%FSLAX46Y46*%
G04 Gerber Fmt 4.6, Leading zero omitted, Abs format (unit mm)*
G04 Created by KiCad (PCBNEW 4.0.0-rc1-stable) date 17/11/2015 22:26:30*
%MOMM*%
G01*
G04 APERTURE LIST*
%ADD10C,0.100000*%
%ADD11C,1.397000*%
%ADD12R,1.397000X1.397000*%
%ADD13C,0.600000*%
%ADD14C,0.250000*%
%ADD15C,0.254000*%
G04 APERTURE END LIST*
D10*
D11*
X125094984Y-107315000D03*
X127634984Y-107315000D03*
X130174984Y-107315000D03*
X125095000Y-140335000D03*
X127635000Y-140335000D03*
X130175000Y-140335000D03*
D12*
X120015000Y-99695000D03*
D11*
X120015000Y-102235000D03*
X120015000Y-104775000D03*
X120015000Y-107315000D03*
X120015000Y-109855000D03*
X120015000Y-112395000D03*
X120015000Y-114935000D03*
X120015000Y-117475000D03*
X120015000Y-120015000D03*
X120015000Y-122555000D03*
X120015000Y-125095000D03*
X120015000Y-127635000D03*
X120015000Y-130175000D03*
X120015000Y-132715000D03*
X120015000Y-135255000D03*
X120015000Y-137795000D03*
X120015000Y-140335000D03*
X120015000Y-142875000D03*
X120015000Y-145415000D03*
X120015000Y-147955000D03*
X135255000Y-147955000D03*
X135255000Y-145415000D03*
X135255000Y-142875000D03*
X135255000Y-140335000D03*
X135255000Y-137795000D03*
X135255000Y-135255000D03*
X135255000Y-132715000D03*
X135255000Y-130175000D03*
X135255000Y-127635000D03*
X135255000Y-125095000D03*
X135255000Y-122555000D03*
X135255000Y-120015000D03*
X135255000Y-117475000D03*
X135255000Y-114935000D03*
X135255000Y-112395000D03*
X135255000Y-109855000D03*
X135255000Y-107315000D03*
X135255000Y-104775000D03*
X135255000Y-102235000D03*
X135255000Y-99695000D03*
D13*
X130943193Y-118724563D03*
X122428000Y-111061500D03*
X134400899Y-133915609D03*
X130619500Y-111188500D03*
X125095001Y-102235000D03*
X130175008Y-102235000D03*
X122237500Y-141605000D03*
X121031000Y-146685000D03*
X125095000Y-145415000D03*
X130175000Y-145415000D03*
X127635000Y-145415000D03*
X122484912Y-136525000D03*
X125412500Y-121666010D03*
X132382617Y-118793618D03*
X134146294Y-113445294D03*
X134239000Y-116459000D03*
X123380500Y-111061500D03*
X132971544Y-131315456D03*
X122618500Y-118872000D03*
X133096010Y-125095000D03*
X127635000Y-102235000D03*
X133794500Y-111950500D03*
X125666500Y-115887500D03*
X124396500Y-111950500D03*
X124372956Y-115887500D03*
X123380500Y-111950500D03*
X123122935Y-115887500D03*
X122428000Y-111950500D03*
X121764989Y-115887500D03*
X122237705Y-142405011D03*
X122301004Y-144272000D03*
X124523500Y-142684500D03*
X124904500Y-138112500D03*
X125828748Y-138109563D03*
X125793500Y-136906004D03*
X126819482Y-131129540D03*
X128606437Y-135756927D03*
X126916521Y-115892727D03*
X128831783Y-138113542D03*
X129857500Y-135763000D03*
X127444500Y-130492500D03*
X127762000Y-115887500D03*
X129885752Y-138109563D03*
X128133020Y-131127500D03*
X131160796Y-136527382D03*
X128580473Y-115894668D03*
X130873500Y-138112518D03*
X129383041Y-131127500D03*
X132587986Y-136969500D03*
X130556000Y-117411500D03*
X130393524Y-119305840D03*
X129349500Y-110998000D03*
X128758021Y-130492500D03*
X126174502Y-130492500D03*
X121729500Y-108204000D03*
X121856500Y-118364000D03*
X121856500Y-122174000D03*
D14*
X133604000Y-101346000D02*
X133604000Y-108712000D01*
X133604000Y-108712000D02*
X132715000Y-109601000D01*
X135255000Y-99695000D02*
X133604000Y-101346000D01*
X132715000Y-109601000D02*
X132715000Y-116940913D01*
X132715000Y-116940913D02*
X130943193Y-118712720D01*
X130943193Y-118712720D02*
X130943193Y-118724563D01*
X132971544Y-131315456D02*
X132971544Y-132486254D01*
X134100900Y-133615610D02*
X134400899Y-133915609D01*
X132971544Y-132486254D02*
X134100900Y-133615610D01*
X130619500Y-111188500D02*
X129857500Y-111950500D01*
X129857500Y-111950500D02*
X129857500Y-113411000D01*
X127635000Y-102235000D02*
X130175008Y-102235000D01*
X127635000Y-102235000D02*
X125095001Y-102235000D01*
X124360498Y-145415000D02*
X121612499Y-142667001D01*
X121813236Y-141605000D02*
X122237500Y-141605000D01*
X121612499Y-142667001D02*
X121612499Y-141805737D01*
X121612499Y-141805737D02*
X121813236Y-141605000D01*
X124460000Y-145415000D02*
X124360498Y-145415000D01*
X121031000Y-146685000D02*
X122301000Y-145415000D01*
X122301000Y-145415000D02*
X124460000Y-145415000D01*
X127635000Y-145415000D02*
X130175000Y-145415000D01*
X124460000Y-145415000D02*
X125095000Y-145415000D01*
X125112501Y-121965997D02*
X125112513Y-121965997D01*
X125112513Y-121965997D02*
X125412500Y-121666010D01*
X125412500Y-121665996D02*
X125412500Y-121666010D01*
X124269494Y-122809004D02*
X125112501Y-121965997D01*
X120015000Y-125095000D02*
X121983498Y-125095000D01*
X121983498Y-125095000D02*
X125112501Y-121965997D01*
X130630525Y-118100002D02*
X130919501Y-118100001D01*
X131244501Y-117775001D02*
X131244501Y-117174999D01*
X134239000Y-116937235D02*
X132682616Y-118493619D01*
X133096010Y-122933330D02*
X129768522Y-119605842D01*
X134239000Y-116459000D02*
X134239000Y-116937235D01*
X132682616Y-118493619D02*
X132382617Y-118793618D01*
X129857500Y-115787998D02*
X129857500Y-113411000D01*
X129768522Y-119605842D02*
X129768522Y-118962005D01*
X133096010Y-125095000D02*
X133096010Y-122933330D01*
X129768522Y-118962005D02*
X130630525Y-118100002D01*
X130919501Y-118100001D02*
X131244501Y-117775001D01*
X131244501Y-117174999D02*
X129857500Y-115787998D01*
X134146294Y-115942030D02*
X134146294Y-113445294D01*
X134239000Y-116034736D02*
X134146294Y-115942030D01*
X134239000Y-116459000D02*
X134239000Y-116034736D01*
X122956236Y-111061500D02*
X123380500Y-111061500D01*
X121856500Y-111061500D02*
X122956236Y-111061500D01*
X122618500Y-118200996D02*
X121094500Y-116676996D01*
X121094500Y-111823500D02*
X121856500Y-111061500D01*
X122618500Y-118872000D02*
X122618500Y-118200996D01*
X121094500Y-116676996D02*
X121094500Y-111823500D01*
X135255000Y-125095000D02*
X133096010Y-125095000D01*
X120015000Y-125095000D02*
X121094500Y-124015500D01*
X133794500Y-111526236D02*
X133794500Y-111950500D01*
X133794500Y-109794321D02*
X133794500Y-111526236D01*
X135255000Y-108333821D02*
X133794500Y-109794321D01*
X135255000Y-107315000D02*
X135255000Y-108333821D01*
X125666500Y-116311764D02*
X125666500Y-115887500D01*
X133350000Y-130175000D02*
X132343998Y-129168998D01*
X135255000Y-130175000D02*
X133350000Y-130175000D01*
X132343998Y-129168998D02*
X132343998Y-123453998D01*
X132343998Y-123453998D02*
X125666500Y-116776500D01*
X125666500Y-116776500D02*
X125666500Y-116311764D01*
X135255000Y-132715000D02*
X133165011Y-130625011D01*
X131893987Y-123640397D02*
X124997976Y-116744386D01*
X133165011Y-130625011D02*
X133163600Y-130625011D01*
X133163600Y-130625011D02*
X131893987Y-129355398D01*
X131893987Y-129355398D02*
X131893987Y-123640397D01*
X124997976Y-116744386D02*
X124997976Y-112551976D01*
X124997976Y-112551976D02*
X124696499Y-112250499D01*
X124696499Y-112250499D02*
X124396500Y-111950500D01*
X124372956Y-116311764D02*
X124372956Y-115887500D01*
X124372956Y-116755777D02*
X124372956Y-116311764D01*
X131443976Y-129541798D02*
X131443976Y-123826797D01*
X131922088Y-130019909D02*
X131443976Y-129541798D01*
X134157879Y-134556501D02*
X131922088Y-132320710D01*
X131922088Y-132320710D02*
X131922088Y-130019909D01*
X135255000Y-135255000D02*
X134556501Y-134556501D01*
X134556501Y-134556501D02*
X134157879Y-134556501D01*
X131443976Y-123826797D02*
X124372956Y-116755777D01*
X135255000Y-137795000D02*
X135255000Y-136708446D01*
X130993965Y-129728198D02*
X130993965Y-124013197D01*
X123747955Y-112317955D02*
X123680499Y-112250499D01*
X135255000Y-136708446D02*
X134203055Y-135656501D01*
X134203055Y-135656501D02*
X134203055Y-135238087D01*
X134203055Y-135238087D02*
X131472077Y-132507110D01*
X123680499Y-112250499D02*
X123380500Y-111950500D01*
X131472077Y-132507110D02*
X131472077Y-130206310D01*
X131472077Y-130206310D02*
X130993965Y-129728198D01*
X130993965Y-124013197D02*
X123747955Y-116767187D01*
X123747955Y-116767187D02*
X123747955Y-112317955D01*
X123122935Y-116311764D02*
X123122935Y-115887500D01*
X131022066Y-132693510D02*
X131022066Y-130392709D01*
X123122935Y-116778578D02*
X123122935Y-116311764D01*
X130543954Y-129914598D02*
X130543954Y-124199597D01*
X130543954Y-124199597D02*
X123122935Y-116778578D01*
X131022066Y-130392709D02*
X130543954Y-129914598D01*
X133753044Y-135424487D02*
X131022066Y-132693510D01*
X133753044Y-135842901D02*
X133753044Y-135424487D01*
X134176523Y-136266380D02*
X133753044Y-135842901D01*
X135255000Y-140335000D02*
X134176523Y-139256523D01*
X134176523Y-139256523D02*
X134176523Y-136266380D01*
X122428000Y-116720054D02*
X122428000Y-112374764D01*
X122428000Y-112374764D02*
X122428000Y-111950500D01*
X133726512Y-136452780D02*
X133303033Y-136029301D01*
X130093943Y-124385997D02*
X122428000Y-116720054D01*
X133303033Y-135610887D02*
X130572055Y-132879910D01*
X133726512Y-141346512D02*
X133726512Y-136452780D01*
X130093943Y-130100998D02*
X130093943Y-124385997D01*
X130572055Y-130579110D02*
X130093943Y-130100998D01*
X133303033Y-136029301D02*
X133303033Y-135610887D01*
X135255000Y-142875000D02*
X133726512Y-141346512D01*
X130572055Y-132879910D02*
X130572055Y-130579110D01*
X135255000Y-145415000D02*
X135255000Y-144653000D01*
X135255000Y-144653000D02*
X133276501Y-142674501D01*
X133276501Y-136639180D02*
X132853022Y-136215701D01*
X133276501Y-142674501D02*
X133276501Y-136639180D01*
X132853022Y-136215701D02*
X132853022Y-135797287D01*
X132853022Y-135797287D02*
X130122044Y-133066310D01*
X130122044Y-133066310D02*
X130122044Y-130765509D01*
X130122044Y-130765509D02*
X129643932Y-130287398D01*
X129643932Y-130287398D02*
X129643932Y-124572397D01*
X129643932Y-124572397D02*
X121764989Y-116693454D01*
X121764989Y-116693454D02*
X121764989Y-116311764D01*
X121764989Y-116311764D02*
X121764989Y-115887500D01*
X135255000Y-147955000D02*
X128905000Y-147955000D01*
X128905000Y-147955000D02*
X123355011Y-142405011D01*
X123355011Y-142405011D02*
X122661969Y-142405011D01*
X122661969Y-142405011D02*
X122237705Y-142405011D01*
X121876740Y-144272000D02*
X122301004Y-144272000D01*
X120015000Y-145415000D02*
X121158000Y-144272000D01*
X121158000Y-144272000D02*
X121876740Y-144272000D01*
X124523500Y-142684500D02*
X122809000Y-140970000D01*
X122809000Y-140970000D02*
X121158000Y-140970000D01*
X121158000Y-140970000D02*
X120015000Y-142113000D01*
X120015000Y-142113000D02*
X120015000Y-142875000D01*
X120015000Y-140335000D02*
X120015000Y-139509500D01*
X120015000Y-139509500D02*
X121221500Y-138303000D01*
X121221500Y-138303000D02*
X124714000Y-138303000D01*
X124714000Y-138303000D02*
X124904500Y-138112500D01*
X120015000Y-137795000D02*
X124296996Y-137795000D01*
X124296996Y-137795000D02*
X124604498Y-137487498D01*
X125528749Y-137809564D02*
X125828748Y-138109563D01*
X125206683Y-137487498D02*
X125528749Y-137809564D01*
X124604498Y-137487498D02*
X125206683Y-137487498D01*
X125493501Y-136606005D02*
X125793500Y-136906004D01*
X124142496Y-135255000D02*
X125493501Y-136606005D01*
X120015000Y-135255000D02*
X124142496Y-135255000D01*
X120015000Y-112395000D02*
X120015000Y-111407172D01*
X120015000Y-111407172D02*
X121059172Y-110363000D01*
X121059172Y-110363000D02*
X123734004Y-110363000D01*
X123734004Y-110363000D02*
X126916521Y-113545517D01*
X126916521Y-113545517D02*
X126916521Y-115468463D01*
X126916521Y-115468463D02*
X126916521Y-115892727D01*
X126819482Y-132977572D02*
X126819482Y-131553804D01*
X126819482Y-131553804D02*
X126819482Y-131129540D01*
X128606437Y-135756927D02*
X128606437Y-134764527D01*
X128606437Y-134764527D02*
X126819482Y-132977572D01*
X127887222Y-138113542D02*
X128407519Y-138113542D01*
X124531702Y-134758022D02*
X127887222Y-138113542D01*
X120015000Y-132715000D02*
X120015000Y-133702828D01*
X120015000Y-133702828D02*
X121070194Y-134758022D01*
X128407519Y-138113542D02*
X128831783Y-138113542D01*
X121070194Y-134758022D02*
X124531702Y-134758022D01*
X129557501Y-135079181D02*
X129557501Y-135463001D01*
X127444500Y-132966180D02*
X129557501Y-135079181D01*
X127444500Y-130492500D02*
X127444500Y-132966180D01*
X129557501Y-135463001D02*
X129857500Y-135763000D01*
X127762000Y-115463236D02*
X127762000Y-115887500D01*
X127762000Y-113754585D02*
X127762000Y-115463236D01*
X123867926Y-109860511D02*
X127762000Y-113754585D01*
X121008339Y-109860511D02*
X123867926Y-109860511D01*
X120015000Y-109855000D02*
X121002828Y-109855000D01*
X121002828Y-109855000D02*
X121008339Y-109860511D01*
X129585753Y-137809564D02*
X129885752Y-138109563D01*
X127898611Y-137488522D02*
X129264711Y-137488522D01*
X124718102Y-134308012D02*
X127898611Y-137488522D01*
X121279489Y-133725489D02*
X121862011Y-134308011D01*
X121279488Y-131439488D02*
X121279489Y-133725489D01*
X121862011Y-134308011D02*
X124718102Y-134308012D01*
X129264711Y-137488522D02*
X129585753Y-137809564D01*
X120015000Y-130175000D02*
X121279488Y-131439488D01*
X128133020Y-131551764D02*
X128133020Y-131127500D01*
X128133020Y-133018288D02*
X128133020Y-131551764D01*
X131160796Y-136527382D02*
X131160796Y-136046064D01*
X131160796Y-136046064D02*
X128133020Y-133018288D01*
X124054326Y-109410500D02*
X128580473Y-113936647D01*
X128580473Y-113936647D02*
X128580473Y-115470404D01*
X128580473Y-115470404D02*
X128580473Y-115894668D01*
X120015000Y-107315000D02*
X120015000Y-108302828D01*
X120015000Y-108302828D02*
X121122672Y-109410500D01*
X121122672Y-109410500D02*
X124054326Y-109410500D01*
X129799493Y-137038511D02*
X130573501Y-137812519D01*
X120015000Y-128460500D02*
X121729499Y-130174999D01*
X121729499Y-130174999D02*
X121729499Y-133349999D01*
X122237501Y-133858001D02*
X124904501Y-133858001D01*
X130573501Y-137812519D02*
X130873500Y-138112518D01*
X120015000Y-127635000D02*
X120015000Y-128460500D01*
X121729499Y-133349999D02*
X122237501Y-133858001D01*
X124904501Y-133858001D02*
X128085011Y-137038511D01*
X128085011Y-137038511D02*
X129799493Y-137038511D01*
X132403011Y-136784525D02*
X132403011Y-135983687D01*
X132587986Y-136969500D02*
X132403011Y-136784525D01*
X132403011Y-135983687D02*
X129383041Y-132963717D01*
X129383041Y-132963717D02*
X129383041Y-131551764D01*
X129383041Y-131551764D02*
X129383041Y-131127500D01*
X129205475Y-116060975D02*
X130256001Y-117111501D01*
X130256001Y-117111501D02*
X130556000Y-117411500D01*
X121094500Y-108521500D02*
X121475500Y-108902500D01*
X121475500Y-108902500D02*
X124206000Y-108902500D01*
X120015000Y-105762828D02*
X121094500Y-106842328D01*
X121094500Y-106842328D02*
X121094500Y-108521500D01*
X124206000Y-108902500D02*
X129205475Y-113901975D01*
X129205475Y-113901975D02*
X129205475Y-116060975D01*
X120015000Y-104775000D02*
X120015000Y-105762828D01*
X135255000Y-104775000D02*
X134054011Y-105975989D01*
X134054011Y-105975989D02*
X134054011Y-108898400D01*
X133165011Y-117127313D02*
X131568212Y-118724111D01*
X131568212Y-118724111D02*
X131568212Y-119005972D01*
X134054011Y-108898400D02*
X133165011Y-109787399D01*
X133165011Y-109787399D02*
X133165011Y-117127313D01*
X131568212Y-119005972D02*
X131194184Y-119380000D01*
X131194184Y-119380000D02*
X130467684Y-119380000D01*
X130467684Y-119380000D02*
X130393524Y-119305840D01*
X129349500Y-110998000D02*
X127635000Y-109283500D01*
X127635000Y-109283500D02*
X127063484Y-109283500D01*
X127063484Y-109283500D02*
X125094984Y-107315000D01*
X127634984Y-107739264D02*
X127634984Y-107315000D01*
X128758021Y-130916764D02*
X128758021Y-130492500D01*
X125095000Y-140335000D02*
X126118501Y-141358501D01*
X131953000Y-140525500D02*
X131953000Y-136170087D01*
X131119999Y-141358501D02*
X131953000Y-140525500D01*
X126118501Y-141358501D02*
X131119999Y-141358501D01*
X128758021Y-132975108D02*
X128758021Y-130916764D01*
X131953000Y-136170087D02*
X128758021Y-132975108D01*
X126174502Y-130492500D02*
X126174502Y-132969002D01*
X127952500Y-134747000D02*
X127952500Y-136009107D01*
X127952500Y-136009107D02*
X128531893Y-136588500D01*
X126174502Y-132969002D02*
X127952500Y-134747000D01*
X128531893Y-136588500D02*
X130302000Y-136588500D01*
X130302000Y-136588500D02*
X131498501Y-137785001D01*
X131498501Y-137785001D02*
X131498501Y-139646499D01*
X131498501Y-139646499D02*
X130810000Y-140335000D01*
X130810000Y-140335000D02*
X130175000Y-140335000D01*
X121094500Y-105854500D02*
X121729500Y-106489500D01*
X121729500Y-106489500D02*
X121729500Y-108204000D01*
X121094500Y-103314500D02*
X121094500Y-105854500D01*
X120015000Y-102235000D02*
X121094500Y-103314500D01*
X121856500Y-122174000D02*
X121856500Y-118364000D01*
D15*
G36*
X123145061Y-141949811D02*
X122673759Y-141949811D01*
X122595151Y-141871065D01*
X122363609Y-141774921D01*
X122112900Y-141774702D01*
X121881192Y-141870442D01*
X121703759Y-142047565D01*
X121607615Y-142279107D01*
X121607396Y-142529816D01*
X121703136Y-142761524D01*
X121880259Y-142938957D01*
X122111801Y-143035101D01*
X122362510Y-143035320D01*
X122594218Y-142939580D01*
X122673726Y-142860211D01*
X123166461Y-142860211D01*
X128583125Y-148276875D01*
X128730802Y-148375550D01*
X128905000Y-148410200D01*
X134330030Y-148410200D01*
X134382402Y-148536950D01*
X134664759Y-148819800D01*
X120604762Y-148819800D01*
X120886581Y-148538472D01*
X121043521Y-148160519D01*
X121043878Y-147751277D01*
X120887598Y-147373050D01*
X120598472Y-147083419D01*
X120220519Y-146926479D01*
X119811277Y-146926122D01*
X119433050Y-147082402D01*
X119190200Y-147324829D01*
X119190200Y-146044831D01*
X119431528Y-146286581D01*
X119809481Y-146443521D01*
X120218723Y-146443878D01*
X120596950Y-146287598D01*
X120886581Y-145998472D01*
X121043521Y-145620519D01*
X121043878Y-145211277D01*
X120990839Y-145082911D01*
X121346550Y-144727200D01*
X121864950Y-144727200D01*
X121943558Y-144805946D01*
X122175100Y-144902090D01*
X122425809Y-144902309D01*
X122657517Y-144806569D01*
X122834950Y-144629446D01*
X122931094Y-144397904D01*
X122931313Y-144147195D01*
X122835573Y-143915487D01*
X122658450Y-143738054D01*
X122426908Y-143641910D01*
X122176199Y-143641691D01*
X121944491Y-143737431D01*
X121864983Y-143816800D01*
X121158000Y-143816800D01*
X120983802Y-143851450D01*
X120836125Y-143950125D01*
X120347178Y-144439072D01*
X120220519Y-144386479D01*
X119811277Y-144386122D01*
X119433050Y-144542402D01*
X119190200Y-144784829D01*
X119190200Y-143504831D01*
X119431528Y-143746581D01*
X119809481Y-143903521D01*
X120218723Y-143903878D01*
X120596950Y-143747598D01*
X120886581Y-143458472D01*
X121043521Y-143080519D01*
X121043878Y-142671277D01*
X120887598Y-142293050D01*
X120683327Y-142088423D01*
X121346550Y-141425200D01*
X122620450Y-141425200D01*
X123145061Y-141949811D01*
X123145061Y-141949811D01*
G37*
X123145061Y-141949811D02*
X122673759Y-141949811D01*
X122595151Y-141871065D01*
X122363609Y-141774921D01*
X122112900Y-141774702D01*
X121881192Y-141870442D01*
X121703759Y-142047565D01*
X121607615Y-142279107D01*
X121607396Y-142529816D01*
X121703136Y-142761524D01*
X121880259Y-142938957D01*
X122111801Y-143035101D01*
X122362510Y-143035320D01*
X122594218Y-142939580D01*
X122673726Y-142860211D01*
X123166461Y-142860211D01*
X128583125Y-148276875D01*
X128730802Y-148375550D01*
X128905000Y-148410200D01*
X134330030Y-148410200D01*
X134382402Y-148536950D01*
X134664759Y-148819800D01*
X120604762Y-148819800D01*
X120886581Y-148538472D01*
X121043521Y-148160519D01*
X121043878Y-147751277D01*
X120887598Y-147373050D01*
X120598472Y-147083419D01*
X120220519Y-146926479D01*
X119811277Y-146926122D01*
X119433050Y-147082402D01*
X119190200Y-147324829D01*
X119190200Y-146044831D01*
X119431528Y-146286581D01*
X119809481Y-146443521D01*
X120218723Y-146443878D01*
X120596950Y-146287598D01*
X120886581Y-145998472D01*
X121043521Y-145620519D01*
X121043878Y-145211277D01*
X120990839Y-145082911D01*
X121346550Y-144727200D01*
X121864950Y-144727200D01*
X121943558Y-144805946D01*
X122175100Y-144902090D01*
X122425809Y-144902309D01*
X122657517Y-144806569D01*
X122834950Y-144629446D01*
X122931094Y-144397904D01*
X122931313Y-144147195D01*
X122835573Y-143915487D01*
X122658450Y-143738054D01*
X122426908Y-143641910D01*
X122176199Y-143641691D01*
X121944491Y-143737431D01*
X121864983Y-143816800D01*
X121158000Y-143816800D01*
X120983802Y-143851450D01*
X120836125Y-143950125D01*
X120347178Y-144439072D01*
X120220519Y-144386479D01*
X119811277Y-144386122D01*
X119433050Y-144542402D01*
X119190200Y-144784829D01*
X119190200Y-143504831D01*
X119431528Y-143746581D01*
X119809481Y-143903521D01*
X120218723Y-143903878D01*
X120596950Y-143747598D01*
X120886581Y-143458472D01*
X121043521Y-143080519D01*
X121043878Y-142671277D01*
X120887598Y-142293050D01*
X120683327Y-142088423D01*
X121346550Y-141425200D01*
X122620450Y-141425200D01*
X123145061Y-141949811D01*
G36*
X127565347Y-138435417D02*
X127713024Y-138534092D01*
X127887222Y-138568742D01*
X128395729Y-138568742D01*
X128474337Y-138647488D01*
X128705879Y-138743632D01*
X128956588Y-138743851D01*
X129188296Y-138648111D01*
X129360899Y-138475809D01*
X129528306Y-138643509D01*
X129759848Y-138739653D01*
X130010557Y-138739872D01*
X130242265Y-138644132D01*
X130378233Y-138508402D01*
X130516054Y-138646464D01*
X130747596Y-138742608D01*
X130998305Y-138742827D01*
X131043301Y-138724235D01*
X131043301Y-139457949D01*
X130898030Y-139603220D01*
X130758472Y-139463419D01*
X130380519Y-139306479D01*
X129971277Y-139306122D01*
X129593050Y-139462402D01*
X129303419Y-139751528D01*
X129146479Y-140129481D01*
X129146122Y-140538723D01*
X129296762Y-140903301D01*
X128512881Y-140903301D01*
X128663521Y-140540519D01*
X128663878Y-140131277D01*
X128507598Y-139753050D01*
X128218472Y-139463419D01*
X127840519Y-139306479D01*
X127431277Y-139306122D01*
X127053050Y-139462402D01*
X126763419Y-139751528D01*
X126606479Y-140129481D01*
X126606122Y-140538723D01*
X126756762Y-140903301D01*
X126307051Y-140903301D01*
X126070928Y-140667178D01*
X126123521Y-140540519D01*
X126123878Y-140131277D01*
X125967598Y-139753050D01*
X125678472Y-139463419D01*
X125300519Y-139306479D01*
X124891277Y-139306122D01*
X124513050Y-139462402D01*
X124223419Y-139751528D01*
X124066479Y-140129481D01*
X124066122Y-140538723D01*
X124222402Y-140916950D01*
X124511528Y-141206581D01*
X124889481Y-141363521D01*
X125298723Y-141363878D01*
X125427089Y-141310839D01*
X125796626Y-141680376D01*
X125944303Y-141779051D01*
X126118501Y-141813701D01*
X131119999Y-141813701D01*
X131294197Y-141779051D01*
X131441874Y-141680376D01*
X132274875Y-140847375D01*
X132373549Y-140699698D01*
X132373550Y-140699697D01*
X132408200Y-140525500D01*
X132408200Y-137577216D01*
X132462082Y-137599590D01*
X132712791Y-137599809D01*
X132821301Y-137554973D01*
X132821301Y-142674501D01*
X132855951Y-142848699D01*
X132954626Y-142996376D01*
X134586776Y-144628526D01*
X134383419Y-144831528D01*
X134226479Y-145209481D01*
X134226122Y-145618723D01*
X134382402Y-145996950D01*
X134671528Y-146286581D01*
X135049481Y-146443521D01*
X135458723Y-146443878D01*
X135836950Y-146287598D01*
X136079800Y-146045171D01*
X136079800Y-147325169D01*
X135838472Y-147083419D01*
X135460519Y-146926479D01*
X135051277Y-146926122D01*
X134673050Y-147082402D01*
X134383419Y-147371528D01*
X134330156Y-147499800D01*
X129093550Y-147499800D01*
X124832465Y-143238715D01*
X124880013Y-143219069D01*
X125057446Y-143041946D01*
X125153590Y-142810404D01*
X125153809Y-142559695D01*
X125058069Y-142327987D01*
X124880946Y-142150554D01*
X124649404Y-142054410D01*
X124537062Y-142054312D01*
X123130875Y-140648125D01*
X122983198Y-140549450D01*
X122809000Y-140514800D01*
X121158000Y-140514800D01*
X121043524Y-140537571D01*
X121043878Y-140131277D01*
X120887598Y-139753050D01*
X120651605Y-139516645D01*
X121410050Y-138758200D01*
X124714000Y-138758200D01*
X124792416Y-138742602D01*
X125029305Y-138742809D01*
X125261013Y-138647069D01*
X125368121Y-138540148D01*
X125471302Y-138643509D01*
X125702844Y-138739653D01*
X125953553Y-138739872D01*
X126185261Y-138644132D01*
X126362694Y-138467009D01*
X126458838Y-138235467D01*
X126459057Y-137984758D01*
X126363317Y-137753050D01*
X126186194Y-137575617D01*
X126005135Y-137500435D01*
X126150013Y-137440573D01*
X126327446Y-137263450D01*
X126346791Y-137216861D01*
X127565347Y-138435417D01*
X127565347Y-138435417D01*
G37*
X127565347Y-138435417D02*
X127713024Y-138534092D01*
X127887222Y-138568742D01*
X128395729Y-138568742D01*
X128474337Y-138647488D01*
X128705879Y-138743632D01*
X128956588Y-138743851D01*
X129188296Y-138648111D01*
X129360899Y-138475809D01*
X129528306Y-138643509D01*
X129759848Y-138739653D01*
X130010557Y-138739872D01*
X130242265Y-138644132D01*
X130378233Y-138508402D01*
X130516054Y-138646464D01*
X130747596Y-138742608D01*
X130998305Y-138742827D01*
X131043301Y-138724235D01*
X131043301Y-139457949D01*
X130898030Y-139603220D01*
X130758472Y-139463419D01*
X130380519Y-139306479D01*
X129971277Y-139306122D01*
X129593050Y-139462402D01*
X129303419Y-139751528D01*
X129146479Y-140129481D01*
X129146122Y-140538723D01*
X129296762Y-140903301D01*
X128512881Y-140903301D01*
X128663521Y-140540519D01*
X128663878Y-140131277D01*
X128507598Y-139753050D01*
X128218472Y-139463419D01*
X127840519Y-139306479D01*
X127431277Y-139306122D01*
X127053050Y-139462402D01*
X126763419Y-139751528D01*
X126606479Y-140129481D01*
X126606122Y-140538723D01*
X126756762Y-140903301D01*
X126307051Y-140903301D01*
X126070928Y-140667178D01*
X126123521Y-140540519D01*
X126123878Y-140131277D01*
X125967598Y-139753050D01*
X125678472Y-139463419D01*
X125300519Y-139306479D01*
X124891277Y-139306122D01*
X124513050Y-139462402D01*
X124223419Y-139751528D01*
X124066479Y-140129481D01*
X124066122Y-140538723D01*
X124222402Y-140916950D01*
X124511528Y-141206581D01*
X124889481Y-141363521D01*
X125298723Y-141363878D01*
X125427089Y-141310839D01*
X125796626Y-141680376D01*
X125944303Y-141779051D01*
X126118501Y-141813701D01*
X131119999Y-141813701D01*
X131294197Y-141779051D01*
X131441874Y-141680376D01*
X132274875Y-140847375D01*
X132373549Y-140699698D01*
X132373550Y-140699697D01*
X132408200Y-140525500D01*
X132408200Y-137577216D01*
X132462082Y-137599590D01*
X132712791Y-137599809D01*
X132821301Y-137554973D01*
X132821301Y-142674501D01*
X132855951Y-142848699D01*
X132954626Y-142996376D01*
X134586776Y-144628526D01*
X134383419Y-144831528D01*
X134226479Y-145209481D01*
X134226122Y-145618723D01*
X134382402Y-145996950D01*
X134671528Y-146286581D01*
X135049481Y-146443521D01*
X135458723Y-146443878D01*
X135836950Y-146287598D01*
X136079800Y-146045171D01*
X136079800Y-147325169D01*
X135838472Y-147083419D01*
X135460519Y-146926479D01*
X135051277Y-146926122D01*
X134673050Y-147082402D01*
X134383419Y-147371528D01*
X134330156Y-147499800D01*
X129093550Y-147499800D01*
X124832465Y-143238715D01*
X124880013Y-143219069D01*
X125057446Y-143041946D01*
X125153590Y-142810404D01*
X125153809Y-142559695D01*
X125058069Y-142327987D01*
X124880946Y-142150554D01*
X124649404Y-142054410D01*
X124537062Y-142054312D01*
X123130875Y-140648125D01*
X122983198Y-140549450D01*
X122809000Y-140514800D01*
X121158000Y-140514800D01*
X121043524Y-140537571D01*
X121043878Y-140131277D01*
X120887598Y-139753050D01*
X120651605Y-139516645D01*
X121410050Y-138758200D01*
X124714000Y-138758200D01*
X124792416Y-138742602D01*
X125029305Y-138742809D01*
X125261013Y-138647069D01*
X125368121Y-138540148D01*
X125471302Y-138643509D01*
X125702844Y-138739653D01*
X125953553Y-138739872D01*
X126185261Y-138644132D01*
X126362694Y-138467009D01*
X126458838Y-138235467D01*
X126459057Y-137984758D01*
X126363317Y-137753050D01*
X126186194Y-137575617D01*
X126005135Y-137500435D01*
X126150013Y-137440573D01*
X126327446Y-137263450D01*
X126346791Y-137216861D01*
X127565347Y-138435417D01*
G36*
X125163288Y-136919542D02*
X125163191Y-137030809D01*
X125163806Y-137032298D01*
X124604498Y-137032298D01*
X124430301Y-137066948D01*
X124315436Y-137143698D01*
X124282623Y-137165623D01*
X124108446Y-137339800D01*
X120939970Y-137339800D01*
X120887598Y-137213050D01*
X120598472Y-136923419D01*
X120220519Y-136766479D01*
X119811277Y-136766122D01*
X119433050Y-136922402D01*
X119190200Y-137164829D01*
X119190200Y-135884831D01*
X119431528Y-136126581D01*
X119809481Y-136283521D01*
X120218723Y-136283878D01*
X120596950Y-136127598D01*
X120886581Y-135838472D01*
X120939844Y-135710200D01*
X123953946Y-135710200D01*
X125163288Y-136919542D01*
X125163288Y-136919542D01*
G37*
X125163288Y-136919542D02*
X125163191Y-137030809D01*
X125163806Y-137032298D01*
X124604498Y-137032298D01*
X124430301Y-137066948D01*
X124315436Y-137143698D01*
X124282623Y-137165623D01*
X124108446Y-137339800D01*
X120939970Y-137339800D01*
X120887598Y-137213050D01*
X120598472Y-136923419D01*
X120220519Y-136766479D01*
X119811277Y-136766122D01*
X119433050Y-136922402D01*
X119190200Y-137164829D01*
X119190200Y-135884831D01*
X119431528Y-136126581D01*
X119809481Y-136283521D01*
X120218723Y-136283878D01*
X120596950Y-136127598D01*
X120886581Y-135838472D01*
X120939844Y-135710200D01*
X123953946Y-135710200D01*
X125163288Y-136919542D01*
G36*
X124113012Y-111385758D02*
X124039987Y-111415931D01*
X123888391Y-111567262D01*
X123737946Y-111416554D01*
X123506404Y-111320410D01*
X123255695Y-111320191D01*
X123023987Y-111415931D01*
X122904196Y-111535512D01*
X122785446Y-111416554D01*
X122553904Y-111320410D01*
X122303195Y-111320191D01*
X122071487Y-111415931D01*
X121894054Y-111593054D01*
X121797910Y-111824596D01*
X121797691Y-112075305D01*
X121893431Y-112307013D01*
X121972800Y-112386521D01*
X121972800Y-115291421D01*
X121890893Y-115257410D01*
X121640184Y-115257191D01*
X121408476Y-115352931D01*
X121231043Y-115530054D01*
X121134899Y-115761596D01*
X121134680Y-116012305D01*
X121230420Y-116244013D01*
X121309789Y-116323521D01*
X121309789Y-116693454D01*
X121344439Y-116867652D01*
X121443114Y-117015329D01*
X129188732Y-124760947D01*
X129188732Y-130031947D01*
X129115467Y-129958554D01*
X128883925Y-129862410D01*
X128633216Y-129862191D01*
X128401508Y-129957931D01*
X128224075Y-130135054D01*
X128127931Y-130366596D01*
X128127817Y-130497295D01*
X128074696Y-130497249D01*
X128074809Y-130367695D01*
X127979069Y-130135987D01*
X127801946Y-129958554D01*
X127570404Y-129862410D01*
X127319695Y-129862191D01*
X127087987Y-129957931D01*
X126910554Y-130135054D01*
X126814410Y-130366596D01*
X126814294Y-130499335D01*
X126804696Y-130499327D01*
X126804811Y-130367695D01*
X126709071Y-130135987D01*
X126531948Y-129958554D01*
X126300406Y-129862410D01*
X126049697Y-129862191D01*
X125817989Y-129957931D01*
X125640556Y-130135054D01*
X125544412Y-130366596D01*
X125544193Y-130617305D01*
X125639933Y-130849013D01*
X125719302Y-130928521D01*
X125719302Y-132969002D01*
X125753952Y-133143200D01*
X125852627Y-133290877D01*
X127497300Y-134935550D01*
X127497300Y-135807050D01*
X125226376Y-133536126D01*
X125078699Y-133437451D01*
X124904501Y-133402801D01*
X122426051Y-133402801D01*
X122184699Y-133161449D01*
X122184699Y-130174999D01*
X122150049Y-130000802D01*
X122150049Y-130000801D01*
X122051374Y-129853124D01*
X120651447Y-128453197D01*
X120886581Y-128218472D01*
X121043521Y-127840519D01*
X121043878Y-127431277D01*
X120887598Y-127053050D01*
X120598472Y-126763419D01*
X120220519Y-126606479D01*
X119811277Y-126606122D01*
X119433050Y-126762402D01*
X119190200Y-127004829D01*
X119190200Y-123184831D01*
X119431528Y-123426581D01*
X119809481Y-123583521D01*
X120218723Y-123583878D01*
X120596950Y-123427598D01*
X120886581Y-123138472D01*
X121043521Y-122760519D01*
X121043878Y-122351277D01*
X120887598Y-121973050D01*
X120598472Y-121683419D01*
X120220519Y-121526479D01*
X119811277Y-121526122D01*
X119433050Y-121682402D01*
X119190200Y-121924829D01*
X119190200Y-120644831D01*
X119431528Y-120886581D01*
X119809481Y-121043521D01*
X120218723Y-121043878D01*
X120596950Y-120887598D01*
X120886581Y-120598472D01*
X121043521Y-120220519D01*
X121043878Y-119811277D01*
X120887598Y-119433050D01*
X120598472Y-119143419D01*
X120220519Y-118986479D01*
X119811277Y-118986122D01*
X119433050Y-119142402D01*
X119190200Y-119384829D01*
X119190200Y-118104831D01*
X119431528Y-118346581D01*
X119809481Y-118503521D01*
X120218723Y-118503878D01*
X120255202Y-118488805D01*
X121226191Y-118488805D01*
X121321931Y-118720513D01*
X121401300Y-118800021D01*
X121401300Y-121737946D01*
X121322554Y-121816554D01*
X121226410Y-122048096D01*
X121226191Y-122298805D01*
X121321931Y-122530513D01*
X121499054Y-122707946D01*
X121730596Y-122804090D01*
X121981305Y-122804309D01*
X122213013Y-122708569D01*
X122390446Y-122531446D01*
X122486590Y-122299904D01*
X122486809Y-122049195D01*
X122391069Y-121817487D01*
X122311700Y-121737979D01*
X122311700Y-118800054D01*
X122390446Y-118721446D01*
X122486590Y-118489904D01*
X122486809Y-118239195D01*
X122391069Y-118007487D01*
X122213946Y-117830054D01*
X121982404Y-117733910D01*
X121731695Y-117733691D01*
X121499987Y-117829431D01*
X121322554Y-118006554D01*
X121226410Y-118238096D01*
X121226191Y-118488805D01*
X120255202Y-118488805D01*
X120596950Y-118347598D01*
X120886581Y-118058472D01*
X121043521Y-117680519D01*
X121043878Y-117271277D01*
X120887598Y-116893050D01*
X120598472Y-116603419D01*
X120220519Y-116446479D01*
X119811277Y-116446122D01*
X119433050Y-116602402D01*
X119190200Y-116844829D01*
X119190200Y-115564831D01*
X119431528Y-115806581D01*
X119809481Y-115963521D01*
X120218723Y-115963878D01*
X120596950Y-115807598D01*
X120886581Y-115518472D01*
X121043521Y-115140519D01*
X121043878Y-114731277D01*
X120887598Y-114353050D01*
X120598472Y-114063419D01*
X120220519Y-113906479D01*
X119811277Y-113906122D01*
X119433050Y-114062402D01*
X119190200Y-114304829D01*
X119190200Y-113024831D01*
X119431528Y-113266581D01*
X119809481Y-113423521D01*
X120218723Y-113423878D01*
X120596950Y-113267598D01*
X120886581Y-112978472D01*
X121043521Y-112600519D01*
X121043878Y-112191277D01*
X120887598Y-111813050D01*
X120598472Y-111523419D01*
X120558925Y-111506997D01*
X121247722Y-110818200D01*
X123545454Y-110818200D01*
X124113012Y-111385758D01*
X124113012Y-111385758D01*
G37*
X124113012Y-111385758D02*
X124039987Y-111415931D01*
X123888391Y-111567262D01*
X123737946Y-111416554D01*
X123506404Y-111320410D01*
X123255695Y-111320191D01*
X123023987Y-111415931D01*
X122904196Y-111535512D01*
X122785446Y-111416554D01*
X122553904Y-111320410D01*
X122303195Y-111320191D01*
X122071487Y-111415931D01*
X121894054Y-111593054D01*
X121797910Y-111824596D01*
X121797691Y-112075305D01*
X121893431Y-112307013D01*
X121972800Y-112386521D01*
X121972800Y-115291421D01*
X121890893Y-115257410D01*
X121640184Y-115257191D01*
X121408476Y-115352931D01*
X121231043Y-115530054D01*
X121134899Y-115761596D01*
X121134680Y-116012305D01*
X121230420Y-116244013D01*
X121309789Y-116323521D01*
X121309789Y-116693454D01*
X121344439Y-116867652D01*
X121443114Y-117015329D01*
X129188732Y-124760947D01*
X129188732Y-130031947D01*
X129115467Y-129958554D01*
X128883925Y-129862410D01*
X128633216Y-129862191D01*
X128401508Y-129957931D01*
X128224075Y-130135054D01*
X128127931Y-130366596D01*
X128127817Y-130497295D01*
X128074696Y-130497249D01*
X128074809Y-130367695D01*
X127979069Y-130135987D01*
X127801946Y-129958554D01*
X127570404Y-129862410D01*
X127319695Y-129862191D01*
X127087987Y-129957931D01*
X126910554Y-130135054D01*
X126814410Y-130366596D01*
X126814294Y-130499335D01*
X126804696Y-130499327D01*
X126804811Y-130367695D01*
X126709071Y-130135987D01*
X126531948Y-129958554D01*
X126300406Y-129862410D01*
X126049697Y-129862191D01*
X125817989Y-129957931D01*
X125640556Y-130135054D01*
X125544412Y-130366596D01*
X125544193Y-130617305D01*
X125639933Y-130849013D01*
X125719302Y-130928521D01*
X125719302Y-132969002D01*
X125753952Y-133143200D01*
X125852627Y-133290877D01*
X127497300Y-134935550D01*
X127497300Y-135807050D01*
X125226376Y-133536126D01*
X125078699Y-133437451D01*
X124904501Y-133402801D01*
X122426051Y-133402801D01*
X122184699Y-133161449D01*
X122184699Y-130174999D01*
X122150049Y-130000802D01*
X122150049Y-130000801D01*
X122051374Y-129853124D01*
X120651447Y-128453197D01*
X120886581Y-128218472D01*
X121043521Y-127840519D01*
X121043878Y-127431277D01*
X120887598Y-127053050D01*
X120598472Y-126763419D01*
X120220519Y-126606479D01*
X119811277Y-126606122D01*
X119433050Y-126762402D01*
X119190200Y-127004829D01*
X119190200Y-123184831D01*
X119431528Y-123426581D01*
X119809481Y-123583521D01*
X120218723Y-123583878D01*
X120596950Y-123427598D01*
X120886581Y-123138472D01*
X121043521Y-122760519D01*
X121043878Y-122351277D01*
X120887598Y-121973050D01*
X120598472Y-121683419D01*
X120220519Y-121526479D01*
X119811277Y-121526122D01*
X119433050Y-121682402D01*
X119190200Y-121924829D01*
X119190200Y-120644831D01*
X119431528Y-120886581D01*
X119809481Y-121043521D01*
X120218723Y-121043878D01*
X120596950Y-120887598D01*
X120886581Y-120598472D01*
X121043521Y-120220519D01*
X121043878Y-119811277D01*
X120887598Y-119433050D01*
X120598472Y-119143419D01*
X120220519Y-118986479D01*
X119811277Y-118986122D01*
X119433050Y-119142402D01*
X119190200Y-119384829D01*
X119190200Y-118104831D01*
X119431528Y-118346581D01*
X119809481Y-118503521D01*
X120218723Y-118503878D01*
X120255202Y-118488805D01*
X121226191Y-118488805D01*
X121321931Y-118720513D01*
X121401300Y-118800021D01*
X121401300Y-121737946D01*
X121322554Y-121816554D01*
X121226410Y-122048096D01*
X121226191Y-122298805D01*
X121321931Y-122530513D01*
X121499054Y-122707946D01*
X121730596Y-122804090D01*
X121981305Y-122804309D01*
X122213013Y-122708569D01*
X122390446Y-122531446D01*
X122486590Y-122299904D01*
X122486809Y-122049195D01*
X122391069Y-121817487D01*
X122311700Y-121737979D01*
X122311700Y-118800054D01*
X122390446Y-118721446D01*
X122486590Y-118489904D01*
X122486809Y-118239195D01*
X122391069Y-118007487D01*
X122213946Y-117830054D01*
X121982404Y-117733910D01*
X121731695Y-117733691D01*
X121499987Y-117829431D01*
X121322554Y-118006554D01*
X121226410Y-118238096D01*
X121226191Y-118488805D01*
X120255202Y-118488805D01*
X120596950Y-118347598D01*
X120886581Y-118058472D01*
X121043521Y-117680519D01*
X121043878Y-117271277D01*
X120887598Y-116893050D01*
X120598472Y-116603419D01*
X120220519Y-116446479D01*
X119811277Y-116446122D01*
X119433050Y-116602402D01*
X119190200Y-116844829D01*
X119190200Y-115564831D01*
X119431528Y-115806581D01*
X119809481Y-115963521D01*
X120218723Y-115963878D01*
X120596950Y-115807598D01*
X120886581Y-115518472D01*
X121043521Y-115140519D01*
X121043878Y-114731277D01*
X120887598Y-114353050D01*
X120598472Y-114063419D01*
X120220519Y-113906479D01*
X119811277Y-113906122D01*
X119433050Y-114062402D01*
X119190200Y-114304829D01*
X119190200Y-113024831D01*
X119431528Y-113266581D01*
X119809481Y-113423521D01*
X120218723Y-113423878D01*
X120596950Y-113267598D01*
X120886581Y-112978472D01*
X121043521Y-112600519D01*
X121043878Y-112191277D01*
X120887598Y-111813050D01*
X120598472Y-111523419D01*
X120558925Y-111506997D01*
X121247722Y-110818200D01*
X123545454Y-110818200D01*
X124113012Y-111385758D01*
G36*
X132841725Y-130946886D02*
X132845977Y-130949727D01*
X134279072Y-132382822D01*
X134226479Y-132509481D01*
X134226122Y-132918723D01*
X134382402Y-133296950D01*
X134671528Y-133586581D01*
X135049481Y-133743521D01*
X135458723Y-133743878D01*
X135836950Y-133587598D01*
X136079800Y-133345171D01*
X136079800Y-134625169D01*
X135838472Y-134383419D01*
X135460519Y-134226479D01*
X135051277Y-134226122D01*
X134922911Y-134279161D01*
X134878376Y-134234626D01*
X134730699Y-134135951D01*
X134556501Y-134101301D01*
X134346429Y-134101301D01*
X132377288Y-132132160D01*
X132377288Y-130482449D01*
X132841725Y-130946886D01*
X132841725Y-130946886D01*
G37*
X132841725Y-130946886D02*
X132845977Y-130949727D01*
X134279072Y-132382822D01*
X134226479Y-132509481D01*
X134226122Y-132918723D01*
X134382402Y-133296950D01*
X134671528Y-133586581D01*
X135049481Y-133743521D01*
X135458723Y-133743878D01*
X135836950Y-133587598D01*
X136079800Y-133345171D01*
X136079800Y-134625169D01*
X135838472Y-134383419D01*
X135460519Y-134226479D01*
X135051277Y-134226122D01*
X134922911Y-134279161D01*
X134878376Y-134234626D01*
X134730699Y-134135951D01*
X134556501Y-134101301D01*
X134346429Y-134101301D01*
X132377288Y-132132160D01*
X132377288Y-130482449D01*
X132841725Y-130946886D01*
G36*
X134383419Y-99111528D02*
X134226479Y-99489481D01*
X134226122Y-99898723D01*
X134279161Y-100027089D01*
X133282125Y-101024125D01*
X133183450Y-101171802D01*
X133148800Y-101346000D01*
X133148800Y-108523450D01*
X132393125Y-109279125D01*
X132294450Y-109426802D01*
X132286748Y-109465524D01*
X132259800Y-109601000D01*
X132259800Y-116752363D01*
X130917822Y-118094341D01*
X130818388Y-118094254D01*
X130586680Y-118189994D01*
X130409247Y-118367117D01*
X130313103Y-118598659D01*
X130313036Y-118675570D01*
X130268719Y-118675531D01*
X130037011Y-118771271D01*
X129859578Y-118948394D01*
X129763434Y-119179936D01*
X129763215Y-119430645D01*
X129858955Y-119662353D01*
X130036078Y-119839786D01*
X130267620Y-119935930D01*
X130518329Y-119936149D01*
X130750037Y-119840409D01*
X130755255Y-119835200D01*
X131194184Y-119835200D01*
X131368382Y-119800550D01*
X131516059Y-119701875D01*
X131890087Y-119327847D01*
X131971634Y-119205803D01*
X131988762Y-119180169D01*
X132023412Y-119005972D01*
X132023412Y-118912661D01*
X133486886Y-117449188D01*
X133585561Y-117301511D01*
X133620211Y-117127313D01*
X133620211Y-112560499D01*
X133668596Y-112580590D01*
X133919305Y-112580809D01*
X134151013Y-112485069D01*
X134226287Y-112409927D01*
X134226122Y-112598723D01*
X134382402Y-112976950D01*
X134671528Y-113266581D01*
X135049481Y-113423521D01*
X135458723Y-113423878D01*
X135836950Y-113267598D01*
X136079800Y-113025171D01*
X136079800Y-114305169D01*
X135838472Y-114063419D01*
X135460519Y-113906479D01*
X135051277Y-113906122D01*
X134673050Y-114062402D01*
X134383419Y-114351528D01*
X134226479Y-114729481D01*
X134226122Y-115138723D01*
X134382402Y-115516950D01*
X134671528Y-115806581D01*
X135049481Y-115963521D01*
X135458723Y-115963878D01*
X135836950Y-115807598D01*
X136079800Y-115565171D01*
X136079800Y-116845169D01*
X135838472Y-116603419D01*
X135460519Y-116446479D01*
X135051277Y-116446122D01*
X134673050Y-116602402D01*
X134383419Y-116891528D01*
X134226479Y-117269481D01*
X134226122Y-117678723D01*
X134382402Y-118056950D01*
X134671528Y-118346581D01*
X135049481Y-118503521D01*
X135458723Y-118503878D01*
X135836950Y-118347598D01*
X136079800Y-118105171D01*
X136079800Y-119385169D01*
X135838472Y-119143419D01*
X135460519Y-118986479D01*
X135051277Y-118986122D01*
X134673050Y-119142402D01*
X134383419Y-119431528D01*
X134226479Y-119809481D01*
X134226122Y-120218723D01*
X134382402Y-120596950D01*
X134671528Y-120886581D01*
X135049481Y-121043521D01*
X135458723Y-121043878D01*
X135836950Y-120887598D01*
X136079800Y-120645171D01*
X136079800Y-121925169D01*
X135838472Y-121683419D01*
X135460519Y-121526479D01*
X135051277Y-121526122D01*
X134673050Y-121682402D01*
X134383419Y-121971528D01*
X134226479Y-122349481D01*
X134226122Y-122758723D01*
X134382402Y-123136950D01*
X134671528Y-123426581D01*
X135049481Y-123583521D01*
X135458723Y-123583878D01*
X135836950Y-123427598D01*
X136079800Y-123185171D01*
X136079800Y-127005169D01*
X135838472Y-126763419D01*
X135460519Y-126606479D01*
X135051277Y-126606122D01*
X134673050Y-126762402D01*
X134383419Y-127051528D01*
X134226479Y-127429481D01*
X134226122Y-127838723D01*
X134382402Y-128216950D01*
X134671528Y-128506581D01*
X135049481Y-128663521D01*
X135458723Y-128663878D01*
X135836950Y-128507598D01*
X136079800Y-128265171D01*
X136079800Y-129545169D01*
X135838472Y-129303419D01*
X135460519Y-129146479D01*
X135051277Y-129146122D01*
X134673050Y-129302402D01*
X134383419Y-129591528D01*
X134330156Y-129719800D01*
X133538550Y-129719800D01*
X132799198Y-128980448D01*
X132799198Y-123453998D01*
X132764548Y-123279801D01*
X132665873Y-123132123D01*
X126121700Y-116587950D01*
X126121700Y-116323554D01*
X126200446Y-116244946D01*
X126290533Y-116027990D01*
X126381952Y-116249240D01*
X126559075Y-116426673D01*
X126790617Y-116522817D01*
X127041326Y-116523036D01*
X127273034Y-116427296D01*
X127341834Y-116358616D01*
X127404554Y-116421446D01*
X127636096Y-116517590D01*
X127886805Y-116517809D01*
X128118513Y-116422069D01*
X128167589Y-116373079D01*
X128223027Y-116428614D01*
X128454569Y-116524758D01*
X128705278Y-116524977D01*
X128932033Y-116431283D01*
X129925788Y-117425038D01*
X129925691Y-117536305D01*
X130021431Y-117768013D01*
X130198554Y-117945446D01*
X130430096Y-118041590D01*
X130680805Y-118041809D01*
X130912513Y-117946069D01*
X131089946Y-117768946D01*
X131186090Y-117537404D01*
X131186309Y-117286695D01*
X131090569Y-117054987D01*
X130913446Y-116877554D01*
X130681904Y-116781410D01*
X130569562Y-116781312D01*
X129660675Y-115872425D01*
X129660675Y-113901975D01*
X129626025Y-113727778D01*
X129527350Y-113580100D01*
X124527875Y-108580625D01*
X124380198Y-108481950D01*
X124206000Y-108447300D01*
X122310843Y-108447300D01*
X122359590Y-108329904D01*
X122359809Y-108079195D01*
X122264069Y-107847487D01*
X122184700Y-107767979D01*
X122184700Y-107518723D01*
X124066106Y-107518723D01*
X124222386Y-107896950D01*
X124511512Y-108186581D01*
X124889465Y-108343521D01*
X125298707Y-108343878D01*
X125427073Y-108290839D01*
X126741609Y-109605375D01*
X126889287Y-109704050D01*
X127063484Y-109738700D01*
X127446450Y-109738700D01*
X128719288Y-111011538D01*
X128719191Y-111122805D01*
X128814931Y-111354513D01*
X128992054Y-111531946D01*
X129223596Y-111628090D01*
X129474305Y-111628309D01*
X129706013Y-111532569D01*
X129883446Y-111355446D01*
X129979590Y-111123904D01*
X129979809Y-110873195D01*
X129884069Y-110641487D01*
X129706946Y-110464054D01*
X129475404Y-110367910D01*
X129363062Y-110367812D01*
X127956875Y-108961625D01*
X127809198Y-108862950D01*
X127635000Y-108828300D01*
X127252034Y-108828300D01*
X126070912Y-107647178D01*
X126123505Y-107520519D01*
X126123506Y-107518723D01*
X126606106Y-107518723D01*
X126762386Y-107896950D01*
X127051512Y-108186581D01*
X127429465Y-108343521D01*
X127838707Y-108343878D01*
X128216934Y-108187598D01*
X128506565Y-107898472D01*
X128663505Y-107520519D01*
X128663506Y-107518723D01*
X129146106Y-107518723D01*
X129302386Y-107896950D01*
X129591512Y-108186581D01*
X129969465Y-108343521D01*
X130378707Y-108343878D01*
X130756934Y-108187598D01*
X131046565Y-107898472D01*
X131203505Y-107520519D01*
X131203862Y-107111277D01*
X131047582Y-106733050D01*
X130758456Y-106443419D01*
X130380503Y-106286479D01*
X129971261Y-106286122D01*
X129593034Y-106442402D01*
X129303403Y-106731528D01*
X129146463Y-107109481D01*
X129146106Y-107518723D01*
X128663506Y-107518723D01*
X128663862Y-107111277D01*
X128507582Y-106733050D01*
X128218456Y-106443419D01*
X127840503Y-106286479D01*
X127431261Y-106286122D01*
X127053034Y-106442402D01*
X126763403Y-106731528D01*
X126606463Y-107109481D01*
X126606106Y-107518723D01*
X126123506Y-107518723D01*
X126123862Y-107111277D01*
X125967582Y-106733050D01*
X125678456Y-106443419D01*
X125300503Y-106286479D01*
X124891261Y-106286122D01*
X124513034Y-106442402D01*
X124223403Y-106731528D01*
X124066463Y-107109481D01*
X124066106Y-107518723D01*
X122184700Y-107518723D01*
X122184700Y-106489500D01*
X122150050Y-106315303D01*
X122150050Y-106315302D01*
X122051375Y-106167625D01*
X121549700Y-105665950D01*
X121549700Y-103314500D01*
X121515050Y-103140303D01*
X121515050Y-103140302D01*
X121416375Y-102992625D01*
X120990928Y-102567178D01*
X121043521Y-102440519D01*
X121043878Y-102031277D01*
X120887598Y-101653050D01*
X120598472Y-101363419D01*
X120220519Y-101206479D01*
X119811277Y-101206122D01*
X119433050Y-101362402D01*
X119190200Y-101604829D01*
X119190200Y-100704592D01*
X119316500Y-100730169D01*
X120713500Y-100730169D01*
X120835865Y-100707144D01*
X120948249Y-100634827D01*
X121023644Y-100524483D01*
X121050169Y-100393500D01*
X121050169Y-98996500D01*
X121027144Y-98874135D01*
X120998873Y-98830200D01*
X134665238Y-98830200D01*
X134383419Y-99111528D01*
X134383419Y-99111528D01*
G37*
X134383419Y-99111528D02*
X134226479Y-99489481D01*
X134226122Y-99898723D01*
X134279161Y-100027089D01*
X133282125Y-101024125D01*
X133183450Y-101171802D01*
X133148800Y-101346000D01*
X133148800Y-108523450D01*
X132393125Y-109279125D01*
X132294450Y-109426802D01*
X132286748Y-109465524D01*
X132259800Y-109601000D01*
X132259800Y-116752363D01*
X130917822Y-118094341D01*
X130818388Y-118094254D01*
X130586680Y-118189994D01*
X130409247Y-118367117D01*
X130313103Y-118598659D01*
X130313036Y-118675570D01*
X130268719Y-118675531D01*
X130037011Y-118771271D01*
X129859578Y-118948394D01*
X129763434Y-119179936D01*
X129763215Y-119430645D01*
X129858955Y-119662353D01*
X130036078Y-119839786D01*
X130267620Y-119935930D01*
X130518329Y-119936149D01*
X130750037Y-119840409D01*
X130755255Y-119835200D01*
X131194184Y-119835200D01*
X131368382Y-119800550D01*
X131516059Y-119701875D01*
X131890087Y-119327847D01*
X131971634Y-119205803D01*
X131988762Y-119180169D01*
X132023412Y-119005972D01*
X132023412Y-118912661D01*
X133486886Y-117449188D01*
X133585561Y-117301511D01*
X133620211Y-117127313D01*
X133620211Y-112560499D01*
X133668596Y-112580590D01*
X133919305Y-112580809D01*
X134151013Y-112485069D01*
X134226287Y-112409927D01*
X134226122Y-112598723D01*
X134382402Y-112976950D01*
X134671528Y-113266581D01*
X135049481Y-113423521D01*
X135458723Y-113423878D01*
X135836950Y-113267598D01*
X136079800Y-113025171D01*
X136079800Y-114305169D01*
X135838472Y-114063419D01*
X135460519Y-113906479D01*
X135051277Y-113906122D01*
X134673050Y-114062402D01*
X134383419Y-114351528D01*
X134226479Y-114729481D01*
X134226122Y-115138723D01*
X134382402Y-115516950D01*
X134671528Y-115806581D01*
X135049481Y-115963521D01*
X135458723Y-115963878D01*
X135836950Y-115807598D01*
X136079800Y-115565171D01*
X136079800Y-116845169D01*
X135838472Y-116603419D01*
X135460519Y-116446479D01*
X135051277Y-116446122D01*
X134673050Y-116602402D01*
X134383419Y-116891528D01*
X134226479Y-117269481D01*
X134226122Y-117678723D01*
X134382402Y-118056950D01*
X134671528Y-118346581D01*
X135049481Y-118503521D01*
X135458723Y-118503878D01*
X135836950Y-118347598D01*
X136079800Y-118105171D01*
X136079800Y-119385169D01*
X135838472Y-119143419D01*
X135460519Y-118986479D01*
X135051277Y-118986122D01*
X134673050Y-119142402D01*
X134383419Y-119431528D01*
X134226479Y-119809481D01*
X134226122Y-120218723D01*
X134382402Y-120596950D01*
X134671528Y-120886581D01*
X135049481Y-121043521D01*
X135458723Y-121043878D01*
X135836950Y-120887598D01*
X136079800Y-120645171D01*
X136079800Y-121925169D01*
X135838472Y-121683419D01*
X135460519Y-121526479D01*
X135051277Y-121526122D01*
X134673050Y-121682402D01*
X134383419Y-121971528D01*
X134226479Y-122349481D01*
X134226122Y-122758723D01*
X134382402Y-123136950D01*
X134671528Y-123426581D01*
X135049481Y-123583521D01*
X135458723Y-123583878D01*
X135836950Y-123427598D01*
X136079800Y-123185171D01*
X136079800Y-127005169D01*
X135838472Y-126763419D01*
X135460519Y-126606479D01*
X135051277Y-126606122D01*
X134673050Y-126762402D01*
X134383419Y-127051528D01*
X134226479Y-127429481D01*
X134226122Y-127838723D01*
X134382402Y-128216950D01*
X134671528Y-128506581D01*
X135049481Y-128663521D01*
X135458723Y-128663878D01*
X135836950Y-128507598D01*
X136079800Y-128265171D01*
X136079800Y-129545169D01*
X135838472Y-129303419D01*
X135460519Y-129146479D01*
X135051277Y-129146122D01*
X134673050Y-129302402D01*
X134383419Y-129591528D01*
X134330156Y-129719800D01*
X133538550Y-129719800D01*
X132799198Y-128980448D01*
X132799198Y-123453998D01*
X132764548Y-123279801D01*
X132665873Y-123132123D01*
X126121700Y-116587950D01*
X126121700Y-116323554D01*
X126200446Y-116244946D01*
X126290533Y-116027990D01*
X126381952Y-116249240D01*
X126559075Y-116426673D01*
X126790617Y-116522817D01*
X127041326Y-116523036D01*
X127273034Y-116427296D01*
X127341834Y-116358616D01*
X127404554Y-116421446D01*
X127636096Y-116517590D01*
X127886805Y-116517809D01*
X128118513Y-116422069D01*
X128167589Y-116373079D01*
X128223027Y-116428614D01*
X128454569Y-116524758D01*
X128705278Y-116524977D01*
X128932033Y-116431283D01*
X129925788Y-117425038D01*
X129925691Y-117536305D01*
X130021431Y-117768013D01*
X130198554Y-117945446D01*
X130430096Y-118041590D01*
X130680805Y-118041809D01*
X130912513Y-117946069D01*
X131089946Y-117768946D01*
X131186090Y-117537404D01*
X131186309Y-117286695D01*
X131090569Y-117054987D01*
X130913446Y-116877554D01*
X130681904Y-116781410D01*
X130569562Y-116781312D01*
X129660675Y-115872425D01*
X129660675Y-113901975D01*
X129626025Y-113727778D01*
X129527350Y-113580100D01*
X124527875Y-108580625D01*
X124380198Y-108481950D01*
X124206000Y-108447300D01*
X122310843Y-108447300D01*
X122359590Y-108329904D01*
X122359809Y-108079195D01*
X122264069Y-107847487D01*
X122184700Y-107767979D01*
X122184700Y-107518723D01*
X124066106Y-107518723D01*
X124222386Y-107896950D01*
X124511512Y-108186581D01*
X124889465Y-108343521D01*
X125298707Y-108343878D01*
X125427073Y-108290839D01*
X126741609Y-109605375D01*
X126889287Y-109704050D01*
X127063484Y-109738700D01*
X127446450Y-109738700D01*
X128719288Y-111011538D01*
X128719191Y-111122805D01*
X128814931Y-111354513D01*
X128992054Y-111531946D01*
X129223596Y-111628090D01*
X129474305Y-111628309D01*
X129706013Y-111532569D01*
X129883446Y-111355446D01*
X129979590Y-111123904D01*
X129979809Y-110873195D01*
X129884069Y-110641487D01*
X129706946Y-110464054D01*
X129475404Y-110367910D01*
X129363062Y-110367812D01*
X127956875Y-108961625D01*
X127809198Y-108862950D01*
X127635000Y-108828300D01*
X127252034Y-108828300D01*
X126070912Y-107647178D01*
X126123505Y-107520519D01*
X126123506Y-107518723D01*
X126606106Y-107518723D01*
X126762386Y-107896950D01*
X127051512Y-108186581D01*
X127429465Y-108343521D01*
X127838707Y-108343878D01*
X128216934Y-108187598D01*
X128506565Y-107898472D01*
X128663505Y-107520519D01*
X128663506Y-107518723D01*
X129146106Y-107518723D01*
X129302386Y-107896950D01*
X129591512Y-108186581D01*
X129969465Y-108343521D01*
X130378707Y-108343878D01*
X130756934Y-108187598D01*
X131046565Y-107898472D01*
X131203505Y-107520519D01*
X131203862Y-107111277D01*
X131047582Y-106733050D01*
X130758456Y-106443419D01*
X130380503Y-106286479D01*
X129971261Y-106286122D01*
X129593034Y-106442402D01*
X129303403Y-106731528D01*
X129146463Y-107109481D01*
X129146106Y-107518723D01*
X128663506Y-107518723D01*
X128663862Y-107111277D01*
X128507582Y-106733050D01*
X128218456Y-106443419D01*
X127840503Y-106286479D01*
X127431261Y-106286122D01*
X127053034Y-106442402D01*
X126763403Y-106731528D01*
X126606463Y-107109481D01*
X126606106Y-107518723D01*
X126123506Y-107518723D01*
X126123862Y-107111277D01*
X125967582Y-106733050D01*
X125678456Y-106443419D01*
X125300503Y-106286479D01*
X124891261Y-106286122D01*
X124513034Y-106442402D01*
X124223403Y-106731528D01*
X124066463Y-107109481D01*
X124066106Y-107518723D01*
X122184700Y-107518723D01*
X122184700Y-106489500D01*
X122150050Y-106315303D01*
X122150050Y-106315302D01*
X122051375Y-106167625D01*
X121549700Y-105665950D01*
X121549700Y-103314500D01*
X121515050Y-103140303D01*
X121515050Y-103140302D01*
X121416375Y-102992625D01*
X120990928Y-102567178D01*
X121043521Y-102440519D01*
X121043878Y-102031277D01*
X120887598Y-101653050D01*
X120598472Y-101363419D01*
X120220519Y-101206479D01*
X119811277Y-101206122D01*
X119433050Y-101362402D01*
X119190200Y-101604829D01*
X119190200Y-100704592D01*
X119316500Y-100730169D01*
X120713500Y-100730169D01*
X120835865Y-100707144D01*
X120948249Y-100634827D01*
X121023644Y-100524483D01*
X121050169Y-100393500D01*
X121050169Y-98996500D01*
X121027144Y-98874135D01*
X120998873Y-98830200D01*
X134665238Y-98830200D01*
X134383419Y-99111528D01*
M02*
