M48
;DRILL file {Pcbnew (2013-07-07 BZR 4022)-stable} date 09/03/2016 16:10:24
;FORMAT={-:-/ absolute / inch / decimal}
FMAT,2
INCH,TZ
T1C0.020
T2C0.026
T3C0.032
T4C0.039
T5C0.040
%
G90
G05
M72
T1
X0.1975Y-0.8225
X0.1975Y-3.3875
X0.2025Y-2.255
X0.2025Y-2.295
X0.2025Y-2.335
X0.2575Y-2.0025
X0.2575Y-2.81
X0.265Y-0.85
X0.265Y-3.36
X0.2775Y-0.9775
X0.2775Y-2.08
X0.2775Y-2.1175
X0.29Y-1.9825
X0.305Y-3.2275
X0.3325Y-0.6875
X0.3325Y-0.8225
X0.3325Y-2.05
X0.3325Y-2.09
X0.3325Y-2.13
X0.3325Y-2.255
X0.3325Y-2.295
X0.3325Y-2.335
X0.3325Y-3.3875
X0.3325Y-3.5225
X0.3463Y-1.3062
X0.3475Y-1.125
X0.3475Y-1.165
X0.3575Y-1.4725
X0.36Y-0.755
X0.36Y-3.455
X0.3625Y-1.0425
X0.37Y-1.2025
X0.37Y-1.245
X0.3825Y-2.3625
X0.3862Y-2.9787
X0.395Y-2.9275
X0.415Y-1.74
X0.415Y-2.0375
X0.415Y-2.42
X0.415Y-2.46
X0.4395Y-3.1265
X0.4435Y-2.985
X0.45Y-3.185
X0.45Y-3.305
X0.4575Y-1.1175
X0.4575Y-1.1575
X0.4575Y-2.775
X0.465Y-1.6
X0.4675Y-2.1875
X0.4675Y-2.2275
X0.4675Y-2.2675
X0.475Y-1.2
X0.475Y-1.235
X0.475Y-1.27
X0.495Y-2.295
X0.495Y-2.42
X0.495Y-2.46
X0.515Y-0.96
X0.5175Y-2.66
X0.5225Y-0.805
X0.555Y-2.66
X0.5595Y-3.0685
X0.56Y-1.6125
X0.565Y-1.0975
X0.5825Y-3.3825
X0.587Y-3.194
X0.59Y-3.2775
X0.6125Y-3.3525
X0.62Y-3.1625
X0.62Y-3.208
X0.6375Y-2.6225
X0.6425Y-2.0725
X0.645Y-3.3825
X0.655Y-0.88
X0.6625Y-1.6125
X0.6675Y-1.0275
X0.6675Y-1.0975
X0.6875Y-2.0275
X0.6925Y-2.6625
X0.6975Y-3.2675
X0.7075Y-3.13
X0.7125Y-3.34
X0.7125Y-3.4925
X0.7225Y-0.965
X0.7225Y-3.0675
X0.73Y-0.88
X0.7375Y-2.605
X0.738Y-3.198
X0.745Y-2.85
X0.745Y-3.34
X0.745Y-3.4925
X0.75Y-3.09
X0.7625Y-1.6125
X0.7625Y-3.03
X0.765Y-1.0975
X0.78Y-3.195
X0.7825Y-3.0025
X0.7825Y-3.24
X0.785Y-2.8075
X0.7925Y-1.83
X0.81Y-2.9275
X0.82Y-3.3825
X0.8275Y-2.845
X0.83Y-3.465
X0.8325Y-3.0025
X0.8375Y-2.9
X0.845Y-3.23
X0.845Y-3.2875
X0.8525Y-3.14
X0.8525Y-3.1725
X0.86Y-2.955
X0.8625Y-1.6125
X0.8675Y-1.0975
X0.8675Y-3.2575
X0.89Y-3.285
X0.8925Y-1.83
X0.9Y-3.32
X0.915Y-3.365
X0.9175Y-0.8075
X0.965Y-1.6125
X0.9675Y-1.0975
X0.99Y-1.83
X1.04Y-3.3075
X1.0425Y-2.8475
X1.05Y-0.765
X1.05Y-0.875
X1.0525Y-0.965
X1.055Y-3.5225
X1.0575Y-3.2275
X1.065Y-1.6125
X1.0675Y-1.125
X1.0725Y-2.8175
X1.0975Y-2.79
X1.0975Y-3.5225
X1.105Y-3.105
X1.11Y-3.0375
X1.115Y-0.875
X1.1225Y-2.765
X1.125Y-3.4075
X1.144Y-3.388
X1.15Y-2.7425
X1.165Y-1.6125
X1.168Y-3.434
X1.2Y-0.8475
X1.2125Y-3.045
X1.225Y-3.13
X1.2325Y-3.2725
X1.24Y-2.675
X1.24Y-3.33
X1.24Y-3.3725
X1.2425Y-3.4125
X1.265Y-1.6125
X1.265Y-2.84
X1.275Y-1.0125
X1.2825Y-3.42
X1.2975Y-3.2825
X1.3125Y-3.05
X1.355Y-3.24
X1.3625Y-0.795
X1.365Y-1.6125
X1.3675Y-2.235
X1.395Y-2.2625
X1.42Y-3.5125
X1.4225Y-2.29
X1.4425Y-2.905
X1.445Y-2.87
X1.4675Y-1.6125
X1.4725Y-2.9775
X1.485Y-3.095
X1.4875Y-3.4075
X1.5025Y-3.375
X1.5225Y-3.305
X1.54Y-3.2275
X1.545Y-3.4075
X1.5625Y-0.9725
X1.565Y-1.6125
X1.5725Y-2.235
X1.5825Y-3.12
X1.5825Y-3.355
X1.6Y-2.2625
X1.6275Y-2.29
X1.64Y-3.1375
X1.6475Y-3.055
X1.65Y-2.83
X1.665Y-1.6125
X1.665Y-2.505
X1.665Y-2.575
X1.7125Y-0.79
X1.74Y-3.2225
X1.755Y-3.42
X1.76Y-3.2675
X1.7625Y-2.8925
X1.765Y-1.6125
X1.7725Y-3.0425
X1.7775Y-2.835
X1.79Y-2.915
X1.7925Y-3.1525
X1.84Y-2.9775
X1.855Y-3.0375
X1.865Y-1.6125
X1.8725Y-2.895
X1.875Y-0.8475
X1.875Y-3.345
X1.88Y-3.4075
X1.885Y-2.8375
X1.9025Y-3.465
X1.9075Y-3.265
X1.9225Y-3.4075
X1.9325Y-3.1525
X1.945Y-2.9375
X1.9625Y-2.99
X1.965Y-1.6125
X1.975Y-3.1425
X1.9775Y-3.0525
X1.98Y-2.835
X1.9825Y-3.31
X1.9825Y-3.3775
X2.0025Y-2.955
X2.0175Y-0.8025
X2.0225Y-3.18
X2.0825Y-3.1825
X2.0875Y-3.2225
X2.09Y-2.9225
X2.0925Y-2.3725
X2.11Y-2.8625
X2.11Y-3.4075
X2.115Y-3.2508
X2.1175Y-2.8025
X2.1175Y-3.0075
X2.12Y-3.0975
X2.1225Y-3.35
X2.1375Y-2.3375
X2.145Y-2.86
X2.1525Y-3.0775
X2.16Y-3.2525
X2.1725Y-2.84
X2.195Y-3.2925
X2.1975Y-3.425
X2.22Y-3.395
X2.2225Y-2.84
X2.2375Y-3.14
X2.2425Y-3.245
X2.2675Y-2.505
X2.2725Y-2.795
X2.2725Y-2.87
X2.2725Y-3.3225
X2.2775Y-3.5125
X2.2875Y-3.3525
X2.295Y-3.0125
X2.3025Y-2.3275
X2.315Y-2.45
X2.32Y-2.9875
X2.325Y-2.86
X2.325Y-3.26
X2.335Y-3.1075
X2.345Y-2.5075
X2.3475Y-2.96
X2.35Y-3.2825
X2.35Y-3.4675
X2.365Y-2.2075
X2.37Y-3.1175
X2.375Y-2.9325
X2.38Y-1.01
X2.3825Y-2.5075
X2.385Y-3.24
X2.39Y-3.0275
X2.3925Y-2.235
X2.3975Y-2.905
X2.4025Y-0.8025
X2.4025Y-2.6725
X2.42Y-2.2625
X2.425Y-2.8125
X2.4275Y-2.62
X2.4275Y-3.065
X2.4325Y-2.905
X2.435Y-3.2825
X2.4375Y-1.615
X2.4475Y-2.29
X2.46Y-3.165
X2.46Y-3.199
X2.4625Y-2.52
X2.4625Y-2.5625
X2.467Y-2.739
X2.4675Y-1.6675
X2.4725Y-2.4125
X2.4775Y-3.25
X2.495Y-3.5125
X2.5025Y-2.625
X2.5025Y-2.6775
X2.5025Y-2.7375
X2.5175Y-3.2
X2.5275Y-2.415
X2.5425Y-2.6125
X2.5425Y-3.11
X2.545Y-1.675
X2.555Y-3.055
X2.5575Y-2.7875
X2.5625Y-2.6675
X2.5675Y-2.82
X2.575Y-3.2425
X2.5775Y-2.9475
X2.58Y-2.855
X2.59Y-3.055
X2.5975Y-2.07
X2.603Y-3.339
X2.615Y-2.655
X2.6425Y-3.3375
X2.645Y-2.585
X2.645Y-2.725
X2.665Y-2.33
X2.67Y-0.755
X2.69Y-3.095
X2.69Y-3.3375
X2.6925Y-1.2375
X2.6925Y-3.2025
X2.6975Y-0.6875
X2.6975Y-0.8225
X2.6975Y-2.33
X2.705Y-1.125
X2.715Y-2.555
X2.715Y-2.755
X2.7175Y-3.1475
X2.719Y-2.875
X2.7275Y-2.9725
X2.7325Y-3.2525
X2.7375Y-1.7275
X2.7516Y-2.5231
X2.7675Y-2.1925
X2.771Y-3.225
X2.775Y-3.2975
X2.7775Y-2.9325
X2.779Y-1.587
X2.785Y-2.585
X2.785Y-2.725
X2.804Y-2.502
X2.805Y-3.005
X2.8075Y-3.31
X2.8075Y-3.3525
X2.811Y-2.903
X2.812Y-3.192
X2.815Y-2.655
X2.8325Y-0.6875
X2.8325Y-3.0975
X2.8375Y-2.51
X2.8375Y-2.8075
X2.85Y-2.8525
X2.855Y-2.76
X2.8675Y-2.6
X2.87Y-2.96
X2.87Y-3.0325
X2.8775Y-2.8125
X2.885Y-3.2225
X2.9Y-2.9025
X2.9125Y-2.3675
X2.92Y-2.3325
X2.9225Y-1.3825
X2.9225Y-1.56
X2.9275Y-2.9725
X2.93Y-3.175
X2.937Y-3.035
X2.937Y-3.089
X2.9375Y-1.6675
X2.9375Y-1.9425
X2.9425Y-1.09
X2.945Y-3.251
X2.95Y-1.7425
X2.95Y-1.7825
X2.95Y-2.75
X2.9575Y-1.55
X2.959Y-3.149
X2.97Y-1.44
X2.975Y-2.475
X2.98Y-2.05
X2.9975Y-1.35
X2.9975Y-1.475
X2.9975Y-1.625
X2.9975Y-1.75
X3.035Y-2.915
X3.0375Y-2.75
X3.045Y-1.585
X3.05Y-2.46
X3.055Y-2.03
X3.055Y-2.0675
X3.055Y-2.825
X3.07Y-1.7825
X3.075Y-1.2225
X3.0775Y-2.2275
X3.0775Y-3.155
X3.0825Y-2.1275
X3.09Y-2.161
X3.095Y-3.2325
X3.1Y-2.195
X3.105Y-2.9225
X3.11Y-2.73
X3.11Y-3.3425
X3.115Y-1.8475
X3.12Y-1.44
X3.12Y-1.7175
X3.12Y-2.9575
X3.13Y-1.945
X3.1375Y-2.7875
X3.1375Y-2.8475
X3.155Y-2.1675
X3.1675Y-2.74
X3.17Y-2.6625
X3.17Y-2.835
X3.175Y-3.3175
X3.1825Y-1.3425
X3.1925Y-2.765
X3.2Y-1.2225
X3.215Y-3.1175
X3.215Y-3.2975
X3.22Y-2.975
X3.2275Y-2.0925
X3.23Y-1.7825
X3.23Y-2.055
X3.23Y-2.2325
X3.24Y-1.4075
X3.2425Y-1.6725
X3.2425Y-2.195
X3.245Y-1.165
X3.25Y-2.47
X3.255Y-1.3025
X3.2625Y-2.7925
X3.265Y-2.545
X3.27Y-2.4075
X3.2775Y-1.5125
X3.2775Y-3.07
X3.2825Y-2.2225
X3.2825Y-3.105
X3.2925Y-3.2425
X3.295Y-0.895
X3.305Y-1.5575
X3.305Y-1.8375
X3.305Y-2.465
X3.305Y-2.9375
X3.3225Y-1.7525
X3.325Y-1.2225
X3.3275Y-2.2425
X3.3325Y-1.9025
X3.3325Y-2.1
X3.3325Y-2.395
X3.335Y-3.065
X3.3425Y-2.9975
X3.3525Y-2.9025
X3.355Y-2.1675
X3.355Y-2.195
X3.355Y-3.3425
X3.3675Y-1.9025
X3.375Y-1.585
X3.375Y-3.37
X3.38Y-2.45
X3.3875Y-2.7925
X3.4025Y-1.9025
X3.4025Y-3.045
X3.405Y-3.215
X3.4125Y-2.9175
X3.4125Y-3.3675
X3.4225Y-1.795
X3.4225Y-1.8375
X3.4325Y-2.0175
X3.4375Y-1.27
X3.44Y-1.31
X3.4425Y-3.0175
X3.445Y-1.365
X3.445Y-1.415
X3.45Y-1.2225
X3.4525Y-2.9175
X3.46Y-2.1675
X3.46Y-2.195
X3.4625Y-3.14
X3.465Y-1.87
X3.47Y-3.235
X3.4775Y-1.7525
X3.4825Y-1.965
X3.49Y-1.0225
X3.49Y-2.9
X3.4975Y-1.81
X3.4975Y-2.2325
X3.5075Y-1.365
X3.51Y-2.5275
X3.51Y-2.99
X3.51Y-3.235
X3.5175Y-2.16
X3.5275Y-2.765
X3.5325Y-2.08
X3.5325Y-2.12
X3.545Y-2.02
X3.5611Y-3.1536
X3.565Y-1.94
X3.565Y-2.4025
X3.5675Y-1.7975
X3.575Y-1.2225
X3.575Y-2.83
X3.5825Y-2.7575
X3.5925Y-1.165
X3.6Y-2.0225
X3.6175Y-0.9575
X3.62Y-2.2325
X3.62Y-2.3975
X3.62Y-2.895
X3.625Y-1.8375
X3.625Y-3.24
X3.6275Y-1.54
X3.6275Y-1.7525
X3.6325Y-1.195
X3.6375Y-1.93
X3.6475Y-1.31
X3.65Y-1.415
X3.6525Y-2.03
X3.655Y-0.919
X3.66Y-2.995
X3.6625Y-1.9025
X3.6625Y-3.145
X3.68Y-2.1675
X3.685Y-2.44
X3.687Y-1.365
X3.6925Y-2.055
X3.695Y-0.92
X3.695Y-1.62
X3.7Y-1.2225
X3.7Y-2.9725
X3.7Y-3.0675
X3.7Y-3.105
X3.72Y-3.04
X3.7275Y-0.8575
X3.735Y-2.195
X3.7475Y-0.83
X3.76Y-2.1675
X3.765Y-2.095
X3.77Y-1.3075
X3.77Y-1.425
X3.77Y-1.81
X3.785Y-1.9025
X3.8Y-2.095
X3.8Y-2.195
X3.81Y-3.005
X3.8175Y-1.915
X3.825Y-1.2225
X3.835Y-1.8375
X3.835Y-2.095
X3.8475Y-1.675
X3.8475Y-1.7825
X3.8525Y-1.475
X3.8525Y-3.0125
X3.855Y-2.0025
X3.8575Y-2.8975
X3.8625Y-1.3075
X3.8625Y-1.425
X3.8625Y-1.6
X3.8625Y-2.4775
X3.8725Y-2.115
X3.8875Y-1.71
X3.91Y-2.95
X3.915Y-2.15
X3.92Y-1.2225
X3.9225Y-1.71
X3.935Y-2.465
X3.95Y-1.3075
X3.95Y-1.425
X3.95Y-1.55
X3.95Y-1.675
X3.95Y-1.8
X3.95Y-1.925
X3.95Y-2.05
X3.95Y-2.175
X3.9525Y-2.59
X3.985Y-2.13
X3.9875Y-2.0275
X3.99Y-1.7275
X3.9925Y-1.87
X3.9925Y-2.2975
X3.9925Y-2.3425
X4.005Y-1.4625
X4.0075Y-1.0975
X4.0075Y-1.135
X4.0075Y-1.5825
X4.0275Y-2.315
X4.0525Y-2.9775
X4.055Y-2.29
X4.0625Y-2.23
X4.0625Y-2.9375
X4.065Y-2.59
X4.065Y-2.75
X4.085Y-2.27
X4.085Y-2.96
X4.1Y-2.75
X4.1075Y-2.4025
X4.1075Y-2.4575
X4.11Y-3.0975
X4.11Y-3.1675
X4.118Y-1.168
X4.1275Y-2.235
X4.13Y-2.375
X4.13Y-2.43
X4.135Y-3.1925
X4.16Y-1.8325
X4.1775Y-2.895
X4.185Y-3.4675
X4.1975Y-2.415
X4.1975Y-2.59
X4.205Y-1.0725
X4.2175Y-2.0575
X4.22Y-2.2025
X4.2275Y-2.57
X4.229Y-1.793
X4.2375Y-2.9075
X4.2375Y-3.4675
X4.2475Y-1.0725
X4.2625Y-2.08
X4.2625Y-2.22
X4.266Y-2.492
X4.2675Y-1.6825
X4.27Y-1.6175
X4.285Y-2.9025
X4.285Y-3.11
X4.3175Y-1.825
X4.3625Y-3.4175
X4.3775Y-3.3825
X4.3875Y-2.5225
X4.3975Y-3.245
X4.4275Y-1.3475
X4.44Y-2.7925
X4.455Y-2.85
X4.48Y-2.25
X4.49Y-1.355
X4.49Y-2.85
X4.51Y-1.2925
X4.5175Y-1.845
X4.52Y-1.3275
X4.52Y-1.9275
X4.52Y-2.5675
X4.525Y-2.85
X4.54Y-1.53
X4.5475Y-1.47
X4.5475Y-1.815
X4.5488Y-1.8987
X4.5575Y-1.265
X4.5675Y-3.345
X4.5775Y-1.51
X4.5775Y-1.785
X4.5775Y-1.87
X4.595Y-2.94
X4.595Y-2.975
X4.6075Y-3.345
X4.63Y-2.94
X4.6425Y-2.545
X4.645Y-1.295
X4.645Y-2.5075
X4.6475Y-3.345
X4.65Y-2.85
X4.665Y-1.355
X4.665Y-2.455
X4.6725Y-3.46
X4.685Y-2.85
X4.69Y-3.03
X4.695Y-1.285
X4.695Y-1.425
X4.695Y-2.385
X4.695Y-2.525
X4.7125Y-3.46
X4.72Y-2.85
X4.725Y-2.995
X4.725Y-3.03
X4.7375Y-2.2
X4.7525Y-3.46
X4.765Y-1.455
X4.765Y-2.355
X4.765Y-2.555
X4.7925Y-3.46
X4.805Y-3.1325
X4.83Y-3.1075
X4.83Y-3.1575
X4.835Y-1.285
X4.835Y-1.425
X4.835Y-2.385
X4.835Y-2.525
X4.8575Y-1.62
X4.865Y-1.355
X4.865Y-2.455
X4.865Y-3.1575
X4.88Y-1.695
X4.88Y-1.735
X4.895Y-1.62
X4.9Y-3.1575
X4.9075Y-1.2725
X4.924Y-2.608
X4.94Y-1.4975
X4.955Y-2.345
X4.9775Y-1.3425
X4.9775Y-2.62
X5.0175Y-3.305
X5.0175Y-3.345
X5.0175Y-3.385
X5.0175Y-3.425
X5.0175Y-3.465
X5.04Y-1.64
X5.0525Y-1.5825
X5.055Y-1.4
X5.06Y-2.2
X5.081Y-1.321
X5.085Y-1.6925
X5.085Y-1.77
X5.0925Y-2.2
X5.0975Y-1.385
X5.1175Y-1.32
X5.1175Y-1.77
X5.1225Y-1.675
X5.1625Y-1.2925
X5.1825Y-1.365
X5.1825Y-3.31
X5.1825Y-3.35
X5.1825Y-3.39
X5.1825Y-3.43
X5.1925Y-2.2
X5.22Y-1.435
X5.22Y-2.265
X5.22Y-2.305
X5.22Y-2.3425
X5.2225Y-1.365
X5.225Y-1.7075
X5.225Y-2.2
X5.24Y-1.5825
X5.24Y-1.6525
X5.24Y-1.7425
X5.2525Y-1.7075
X5.2625Y-1.365
X5.267Y-2.403
X5.267Y-2.437
X5.2675Y-2.4725
X5.2775Y-1.5825
X5.2775Y-1.6525
X5.328Y-2.583
X5.3325Y-1.33
X5.3375Y-2.2525
X5.364Y-2.576
X5.3725Y-1.1025
X5.399Y-2.581
X5.4025Y-1.7375
X5.4025Y-1.77
X5.4025Y-2.225
X5.41Y-1.415
X5.43Y-2.245
X5.432Y-2.59
X5.4325Y-1.1025
X5.467Y-2.591
X5.515Y-1.7925
X5.531Y-2.207
X5.5325Y-2.245
X5.553Y-2.583
X5.568Y-1.832
X5.568Y-2.206
X5.606Y-1.832
X5.611Y-2.579
X5.615Y-0.755
X5.6225Y-2.205
X5.6375Y-2.2775
X5.64Y-1.1025
X5.64Y-3.31
X5.64Y-3.35
X5.64Y-3.39
X5.64Y-3.43
X5.6425Y-0.6825
X5.6425Y-0.8275
X5.645Y-1.8325
X5.647Y-2.523
X5.7Y-1.1025
X5.715Y-0.855
X5.7175Y-2.3075
X5.7775Y-1.605
X5.7775Y-1.705
X5.785Y-0.825
X5.7875Y-0.6825
X5.815Y-0.755
X5.865Y-2.655
X5.87Y-3.455
X5.8925Y-2.5825
X5.8925Y-2.7275
X5.8975Y-3.3875
X5.8975Y-3.5225
X5.965Y-2.555
X5.965Y-2.755
X5.965Y-3.36
X6.0325Y-3.3875
X6.035Y-2.725
X6.0375Y-2.5825
X6.065Y-2.655
T2
X2.58Y-0.7525
X2.6175Y-0.79
X2.845Y-1.13
X2.895Y-1.13
X3.22Y-1.885
X3.2625Y-1.9275
X4.3756Y-1.4688
X4.3756Y-1.5475
X4.3756Y-1.6263
X4.3756Y-1.705
X4.3756Y-1.7837
X4.3756Y-1.8625
X4.3756Y-1.9412
X4.4544Y-1.4688
X4.4544Y-1.5475
X4.4544Y-1.6263
X4.4544Y-1.705
X4.4544Y-1.7837
X4.4544Y-1.8625
X4.4544Y-1.9412
X4.9025Y-3.2875
X4.9025Y-3.3475
X4.9825Y-2.83
X5.015Y-2.8625
X5.0475Y-2.9975
X5.0475Y-3.05
X5.0475Y-3.1025
X5.0475Y-3.155
X5.0775Y-3.2
X5.1325Y-3.2
X5.1875Y-3.2
X5.3525Y-3.2
X5.385Y-3.3675
X5.4075Y-3.2
X5.435Y-3.3675
X5.445Y-2.7975
X5.445Y-2.855
X5.445Y-2.92
X5.445Y-2.9875
X5.445Y-3.045
X5.445Y-3.1
X5.445Y-3.155
T3
X0.37Y-1.805
X0.415Y-1.055
X0.415Y-1.655
X0.415Y-1.955
X0.415Y-2.555
X0.515Y-1.055
X0.515Y-1.655
X0.515Y-1.955
X0.515Y-2.555
X0.615Y-1.055
X0.615Y-1.655
X0.615Y-1.955
X0.615Y-2.555
X0.715Y-1.055
X0.715Y-1.655
X0.715Y-1.955
X0.715Y-2.155
X0.715Y-2.255
X0.715Y-2.355
X0.715Y-2.555
X0.815Y-1.055
X0.815Y-1.655
X0.815Y-1.955
X0.815Y-2.555
X0.915Y-1.055
X0.915Y-1.655
X0.915Y-1.955
X0.915Y-2.555
X1.015Y-1.055
X1.015Y-1.655
X1.015Y-1.955
X1.015Y-2.555
X1.115Y-1.055
X1.115Y-1.655
X1.115Y-1.955
X1.115Y-2.555
X1.155Y-3.295
X1.215Y-1.055
X1.215Y-1.655
X1.215Y-1.955
X1.215Y-2.555
X1.315Y-1.055
X1.315Y-1.655
X1.315Y-1.955
X1.315Y-2.555
X1.415Y-1.055
X1.415Y-1.655
X1.415Y-1.955
X1.415Y-2.555
X1.515Y-1.055
X1.515Y-1.655
X1.515Y-1.955
X1.515Y-2.555
X1.615Y-1.055
X1.615Y-1.655
X1.615Y-1.955
X1.615Y-2.555
X1.625Y-0.8875
X1.715Y-1.055
X1.715Y-1.655
X1.715Y-1.955
X1.715Y-2.555
X1.725Y-0.8875
X1.815Y-1.055
X1.815Y-1.655
X1.815Y-1.955
X1.815Y-2.555
X1.825Y-0.8875
X1.915Y-1.055
X1.915Y-1.655
X1.915Y-1.955
X1.915Y-2.555
X1.925Y-0.8875
X2.015Y-1.055
X2.015Y-1.655
X2.015Y-1.955
X2.015Y-2.155
X2.015Y-2.255
X2.015Y-2.355
X2.015Y-2.555
X2.115Y-1.055
X2.115Y-1.655
X2.115Y-1.955
X2.115Y-2.555
X2.215Y-1.055
X2.215Y-1.655
X2.215Y-1.955
X2.215Y-2.555
X2.315Y-1.055
X2.315Y-1.655
X2.315Y-1.955
X2.315Y-2.555
X2.5775Y-1.1925
X2.5775Y-2.255
X2.905Y-0.755
X2.965Y-2.655
X3.005Y-0.755
X3.065Y-2.655
X3.105Y-0.755
X3.205Y-0.755
X3.265Y-2.655
X3.305Y-0.755
X3.365Y-2.655
X3.405Y-0.755
X3.465Y-2.655
X3.505Y-0.755
X3.565Y-2.655
X3.605Y-0.755
X3.665Y-2.655
X3.705Y-0.755
X3.765Y-2.655
X3.805Y-0.755
X3.865Y-2.655
X3.965Y-0.755
X3.965Y-2.655
X3.965Y-3.055
X4.065Y-0.755
X4.065Y-3.055
X4.165Y-0.755
X4.165Y-2.655
X4.165Y-3.055
X4.265Y-0.755
X4.265Y-2.655
X4.265Y-3.055
X4.365Y-0.755
X4.365Y-2.655
X4.465Y-0.755
X4.465Y-2.655
X4.565Y-0.755
X4.565Y-2.655
X4.665Y-0.755
X4.665Y-2.655
X4.67Y-1.555
X4.67Y-1.655
X4.67Y-1.755
X4.765Y-2.655
X4.77Y-1.555
X4.77Y-1.655
X4.77Y-1.755
X4.865Y-0.755
X4.865Y-2.655
X4.965Y-0.755
X5.065Y-0.755
X5.065Y-2.655
X5.165Y-0.755
X5.165Y-2.655
X5.265Y-0.755
X5.265Y-2.655
X5.365Y-0.755
X5.365Y-2.655
X5.465Y-0.755
X5.465Y-2.655
X5.565Y-0.755
X5.565Y-2.655
X5.64Y-1.555
X5.665Y-2.655
X5.765Y-2.655
X5.865Y-0.755
X5.865Y-0.855
X5.865Y-0.955
X5.865Y-1.055
X5.865Y-1.155
X5.865Y-1.255
X5.865Y-1.355
X5.865Y-1.455
X5.865Y-1.555
X5.865Y-1.655
X5.865Y-1.755
X5.865Y-1.855
X5.865Y-1.955
X5.865Y-2.055
X5.865Y-2.155
X5.865Y-2.255
X5.865Y-2.355
X5.865Y-2.455
X5.965Y-0.755
X5.965Y-0.855
X5.965Y-0.955
X5.965Y-1.055
X5.965Y-1.155
X5.965Y-1.255
X5.965Y-1.355
X5.965Y-1.455
X5.965Y-1.555
X5.965Y-1.655
X5.965Y-1.755
X5.965Y-1.855
X5.965Y-1.955
X5.965Y-2.055
X5.965Y-2.155
X5.965Y-2.255
X5.965Y-2.355
X5.965Y-2.455
T5
X3.865Y-3.255
X3.865Y-3.355
X3.965Y-3.255
X3.965Y-3.355
X4.065Y-3.255
X4.065Y-3.355
X4.165Y-3.255
X4.165Y-3.355
X4.265Y-3.255
X4.265Y-3.355
T4
X5.515Y-3.1054G85X5.515Y-3.0046
G05
X5.6772Y-2.855G85X5.5965Y-2.855
G05
X5.755Y-3.0953G85X5.755Y-3.0147
G05
T0
M30
