G04 (created by PCBNEW (2013-07-07 BZR 4022)-stable) date 09/03/2016 16:10:27*
%MOIN*%
G04 Gerber Fmt 3.4, Leading zero omitted, Abs format*
%FSLAX34Y34*%
G01*
G70*
G90*
G04 APERTURE LIST*
%ADD10C,0.00590551*%
%ADD11C,0.005*%
%ADD12C,0.006*%
%ADD13C,0.008*%
%ADD14C,0.004*%
%ADD15C,0.0047*%
%ADD16C,0.0001*%
G04 APERTURE END LIST*
G54D10*
G54D11*
X47050Y-14695D02*
X46700Y-15045D01*
X46350Y-14695D02*
X46700Y-15045D01*
X46350Y-14695D02*
X47050Y-14695D01*
X45290Y-19060D02*
X45290Y-19760D01*
X45290Y-19060D02*
X44940Y-19410D01*
X45290Y-19760D02*
X44940Y-19410D01*
X43000Y-29700D02*
X42650Y-30050D01*
X42300Y-29700D02*
X42650Y-30050D01*
X42300Y-29700D02*
X43000Y-29700D01*
G54D12*
X31375Y-8800D02*
X32050Y-8125D01*
X31375Y-8950D02*
X31375Y-8800D01*
X31375Y-9625D02*
X31375Y-8950D01*
X31125Y-9875D02*
X31375Y-9625D01*
X30675Y-9875D02*
X31125Y-9875D01*
G54D13*
X4125Y-18050D02*
X4800Y-18050D01*
X25825Y-18050D02*
X4800Y-18050D01*
X26575Y-18800D02*
X26575Y-22550D01*
X26575Y-18800D02*
X25825Y-18050D01*
X27325Y-23300D02*
X27825Y-23300D01*
X27325Y-23300D02*
X26575Y-22550D01*
G54D12*
X16315Y-9923D02*
X16296Y-9942D01*
X16239Y-9961D01*
X16201Y-9961D01*
X16144Y-9942D01*
X16105Y-9904D01*
X16086Y-9866D01*
X16067Y-9790D01*
X16067Y-9733D01*
X16086Y-9657D01*
X16105Y-9619D01*
X16144Y-9580D01*
X16201Y-9561D01*
X16239Y-9561D01*
X16296Y-9580D01*
X16315Y-9600D01*
X16486Y-9961D02*
X16486Y-9561D01*
X16639Y-9561D01*
X16677Y-9580D01*
X16696Y-9600D01*
X16715Y-9638D01*
X16715Y-9695D01*
X16696Y-9733D01*
X16677Y-9752D01*
X16639Y-9771D01*
X16486Y-9771D01*
X16886Y-9561D02*
X16886Y-9885D01*
X16905Y-9923D01*
X16925Y-9942D01*
X16963Y-9961D01*
X17039Y-9961D01*
X17077Y-9942D01*
X17096Y-9923D01*
X17115Y-9885D01*
X17115Y-9561D01*
X17839Y-9923D02*
X17820Y-9942D01*
X17763Y-9961D01*
X17725Y-9961D01*
X17667Y-9942D01*
X17629Y-9904D01*
X17610Y-9866D01*
X17591Y-9790D01*
X17591Y-9733D01*
X17610Y-9657D01*
X17629Y-9619D01*
X17667Y-9580D01*
X17725Y-9561D01*
X17763Y-9561D01*
X17820Y-9580D01*
X17839Y-9600D01*
X18201Y-9961D02*
X18010Y-9961D01*
X18010Y-9561D01*
X18410Y-9561D02*
X18486Y-9561D01*
X18525Y-9580D01*
X18563Y-9619D01*
X18582Y-9695D01*
X18582Y-9828D01*
X18563Y-9904D01*
X18525Y-9942D01*
X18486Y-9961D01*
X18410Y-9961D01*
X18372Y-9942D01*
X18334Y-9904D01*
X18315Y-9828D01*
X18315Y-9695D01*
X18334Y-9619D01*
X18372Y-9580D01*
X18410Y-9561D01*
X18982Y-9923D02*
X18963Y-9942D01*
X18905Y-9961D01*
X18867Y-9961D01*
X18810Y-9942D01*
X18772Y-9904D01*
X18753Y-9866D01*
X18734Y-9790D01*
X18734Y-9733D01*
X18753Y-9657D01*
X18772Y-9619D01*
X18810Y-9580D01*
X18867Y-9561D01*
X18905Y-9561D01*
X18963Y-9580D01*
X18982Y-9600D01*
X19153Y-9961D02*
X19153Y-9561D01*
X19382Y-9961D02*
X19210Y-9733D01*
X19382Y-9561D02*
X19153Y-9790D01*
G54D11*
X22175Y-7975D02*
X22175Y-7175D01*
X23775Y-7975D02*
X20575Y-7975D01*
X23775Y-7175D02*
X20575Y-7175D01*
X21375Y-7175D02*
X21375Y-7975D01*
X20575Y-7175D02*
X20575Y-7975D01*
X21475Y-7875D02*
X22875Y-7875D01*
X22875Y-7275D02*
X21475Y-7275D01*
X21700Y-7450D02*
X21950Y-7450D01*
X21950Y-7450D02*
X21950Y-7700D01*
X21700Y-7450D02*
X21700Y-7700D01*
X21700Y-7700D02*
X21950Y-7700D01*
X22975Y-7175D02*
X22975Y-7975D01*
X23775Y-7975D02*
X23775Y-7175D01*
X21475Y-7275D02*
X21475Y-7875D01*
X22875Y-7300D02*
X22875Y-7275D01*
X22875Y-7850D02*
X22875Y-7875D01*
X22875Y-7825D02*
X22875Y-7850D01*
X22875Y-7300D02*
X22875Y-7825D01*
X22400Y-7700D02*
X22650Y-7700D01*
X22400Y-7450D02*
X22400Y-7700D01*
X22650Y-7450D02*
X22650Y-7700D01*
X22400Y-7450D02*
X22650Y-7450D01*
X21150Y-8625D02*
X20900Y-8625D01*
X20900Y-8625D02*
X20900Y-8375D01*
X21150Y-8625D02*
X21150Y-8375D01*
X21150Y-8375D02*
X20900Y-8375D01*
X20675Y-8775D02*
X20675Y-8250D01*
X20675Y-8250D02*
X20675Y-8225D01*
X20675Y-8225D02*
X20675Y-8200D01*
X20675Y-8775D02*
X20675Y-8800D01*
X22075Y-8800D02*
X22075Y-8200D01*
X20575Y-8100D02*
X20575Y-8900D01*
X22175Y-8900D02*
X22175Y-8100D01*
X21375Y-8900D02*
X21375Y-8100D01*
X21850Y-8375D02*
X21600Y-8375D01*
X21850Y-8625D02*
X21850Y-8375D01*
X21600Y-8625D02*
X21600Y-8375D01*
X21850Y-8625D02*
X21600Y-8625D01*
X20675Y-8800D02*
X22075Y-8800D01*
X22075Y-8200D02*
X20675Y-8200D01*
X23775Y-8900D02*
X23775Y-8100D01*
X22975Y-8900D02*
X22975Y-8100D01*
X20575Y-8900D02*
X23775Y-8900D01*
X20575Y-8100D02*
X23775Y-8100D01*
X23775Y-9825D02*
X20575Y-9825D01*
X23775Y-9025D02*
X20575Y-9025D01*
X21375Y-9025D02*
X21375Y-9825D01*
X20575Y-9025D02*
X20575Y-9825D01*
X22275Y-9725D02*
X23675Y-9725D01*
X23675Y-9125D02*
X22275Y-9125D01*
X22500Y-9300D02*
X22750Y-9300D01*
X22750Y-9300D02*
X22750Y-9550D01*
X22500Y-9300D02*
X22500Y-9550D01*
X22500Y-9550D02*
X22750Y-9550D01*
X22975Y-9025D02*
X22975Y-9825D01*
X22175Y-9025D02*
X22175Y-9825D01*
X23775Y-9825D02*
X23775Y-9025D01*
X22275Y-9125D02*
X22275Y-9725D01*
X23675Y-9150D02*
X23675Y-9125D01*
X23675Y-9700D02*
X23675Y-9725D01*
X23675Y-9675D02*
X23675Y-9700D01*
X23675Y-9150D02*
X23675Y-9675D01*
X23200Y-9550D02*
X23450Y-9550D01*
X23200Y-9300D02*
X23200Y-9550D01*
X23450Y-9300D02*
X23450Y-9550D01*
X23200Y-9300D02*
X23450Y-9300D01*
G54D12*
X19281Y-18472D02*
X19415Y-18472D01*
X19472Y-18681D02*
X19281Y-18681D01*
X19281Y-18281D01*
X19472Y-18281D01*
X19643Y-18681D02*
X19643Y-18281D01*
X19796Y-18281D01*
X19834Y-18300D01*
X19853Y-18320D01*
X19872Y-18358D01*
X19872Y-18415D01*
X19853Y-18453D01*
X19834Y-18472D01*
X19796Y-18491D01*
X19643Y-18491D01*
X20272Y-18681D02*
X20139Y-18491D01*
X20043Y-18681D02*
X20043Y-18281D01*
X20196Y-18281D01*
X20234Y-18300D01*
X20253Y-18320D01*
X20272Y-18358D01*
X20272Y-18415D01*
X20253Y-18453D01*
X20234Y-18472D01*
X20196Y-18491D01*
X20043Y-18491D01*
X20520Y-18281D02*
X20596Y-18281D01*
X20634Y-18300D01*
X20672Y-18339D01*
X20691Y-18415D01*
X20691Y-18548D01*
X20672Y-18624D01*
X20634Y-18662D01*
X20596Y-18681D01*
X20520Y-18681D01*
X20481Y-18662D01*
X20443Y-18624D01*
X20424Y-18548D01*
X20424Y-18415D01*
X20443Y-18339D01*
X20481Y-18300D01*
X20520Y-18281D01*
X20862Y-18681D02*
X20862Y-18281D01*
X20996Y-18567D01*
X21129Y-18281D01*
X21129Y-18681D01*
X21605Y-18262D02*
X21262Y-18777D01*
X21872Y-18472D02*
X21739Y-18472D01*
X21739Y-18681D02*
X21739Y-18281D01*
X21929Y-18281D01*
X22272Y-18681D02*
X22081Y-18681D01*
X22081Y-18281D01*
X22386Y-18567D02*
X22577Y-18567D01*
X22348Y-18681D02*
X22481Y-18281D01*
X22615Y-18681D01*
X22729Y-18662D02*
X22786Y-18681D01*
X22881Y-18681D01*
X22920Y-18662D01*
X22939Y-18643D01*
X22958Y-18605D01*
X22958Y-18567D01*
X22939Y-18529D01*
X22920Y-18510D01*
X22881Y-18491D01*
X22805Y-18472D01*
X22767Y-18453D01*
X22748Y-18434D01*
X22729Y-18396D01*
X22729Y-18358D01*
X22748Y-18320D01*
X22767Y-18300D01*
X22805Y-18281D01*
X22900Y-18281D01*
X22958Y-18300D01*
X23129Y-18681D02*
X23129Y-18281D01*
X23129Y-18472D02*
X23358Y-18472D01*
X23358Y-18681D02*
X23358Y-18281D01*
X4539Y-17773D02*
X4520Y-17792D01*
X4463Y-17811D01*
X4425Y-17811D01*
X4367Y-17792D01*
X4329Y-17754D01*
X4310Y-17716D01*
X4291Y-17640D01*
X4291Y-17583D01*
X4310Y-17507D01*
X4329Y-17469D01*
X4367Y-17430D01*
X4425Y-17411D01*
X4463Y-17411D01*
X4520Y-17430D01*
X4539Y-17450D01*
X4710Y-17811D02*
X4710Y-17411D01*
X4863Y-17411D01*
X4901Y-17430D01*
X4920Y-17450D01*
X4939Y-17488D01*
X4939Y-17545D01*
X4920Y-17583D01*
X4901Y-17602D01*
X4863Y-17621D01*
X4710Y-17621D01*
X5110Y-17411D02*
X5110Y-17735D01*
X5129Y-17773D01*
X5148Y-17792D01*
X5186Y-17811D01*
X5263Y-17811D01*
X5301Y-17792D01*
X5320Y-17773D01*
X5339Y-17735D01*
X5339Y-17411D01*
X24186Y-8458D02*
X24148Y-8439D01*
X24129Y-8420D01*
X24110Y-8382D01*
X24110Y-8363D01*
X24129Y-8325D01*
X24148Y-8305D01*
X24186Y-8286D01*
X24263Y-8286D01*
X24301Y-8305D01*
X24320Y-8325D01*
X24339Y-8363D01*
X24339Y-8382D01*
X24320Y-8420D01*
X24301Y-8439D01*
X24263Y-8458D01*
X24186Y-8458D01*
X24148Y-8477D01*
X24129Y-8496D01*
X24110Y-8534D01*
X24110Y-8610D01*
X24129Y-8648D01*
X24148Y-8667D01*
X24186Y-8686D01*
X24263Y-8686D01*
X24301Y-8667D01*
X24320Y-8648D01*
X24339Y-8610D01*
X24339Y-8534D01*
X24320Y-8496D01*
X24301Y-8477D01*
X24263Y-8458D01*
X24510Y-8686D02*
X24510Y-8286D01*
X24644Y-8572D01*
X24777Y-8286D01*
X24777Y-8686D01*
X24967Y-8686D02*
X24967Y-8286D01*
X24967Y-8477D02*
X25196Y-8477D01*
X25196Y-8686D02*
X25196Y-8286D01*
X25348Y-8420D02*
X25558Y-8420D01*
X25348Y-8686D01*
X25558Y-8686D01*
X24320Y-7361D02*
X24129Y-7361D01*
X24110Y-7552D01*
X24129Y-7533D01*
X24167Y-7514D01*
X24263Y-7514D01*
X24301Y-7533D01*
X24320Y-7552D01*
X24339Y-7590D01*
X24339Y-7685D01*
X24320Y-7723D01*
X24301Y-7742D01*
X24263Y-7761D01*
X24167Y-7761D01*
X24129Y-7742D01*
X24110Y-7723D01*
X24510Y-7761D02*
X24510Y-7361D01*
X24644Y-7647D01*
X24777Y-7361D01*
X24777Y-7761D01*
X24967Y-7761D02*
X24967Y-7361D01*
X24967Y-7552D02*
X25196Y-7552D01*
X25196Y-7761D02*
X25196Y-7361D01*
X25348Y-7495D02*
X25558Y-7495D01*
X25348Y-7761D01*
X25558Y-7761D01*
X24323Y-9611D02*
X24095Y-9611D01*
X24209Y-9611D02*
X24209Y-9211D01*
X24171Y-9269D01*
X24133Y-9307D01*
X24095Y-9326D01*
X24571Y-9211D02*
X24609Y-9211D01*
X24647Y-9230D01*
X24666Y-9250D01*
X24685Y-9288D01*
X24704Y-9364D01*
X24704Y-9459D01*
X24685Y-9535D01*
X24666Y-9573D01*
X24647Y-9592D01*
X24609Y-9611D01*
X24571Y-9611D01*
X24533Y-9592D01*
X24514Y-9573D01*
X24495Y-9535D01*
X24476Y-9459D01*
X24476Y-9364D01*
X24495Y-9288D01*
X24514Y-9250D01*
X24533Y-9230D01*
X24571Y-9211D01*
X24876Y-9611D02*
X24876Y-9211D01*
X25009Y-9497D01*
X25142Y-9211D01*
X25142Y-9611D01*
X25333Y-9611D02*
X25333Y-9211D01*
X25333Y-9402D02*
X25561Y-9402D01*
X25561Y-9611D02*
X25561Y-9211D01*
X25714Y-9345D02*
X25923Y-9345D01*
X25714Y-9611D01*
X25923Y-9611D01*
G54D13*
X51200Y-23300D02*
X52125Y-23300D01*
X41375Y-23300D02*
X50000Y-23300D01*
X57950Y-24050D02*
X56650Y-24050D01*
X60350Y-24050D02*
X61350Y-24050D01*
X55902Y-22040D02*
X55902Y-22472D01*
X46625Y-9050D02*
X46625Y-8650D01*
X46625Y-9050D02*
X46450Y-8875D01*
X46625Y-9050D02*
X46800Y-8875D01*
X45625Y-8650D02*
X45450Y-8825D01*
X45625Y-8650D02*
X45800Y-8825D01*
X45625Y-8650D02*
X45625Y-9050D01*
X55901Y-11801D02*
X55901Y-22038D01*
X55650Y-11800D02*
X45400Y-11800D01*
X56650Y-8050D02*
X56650Y-11050D01*
X56650Y-11050D02*
X55900Y-11800D01*
G54D11*
X40150Y-26050D02*
X40150Y-27050D01*
X40150Y-27050D02*
X32150Y-27050D01*
X32150Y-27050D02*
X32150Y-26050D01*
X32150Y-26050D02*
X40150Y-26050D01*
X49150Y-26050D02*
X49150Y-27050D01*
X49150Y-27050D02*
X41150Y-27050D01*
X41150Y-27050D02*
X41150Y-26050D01*
X41150Y-26050D02*
X49150Y-26050D01*
X58150Y-26050D02*
X58150Y-27050D01*
X58150Y-27050D02*
X50150Y-27050D01*
X50150Y-27050D02*
X50150Y-26050D01*
X50150Y-26050D02*
X58150Y-26050D01*
X60150Y-7050D02*
X60150Y-25050D01*
X60150Y-25050D02*
X58150Y-25050D01*
X58150Y-25050D02*
X58150Y-7050D01*
X58150Y-7050D02*
X60150Y-7050D01*
X48150Y-7050D02*
X48150Y-8050D01*
X48150Y-8050D02*
X56150Y-8050D01*
X56150Y-8050D02*
X56150Y-7050D01*
X56150Y-7050D02*
X48150Y-7050D01*
X38550Y-7050D02*
X38550Y-8050D01*
X38550Y-8050D02*
X28550Y-8050D01*
X28550Y-8050D02*
X28550Y-7050D01*
X28550Y-7050D02*
X38550Y-7050D01*
X47150Y-8050D02*
X39150Y-8050D01*
X39150Y-8050D02*
X39150Y-7050D01*
X39150Y-7050D02*
X47150Y-7050D01*
X47150Y-7050D02*
X47150Y-8050D01*
X48250Y-15050D02*
X46150Y-15050D01*
X46150Y-15050D02*
X46150Y-18050D01*
X46150Y-18050D02*
X48250Y-18050D01*
X48250Y-18050D02*
X48250Y-15050D01*
X43500Y-32200D02*
X43150Y-32550D01*
X43150Y-32550D02*
X43500Y-32900D01*
X43500Y-32900D02*
X43500Y-32200D01*
X43150Y-34050D02*
X38150Y-34050D01*
X38150Y-34050D02*
X38150Y-32050D01*
X38150Y-32050D02*
X43150Y-32050D01*
X43150Y-32050D02*
X43150Y-34050D01*
X19650Y-21050D02*
X19650Y-24050D01*
X19650Y-24050D02*
X20650Y-24050D01*
X20650Y-24050D02*
X20650Y-21050D01*
X20650Y-21050D02*
X19650Y-21050D01*
X6650Y-21050D02*
X6650Y-24050D01*
X6650Y-24050D02*
X7650Y-24050D01*
X7650Y-24050D02*
X7650Y-21050D01*
X7650Y-21050D02*
X6650Y-21050D01*
X29150Y-27050D02*
X29150Y-26050D01*
X29150Y-26050D02*
X31150Y-26050D01*
X31150Y-26050D02*
X31150Y-27050D01*
X31150Y-27050D02*
X29150Y-27050D01*
G54D14*
X26181Y-22550D02*
G75*
G03X26181Y-22550I-406J0D01*
G74*
G01*
X26178Y-11925D02*
G75*
G03X26178Y-11925I-403J0D01*
G74*
G01*
X56800Y-15550D02*
G75*
G03X56800Y-15550I-400J0D01*
G74*
G01*
X11950Y-32950D02*
G75*
G03X11950Y-32950I-400J0D01*
G74*
G01*
X4103Y-18050D02*
G75*
G03X4103Y-18050I-403J0D01*
G74*
G01*
G54D11*
X12372Y-8871D02*
X13316Y-8871D01*
X13316Y-8871D02*
X13316Y-9659D01*
X12372Y-7690D02*
X15127Y-7690D01*
X15127Y-7690D02*
X15127Y-9659D01*
X15127Y-9659D02*
X13750Y-9659D01*
X13750Y-9659D02*
X12372Y-9659D01*
X12372Y-9659D02*
X12372Y-7690D01*
X43150Y-31050D02*
X43150Y-31050D01*
X43150Y-30050D02*
X43150Y-31050D01*
X43150Y-31050D02*
X39150Y-31050D01*
X39150Y-31050D02*
X39150Y-30050D01*
X39150Y-30050D02*
X43150Y-30050D01*
X42150Y-30050D02*
X42150Y-31050D01*
X19750Y-8375D02*
X19750Y-9375D01*
X19750Y-9375D02*
X15750Y-9375D01*
X15750Y-9375D02*
X15750Y-8375D01*
X15750Y-8375D02*
X19750Y-8375D01*
X24325Y-28075D02*
X24325Y-31075D01*
X24325Y-31075D02*
X21225Y-31075D01*
X21225Y-31075D02*
X21225Y-28575D01*
X24325Y-28075D02*
X21725Y-28075D01*
X21725Y-28075D02*
X21225Y-28575D01*
X44937Y-19805D02*
X43362Y-19805D01*
X43362Y-19805D02*
X43362Y-14294D01*
X43362Y-14294D02*
X44937Y-14294D01*
X44937Y-14294D02*
X44937Y-19805D01*
X49950Y-27575D02*
X49950Y-31775D01*
X49950Y-31775D02*
X53950Y-31775D01*
X53950Y-31775D02*
X53950Y-27575D01*
X53950Y-27575D02*
X49950Y-27575D01*
X55275Y-15200D02*
X55275Y-16400D01*
X53575Y-14700D02*
X54775Y-14700D01*
X53575Y-16900D02*
X54775Y-16900D01*
X53075Y-15200D02*
X53075Y-16400D01*
X54740Y-15800D02*
G75*
G03X54740Y-15800I-565J0D01*
G74*
G01*
X29600Y-22550D02*
X29100Y-22050D01*
X40180Y-11470D02*
X29100Y-11470D01*
X29600Y-22550D02*
X40180Y-22550D01*
X40180Y-22550D02*
X40180Y-11470D01*
X29100Y-11470D02*
X29100Y-22050D01*
X30150Y-21800D02*
G75*
G03X30150Y-21800I-300J0D01*
G74*
G01*
X3150Y-13050D02*
X3650Y-13050D01*
X3650Y-13050D02*
X3650Y-14050D01*
X3650Y-14050D02*
X3150Y-14050D01*
X3150Y-11050D02*
X24150Y-11050D01*
X24150Y-11050D02*
X24150Y-16050D01*
X24150Y-16050D02*
X3150Y-16050D01*
X3150Y-16050D02*
X3150Y-11050D01*
X14625Y-34350D02*
X14625Y-32350D01*
X14625Y-32350D02*
X16425Y-32350D01*
X16425Y-32350D02*
X16425Y-34350D01*
X16425Y-34350D02*
X14625Y-34350D01*
X15225Y-34350D02*
X15225Y-34150D01*
X15225Y-34150D02*
X15725Y-34150D01*
X15725Y-34150D02*
X15725Y-34350D01*
X49900Y-23675D02*
X49850Y-23675D01*
X49850Y-23675D02*
X49850Y-25775D01*
X51350Y-25775D02*
X51350Y-23675D01*
X51350Y-23675D02*
X49900Y-23675D01*
X50800Y-23675D02*
X50800Y-23875D01*
X50800Y-23875D02*
X50400Y-23875D01*
X50400Y-23875D02*
X50400Y-23675D01*
X51350Y-25775D02*
X49850Y-25775D01*
X44200Y-24775D02*
X44100Y-24775D01*
X44100Y-24775D02*
X44100Y-25675D01*
X44100Y-25675D02*
X44200Y-25675D01*
X44200Y-24775D02*
X44200Y-25675D01*
X44200Y-25675D02*
X44850Y-25675D01*
X45550Y-24775D02*
X46200Y-24775D01*
X46200Y-24775D02*
X46200Y-25675D01*
X46200Y-25675D02*
X45550Y-25675D01*
X44850Y-24775D02*
X44200Y-24775D01*
X42297Y-21005D02*
X42572Y-21005D01*
X41903Y-21005D02*
X41628Y-21005D01*
X42297Y-20493D02*
X42572Y-20493D01*
X41628Y-20493D02*
X41903Y-20493D01*
X42572Y-20499D02*
X42572Y-20999D01*
X41628Y-20999D02*
X41628Y-20499D01*
X4139Y-30742D02*
X4139Y-31017D01*
X4139Y-30348D02*
X4139Y-30073D01*
X4651Y-30742D02*
X4651Y-31017D01*
X4651Y-30073D02*
X4651Y-30348D01*
X4645Y-31017D02*
X4145Y-31017D01*
X4145Y-30073D02*
X4645Y-30073D01*
X50403Y-23019D02*
X50128Y-23019D01*
X50797Y-23019D02*
X51072Y-23019D01*
X50403Y-23531D02*
X50128Y-23531D01*
X51072Y-23531D02*
X50797Y-23531D01*
X50128Y-23525D02*
X50128Y-23025D01*
X51072Y-23025D02*
X51072Y-23525D01*
X27044Y-21822D02*
X27044Y-22097D01*
X27044Y-21428D02*
X27044Y-21153D01*
X27556Y-21822D02*
X27556Y-22097D01*
X27556Y-21153D02*
X27556Y-21428D01*
X27550Y-22097D02*
X27050Y-22097D01*
X27050Y-21153D02*
X27550Y-21153D01*
X30903Y-24344D02*
X30628Y-24344D01*
X31297Y-24344D02*
X31572Y-24344D01*
X30903Y-24856D02*
X30628Y-24856D01*
X31572Y-24856D02*
X31297Y-24856D01*
X30628Y-24850D02*
X30628Y-24350D01*
X31572Y-24350D02*
X31572Y-24850D01*
X28253Y-22894D02*
X27978Y-22894D01*
X28647Y-22894D02*
X28922Y-22894D01*
X28253Y-23406D02*
X27978Y-23406D01*
X28922Y-23406D02*
X28647Y-23406D01*
X27978Y-23400D02*
X27978Y-22900D01*
X28922Y-22900D02*
X28922Y-23400D01*
X26444Y-16972D02*
X26444Y-17247D01*
X26444Y-16578D02*
X26444Y-16303D01*
X26956Y-16972D02*
X26956Y-17247D01*
X26956Y-16303D02*
X26956Y-16578D01*
X26950Y-17247D02*
X26450Y-17247D01*
X26450Y-16303D02*
X26950Y-16303D01*
X27003Y-11644D02*
X26728Y-11644D01*
X27397Y-11644D02*
X27672Y-11644D01*
X27003Y-12156D02*
X26728Y-12156D01*
X27672Y-12156D02*
X27397Y-12156D01*
X26728Y-12150D02*
X26728Y-11650D01*
X27672Y-11650D02*
X27672Y-12150D01*
X42297Y-22356D02*
X42572Y-22356D01*
X41903Y-22356D02*
X41628Y-22356D01*
X42297Y-21844D02*
X42572Y-21844D01*
X41628Y-21844D02*
X41903Y-21844D01*
X42572Y-21850D02*
X42572Y-22350D01*
X41628Y-22350D02*
X41628Y-21850D01*
X42587Y-16816D02*
X42862Y-16816D01*
X42193Y-16816D02*
X41918Y-16816D01*
X42587Y-16304D02*
X42862Y-16304D01*
X41918Y-16304D02*
X42193Y-16304D01*
X42862Y-16310D02*
X42862Y-16810D01*
X41918Y-16810D02*
X41918Y-16310D01*
X41122Y-11156D02*
X41397Y-11156D01*
X40728Y-11156D02*
X40453Y-11156D01*
X41122Y-10644D02*
X41397Y-10644D01*
X40453Y-10644D02*
X40728Y-10644D01*
X41397Y-10650D02*
X41397Y-11150D01*
X40453Y-11150D02*
X40453Y-10650D01*
X56534Y-22957D02*
X56534Y-23232D01*
X56534Y-22563D02*
X56534Y-22288D01*
X57046Y-22957D02*
X57046Y-23232D01*
X57046Y-22288D02*
X57046Y-22563D01*
X57040Y-23232D02*
X56540Y-23232D01*
X56540Y-22288D02*
X57040Y-22288D01*
X31428Y-33169D02*
X31153Y-33169D01*
X31822Y-33169D02*
X32097Y-33169D01*
X31428Y-33681D02*
X31153Y-33681D01*
X32097Y-33681D02*
X31822Y-33681D01*
X31153Y-33675D02*
X31153Y-33175D01*
X32097Y-33175D02*
X32097Y-33675D01*
X13431Y-33353D02*
X13431Y-33078D01*
X13431Y-33747D02*
X13431Y-34022D01*
X12919Y-33353D02*
X12919Y-33078D01*
X12919Y-34022D02*
X12919Y-33747D01*
X12925Y-33078D02*
X13425Y-33078D01*
X13425Y-34022D02*
X12925Y-34022D01*
X6644Y-8697D02*
X6644Y-8972D01*
X6644Y-8303D02*
X6644Y-8028D01*
X7156Y-8697D02*
X7156Y-8972D01*
X7156Y-8028D02*
X7156Y-8303D01*
X7150Y-8972D02*
X6650Y-8972D01*
X6650Y-8028D02*
X7150Y-8028D01*
X10756Y-30403D02*
X10756Y-30128D01*
X10756Y-30797D02*
X10756Y-31072D01*
X10244Y-30403D02*
X10244Y-30128D01*
X10244Y-31072D02*
X10244Y-30797D01*
X10250Y-30128D02*
X10750Y-30128D01*
X10750Y-31072D02*
X10250Y-31072D01*
X12419Y-31122D02*
X12419Y-31397D01*
X12419Y-30728D02*
X12419Y-30453D01*
X12931Y-31122D02*
X12931Y-31397D01*
X12931Y-30453D02*
X12931Y-30728D01*
X12925Y-31397D02*
X12425Y-31397D01*
X12425Y-30453D02*
X12925Y-30453D01*
X12503Y-28019D02*
X12228Y-28019D01*
X12897Y-28019D02*
X13172Y-28019D01*
X12503Y-28531D02*
X12228Y-28531D01*
X13172Y-28531D02*
X12897Y-28531D01*
X12228Y-28525D02*
X12228Y-28025D01*
X13172Y-28025D02*
X13172Y-28525D01*
X18422Y-28556D02*
X18697Y-28556D01*
X18028Y-28556D02*
X17753Y-28556D01*
X18422Y-28044D02*
X18697Y-28044D01*
X17753Y-28044D02*
X18028Y-28044D01*
X18697Y-28050D02*
X18697Y-28550D01*
X17753Y-28550D02*
X17753Y-28050D01*
X18306Y-29953D02*
X18306Y-29678D01*
X18306Y-30347D02*
X18306Y-30622D01*
X17794Y-29953D02*
X17794Y-29678D01*
X17794Y-30622D02*
X17794Y-30347D01*
X17800Y-29678D02*
X18300Y-29678D01*
X18300Y-30622D02*
X17800Y-30622D01*
X36594Y-32297D02*
X36594Y-32572D01*
X36594Y-31903D02*
X36594Y-31628D01*
X37106Y-32297D02*
X37106Y-32572D01*
X37106Y-31628D02*
X37106Y-31903D01*
X37100Y-32572D02*
X36600Y-32572D01*
X36600Y-31628D02*
X37100Y-31628D01*
X35522Y-28006D02*
X35797Y-28006D01*
X35128Y-28006D02*
X34853Y-28006D01*
X35522Y-27494D02*
X35797Y-27494D01*
X34853Y-27494D02*
X35128Y-27494D01*
X35797Y-27500D02*
X35797Y-28000D01*
X34853Y-28000D02*
X34853Y-27500D01*
X31156Y-29078D02*
X31156Y-28803D01*
X31156Y-29472D02*
X31156Y-29747D01*
X30644Y-29078D02*
X30644Y-28803D01*
X30644Y-29747D02*
X30644Y-29472D01*
X30650Y-28803D02*
X31150Y-28803D01*
X31150Y-29747D02*
X30650Y-29747D01*
X3150Y-22050D02*
X3650Y-22050D01*
X3650Y-22050D02*
X3650Y-23050D01*
X3650Y-23050D02*
X3150Y-23050D01*
X3150Y-20050D02*
X24150Y-20050D01*
X24150Y-20050D02*
X24150Y-25050D01*
X24150Y-25050D02*
X3150Y-25050D01*
X3150Y-25050D02*
X3150Y-20050D01*
X54769Y-32474D02*
X54769Y-34876D01*
X54513Y-32474D02*
X54513Y-34876D01*
X54513Y-34876D02*
X57387Y-34876D01*
X57387Y-34876D02*
X57387Y-32474D01*
X57387Y-32474D02*
X54513Y-32474D01*
X49871Y-32244D02*
X48179Y-32244D01*
X49871Y-32000D02*
X49871Y-34850D01*
X49871Y-34850D02*
X48179Y-34850D01*
X48179Y-34850D02*
X48179Y-32000D01*
X48179Y-32000D02*
X49871Y-32000D01*
X45065Y-34237D02*
X45065Y-34631D01*
X45065Y-32268D02*
X45065Y-32662D01*
X47427Y-32268D02*
X47427Y-32662D01*
X44672Y-34237D02*
X44672Y-34631D01*
X44672Y-34631D02*
X47427Y-34631D01*
X47427Y-34631D02*
X47427Y-34237D01*
X44672Y-32268D02*
X44672Y-32662D01*
X44672Y-32268D02*
X47427Y-32268D01*
X56350Y-23230D02*
X52450Y-23230D01*
X52450Y-23230D02*
X52450Y-25030D01*
X52450Y-25030D02*
X56350Y-25030D01*
X56350Y-25030D02*
X56350Y-23230D01*
X52911Y-24730D02*
G75*
G03X52911Y-24730I-111J0D01*
G74*
G01*
X14319Y-31934D02*
X14319Y-26816D01*
X14319Y-26816D02*
X16681Y-26816D01*
X16681Y-26816D02*
X16681Y-31934D01*
X16681Y-31934D02*
X14319Y-31934D01*
X16588Y-31731D02*
G75*
G03X16588Y-31731I-160J0D01*
G74*
G01*
X35795Y-32618D02*
X32054Y-32618D01*
X32054Y-32618D02*
X31956Y-32520D01*
X31956Y-32520D02*
X31956Y-28779D01*
X31956Y-28779D02*
X32054Y-28681D01*
X32054Y-28681D02*
X35795Y-28681D01*
X35795Y-28681D02*
X35893Y-28779D01*
X35893Y-28779D02*
X35893Y-32520D01*
X35893Y-32520D02*
X35795Y-32618D01*
X32704Y-32027D02*
G75*
G03X32704Y-32027I-157J0D01*
G74*
G01*
X41303Y-29344D02*
X41028Y-29344D01*
X41697Y-29344D02*
X41972Y-29344D01*
X41303Y-29856D02*
X41028Y-29856D01*
X41972Y-29856D02*
X41697Y-29856D01*
X41028Y-29850D02*
X41028Y-29350D01*
X41972Y-29350D02*
X41972Y-29850D01*
X38203Y-29344D02*
X37928Y-29344D01*
X38597Y-29344D02*
X38872Y-29344D01*
X38203Y-29856D02*
X37928Y-29856D01*
X38872Y-29856D02*
X38597Y-29856D01*
X37928Y-29850D02*
X37928Y-29350D01*
X38872Y-29350D02*
X38872Y-29850D01*
X38000Y-27600D02*
X38000Y-27750D01*
X38000Y-28900D02*
X38000Y-28750D01*
X41900Y-28900D02*
X41900Y-28750D01*
X41900Y-27600D02*
X41900Y-27750D01*
X42200Y-27250D02*
X42200Y-27750D01*
X42200Y-29250D02*
X42200Y-28750D01*
X37700Y-29250D02*
X37700Y-28750D01*
X37700Y-27250D02*
X37700Y-27750D01*
X38000Y-28900D02*
X38250Y-29150D01*
X38250Y-29150D02*
X41650Y-29150D01*
X41650Y-29150D02*
X41900Y-28900D01*
X41900Y-27600D02*
X41650Y-27350D01*
X41650Y-27350D02*
X38250Y-27350D01*
X38250Y-27350D02*
X38000Y-27600D01*
X42200Y-29250D02*
X37700Y-29250D01*
X37700Y-27250D02*
X42200Y-27250D01*
X7472Y-8871D02*
X8416Y-8871D01*
X8416Y-8871D02*
X8416Y-9659D01*
X7472Y-7690D02*
X10227Y-7690D01*
X10227Y-7690D02*
X10227Y-9659D01*
X10227Y-9659D02*
X8850Y-9659D01*
X8850Y-9659D02*
X7472Y-9659D01*
X7472Y-9659D02*
X7472Y-7690D01*
X60350Y-32250D02*
X60650Y-32250D01*
X60650Y-32250D02*
X60650Y-28850D01*
X60650Y-28850D02*
X60350Y-28850D01*
X59150Y-32250D02*
X59150Y-28850D01*
X55350Y-32250D02*
X55350Y-28850D01*
X60350Y-28850D02*
X55350Y-28850D01*
X60350Y-32250D02*
X55350Y-32250D01*
X47416Y-29650D02*
G75*
G03X47416Y-29650I-1391J0D01*
G74*
G01*
X45040Y-27681D02*
X44056Y-28665D01*
X44056Y-28665D02*
X44056Y-30634D01*
X44056Y-30634D02*
X45040Y-31618D01*
X47009Y-27681D02*
X47993Y-28665D01*
X47993Y-28665D02*
X47993Y-30634D01*
X47993Y-30634D02*
X47009Y-31618D01*
X50403Y-14694D02*
X50128Y-14694D01*
X50797Y-14694D02*
X51072Y-14694D01*
X50403Y-15206D02*
X50128Y-15206D01*
X51072Y-15206D02*
X50797Y-15206D01*
X50128Y-15200D02*
X50128Y-14700D01*
X51072Y-14700D02*
X51072Y-15200D01*
X53431Y-34876D02*
X53431Y-32474D01*
X53687Y-34876D02*
X53687Y-32474D01*
X53687Y-32474D02*
X50813Y-32474D01*
X50813Y-32474D02*
X50813Y-34876D01*
X50813Y-34876D02*
X53687Y-34876D01*
X4775Y-9175D02*
X4775Y-9275D01*
X4775Y-9275D02*
X5675Y-9275D01*
X5675Y-9275D02*
X5675Y-9175D01*
X4775Y-9175D02*
X5675Y-9175D01*
X5675Y-9175D02*
X5675Y-8525D01*
X4775Y-7825D02*
X4775Y-7175D01*
X4775Y-7175D02*
X5675Y-7175D01*
X5675Y-7175D02*
X5675Y-7825D01*
X4775Y-8525D02*
X4775Y-9175D01*
X3111Y-30586D02*
X3111Y-30664D01*
X3111Y-30664D02*
X3189Y-30664D01*
X3189Y-30586D02*
X3189Y-30664D01*
X3111Y-30586D02*
X3189Y-30586D01*
X2875Y-30802D02*
X2875Y-30939D01*
X2875Y-30939D02*
X2973Y-30939D01*
X2973Y-30802D02*
X2973Y-30939D01*
X2875Y-30802D02*
X2973Y-30802D01*
X2875Y-30939D02*
X2875Y-30979D01*
X2875Y-30979D02*
X3346Y-30979D01*
X3346Y-30939D02*
X3346Y-30979D01*
X2875Y-30939D02*
X3346Y-30939D01*
X3366Y-30939D02*
X3366Y-30979D01*
X3366Y-30979D02*
X3425Y-30979D01*
X3425Y-30939D02*
X3425Y-30979D01*
X3366Y-30939D02*
X3425Y-30939D01*
X2875Y-30271D02*
X2875Y-30311D01*
X2875Y-30311D02*
X3346Y-30311D01*
X3346Y-30271D02*
X3346Y-30311D01*
X2875Y-30271D02*
X3346Y-30271D01*
X3366Y-30271D02*
X3366Y-30311D01*
X3366Y-30311D02*
X3425Y-30311D01*
X3425Y-30271D02*
X3425Y-30311D01*
X3366Y-30271D02*
X3425Y-30271D01*
X2875Y-30802D02*
X2875Y-30861D01*
X2875Y-30861D02*
X2973Y-30861D01*
X2973Y-30802D02*
X2973Y-30861D01*
X2875Y-30802D02*
X2973Y-30802D01*
X2855Y-31235D02*
X2855Y-30015D01*
X2855Y-30015D02*
X3445Y-30015D01*
X3445Y-30015D02*
X3445Y-31235D01*
X3445Y-31235D02*
X2855Y-31235D01*
X2953Y-30409D02*
G75*
G03X2954Y-30841I196J-215D01*
G74*
G01*
X3346Y-30409D02*
G75*
G03X2954Y-30408I-196J-215D01*
G74*
G01*
X3346Y-30840D02*
G75*
G03X3345Y-30408I-196J215D01*
G74*
G01*
X2953Y-30840D02*
G75*
G03X3345Y-30841I196J215D01*
G74*
G01*
X3300Y-28953D02*
X3300Y-28675D01*
X3300Y-28675D02*
X2750Y-28675D01*
X2750Y-28675D02*
X2750Y-28953D01*
X3300Y-29625D02*
X3300Y-29347D01*
X3300Y-29625D02*
X2750Y-29625D01*
X2750Y-29625D02*
X2750Y-29347D01*
X49900Y-15400D02*
X49850Y-15400D01*
X49850Y-15400D02*
X49850Y-17500D01*
X51350Y-17500D02*
X51350Y-15400D01*
X51350Y-15400D02*
X49900Y-15400D01*
X50800Y-15400D02*
X50800Y-15600D01*
X50800Y-15600D02*
X50400Y-15600D01*
X50400Y-15600D02*
X50400Y-15400D01*
X51350Y-17500D02*
X49850Y-17500D01*
X42587Y-18205D02*
X42865Y-18205D01*
X42865Y-18205D02*
X42865Y-17655D01*
X42865Y-17655D02*
X42587Y-17655D01*
X41915Y-18205D02*
X42193Y-18205D01*
X41915Y-18205D02*
X41915Y-17655D01*
X41915Y-17655D02*
X42193Y-17655D01*
X42587Y-18865D02*
X42865Y-18865D01*
X42865Y-18865D02*
X42865Y-18315D01*
X42865Y-18315D02*
X42587Y-18315D01*
X41915Y-18865D02*
X42193Y-18865D01*
X41915Y-18865D02*
X41915Y-18315D01*
X41915Y-18315D02*
X42193Y-18315D01*
X5663Y-34147D02*
X9286Y-34147D01*
X9286Y-34147D02*
X9286Y-26902D01*
X9286Y-26902D02*
X5663Y-26902D01*
X5663Y-26902D02*
X5663Y-34147D01*
G54D10*
X9147Y-33832D02*
G75*
G03X9147Y-33832I-176J0D01*
G74*
G01*
G54D11*
X18761Y-32650D02*
G75*
G03X18761Y-32650I-111J0D01*
G74*
G01*
X20150Y-34400D02*
X20150Y-32400D01*
X20150Y-32400D02*
X18350Y-32400D01*
X18350Y-32400D02*
X18350Y-34400D01*
X18350Y-34400D02*
X20150Y-34400D01*
X10600Y-9000D02*
X11800Y-9000D01*
X11800Y-9000D02*
X11800Y-9300D01*
X11800Y-9300D02*
X10600Y-9300D01*
X10600Y-9300D02*
X10600Y-9000D01*
G54D15*
X23722Y-26706D02*
X23997Y-26706D01*
X23328Y-26706D02*
X23053Y-26706D01*
X23722Y-26194D02*
X23997Y-26194D01*
X23053Y-26194D02*
X23328Y-26194D01*
X23997Y-26200D02*
X23997Y-26700D01*
X23053Y-26700D02*
X23053Y-26200D01*
X18178Y-31569D02*
X17903Y-31569D01*
X18572Y-31569D02*
X18847Y-31569D01*
X18178Y-32081D02*
X17903Y-32081D01*
X18847Y-32081D02*
X18572Y-32081D01*
X17903Y-32075D02*
X17903Y-31575D01*
X18847Y-31575D02*
X18847Y-32075D01*
X19253Y-31569D02*
X18978Y-31569D01*
X19647Y-31569D02*
X19922Y-31569D01*
X19253Y-32081D02*
X18978Y-32081D01*
X19922Y-32081D02*
X19647Y-32081D01*
X18978Y-32075D02*
X18978Y-31575D01*
X19922Y-31575D02*
X19922Y-32075D01*
X11494Y-8122D02*
X11494Y-8397D01*
X11494Y-7728D02*
X11494Y-7453D01*
X12006Y-8122D02*
X12006Y-8397D01*
X12006Y-7453D02*
X12006Y-7728D01*
X12000Y-8397D02*
X11500Y-8397D01*
X11500Y-7453D02*
X12000Y-7453D01*
G54D11*
X3950Y-28953D02*
X3950Y-28675D01*
X3950Y-28675D02*
X3400Y-28675D01*
X3400Y-28675D02*
X3400Y-28953D01*
X3950Y-29625D02*
X3950Y-29347D01*
X3950Y-29625D02*
X3400Y-29625D01*
X3400Y-29625D02*
X3400Y-29347D01*
X3875Y-26847D02*
X3875Y-27125D01*
X3875Y-27125D02*
X4425Y-27125D01*
X4425Y-27125D02*
X4425Y-26847D01*
X3875Y-26175D02*
X3875Y-26453D01*
X3875Y-26175D02*
X4425Y-26175D01*
X4425Y-26175D02*
X4425Y-26453D01*
X19447Y-8175D02*
X19725Y-8175D01*
X19725Y-8175D02*
X19725Y-7625D01*
X19725Y-7625D02*
X19447Y-7625D01*
X18775Y-8175D02*
X19053Y-8175D01*
X18775Y-8175D02*
X18775Y-7625D01*
X18775Y-7625D02*
X19053Y-7625D01*
X11175Y-7728D02*
X11175Y-7450D01*
X11175Y-7450D02*
X10625Y-7450D01*
X10625Y-7450D02*
X10625Y-7728D01*
X11175Y-8400D02*
X11175Y-8122D01*
X11175Y-8400D02*
X10625Y-8400D01*
X10625Y-8400D02*
X10625Y-8122D01*
X6478Y-9325D02*
X6200Y-9325D01*
X6200Y-9325D02*
X6200Y-9875D01*
X6200Y-9875D02*
X6478Y-9875D01*
X7150Y-9325D02*
X6872Y-9325D01*
X7150Y-9325D02*
X7150Y-9875D01*
X7150Y-9875D02*
X6872Y-9875D01*
G54D15*
X3328Y-9419D02*
X3053Y-9419D01*
X3722Y-9419D02*
X3997Y-9419D01*
X3328Y-9931D02*
X3053Y-9931D01*
X3997Y-9931D02*
X3722Y-9931D01*
X3053Y-9925D02*
X3053Y-9425D01*
X3997Y-9425D02*
X3997Y-9925D01*
X3653Y-18619D02*
X3378Y-18619D01*
X4047Y-18619D02*
X4322Y-18619D01*
X3653Y-19131D02*
X3378Y-19131D01*
X4322Y-19131D02*
X4047Y-19131D01*
X3378Y-19125D02*
X3378Y-18625D01*
X4322Y-18625D02*
X4322Y-19125D01*
G54D11*
X17947Y-8175D02*
X18225Y-8175D01*
X18225Y-8175D02*
X18225Y-7625D01*
X18225Y-7625D02*
X17947Y-7625D01*
X17275Y-8175D02*
X17553Y-8175D01*
X17275Y-8175D02*
X17275Y-7625D01*
X17275Y-7625D02*
X17553Y-7625D01*
X52128Y-14675D02*
X51850Y-14675D01*
X51850Y-14675D02*
X51850Y-15225D01*
X51850Y-15225D02*
X52128Y-15225D01*
X52800Y-14675D02*
X52522Y-14675D01*
X52800Y-14675D02*
X52800Y-15225D01*
X52800Y-15225D02*
X52522Y-15225D01*
G54D16*
G36*
X50805Y-22394D02*
X50799Y-22400D01*
X50783Y-22409D01*
X50758Y-22421D01*
X50727Y-22435D01*
X50691Y-22450D01*
X50652Y-22465D01*
X50612Y-22479D01*
X50606Y-22481D01*
X50536Y-22502D01*
X50473Y-22519D01*
X50411Y-22530D01*
X50347Y-22537D01*
X50277Y-22542D01*
X50238Y-22543D01*
X50197Y-22543D01*
X50160Y-22543D01*
X50128Y-22543D01*
X50105Y-22543D01*
X50092Y-22542D01*
X50092Y-22542D01*
X50077Y-22540D01*
X50055Y-22536D01*
X50030Y-22532D01*
X49995Y-22525D01*
X49953Y-22514D01*
X49908Y-22501D01*
X49864Y-22486D01*
X49826Y-22472D01*
X49812Y-22466D01*
X49784Y-22453D01*
X49753Y-22436D01*
X49722Y-22418D01*
X49694Y-22402D01*
X49674Y-22388D01*
X49670Y-22385D01*
X49660Y-22375D01*
X49659Y-22367D01*
X49666Y-22355D01*
X49677Y-22338D01*
X49705Y-22357D01*
X49784Y-22404D01*
X49872Y-22443D01*
X49966Y-22472D01*
X50064Y-22493D01*
X50164Y-22503D01*
X50264Y-22503D01*
X50297Y-22501D01*
X50426Y-22482D01*
X50553Y-22452D01*
X50679Y-22408D01*
X50726Y-22389D01*
X50753Y-22377D01*
X50771Y-22370D01*
X50782Y-22367D01*
X50789Y-22368D01*
X50794Y-22373D01*
X50795Y-22375D01*
X50803Y-22387D01*
X50805Y-22394D01*
X50805Y-22394D01*
X50805Y-22394D01*
G37*
G36*
X51980Y-19304D02*
X51980Y-19322D01*
X51975Y-19339D01*
X51965Y-19360D01*
X51954Y-19381D01*
X51937Y-19405D01*
X51937Y-19300D01*
X51937Y-19296D01*
X51934Y-19285D01*
X51929Y-19275D01*
X51920Y-19264D01*
X51906Y-19251D01*
X51885Y-19235D01*
X51857Y-19214D01*
X51820Y-19188D01*
X51800Y-19174D01*
X51739Y-19132D01*
X51686Y-19096D01*
X51641Y-19066D01*
X51602Y-19041D01*
X51568Y-19019D01*
X51536Y-19000D01*
X51505Y-18983D01*
X51474Y-18966D01*
X51441Y-18949D01*
X51436Y-18946D01*
X51268Y-18868D01*
X51094Y-18801D01*
X50913Y-18744D01*
X50726Y-18699D01*
X50531Y-18664D01*
X50330Y-18639D01*
X50145Y-18627D01*
X50052Y-18623D01*
X49984Y-18590D01*
X49865Y-18540D01*
X49745Y-18500D01*
X49624Y-18471D01*
X49504Y-18452D01*
X49385Y-18444D01*
X49269Y-18447D01*
X49156Y-18460D01*
X49049Y-18484D01*
X48946Y-18519D01*
X48883Y-18547D01*
X48854Y-18562D01*
X48825Y-18578D01*
X48797Y-18594D01*
X48773Y-18609D01*
X48755Y-18621D01*
X48745Y-18629D01*
X48743Y-18631D01*
X48749Y-18633D01*
X48766Y-18635D01*
X48790Y-18637D01*
X48810Y-18639D01*
X48910Y-18650D01*
X49012Y-18673D01*
X49113Y-18707D01*
X49210Y-18750D01*
X49301Y-18801D01*
X49302Y-18802D01*
X49334Y-18824D01*
X49364Y-18846D01*
X49389Y-18866D01*
X49407Y-18884D01*
X49416Y-18896D01*
X49418Y-18900D01*
X49413Y-18907D01*
X49401Y-18922D01*
X49382Y-18943D01*
X49357Y-18969D01*
X49329Y-18998D01*
X49315Y-19012D01*
X49215Y-19117D01*
X49126Y-19222D01*
X49049Y-19327D01*
X48982Y-19435D01*
X48925Y-19545D01*
X48877Y-19659D01*
X48875Y-19664D01*
X48840Y-19766D01*
X48815Y-19865D01*
X48797Y-19967D01*
X48787Y-20074D01*
X48784Y-20122D01*
X48786Y-20259D01*
X48799Y-20398D01*
X48825Y-20537D01*
X48864Y-20677D01*
X48914Y-20816D01*
X48975Y-20954D01*
X49048Y-21089D01*
X49132Y-21222D01*
X49211Y-21332D01*
X49230Y-21357D01*
X49246Y-21378D01*
X49257Y-21394D01*
X49262Y-21403D01*
X49262Y-21403D01*
X49257Y-21409D01*
X49244Y-21420D01*
X49233Y-21429D01*
X49196Y-21463D01*
X49164Y-21504D01*
X49141Y-21547D01*
X49139Y-21552D01*
X49130Y-21584D01*
X49125Y-21622D01*
X49124Y-21661D01*
X49128Y-21697D01*
X49131Y-21714D01*
X49135Y-21730D01*
X49131Y-21737D01*
X49130Y-21738D01*
X49128Y-21741D01*
X49133Y-21741D01*
X49141Y-21748D01*
X49150Y-21766D01*
X49154Y-21776D01*
X49171Y-21849D01*
X49179Y-21921D01*
X49176Y-21990D01*
X49162Y-22054D01*
X49139Y-22111D01*
X49136Y-22116D01*
X49127Y-22133D01*
X49121Y-22145D01*
X49119Y-22149D01*
X49125Y-22150D01*
X49139Y-22148D01*
X49159Y-22143D01*
X49181Y-22136D01*
X49201Y-22128D01*
X49244Y-22102D01*
X49278Y-22068D01*
X49304Y-22025D01*
X49322Y-21973D01*
X49331Y-21910D01*
X49333Y-21859D01*
X49334Y-21819D01*
X49337Y-21789D01*
X49344Y-21765D01*
X49354Y-21744D01*
X49371Y-21722D01*
X49386Y-21706D01*
X49435Y-21661D01*
X49488Y-21629D01*
X49544Y-21608D01*
X49607Y-21598D01*
X49625Y-21598D01*
X49656Y-21599D01*
X49678Y-21607D01*
X49691Y-21621D01*
X49694Y-21643D01*
X49689Y-21675D01*
X49684Y-21693D01*
X49671Y-21754D01*
X49670Y-21811D01*
X49681Y-21864D01*
X49704Y-21915D01*
X49740Y-21964D01*
X49788Y-22012D01*
X49825Y-22041D01*
X49849Y-22059D01*
X49847Y-21963D01*
X49848Y-21868D01*
X49857Y-21779D01*
X49874Y-21699D01*
X49881Y-21677D01*
X49896Y-21619D01*
X49902Y-21567D01*
X49899Y-21516D01*
X49897Y-21501D01*
X49888Y-21462D01*
X49873Y-21423D01*
X49854Y-21388D01*
X49841Y-21368D01*
X49814Y-21346D01*
X49778Y-21331D01*
X49734Y-21324D01*
X49685Y-21325D01*
X49631Y-21334D01*
X49589Y-21347D01*
X49553Y-21359D01*
X49540Y-21338D01*
X49524Y-21309D01*
X49505Y-21271D01*
X49487Y-21231D01*
X49470Y-21191D01*
X49460Y-21161D01*
X49436Y-21069D01*
X49425Y-20978D01*
X49427Y-20887D01*
X49442Y-20796D01*
X49470Y-20705D01*
X49506Y-20624D01*
X49553Y-20543D01*
X49610Y-20464D01*
X49678Y-20388D01*
X49758Y-20313D01*
X49772Y-20302D01*
X49809Y-20273D01*
X49849Y-20248D01*
X49896Y-20224D01*
X49951Y-20200D01*
X50016Y-20177D01*
X50038Y-20169D01*
X50130Y-20139D01*
X50077Y-20083D01*
X50022Y-20020D01*
X49979Y-19958D01*
X49948Y-19897D01*
X49928Y-19833D01*
X49927Y-19830D01*
X49922Y-19804D01*
X49919Y-19772D01*
X49917Y-19736D01*
X49916Y-19698D01*
X49916Y-19660D01*
X49917Y-19623D01*
X49919Y-19591D01*
X49922Y-19565D01*
X49926Y-19547D01*
X49930Y-19540D01*
X49932Y-19540D01*
X49940Y-19542D01*
X49958Y-19548D01*
X49987Y-19557D01*
X50022Y-19568D01*
X50065Y-19581D01*
X50113Y-19596D01*
X50153Y-19609D01*
X50214Y-19627D01*
X50279Y-19648D01*
X50346Y-19668D01*
X50411Y-19688D01*
X50471Y-19707D01*
X50523Y-19723D01*
X50533Y-19726D01*
X50602Y-19747D01*
X50661Y-19764D01*
X50713Y-19778D01*
X50759Y-19788D01*
X50802Y-19796D01*
X50844Y-19802D01*
X50887Y-19805D01*
X50934Y-19808D01*
X50951Y-19808D01*
X51075Y-19807D01*
X51196Y-19794D01*
X51312Y-19771D01*
X51422Y-19738D01*
X51527Y-19695D01*
X51624Y-19642D01*
X51713Y-19580D01*
X51792Y-19510D01*
X51858Y-19444D01*
X51750Y-19442D01*
X51641Y-19440D01*
X51641Y-19418D01*
X51641Y-19396D01*
X51769Y-19394D01*
X51896Y-19392D01*
X51919Y-19355D01*
X51931Y-19332D01*
X51937Y-19315D01*
X51937Y-19300D01*
X51937Y-19405D01*
X51922Y-19429D01*
X51882Y-19479D01*
X51839Y-19528D01*
X51795Y-19570D01*
X51789Y-19576D01*
X51697Y-19647D01*
X51597Y-19708D01*
X51490Y-19758D01*
X51376Y-19798D01*
X51254Y-19828D01*
X51125Y-19847D01*
X51051Y-19853D01*
X50978Y-19857D01*
X50875Y-19898D01*
X50875Y-19852D01*
X50793Y-19839D01*
X50711Y-19825D01*
X50623Y-19884D01*
X50623Y-19803D01*
X50617Y-19800D01*
X50601Y-19794D01*
X50577Y-19786D01*
X50547Y-19776D01*
X50535Y-19772D01*
X50446Y-19745D01*
X50352Y-19815D01*
X50352Y-19719D01*
X50345Y-19715D01*
X50327Y-19709D01*
X50302Y-19700D01*
X50273Y-19691D01*
X50270Y-19690D01*
X50193Y-19666D01*
X50139Y-19723D01*
X50117Y-19748D01*
X50100Y-19765D01*
X50100Y-19694D01*
X50098Y-19694D01*
X50097Y-19695D01*
X50097Y-19643D01*
X50092Y-19637D01*
X50077Y-19631D01*
X50050Y-19622D01*
X50028Y-19616D01*
X50003Y-19608D01*
X49984Y-19602D01*
X49972Y-19598D01*
X49971Y-19598D01*
X49966Y-19599D01*
X49964Y-19607D01*
X49962Y-19625D01*
X49962Y-19644D01*
X49962Y-19670D01*
X49964Y-19684D01*
X49966Y-19691D01*
X49972Y-19691D01*
X49973Y-19691D01*
X49984Y-19687D01*
X50004Y-19680D01*
X50029Y-19671D01*
X50046Y-19665D01*
X50073Y-19655D01*
X50090Y-19648D01*
X50097Y-19643D01*
X50097Y-19695D01*
X50088Y-19698D01*
X50069Y-19704D01*
X50044Y-19713D01*
X50024Y-19719D01*
X49997Y-19728D01*
X49975Y-19735D01*
X49961Y-19740D01*
X49957Y-19742D01*
X49957Y-19748D01*
X49959Y-19763D01*
X49963Y-19784D01*
X49966Y-19804D01*
X49970Y-19821D01*
X49973Y-19831D01*
X49973Y-19831D01*
X49979Y-19829D01*
X49991Y-19819D01*
X50008Y-19802D01*
X50030Y-19780D01*
X50053Y-19754D01*
X50077Y-19727D01*
X50089Y-19713D01*
X50098Y-19701D01*
X50100Y-19694D01*
X50100Y-19765D01*
X50096Y-19770D01*
X50081Y-19788D01*
X50072Y-19798D01*
X50059Y-19816D01*
X50109Y-19800D01*
X50134Y-19792D01*
X50167Y-19782D01*
X50205Y-19770D01*
X50245Y-19758D01*
X50258Y-19753D01*
X50291Y-19743D01*
X50319Y-19733D01*
X50340Y-19726D01*
X50351Y-19720D01*
X50352Y-19719D01*
X50352Y-19815D01*
X50323Y-19838D01*
X50323Y-19782D01*
X50321Y-19781D01*
X50315Y-19782D01*
X50304Y-19785D01*
X50286Y-19790D01*
X50261Y-19798D01*
X50226Y-19809D01*
X50182Y-19823D01*
X50132Y-19839D01*
X50092Y-19851D01*
X50058Y-19862D01*
X50029Y-19872D01*
X50008Y-19879D01*
X49997Y-19883D01*
X49996Y-19884D01*
X49996Y-19892D01*
X50001Y-19906D01*
X50008Y-19920D01*
X50019Y-19939D01*
X50030Y-19958D01*
X50041Y-19974D01*
X50048Y-19983D01*
X50050Y-19985D01*
X50056Y-19981D01*
X50071Y-19971D01*
X50093Y-19955D01*
X50121Y-19934D01*
X50154Y-19909D01*
X50184Y-19887D01*
X50220Y-19860D01*
X50253Y-19835D01*
X50281Y-19814D01*
X50303Y-19798D01*
X50317Y-19787D01*
X50322Y-19783D01*
X50323Y-19782D01*
X50323Y-19838D01*
X50311Y-19847D01*
X50275Y-19874D01*
X50242Y-19898D01*
X50215Y-19919D01*
X50194Y-19935D01*
X50180Y-19946D01*
X50176Y-19949D01*
X50182Y-19948D01*
X50199Y-19943D01*
X50225Y-19935D01*
X50259Y-19924D01*
X50299Y-19911D01*
X50344Y-19896D01*
X50362Y-19890D01*
X50411Y-19874D01*
X50458Y-19859D01*
X50500Y-19846D01*
X50536Y-19834D01*
X50565Y-19825D01*
X50583Y-19819D01*
X50586Y-19818D01*
X50606Y-19812D01*
X50619Y-19806D01*
X50623Y-19803D01*
X50623Y-19884D01*
X50562Y-19925D01*
X50550Y-19932D01*
X50550Y-19877D01*
X50544Y-19879D01*
X50527Y-19884D01*
X50501Y-19892D01*
X50467Y-19903D01*
X50428Y-19915D01*
X50385Y-19929D01*
X50340Y-19944D01*
X50293Y-19959D01*
X50248Y-19974D01*
X50205Y-19988D01*
X50166Y-20001D01*
X50133Y-20012D01*
X50107Y-20021D01*
X50091Y-20026D01*
X50085Y-20029D01*
X50088Y-20034D01*
X50099Y-20046D01*
X50114Y-20061D01*
X50132Y-20079D01*
X50151Y-20096D01*
X50167Y-20110D01*
X50180Y-20119D01*
X50185Y-20121D01*
X50191Y-20118D01*
X50208Y-20108D01*
X50233Y-20092D01*
X50264Y-20072D01*
X50300Y-20048D01*
X50341Y-20020D01*
X50372Y-20000D01*
X50415Y-19971D01*
X50453Y-19945D01*
X50487Y-19921D01*
X50515Y-19902D01*
X50536Y-19888D01*
X50548Y-19879D01*
X50550Y-19877D01*
X50550Y-19932D01*
X50522Y-19952D01*
X50485Y-19976D01*
X50452Y-19999D01*
X50425Y-20017D01*
X50406Y-20030D01*
X50397Y-20037D01*
X50399Y-20038D01*
X50412Y-20033D01*
X50435Y-20025D01*
X50466Y-20014D01*
X50505Y-19999D01*
X50550Y-19981D01*
X50600Y-19962D01*
X50627Y-19951D01*
X50875Y-19852D01*
X50875Y-19898D01*
X50603Y-20007D01*
X50229Y-20157D01*
X50335Y-20261D01*
X50371Y-20297D01*
X50400Y-20326D01*
X50421Y-20349D01*
X50437Y-20368D01*
X50448Y-20384D01*
X50456Y-20399D01*
X50457Y-20401D01*
X50473Y-20450D01*
X50479Y-20503D01*
X50476Y-20549D01*
X50470Y-20591D01*
X50455Y-20562D01*
X50440Y-20535D01*
X50428Y-20519D01*
X50428Y-20455D01*
X50428Y-20448D01*
X50424Y-20434D01*
X50423Y-20431D01*
X50418Y-20418D01*
X50409Y-20404D01*
X50397Y-20388D01*
X50380Y-20368D01*
X50356Y-20342D01*
X50325Y-20311D01*
X50286Y-20273D01*
X50279Y-20265D01*
X50185Y-20173D01*
X50124Y-20189D01*
X50089Y-20199D01*
X50051Y-20210D01*
X50013Y-20223D01*
X49977Y-20236D01*
X49945Y-20249D01*
X49919Y-20261D01*
X49900Y-20270D01*
X49891Y-20277D01*
X49891Y-20278D01*
X49896Y-20286D01*
X49910Y-20299D01*
X49931Y-20314D01*
X49956Y-20332D01*
X49982Y-20348D01*
X50008Y-20363D01*
X50017Y-20368D01*
X50080Y-20393D01*
X50146Y-20408D01*
X50212Y-20412D01*
X50268Y-20415D01*
X50320Y-20421D01*
X50364Y-20431D01*
X50393Y-20441D01*
X50411Y-20449D01*
X50424Y-20454D01*
X50428Y-20455D01*
X50428Y-20519D01*
X50423Y-20514D01*
X50403Y-20496D01*
X50379Y-20483D01*
X50348Y-20472D01*
X50310Y-20465D01*
X50262Y-20458D01*
X50204Y-20453D01*
X50186Y-20452D01*
X50120Y-20445D01*
X50062Y-20433D01*
X50010Y-20415D01*
X49960Y-20388D01*
X49909Y-20353D01*
X49877Y-20327D01*
X49861Y-20314D01*
X49848Y-20305D01*
X49843Y-20303D01*
X49834Y-20307D01*
X49819Y-20319D01*
X49798Y-20336D01*
X49774Y-20356D01*
X49749Y-20379D01*
X49724Y-20402D01*
X49702Y-20424D01*
X49693Y-20434D01*
X49625Y-20516D01*
X49568Y-20602D01*
X49523Y-20691D01*
X49490Y-20783D01*
X49475Y-20846D01*
X49471Y-20883D01*
X49470Y-20929D01*
X49471Y-20979D01*
X49476Y-21030D01*
X49482Y-21076D01*
X49491Y-21113D01*
X49501Y-21144D01*
X49513Y-21179D01*
X49527Y-21214D01*
X49540Y-21246D01*
X49553Y-21272D01*
X49563Y-21290D01*
X49564Y-21291D01*
X49571Y-21298D01*
X49579Y-21301D01*
X49593Y-21298D01*
X49604Y-21295D01*
X49630Y-21290D01*
X49663Y-21286D01*
X49699Y-21283D01*
X49735Y-21283D01*
X49767Y-21284D01*
X49789Y-21287D01*
X49791Y-21287D01*
X49831Y-21304D01*
X49865Y-21332D01*
X49895Y-21369D01*
X49917Y-21413D01*
X49933Y-21464D01*
X49943Y-21518D01*
X49944Y-21576D01*
X49937Y-21634D01*
X49923Y-21687D01*
X49909Y-21741D01*
X49899Y-21804D01*
X49892Y-21873D01*
X49890Y-21944D01*
X49893Y-22014D01*
X49898Y-22064D01*
X49902Y-22097D01*
X49903Y-22118D01*
X49900Y-22128D01*
X49890Y-22128D01*
X49872Y-22120D01*
X49846Y-22105D01*
X49843Y-22103D01*
X49778Y-22059D01*
X49724Y-22011D01*
X49681Y-21959D01*
X49650Y-21904D01*
X49637Y-21870D01*
X49628Y-21825D01*
X49626Y-21775D01*
X49630Y-21725D01*
X49641Y-21681D01*
X49642Y-21679D01*
X49648Y-21660D01*
X49650Y-21645D01*
X49649Y-21641D01*
X49641Y-21639D01*
X49623Y-21640D01*
X49599Y-21643D01*
X49572Y-21648D01*
X49546Y-21653D01*
X49527Y-21658D01*
X49506Y-21667D01*
X49480Y-21683D01*
X49452Y-21704D01*
X49426Y-21727D01*
X49404Y-21750D01*
X49396Y-21760D01*
X49387Y-21773D01*
X49381Y-21785D01*
X49378Y-21798D01*
X49377Y-21816D01*
X49377Y-21843D01*
X49378Y-21851D01*
X49375Y-21925D01*
X49363Y-21991D01*
X49341Y-22048D01*
X49310Y-22096D01*
X49270Y-22136D01*
X49220Y-22166D01*
X49177Y-22183D01*
X49156Y-22189D01*
X49130Y-22193D01*
X49101Y-22197D01*
X49072Y-22200D01*
X49047Y-22201D01*
X49028Y-22201D01*
X49017Y-22199D01*
X49016Y-22198D01*
X49020Y-22191D01*
X49031Y-22177D01*
X49045Y-22163D01*
X49085Y-22116D01*
X49114Y-22062D01*
X49131Y-22003D01*
X49136Y-21939D01*
X49131Y-21871D01*
X49114Y-21798D01*
X49106Y-21774D01*
X49087Y-21706D01*
X49081Y-21642D01*
X49087Y-21580D01*
X49105Y-21523D01*
X49135Y-21471D01*
X49164Y-21435D01*
X49203Y-21395D01*
X49147Y-21319D01*
X49056Y-21189D01*
X48976Y-21051D01*
X48906Y-20908D01*
X48847Y-20761D01*
X48800Y-20610D01*
X48764Y-20459D01*
X48752Y-20387D01*
X48747Y-20340D01*
X48743Y-20284D01*
X48741Y-20223D01*
X48740Y-20159D01*
X48741Y-20097D01*
X48744Y-20039D01*
X48749Y-19988D01*
X48752Y-19962D01*
X48778Y-19832D01*
X48813Y-19708D01*
X48857Y-19589D01*
X48910Y-19475D01*
X48974Y-19362D01*
X49049Y-19252D01*
X49135Y-19143D01*
X49234Y-19033D01*
X49265Y-19001D01*
X49362Y-18901D01*
X49337Y-18879D01*
X49319Y-18867D01*
X49295Y-18850D01*
X49267Y-18832D01*
X49252Y-18823D01*
X49172Y-18779D01*
X49092Y-18744D01*
X49010Y-18717D01*
X48923Y-18698D01*
X48829Y-18684D01*
X48726Y-18677D01*
X48720Y-18677D01*
X48607Y-18672D01*
X48687Y-18616D01*
X48783Y-18552D01*
X48881Y-18501D01*
X48980Y-18461D01*
X49083Y-18431D01*
X49193Y-18412D01*
X49271Y-18403D01*
X49383Y-18401D01*
X49499Y-18408D01*
X49618Y-18426D01*
X49738Y-18454D01*
X49856Y-18490D01*
X49970Y-18536D01*
X49998Y-18549D01*
X50063Y-18579D01*
X50173Y-18585D01*
X50379Y-18601D01*
X50577Y-18627D01*
X50769Y-18663D01*
X50955Y-18711D01*
X51135Y-18769D01*
X51252Y-18813D01*
X51314Y-18839D01*
X51381Y-18871D01*
X51450Y-18905D01*
X51517Y-18941D01*
X51580Y-18976D01*
X51634Y-19010D01*
X51649Y-19020D01*
X51717Y-19065D01*
X51774Y-19104D01*
X51823Y-19137D01*
X51863Y-19165D01*
X51896Y-19188D01*
X51922Y-19208D01*
X51942Y-19224D01*
X51956Y-19238D01*
X51967Y-19251D01*
X51973Y-19262D01*
X51977Y-19274D01*
X51979Y-19285D01*
X51980Y-19298D01*
X51980Y-19304D01*
X51980Y-19304D01*
X51980Y-19304D01*
G37*
G36*
X48773Y-21915D02*
X48772Y-21923D01*
X48761Y-21930D01*
X48741Y-21939D01*
X48712Y-21952D01*
X48678Y-21965D01*
X48642Y-21979D01*
X48604Y-21993D01*
X48585Y-22000D01*
X48511Y-22022D01*
X48435Y-22040D01*
X48361Y-22054D01*
X48291Y-22062D01*
X48273Y-22063D01*
X48241Y-22064D01*
X48211Y-22066D01*
X48187Y-22068D01*
X48176Y-22068D01*
X48157Y-22069D01*
X48131Y-22068D01*
X48101Y-22066D01*
X48095Y-22066D01*
X47999Y-22053D01*
X47903Y-22031D01*
X47867Y-22020D01*
X47842Y-22012D01*
X47814Y-22000D01*
X47782Y-21987D01*
X47750Y-21972D01*
X47720Y-21958D01*
X47694Y-21945D01*
X47674Y-21934D01*
X47663Y-21927D01*
X47661Y-21924D01*
X47665Y-21917D01*
X47672Y-21906D01*
X47684Y-21891D01*
X47752Y-21925D01*
X47853Y-21969D01*
X47957Y-22000D01*
X48066Y-22019D01*
X48178Y-22025D01*
X48292Y-22020D01*
X48410Y-22001D01*
X48531Y-21971D01*
X48620Y-21941D01*
X48652Y-21929D01*
X48683Y-21917D01*
X48710Y-21905D01*
X48719Y-21902D01*
X48756Y-21885D01*
X48767Y-21901D01*
X48773Y-21915D01*
X48773Y-21915D01*
X48773Y-21915D01*
G37*
G36*
X51427Y-21795D02*
X51422Y-21800D01*
X51407Y-21809D01*
X51386Y-21822D01*
X51364Y-21835D01*
X51264Y-21884D01*
X51158Y-21922D01*
X51050Y-21949D01*
X50940Y-21964D01*
X50830Y-21968D01*
X50769Y-21964D01*
X50713Y-21956D01*
X50650Y-21942D01*
X50584Y-21924D01*
X50519Y-21901D01*
X50460Y-21877D01*
X50439Y-21867D01*
X50406Y-21850D01*
X50375Y-21832D01*
X50346Y-21815D01*
X50323Y-21801D01*
X50306Y-21789D01*
X50299Y-21782D01*
X50299Y-21781D01*
X50303Y-21773D01*
X50310Y-21762D01*
X50322Y-21749D01*
X50358Y-21772D01*
X50430Y-21813D01*
X50510Y-21850D01*
X50593Y-21881D01*
X50675Y-21905D01*
X50688Y-21908D01*
X50734Y-21915D01*
X50788Y-21920D01*
X50846Y-21922D01*
X50906Y-21922D01*
X50961Y-21918D01*
X50998Y-21914D01*
X51088Y-21896D01*
X51177Y-21870D01*
X51263Y-21837D01*
X51342Y-21798D01*
X51360Y-21787D01*
X51404Y-21761D01*
X51415Y-21776D01*
X51424Y-21788D01*
X51427Y-21795D01*
X51427Y-21795D01*
X51427Y-21795D01*
G37*
G36*
X49471Y-19699D02*
X49471Y-19707D01*
X49464Y-19717D01*
X49453Y-19729D01*
X49424Y-19766D01*
X49408Y-19805D01*
X49403Y-19843D01*
X49411Y-19880D01*
X49416Y-19891D01*
X49438Y-19945D01*
X49452Y-19996D01*
X49455Y-20046D01*
X49449Y-20090D01*
X49441Y-20113D01*
X49411Y-20161D01*
X49373Y-20200D01*
X49326Y-20230D01*
X49272Y-20250D01*
X49212Y-20259D01*
X49173Y-20263D01*
X49179Y-20239D01*
X49184Y-20211D01*
X49186Y-20178D01*
X49185Y-20145D01*
X49181Y-20116D01*
X49176Y-20101D01*
X49168Y-20088D01*
X49153Y-20068D01*
X49133Y-20043D01*
X49108Y-20015D01*
X49092Y-19997D01*
X49056Y-19957D01*
X49028Y-19923D01*
X49007Y-19893D01*
X48992Y-19864D01*
X48980Y-19834D01*
X48973Y-19809D01*
X48966Y-19759D01*
X48971Y-19713D01*
X48988Y-19670D01*
X49018Y-19633D01*
X49059Y-19600D01*
X49100Y-19577D01*
X49129Y-19565D01*
X49161Y-19554D01*
X49191Y-19545D01*
X49217Y-19539D01*
X49231Y-19538D01*
X49241Y-19542D01*
X49243Y-19547D01*
X49245Y-19561D01*
X49246Y-19566D01*
X49245Y-19572D01*
X49235Y-19577D01*
X49215Y-19583D01*
X49204Y-19586D01*
X49148Y-19604D01*
X49100Y-19626D01*
X49061Y-19653D01*
X49033Y-19684D01*
X49016Y-19716D01*
X49010Y-19752D01*
X49014Y-19794D01*
X49028Y-19839D01*
X49034Y-19851D01*
X49045Y-19873D01*
X49060Y-19895D01*
X49080Y-19920D01*
X49108Y-19950D01*
X49124Y-19968D01*
X49159Y-20004D01*
X49184Y-20034D01*
X49203Y-20061D01*
X49215Y-20086D01*
X49223Y-20111D01*
X49227Y-20140D01*
X49228Y-20158D01*
X49230Y-20187D01*
X49234Y-20204D01*
X49242Y-20211D01*
X49256Y-20211D01*
X49279Y-20203D01*
X49288Y-20200D01*
X49332Y-20176D01*
X49370Y-20143D01*
X49392Y-20112D01*
X49406Y-20080D01*
X49411Y-20046D01*
X49409Y-20007D01*
X49397Y-19963D01*
X49378Y-19911D01*
X49372Y-19898D01*
X49362Y-19861D01*
X49361Y-19820D01*
X49370Y-19779D01*
X49378Y-19759D01*
X49389Y-19742D01*
X49403Y-19721D01*
X49419Y-19702D01*
X49435Y-19686D01*
X49446Y-19676D01*
X49451Y-19674D01*
X49458Y-19679D01*
X49466Y-19689D01*
X49471Y-19699D01*
X49471Y-19699D01*
X49471Y-19699D01*
G37*
G36*
X49472Y-19362D02*
X49465Y-19371D01*
X49456Y-19376D01*
X49447Y-19379D01*
X49439Y-19373D01*
X49431Y-19361D01*
X49414Y-19329D01*
X49407Y-19296D01*
X49406Y-19257D01*
X49406Y-19254D01*
X49410Y-19223D01*
X49417Y-19195D01*
X49427Y-19172D01*
X49438Y-19159D01*
X49442Y-19157D01*
X49453Y-19158D01*
X49463Y-19165D01*
X49469Y-19172D01*
X49471Y-19179D01*
X49468Y-19189D01*
X49460Y-19208D01*
X49458Y-19212D01*
X49448Y-19241D01*
X49446Y-19270D01*
X49452Y-19301D01*
X49463Y-19329D01*
X49471Y-19349D01*
X49472Y-19362D01*
X49472Y-19362D01*
X49472Y-19362D01*
G37*
G36*
X49586Y-19106D02*
X49583Y-19113D01*
X49576Y-19127D01*
X49567Y-19146D01*
X49551Y-19188D01*
X49547Y-19231D01*
X49554Y-19273D01*
X49561Y-19290D01*
X49569Y-19307D01*
X49571Y-19317D01*
X49568Y-19323D01*
X49563Y-19327D01*
X49549Y-19335D01*
X49539Y-19334D01*
X49529Y-19322D01*
X49520Y-19306D01*
X49512Y-19286D01*
X49507Y-19264D01*
X49505Y-19237D01*
X49505Y-19223D01*
X49506Y-19194D01*
X49508Y-19173D01*
X49515Y-19154D01*
X49526Y-19130D01*
X49527Y-19128D01*
X49549Y-19085D01*
X49567Y-19094D01*
X49580Y-19102D01*
X49586Y-19106D01*
X49586Y-19106D01*
X49586Y-19106D01*
X49586Y-19106D01*
G37*
G36*
X49705Y-19071D02*
X49691Y-19081D01*
X49672Y-19101D01*
X49656Y-19128D01*
X49645Y-19158D01*
X49642Y-19181D01*
X49647Y-19210D01*
X49660Y-19244D01*
X49679Y-19278D01*
X49685Y-19286D01*
X49689Y-19297D01*
X49683Y-19307D01*
X49680Y-19311D01*
X49670Y-19320D01*
X49663Y-19324D01*
X49657Y-19319D01*
X49646Y-19306D01*
X49639Y-19296D01*
X49614Y-19251D01*
X49602Y-19205D01*
X49601Y-19160D01*
X49612Y-19118D01*
X49635Y-19079D01*
X49652Y-19060D01*
X49674Y-19038D01*
X49690Y-19055D01*
X49705Y-19071D01*
X49705Y-19071D01*
X49705Y-19071D01*
G37*
G36*
X50654Y-19103D02*
X50653Y-19123D01*
X50649Y-19135D01*
X50640Y-19149D01*
X50626Y-19164D01*
X50610Y-19176D01*
X50610Y-19111D01*
X50607Y-19097D01*
X50598Y-19079D01*
X50580Y-19056D01*
X50555Y-19025D01*
X50546Y-19014D01*
X50531Y-18997D01*
X50519Y-18985D01*
X50512Y-18980D01*
X50512Y-18980D01*
X50509Y-18986D01*
X50508Y-19002D01*
X50507Y-19025D01*
X50507Y-19037D01*
X50508Y-19072D01*
X50512Y-19097D01*
X50521Y-19114D01*
X50535Y-19126D01*
X50548Y-19133D01*
X50569Y-19141D01*
X50584Y-19141D01*
X50597Y-19133D01*
X50599Y-19132D01*
X50607Y-19122D01*
X50610Y-19111D01*
X50610Y-19176D01*
X50609Y-19177D01*
X50594Y-19186D01*
X50587Y-19187D01*
X50577Y-19185D01*
X50561Y-19182D01*
X50558Y-19182D01*
X50523Y-19169D01*
X50494Y-19148D01*
X50475Y-19121D01*
X50469Y-19107D01*
X50465Y-19090D01*
X50463Y-19070D01*
X50462Y-19041D01*
X50462Y-19019D01*
X50462Y-18988D01*
X50460Y-18959D01*
X50458Y-18937D01*
X50456Y-18927D01*
X50452Y-18913D01*
X50457Y-18904D01*
X50465Y-18898D01*
X50483Y-18887D01*
X50545Y-18952D01*
X50585Y-18994D01*
X50614Y-19028D01*
X50635Y-19058D01*
X50648Y-19082D01*
X50654Y-19103D01*
X50654Y-19103D01*
X50654Y-19103D01*
G37*
G36*
X51049Y-18904D02*
X51048Y-18915D01*
X51042Y-18932D01*
X51037Y-18954D01*
X51033Y-18983D01*
X51029Y-19014D01*
X51028Y-19025D01*
X51022Y-19076D01*
X51010Y-19117D01*
X50991Y-19146D01*
X50986Y-19150D01*
X50986Y-18994D01*
X50986Y-18987D01*
X50980Y-18991D01*
X50969Y-19003D01*
X50953Y-19021D01*
X50947Y-19027D01*
X50932Y-19045D01*
X50922Y-19057D01*
X50918Y-19063D01*
X50919Y-19063D01*
X50930Y-19063D01*
X50942Y-19071D01*
X50951Y-19083D01*
X50954Y-19093D01*
X50949Y-19110D01*
X50937Y-19120D01*
X50923Y-19123D01*
X50908Y-19119D01*
X50898Y-19107D01*
X50895Y-19094D01*
X50894Y-19087D01*
X50891Y-19090D01*
X50885Y-19099D01*
X50879Y-19115D01*
X50879Y-19127D01*
X50879Y-19127D01*
X50887Y-19133D01*
X50904Y-19136D01*
X50923Y-19134D01*
X50941Y-19129D01*
X50946Y-19126D01*
X50963Y-19108D01*
X50975Y-19083D01*
X50982Y-19047D01*
X50984Y-19033D01*
X50986Y-19010D01*
X50986Y-18994D01*
X50986Y-19150D01*
X50966Y-19166D01*
X50933Y-19177D01*
X50913Y-19179D01*
X50887Y-19179D01*
X50867Y-19177D01*
X50860Y-19174D01*
X50840Y-19155D01*
X50831Y-19132D01*
X50835Y-19103D01*
X50840Y-19089D01*
X50848Y-19076D01*
X50862Y-19057D01*
X50882Y-19033D01*
X50904Y-19007D01*
X50908Y-19003D01*
X50933Y-18976D01*
X50956Y-18949D01*
X50977Y-18926D01*
X50991Y-18908D01*
X50991Y-18908D01*
X51005Y-18891D01*
X51015Y-18880D01*
X51019Y-18877D01*
X51026Y-18880D01*
X51037Y-18889D01*
X51046Y-18896D01*
X51049Y-18904D01*
X51049Y-18904D01*
X51049Y-18904D01*
G37*
G36*
X50692Y-19036D02*
X50685Y-19045D01*
X50675Y-19055D01*
X50669Y-19058D01*
X50663Y-19054D01*
X50650Y-19041D01*
X50631Y-19022D01*
X50607Y-18998D01*
X50580Y-18970D01*
X50578Y-18967D01*
X50492Y-18876D01*
X50507Y-18860D01*
X50521Y-18845D01*
X50596Y-18922D01*
X50622Y-18950D01*
X50646Y-18975D01*
X50665Y-18996D01*
X50679Y-19011D01*
X50683Y-19017D01*
X50691Y-19028D01*
X50692Y-19036D01*
X50692Y-19036D01*
X50692Y-19036D01*
G37*
G36*
X50991Y-18880D02*
X50984Y-18890D01*
X50976Y-18900D01*
X50961Y-18917D01*
X50940Y-18940D01*
X50916Y-18966D01*
X50901Y-18982D01*
X50828Y-19058D01*
X50812Y-19046D01*
X50802Y-19035D01*
X50802Y-19024D01*
X50809Y-19017D01*
X50822Y-19001D01*
X50842Y-18980D01*
X50865Y-18955D01*
X50886Y-18933D01*
X50964Y-18851D01*
X50979Y-18863D01*
X50990Y-18872D01*
X50991Y-18880D01*
X50991Y-18880D01*
X50991Y-18880D01*
G37*
G36*
X50595Y-19102D02*
X50591Y-19118D01*
X50580Y-19128D01*
X50565Y-19130D01*
X50553Y-19125D01*
X50542Y-19111D01*
X50540Y-19094D01*
X50547Y-19079D01*
X50562Y-19072D01*
X50578Y-19073D01*
X50591Y-19084D01*
X50591Y-19084D01*
X50595Y-19102D01*
X50595Y-19102D01*
X50595Y-19102D01*
G37*
G54D11*
X42772Y-31850D02*
X43050Y-31850D01*
X43050Y-31850D02*
X43050Y-31300D01*
X43050Y-31300D02*
X42772Y-31300D01*
X42100Y-31850D02*
X42378Y-31850D01*
X42100Y-31850D02*
X42100Y-31300D01*
X42100Y-31300D02*
X42378Y-31300D01*
X12400Y-34800D02*
X12500Y-34800D01*
X12500Y-34800D02*
X12500Y-33900D01*
X12500Y-33900D02*
X12400Y-33900D01*
X12400Y-34800D02*
X12400Y-33900D01*
X12400Y-33900D02*
X11750Y-33900D01*
X11050Y-34800D02*
X10400Y-34800D01*
X10400Y-34800D02*
X10400Y-33900D01*
X10400Y-33900D02*
X11050Y-33900D01*
X11750Y-34800D02*
X12400Y-34800D01*
X26750Y-32800D02*
X29650Y-32800D01*
X29650Y-27800D02*
X26750Y-27800D01*
X26750Y-32800D02*
X26750Y-27800D01*
X29650Y-27800D02*
X29650Y-32800D01*
X28450Y-27800D02*
X28450Y-28300D01*
X28450Y-28300D02*
X27950Y-28300D01*
X27950Y-28300D02*
X27950Y-27800D01*
G54D15*
X30644Y-28347D02*
X30644Y-28622D01*
X30644Y-27953D02*
X30644Y-27678D01*
X31156Y-28347D02*
X31156Y-28622D01*
X31156Y-27678D02*
X31156Y-27953D01*
X31150Y-28622D02*
X30650Y-28622D01*
X30650Y-27678D02*
X31150Y-27678D01*
G54D11*
X5447Y-9875D02*
X5725Y-9875D01*
X5725Y-9875D02*
X5725Y-9325D01*
X5725Y-9325D02*
X5447Y-9325D01*
X4775Y-9875D02*
X5053Y-9875D01*
X4775Y-9875D02*
X4775Y-9325D01*
X4775Y-9325D02*
X5053Y-9325D01*
X32825Y-9053D02*
X32825Y-8775D01*
X32825Y-8775D02*
X32275Y-8775D01*
X32275Y-8775D02*
X32275Y-9053D01*
X32825Y-9725D02*
X32825Y-9447D01*
X32825Y-9725D02*
X32275Y-9725D01*
X32275Y-9725D02*
X32275Y-9447D01*
X32150Y-9053D02*
X32150Y-8775D01*
X32150Y-8775D02*
X31600Y-8775D01*
X31600Y-8775D02*
X31600Y-9053D01*
X32150Y-9725D02*
X32150Y-9447D01*
X32150Y-9725D02*
X31600Y-9725D01*
X31600Y-9725D02*
X31600Y-9447D01*
X16053Y-7625D02*
X15775Y-7625D01*
X15775Y-7625D02*
X15775Y-8175D01*
X15775Y-8175D02*
X16053Y-8175D01*
X16725Y-7625D02*
X16447Y-7625D01*
X16725Y-7625D02*
X16725Y-8175D01*
X16725Y-8175D02*
X16447Y-8175D01*
X44450Y-21928D02*
X44450Y-21650D01*
X44450Y-21650D02*
X43900Y-21650D01*
X43900Y-21650D02*
X43900Y-21928D01*
X44450Y-22600D02*
X44450Y-22322D01*
X44450Y-22600D02*
X43900Y-22600D01*
X43900Y-22600D02*
X43900Y-22322D01*
X41778Y-25025D02*
X41500Y-25025D01*
X41500Y-25025D02*
X41500Y-25575D01*
X41500Y-25575D02*
X41778Y-25575D01*
X42450Y-25025D02*
X42172Y-25025D01*
X42450Y-25025D02*
X42450Y-25575D01*
X42450Y-25575D02*
X42172Y-25575D01*
X41778Y-24375D02*
X41500Y-24375D01*
X41500Y-24375D02*
X41500Y-24925D01*
X41500Y-24925D02*
X41778Y-24925D01*
X42450Y-24375D02*
X42172Y-24375D01*
X42450Y-24375D02*
X42450Y-24925D01*
X42450Y-24925D02*
X42172Y-24925D01*
G54D15*
X36431Y-9303D02*
X36431Y-9028D01*
X36431Y-9697D02*
X36431Y-9972D01*
X35919Y-9303D02*
X35919Y-9028D01*
X35919Y-9972D02*
X35919Y-9697D01*
X35925Y-9028D02*
X36425Y-9028D01*
X36425Y-9972D02*
X35925Y-9972D01*
G54D11*
X26250Y-16578D02*
X26250Y-16300D01*
X26250Y-16300D02*
X25700Y-16300D01*
X25700Y-16300D02*
X25700Y-16578D01*
X26250Y-17250D02*
X26250Y-16972D01*
X26250Y-17250D02*
X25700Y-17250D01*
X25700Y-17250D02*
X25700Y-16972D01*
G54D12*
X57105Y-8635D02*
X57248Y-8635D01*
X57077Y-8721D02*
X57177Y-8421D01*
X57277Y-8721D01*
X57377Y-8721D02*
X57377Y-8421D01*
X57448Y-8421D01*
X57491Y-8435D01*
X57520Y-8464D01*
X57534Y-8492D01*
X57548Y-8550D01*
X57548Y-8592D01*
X57534Y-8650D01*
X57520Y-8678D01*
X57491Y-8707D01*
X57448Y-8721D01*
X57377Y-8721D01*
X57734Y-8421D02*
X57762Y-8421D01*
X57791Y-8435D01*
X57805Y-8450D01*
X57820Y-8478D01*
X57834Y-8535D01*
X57834Y-8607D01*
X57820Y-8664D01*
X57805Y-8692D01*
X57791Y-8707D01*
X57762Y-8721D01*
X57734Y-8721D01*
X57705Y-8707D01*
X57691Y-8692D01*
X57677Y-8664D01*
X57662Y-8607D01*
X57662Y-8535D01*
X57677Y-8478D01*
X57691Y-8450D01*
X57705Y-8435D01*
X57734Y-8421D01*
X45471Y-9921D02*
X45471Y-9749D01*
X45771Y-9835D02*
X45471Y-9835D01*
X45471Y-9678D02*
X45771Y-9478D01*
X45471Y-9478D02*
X45771Y-9678D01*
X45471Y-9307D02*
X45471Y-9278D01*
X45485Y-9250D01*
X45500Y-9235D01*
X45528Y-9221D01*
X45585Y-9207D01*
X45657Y-9207D01*
X45714Y-9221D01*
X45742Y-9235D01*
X45757Y-9250D01*
X45771Y-9278D01*
X45771Y-9307D01*
X45757Y-9335D01*
X45742Y-9350D01*
X45714Y-9364D01*
X45657Y-9378D01*
X45585Y-9378D01*
X45528Y-9364D01*
X45500Y-9350D01*
X45485Y-9335D01*
X45471Y-9307D01*
X46771Y-9742D02*
X46628Y-9842D01*
X46771Y-9914D02*
X46471Y-9914D01*
X46471Y-9800D01*
X46485Y-9771D01*
X46500Y-9757D01*
X46528Y-9742D01*
X46571Y-9742D01*
X46600Y-9757D01*
X46614Y-9771D01*
X46628Y-9800D01*
X46628Y-9914D01*
X46471Y-9642D02*
X46771Y-9442D01*
X46471Y-9442D02*
X46771Y-9642D01*
X46471Y-9271D02*
X46471Y-9242D01*
X46485Y-9214D01*
X46500Y-9200D01*
X46528Y-9185D01*
X46585Y-9171D01*
X46657Y-9171D01*
X46714Y-9185D01*
X46742Y-9200D01*
X46757Y-9214D01*
X46771Y-9242D01*
X46771Y-9271D01*
X46757Y-9300D01*
X46742Y-9314D01*
X46714Y-9328D01*
X46657Y-9342D01*
X46585Y-9342D01*
X46528Y-9328D01*
X46500Y-9314D01*
X46485Y-9300D01*
X46471Y-9271D01*
X48471Y-9921D02*
X48471Y-9749D01*
X48771Y-9835D02*
X48471Y-9835D01*
X48471Y-9678D02*
X48771Y-9478D01*
X48471Y-9478D02*
X48771Y-9678D01*
X48471Y-9392D02*
X48471Y-9207D01*
X48585Y-9307D01*
X48585Y-9264D01*
X48600Y-9235D01*
X48614Y-9221D01*
X48642Y-9207D01*
X48714Y-9207D01*
X48742Y-9221D01*
X48757Y-9235D01*
X48771Y-9264D01*
X48771Y-9350D01*
X48757Y-9378D01*
X48742Y-9392D01*
X49771Y-9742D02*
X49628Y-9842D01*
X49771Y-9914D02*
X49471Y-9914D01*
X49471Y-9800D01*
X49485Y-9771D01*
X49500Y-9757D01*
X49528Y-9742D01*
X49571Y-9742D01*
X49600Y-9757D01*
X49614Y-9771D01*
X49628Y-9800D01*
X49628Y-9914D01*
X49471Y-9642D02*
X49771Y-9442D01*
X49471Y-9442D02*
X49771Y-9642D01*
X49471Y-9357D02*
X49471Y-9171D01*
X49585Y-9271D01*
X49585Y-9228D01*
X49600Y-9200D01*
X49614Y-9185D01*
X49642Y-9171D01*
X49714Y-9171D01*
X49742Y-9185D01*
X49757Y-9200D01*
X49771Y-9228D01*
X49771Y-9314D01*
X49757Y-9342D01*
X49742Y-9357D01*
X50471Y-9921D02*
X50471Y-9749D01*
X50771Y-9835D02*
X50471Y-9835D01*
X50471Y-9678D02*
X50771Y-9478D01*
X50471Y-9478D02*
X50771Y-9678D01*
X50500Y-9378D02*
X50485Y-9364D01*
X50471Y-9335D01*
X50471Y-9264D01*
X50485Y-9235D01*
X50500Y-9221D01*
X50528Y-9207D01*
X50557Y-9207D01*
X50600Y-9221D01*
X50771Y-9392D01*
X50771Y-9207D01*
X51771Y-9742D02*
X51628Y-9842D01*
X51771Y-9914D02*
X51471Y-9914D01*
X51471Y-9800D01*
X51485Y-9771D01*
X51500Y-9757D01*
X51528Y-9742D01*
X51571Y-9742D01*
X51600Y-9757D01*
X51614Y-9771D01*
X51628Y-9800D01*
X51628Y-9914D01*
X51471Y-9642D02*
X51771Y-9442D01*
X51471Y-9442D02*
X51771Y-9642D01*
X51500Y-9342D02*
X51485Y-9328D01*
X51471Y-9300D01*
X51471Y-9228D01*
X51485Y-9200D01*
X51500Y-9185D01*
X51528Y-9171D01*
X51557Y-9171D01*
X51600Y-9185D01*
X51771Y-9357D01*
X51771Y-9171D01*
X52471Y-9921D02*
X52471Y-9749D01*
X52771Y-9835D02*
X52471Y-9835D01*
X52471Y-9678D02*
X52771Y-9478D01*
X52471Y-9478D02*
X52771Y-9678D01*
X52771Y-9207D02*
X52771Y-9378D01*
X52771Y-9292D02*
X52471Y-9292D01*
X52514Y-9321D01*
X52542Y-9350D01*
X52557Y-9378D01*
X53771Y-9742D02*
X53628Y-9842D01*
X53771Y-9914D02*
X53471Y-9914D01*
X53471Y-9800D01*
X53485Y-9771D01*
X53500Y-9757D01*
X53528Y-9742D01*
X53571Y-9742D01*
X53600Y-9757D01*
X53614Y-9771D01*
X53628Y-9800D01*
X53628Y-9914D01*
X53471Y-9642D02*
X53771Y-9442D01*
X53471Y-9442D02*
X53771Y-9642D01*
X53771Y-9171D02*
X53771Y-9342D01*
X53771Y-9257D02*
X53471Y-9257D01*
X53514Y-9285D01*
X53542Y-9314D01*
X53557Y-9342D01*
X45694Y-11523D02*
X45674Y-11542D01*
X45617Y-11561D01*
X45579Y-11561D01*
X45522Y-11542D01*
X45484Y-11504D01*
X45465Y-11466D01*
X45446Y-11390D01*
X45446Y-11333D01*
X45465Y-11257D01*
X45484Y-11219D01*
X45522Y-11180D01*
X45579Y-11161D01*
X45617Y-11161D01*
X45674Y-11180D01*
X45694Y-11200D01*
X45941Y-11161D02*
X46017Y-11161D01*
X46055Y-11180D01*
X46094Y-11219D01*
X46113Y-11295D01*
X46113Y-11428D01*
X46094Y-11504D01*
X46055Y-11542D01*
X46017Y-11561D01*
X45941Y-11561D01*
X45903Y-11542D01*
X45865Y-11504D01*
X45846Y-11428D01*
X45846Y-11295D01*
X45865Y-11219D01*
X45903Y-11180D01*
X45941Y-11161D01*
X46284Y-11561D02*
X46284Y-11161D01*
X46417Y-11447D01*
X46551Y-11161D01*
X46551Y-11561D01*
X46741Y-11561D02*
X46741Y-11161D01*
X46874Y-11447D01*
X47008Y-11161D01*
X47008Y-11561D01*
X47198Y-11161D02*
X47198Y-11485D01*
X47217Y-11523D01*
X47236Y-11542D01*
X47275Y-11561D01*
X47351Y-11561D01*
X47389Y-11542D01*
X47408Y-11523D01*
X47427Y-11485D01*
X47427Y-11161D01*
X47617Y-11561D02*
X47617Y-11161D01*
X47846Y-11561D01*
X47846Y-11161D01*
X48036Y-11561D02*
X48036Y-11161D01*
X48455Y-11523D02*
X48436Y-11542D01*
X48379Y-11561D01*
X48341Y-11561D01*
X48284Y-11542D01*
X48246Y-11504D01*
X48227Y-11466D01*
X48208Y-11390D01*
X48208Y-11333D01*
X48227Y-11257D01*
X48246Y-11219D01*
X48284Y-11180D01*
X48341Y-11161D01*
X48379Y-11161D01*
X48436Y-11180D01*
X48455Y-11200D01*
X48608Y-11447D02*
X48798Y-11447D01*
X48570Y-11561D02*
X48703Y-11161D01*
X48836Y-11561D01*
X48913Y-11161D02*
X49141Y-11161D01*
X49027Y-11561D02*
X49027Y-11161D01*
X49275Y-11561D02*
X49275Y-11161D01*
X49541Y-11161D02*
X49617Y-11161D01*
X49655Y-11180D01*
X49694Y-11219D01*
X49713Y-11295D01*
X49713Y-11428D01*
X49694Y-11504D01*
X49655Y-11542D01*
X49617Y-11561D01*
X49541Y-11561D01*
X49503Y-11542D01*
X49465Y-11504D01*
X49446Y-11428D01*
X49446Y-11295D01*
X49465Y-11219D01*
X49503Y-11180D01*
X49541Y-11161D01*
X49884Y-11561D02*
X49884Y-11161D01*
X50113Y-11561D01*
X50113Y-11161D01*
X50589Y-11142D02*
X50246Y-11657D01*
X50722Y-11561D02*
X50722Y-11161D01*
X50817Y-11161D01*
X50875Y-11180D01*
X50913Y-11219D01*
X50932Y-11257D01*
X50951Y-11333D01*
X50951Y-11390D01*
X50932Y-11466D01*
X50913Y-11504D01*
X50875Y-11542D01*
X50817Y-11561D01*
X50722Y-11561D01*
X51122Y-11561D02*
X51122Y-11161D01*
X51522Y-11180D02*
X51484Y-11161D01*
X51427Y-11161D01*
X51370Y-11180D01*
X51332Y-11219D01*
X51313Y-11257D01*
X51294Y-11333D01*
X51294Y-11390D01*
X51313Y-11466D01*
X51332Y-11504D01*
X51370Y-11542D01*
X51427Y-11561D01*
X51465Y-11561D01*
X51522Y-11542D01*
X51541Y-11523D01*
X51541Y-11390D01*
X51465Y-11390D01*
X51713Y-11561D02*
X51713Y-11161D01*
X51846Y-11161D02*
X52075Y-11161D01*
X51960Y-11561D02*
X51960Y-11161D01*
X52189Y-11447D02*
X52379Y-11447D01*
X52151Y-11561D02*
X52284Y-11161D01*
X52417Y-11561D01*
X52741Y-11561D02*
X52551Y-11561D01*
X52551Y-11161D01*
X56302Y-21839D02*
X56302Y-21705D01*
X56511Y-21648D02*
X56511Y-21839D01*
X56111Y-21839D01*
X56111Y-21648D01*
X56111Y-21515D02*
X56511Y-21248D01*
X56111Y-21248D02*
X56511Y-21515D01*
X56511Y-21096D02*
X56111Y-21096D01*
X56111Y-20944D01*
X56130Y-20905D01*
X56150Y-20886D01*
X56188Y-20867D01*
X56245Y-20867D01*
X56283Y-20886D01*
X56302Y-20905D01*
X56321Y-20944D01*
X56321Y-21096D01*
X56397Y-20715D02*
X56397Y-20525D01*
X56511Y-20753D02*
X56111Y-20620D01*
X56511Y-20486D01*
X56511Y-20353D02*
X56111Y-20353D01*
X56511Y-20125D01*
X56111Y-20125D01*
X56492Y-19953D02*
X56511Y-19896D01*
X56511Y-19801D01*
X56492Y-19763D01*
X56473Y-19744D01*
X56435Y-19725D01*
X56397Y-19725D01*
X56359Y-19744D01*
X56340Y-19763D01*
X56321Y-19801D01*
X56302Y-19877D01*
X56283Y-19915D01*
X56264Y-19934D01*
X56226Y-19953D01*
X56188Y-19953D01*
X56150Y-19934D01*
X56130Y-19915D01*
X56111Y-19877D01*
X56111Y-19782D01*
X56130Y-19725D01*
X56511Y-19553D02*
X56111Y-19553D01*
X56111Y-19286D02*
X56111Y-19210D01*
X56130Y-19172D01*
X56169Y-19134D01*
X56245Y-19115D01*
X56378Y-19115D01*
X56454Y-19134D01*
X56492Y-19172D01*
X56511Y-19210D01*
X56511Y-19286D01*
X56492Y-19324D01*
X56454Y-19363D01*
X56378Y-19382D01*
X56245Y-19382D01*
X56169Y-19363D01*
X56130Y-19324D01*
X56111Y-19286D01*
X56511Y-18944D02*
X56111Y-18944D01*
X56511Y-18715D01*
X56111Y-18715D01*
X56302Y-18086D02*
X56321Y-18029D01*
X56340Y-18010D01*
X56378Y-17991D01*
X56435Y-17991D01*
X56473Y-18010D01*
X56492Y-18029D01*
X56511Y-18067D01*
X56511Y-18220D01*
X56111Y-18220D01*
X56111Y-18086D01*
X56130Y-18048D01*
X56150Y-18029D01*
X56188Y-18010D01*
X56226Y-18010D01*
X56264Y-18029D01*
X56283Y-18048D01*
X56302Y-18086D01*
X56302Y-18220D01*
X56111Y-17820D02*
X56435Y-17820D01*
X56473Y-17801D01*
X56492Y-17782D01*
X56511Y-17744D01*
X56511Y-17667D01*
X56492Y-17629D01*
X56473Y-17610D01*
X56435Y-17591D01*
X56111Y-17591D01*
X56492Y-17420D02*
X56511Y-17363D01*
X56511Y-17267D01*
X56492Y-17229D01*
X56473Y-17210D01*
X56435Y-17191D01*
X56397Y-17191D01*
X56359Y-17210D01*
X56340Y-17229D01*
X56321Y-17267D01*
X56302Y-17344D01*
X56283Y-17382D01*
X56264Y-17401D01*
X56226Y-17420D01*
X56188Y-17420D01*
X56150Y-17401D01*
X56130Y-17382D01*
X56111Y-17344D01*
X56111Y-17248D01*
X56130Y-17191D01*
X41404Y-23847D02*
X41595Y-23847D01*
X41366Y-23961D02*
X41500Y-23561D01*
X41633Y-23961D01*
X41766Y-23961D02*
X41766Y-23561D01*
X41995Y-23961D01*
X41995Y-23561D01*
X42166Y-23847D02*
X42357Y-23847D01*
X42128Y-23961D02*
X42261Y-23561D01*
X42395Y-23961D01*
X42719Y-23961D02*
X42528Y-23961D01*
X42528Y-23561D01*
X42928Y-23561D02*
X43004Y-23561D01*
X43042Y-23580D01*
X43080Y-23619D01*
X43100Y-23695D01*
X43100Y-23828D01*
X43080Y-23904D01*
X43042Y-23942D01*
X43004Y-23961D01*
X42928Y-23961D01*
X42890Y-23942D01*
X42852Y-23904D01*
X42833Y-23828D01*
X42833Y-23695D01*
X42852Y-23619D01*
X42890Y-23580D01*
X42928Y-23561D01*
X43480Y-23580D02*
X43442Y-23561D01*
X43385Y-23561D01*
X43328Y-23580D01*
X43290Y-23619D01*
X43271Y-23657D01*
X43252Y-23733D01*
X43252Y-23790D01*
X43271Y-23866D01*
X43290Y-23904D01*
X43328Y-23942D01*
X43385Y-23961D01*
X43423Y-23961D01*
X43480Y-23942D01*
X43500Y-23923D01*
X43500Y-23790D01*
X43423Y-23790D01*
X43671Y-23561D02*
X43671Y-23885D01*
X43690Y-23923D01*
X43709Y-23942D01*
X43747Y-23961D01*
X43823Y-23961D01*
X43861Y-23942D01*
X43880Y-23923D01*
X43900Y-23885D01*
X43900Y-23561D01*
X44090Y-23752D02*
X44223Y-23752D01*
X44280Y-23961D02*
X44090Y-23961D01*
X44090Y-23561D01*
X44280Y-23561D01*
X44757Y-23961D02*
X44757Y-23561D01*
X44947Y-23961D02*
X44947Y-23561D01*
X45176Y-23961D01*
X45176Y-23561D01*
X46842Y-18657D02*
X46885Y-18671D01*
X46957Y-18671D01*
X46985Y-18657D01*
X47000Y-18642D01*
X47014Y-18614D01*
X47014Y-18585D01*
X47000Y-18557D01*
X46985Y-18542D01*
X46957Y-18528D01*
X46900Y-18514D01*
X46871Y-18500D01*
X46857Y-18485D01*
X46842Y-18457D01*
X46842Y-18428D01*
X46857Y-18400D01*
X46871Y-18385D01*
X46900Y-18371D01*
X46971Y-18371D01*
X47014Y-18385D01*
X47142Y-18671D02*
X47142Y-18371D01*
X47257Y-18371D01*
X47285Y-18385D01*
X47300Y-18400D01*
X47314Y-18428D01*
X47314Y-18471D01*
X47300Y-18500D01*
X47285Y-18514D01*
X47257Y-18528D01*
X47142Y-18528D01*
X47442Y-18671D02*
X47442Y-18371D01*
X45460Y-17671D02*
X45360Y-17528D01*
X45289Y-17671D02*
X45289Y-17371D01*
X45403Y-17371D01*
X45432Y-17385D01*
X45446Y-17400D01*
X45460Y-17428D01*
X45460Y-17471D01*
X45446Y-17500D01*
X45432Y-17514D01*
X45403Y-17528D01*
X45289Y-17528D01*
X45575Y-17657D02*
X45617Y-17671D01*
X45689Y-17671D01*
X45717Y-17657D01*
X45732Y-17642D01*
X45746Y-17614D01*
X45746Y-17585D01*
X45732Y-17557D01*
X45717Y-17542D01*
X45689Y-17528D01*
X45632Y-17514D01*
X45603Y-17500D01*
X45589Y-17485D01*
X45575Y-17457D01*
X45575Y-17428D01*
X45589Y-17400D01*
X45603Y-17385D01*
X45632Y-17371D01*
X45703Y-17371D01*
X45746Y-17385D01*
X45832Y-17371D02*
X46003Y-17371D01*
X45917Y-17671D02*
X45917Y-17371D01*
X45217Y-17280D02*
X46032Y-17280D01*
X48571Y-17385D02*
X48542Y-17371D01*
X48500Y-17371D01*
X48457Y-17385D01*
X48428Y-17414D01*
X48414Y-17442D01*
X48400Y-17500D01*
X48400Y-17542D01*
X48414Y-17600D01*
X48428Y-17628D01*
X48457Y-17657D01*
X48500Y-17671D01*
X48528Y-17671D01*
X48571Y-17657D01*
X48585Y-17642D01*
X48585Y-17542D01*
X48528Y-17542D01*
X48714Y-17671D02*
X48714Y-17371D01*
X48885Y-17671D01*
X48885Y-17371D01*
X49028Y-17671D02*
X49028Y-17371D01*
X49100Y-17371D01*
X49142Y-17385D01*
X49171Y-17414D01*
X49185Y-17442D01*
X49200Y-17500D01*
X49200Y-17542D01*
X49185Y-17600D01*
X49171Y-17628D01*
X49142Y-17657D01*
X49100Y-17671D01*
X49028Y-17671D01*
X48407Y-16657D02*
X48450Y-16671D01*
X48521Y-16671D01*
X48550Y-16657D01*
X48564Y-16642D01*
X48578Y-16614D01*
X48578Y-16585D01*
X48564Y-16557D01*
X48550Y-16542D01*
X48521Y-16528D01*
X48464Y-16514D01*
X48435Y-16500D01*
X48421Y-16485D01*
X48407Y-16457D01*
X48407Y-16428D01*
X48421Y-16400D01*
X48435Y-16385D01*
X48464Y-16371D01*
X48535Y-16371D01*
X48578Y-16385D01*
X48764Y-16371D02*
X48821Y-16371D01*
X48850Y-16385D01*
X48878Y-16414D01*
X48892Y-16471D01*
X48892Y-16571D01*
X48878Y-16628D01*
X48850Y-16657D01*
X48821Y-16671D01*
X48764Y-16671D01*
X48735Y-16657D01*
X48707Y-16628D01*
X48692Y-16571D01*
X48692Y-16471D01*
X48707Y-16414D01*
X48735Y-16385D01*
X48764Y-16371D01*
X45189Y-16657D02*
X45232Y-16671D01*
X45303Y-16671D01*
X45332Y-16657D01*
X45346Y-16642D01*
X45360Y-16614D01*
X45360Y-16585D01*
X45346Y-16557D01*
X45332Y-16542D01*
X45303Y-16528D01*
X45246Y-16514D01*
X45217Y-16500D01*
X45203Y-16485D01*
X45189Y-16457D01*
X45189Y-16428D01*
X45203Y-16400D01*
X45217Y-16385D01*
X45246Y-16371D01*
X45317Y-16371D01*
X45360Y-16385D01*
X45660Y-16642D02*
X45646Y-16657D01*
X45603Y-16671D01*
X45575Y-16671D01*
X45532Y-16657D01*
X45503Y-16628D01*
X45489Y-16600D01*
X45475Y-16542D01*
X45475Y-16500D01*
X45489Y-16442D01*
X45503Y-16414D01*
X45532Y-16385D01*
X45575Y-16371D01*
X45603Y-16371D01*
X45646Y-16385D01*
X45660Y-16400D01*
X45789Y-16671D02*
X45789Y-16371D01*
X45960Y-16671D02*
X45832Y-16500D01*
X45960Y-16371D02*
X45789Y-16542D01*
X48389Y-15557D02*
X48617Y-15557D01*
X48503Y-15671D02*
X48503Y-15442D01*
X48903Y-15371D02*
X48760Y-15371D01*
X48746Y-15514D01*
X48760Y-15500D01*
X48789Y-15485D01*
X48860Y-15485D01*
X48889Y-15500D01*
X48903Y-15514D01*
X48917Y-15542D01*
X48917Y-15614D01*
X48903Y-15642D01*
X48889Y-15657D01*
X48860Y-15671D01*
X48789Y-15671D01*
X48760Y-15657D01*
X48746Y-15642D01*
X49003Y-15371D02*
X49103Y-15671D01*
X49203Y-15371D01*
X45667Y-15657D02*
X45710Y-15671D01*
X45782Y-15671D01*
X45810Y-15657D01*
X45825Y-15642D01*
X45839Y-15614D01*
X45839Y-15585D01*
X45825Y-15557D01*
X45810Y-15542D01*
X45782Y-15528D01*
X45725Y-15514D01*
X45696Y-15500D01*
X45682Y-15485D01*
X45667Y-15457D01*
X45667Y-15428D01*
X45682Y-15400D01*
X45696Y-15385D01*
X45725Y-15371D01*
X45796Y-15371D01*
X45839Y-15385D01*
X45967Y-15671D02*
X45967Y-15371D01*
X32485Y-25578D02*
X32471Y-25607D01*
X32471Y-25650D01*
X32485Y-25692D01*
X32514Y-25721D01*
X32542Y-25735D01*
X32600Y-25750D01*
X32642Y-25750D01*
X32700Y-25735D01*
X32728Y-25721D01*
X32757Y-25692D01*
X32771Y-25650D01*
X32771Y-25621D01*
X32757Y-25578D01*
X32742Y-25564D01*
X32642Y-25564D01*
X32642Y-25621D01*
X32771Y-25435D02*
X32471Y-25435D01*
X32771Y-25264D01*
X32471Y-25264D01*
X32771Y-25121D02*
X32471Y-25121D01*
X32471Y-25050D01*
X32485Y-25007D01*
X32514Y-24978D01*
X32542Y-24964D01*
X32600Y-24950D01*
X32642Y-24950D01*
X32700Y-24964D01*
X32728Y-24978D01*
X32757Y-25007D01*
X32771Y-25050D01*
X32771Y-25121D01*
X33771Y-25621D02*
X33471Y-25621D01*
X33471Y-25421D02*
X33471Y-25364D01*
X33485Y-25335D01*
X33514Y-25307D01*
X33571Y-25292D01*
X33671Y-25292D01*
X33728Y-25307D01*
X33757Y-25335D01*
X33771Y-25364D01*
X33771Y-25421D01*
X33757Y-25450D01*
X33728Y-25478D01*
X33671Y-25492D01*
X33571Y-25492D01*
X33514Y-25478D01*
X33485Y-25450D01*
X33471Y-25421D01*
X33771Y-24992D02*
X33628Y-25092D01*
X33771Y-25164D02*
X33471Y-25164D01*
X33471Y-25050D01*
X33485Y-25021D01*
X33500Y-25007D01*
X33528Y-24992D01*
X33571Y-24992D01*
X33600Y-25007D01*
X33614Y-25021D01*
X33628Y-25050D01*
X33628Y-25164D01*
X33614Y-24864D02*
X33614Y-24764D01*
X33771Y-24721D02*
X33771Y-24864D01*
X33471Y-24864D01*
X33471Y-24721D01*
X33614Y-24492D02*
X33614Y-24592D01*
X33771Y-24592D02*
X33471Y-24592D01*
X33471Y-24449D01*
X34771Y-25485D02*
X34628Y-25585D01*
X34771Y-25657D02*
X34471Y-25657D01*
X34471Y-25542D01*
X34485Y-25514D01*
X34500Y-25500D01*
X34528Y-25485D01*
X34571Y-25485D01*
X34600Y-25500D01*
X34614Y-25514D01*
X34628Y-25542D01*
X34628Y-25657D01*
X34614Y-25357D02*
X34614Y-25257D01*
X34771Y-25214D02*
X34771Y-25357D01*
X34471Y-25357D01*
X34471Y-25214D01*
X34757Y-25099D02*
X34771Y-25057D01*
X34771Y-24985D01*
X34757Y-24957D01*
X34742Y-24942D01*
X34714Y-24928D01*
X34685Y-24928D01*
X34657Y-24942D01*
X34642Y-24957D01*
X34628Y-24985D01*
X34614Y-25042D01*
X34600Y-25071D01*
X34585Y-25085D01*
X34557Y-25099D01*
X34528Y-25099D01*
X34500Y-25085D01*
X34485Y-25071D01*
X34471Y-25042D01*
X34471Y-24971D01*
X34485Y-24928D01*
X34614Y-24799D02*
X34614Y-24699D01*
X34771Y-24657D02*
X34771Y-24799D01*
X34471Y-24799D01*
X34471Y-24657D01*
X34471Y-24571D02*
X34471Y-24399D01*
X34771Y-24485D02*
X34471Y-24485D01*
X34380Y-25728D02*
X34380Y-24371D01*
X35657Y-25749D02*
X35657Y-25521D01*
X35771Y-25635D02*
X35542Y-25635D01*
X35471Y-25407D02*
X35471Y-25221D01*
X35585Y-25321D01*
X35585Y-25278D01*
X35600Y-25249D01*
X35614Y-25235D01*
X35642Y-25221D01*
X35714Y-25221D01*
X35742Y-25235D01*
X35757Y-25249D01*
X35771Y-25278D01*
X35771Y-25364D01*
X35757Y-25392D01*
X35742Y-25407D01*
X35742Y-25092D02*
X35757Y-25078D01*
X35771Y-25092D01*
X35757Y-25107D01*
X35742Y-25092D01*
X35771Y-25092D01*
X35471Y-24978D02*
X35471Y-24792D01*
X35585Y-24892D01*
X35585Y-24849D01*
X35600Y-24821D01*
X35614Y-24807D01*
X35642Y-24792D01*
X35714Y-24792D01*
X35742Y-24807D01*
X35757Y-24821D01*
X35771Y-24849D01*
X35771Y-24935D01*
X35757Y-24964D01*
X35742Y-24978D01*
X35471Y-24707D02*
X35771Y-24607D01*
X35471Y-24507D01*
X36657Y-25735D02*
X36657Y-25507D01*
X36771Y-25621D02*
X36542Y-25621D01*
X36471Y-25221D02*
X36471Y-25364D01*
X36614Y-25378D01*
X36600Y-25364D01*
X36585Y-25335D01*
X36585Y-25264D01*
X36600Y-25235D01*
X36614Y-25221D01*
X36642Y-25207D01*
X36714Y-25207D01*
X36742Y-25221D01*
X36757Y-25235D01*
X36771Y-25264D01*
X36771Y-25335D01*
X36757Y-25364D01*
X36742Y-25378D01*
X36471Y-25121D02*
X36771Y-25021D01*
X36471Y-24921D01*
X37485Y-25578D02*
X37471Y-25607D01*
X37471Y-25650D01*
X37485Y-25692D01*
X37514Y-25721D01*
X37542Y-25735D01*
X37600Y-25750D01*
X37642Y-25750D01*
X37700Y-25735D01*
X37728Y-25721D01*
X37757Y-25692D01*
X37771Y-25650D01*
X37771Y-25621D01*
X37757Y-25578D01*
X37742Y-25564D01*
X37642Y-25564D01*
X37642Y-25621D01*
X37771Y-25435D02*
X37471Y-25435D01*
X37771Y-25264D01*
X37471Y-25264D01*
X37771Y-25121D02*
X37471Y-25121D01*
X37471Y-25050D01*
X37485Y-25007D01*
X37514Y-24978D01*
X37542Y-24964D01*
X37600Y-24950D01*
X37642Y-24950D01*
X37700Y-24964D01*
X37728Y-24978D01*
X37757Y-25007D01*
X37771Y-25050D01*
X37771Y-25121D01*
X38485Y-25578D02*
X38471Y-25607D01*
X38471Y-25650D01*
X38485Y-25692D01*
X38514Y-25721D01*
X38542Y-25735D01*
X38600Y-25750D01*
X38642Y-25750D01*
X38700Y-25735D01*
X38728Y-25721D01*
X38757Y-25692D01*
X38771Y-25650D01*
X38771Y-25621D01*
X38757Y-25578D01*
X38742Y-25564D01*
X38642Y-25564D01*
X38642Y-25621D01*
X38771Y-25435D02*
X38471Y-25435D01*
X38771Y-25264D01*
X38471Y-25264D01*
X38771Y-25121D02*
X38471Y-25121D01*
X38471Y-25050D01*
X38485Y-25007D01*
X38514Y-24978D01*
X38542Y-24964D01*
X38600Y-24950D01*
X38642Y-24950D01*
X38700Y-24964D01*
X38728Y-24978D01*
X38757Y-25007D01*
X38771Y-25050D01*
X38771Y-25121D01*
X39471Y-25757D02*
X39771Y-25657D01*
X39471Y-25557D01*
X39771Y-25457D02*
X39571Y-25457D01*
X39471Y-25457D02*
X39485Y-25471D01*
X39500Y-25457D01*
X39485Y-25442D01*
X39471Y-25457D01*
X39500Y-25457D01*
X39571Y-25314D02*
X39771Y-25314D01*
X39600Y-25314D02*
X39585Y-25300D01*
X39571Y-25271D01*
X39571Y-25228D01*
X39585Y-25200D01*
X39614Y-25185D01*
X39771Y-25185D01*
X42760Y-25764D02*
X42760Y-25621D01*
X42846Y-25792D02*
X42546Y-25692D01*
X42846Y-25592D01*
X42846Y-25335D02*
X42846Y-25507D01*
X42846Y-25421D02*
X42546Y-25421D01*
X42589Y-25449D01*
X42617Y-25478D01*
X42632Y-25507D01*
X43685Y-25764D02*
X43685Y-25621D01*
X43771Y-25792D02*
X43471Y-25692D01*
X43771Y-25592D01*
X43500Y-25507D02*
X43485Y-25492D01*
X43471Y-25464D01*
X43471Y-25392D01*
X43485Y-25364D01*
X43500Y-25349D01*
X43528Y-25335D01*
X43557Y-25335D01*
X43600Y-25349D01*
X43771Y-25521D01*
X43771Y-25335D01*
X46685Y-25764D02*
X46685Y-25621D01*
X46771Y-25792D02*
X46471Y-25692D01*
X46771Y-25592D01*
X46471Y-25349D02*
X46471Y-25492D01*
X46614Y-25507D01*
X46600Y-25492D01*
X46585Y-25464D01*
X46585Y-25392D01*
X46600Y-25364D01*
X46614Y-25349D01*
X46642Y-25335D01*
X46714Y-25335D01*
X46742Y-25349D01*
X46757Y-25364D01*
X46771Y-25392D01*
X46771Y-25464D01*
X46757Y-25492D01*
X46742Y-25507D01*
X48685Y-25764D02*
X48685Y-25621D01*
X48771Y-25792D02*
X48471Y-25692D01*
X48771Y-25592D01*
X48471Y-25521D02*
X48471Y-25321D01*
X48771Y-25449D01*
X56785Y-25707D02*
X56785Y-25564D01*
X56871Y-25735D02*
X56571Y-25635D01*
X56871Y-25535D01*
X56871Y-25278D02*
X56871Y-25449D01*
X56871Y-25364D02*
X56571Y-25364D01*
X56614Y-25392D01*
X56642Y-25421D01*
X56657Y-25449D01*
X56671Y-25021D02*
X56871Y-25021D01*
X56557Y-25092D02*
X56771Y-25164D01*
X56771Y-24978D01*
X57685Y-25707D02*
X57685Y-25564D01*
X57771Y-25735D02*
X57471Y-25635D01*
X57771Y-25535D01*
X57771Y-25278D02*
X57771Y-25449D01*
X57771Y-25364D02*
X57471Y-25364D01*
X57514Y-25392D01*
X57542Y-25421D01*
X57557Y-25449D01*
X57471Y-25007D02*
X57471Y-25149D01*
X57614Y-25164D01*
X57600Y-25149D01*
X57585Y-25121D01*
X57585Y-25049D01*
X57600Y-25021D01*
X57614Y-25007D01*
X57642Y-24992D01*
X57714Y-24992D01*
X57742Y-25007D01*
X57757Y-25021D01*
X57771Y-25049D01*
X57771Y-25121D01*
X57757Y-25149D01*
X57742Y-25164D01*
X60621Y-24410D02*
X60592Y-24396D01*
X60550Y-24396D01*
X60507Y-24410D01*
X60478Y-24439D01*
X60464Y-24467D01*
X60450Y-24525D01*
X60450Y-24567D01*
X60464Y-24625D01*
X60478Y-24653D01*
X60507Y-24682D01*
X60550Y-24696D01*
X60578Y-24696D01*
X60621Y-24682D01*
X60635Y-24667D01*
X60635Y-24567D01*
X60578Y-24567D01*
X60764Y-24696D02*
X60764Y-24396D01*
X60935Y-24696D01*
X60935Y-24396D01*
X61078Y-24696D02*
X61078Y-24396D01*
X61150Y-24396D01*
X61192Y-24410D01*
X61221Y-24439D01*
X61235Y-24467D01*
X61250Y-24525D01*
X61250Y-24567D01*
X61235Y-24625D01*
X61221Y-24653D01*
X61192Y-24682D01*
X61150Y-24696D01*
X61078Y-24696D01*
X60621Y-23642D02*
X60607Y-23657D01*
X60564Y-23671D01*
X60535Y-23671D01*
X60492Y-23657D01*
X60464Y-23628D01*
X60450Y-23600D01*
X60435Y-23542D01*
X60435Y-23500D01*
X60450Y-23442D01*
X60464Y-23414D01*
X60492Y-23385D01*
X60535Y-23371D01*
X60564Y-23371D01*
X60607Y-23385D01*
X60621Y-23400D01*
X60892Y-23671D02*
X60750Y-23671D01*
X60750Y-23371D01*
X60992Y-23671D02*
X60992Y-23371D01*
X61164Y-23671D02*
X61035Y-23500D01*
X61164Y-23371D02*
X60992Y-23542D01*
X60665Y-21671D02*
X60565Y-21528D01*
X60494Y-21671D02*
X60494Y-21371D01*
X60608Y-21371D01*
X60637Y-21385D01*
X60651Y-21400D01*
X60665Y-21428D01*
X60665Y-21471D01*
X60651Y-21500D01*
X60637Y-21514D01*
X60608Y-21528D01*
X60494Y-21528D01*
X60780Y-21657D02*
X60822Y-21671D01*
X60894Y-21671D01*
X60922Y-21657D01*
X60937Y-21642D01*
X60951Y-21614D01*
X60951Y-21585D01*
X60937Y-21557D01*
X60922Y-21542D01*
X60894Y-21528D01*
X60837Y-21514D01*
X60808Y-21500D01*
X60794Y-21485D01*
X60780Y-21457D01*
X60780Y-21428D01*
X60794Y-21400D01*
X60808Y-21385D01*
X60837Y-21371D01*
X60908Y-21371D01*
X60951Y-21385D01*
X61037Y-21371D02*
X61208Y-21371D01*
X61122Y-21671D02*
X61122Y-21371D01*
X60422Y-21280D02*
X61237Y-21280D01*
X56946Y-21671D02*
X56946Y-21371D01*
X57260Y-21671D02*
X57160Y-21528D01*
X57089Y-21671D02*
X57089Y-21371D01*
X57203Y-21371D01*
X57232Y-21385D01*
X57246Y-21400D01*
X57260Y-21428D01*
X57260Y-21471D01*
X57246Y-21500D01*
X57232Y-21514D01*
X57203Y-21528D01*
X57089Y-21528D01*
X57389Y-21671D02*
X57389Y-21371D01*
X57460Y-21371D01*
X57503Y-21385D01*
X57532Y-21414D01*
X57546Y-21442D01*
X57560Y-21500D01*
X57560Y-21542D01*
X57546Y-21600D01*
X57532Y-21628D01*
X57503Y-21657D01*
X57460Y-21671D01*
X57389Y-21671D01*
X57746Y-21528D02*
X57746Y-21671D01*
X57646Y-21371D02*
X57746Y-21528D01*
X57846Y-21371D01*
X60467Y-20671D02*
X60467Y-20371D01*
X60538Y-20371D01*
X60581Y-20385D01*
X60610Y-20414D01*
X60624Y-20442D01*
X60638Y-20500D01*
X60638Y-20542D01*
X60624Y-20600D01*
X60610Y-20628D01*
X60581Y-20657D01*
X60538Y-20671D01*
X60467Y-20671D01*
X60724Y-20371D02*
X60895Y-20371D01*
X60810Y-20671D02*
X60810Y-20371D01*
X61167Y-20671D02*
X61067Y-20528D01*
X60995Y-20671D02*
X60995Y-20371D01*
X61110Y-20371D01*
X61138Y-20385D01*
X61152Y-20400D01*
X61167Y-20428D01*
X61167Y-20471D01*
X61152Y-20500D01*
X61138Y-20514D01*
X61110Y-20528D01*
X60995Y-20528D01*
X60924Y-20280D02*
X61224Y-20280D01*
X57088Y-20671D02*
X57088Y-20371D01*
X57160Y-20371D01*
X57202Y-20385D01*
X57231Y-20414D01*
X57245Y-20442D01*
X57260Y-20500D01*
X57260Y-20542D01*
X57245Y-20600D01*
X57231Y-20628D01*
X57202Y-20657D01*
X57160Y-20671D01*
X57088Y-20671D01*
X57388Y-20514D02*
X57488Y-20514D01*
X57531Y-20671D02*
X57388Y-20671D01*
X57388Y-20371D01*
X57531Y-20371D01*
X57660Y-20671D02*
X57660Y-20371D01*
X57831Y-20671D01*
X57831Y-20371D01*
X57017Y-20280D02*
X57902Y-20280D01*
X60492Y-19585D02*
X60635Y-19585D01*
X60464Y-19671D02*
X60564Y-19371D01*
X60664Y-19671D01*
X60921Y-19671D02*
X60750Y-19671D01*
X60835Y-19671D02*
X60835Y-19371D01*
X60807Y-19414D01*
X60778Y-19442D01*
X60750Y-19457D01*
X61178Y-19371D02*
X61121Y-19371D01*
X61092Y-19385D01*
X61078Y-19400D01*
X61050Y-19442D01*
X61035Y-19500D01*
X61035Y-19614D01*
X61050Y-19642D01*
X61064Y-19657D01*
X61092Y-19671D01*
X61150Y-19671D01*
X61178Y-19657D01*
X61192Y-19642D01*
X61207Y-19614D01*
X61207Y-19542D01*
X61192Y-19514D01*
X61178Y-19500D01*
X61150Y-19485D01*
X61092Y-19485D01*
X61064Y-19500D01*
X61050Y-19514D01*
X61035Y-19542D01*
X57102Y-19585D02*
X57245Y-19585D01*
X57074Y-19671D02*
X57174Y-19371D01*
X57274Y-19671D01*
X57531Y-19671D02*
X57360Y-19671D01*
X57445Y-19671D02*
X57445Y-19371D01*
X57417Y-19414D01*
X57388Y-19442D01*
X57360Y-19457D01*
X57631Y-19371D02*
X57831Y-19371D01*
X57702Y-19671D01*
X60492Y-18585D02*
X60635Y-18585D01*
X60464Y-18671D02*
X60564Y-18371D01*
X60664Y-18671D01*
X60921Y-18671D02*
X60750Y-18671D01*
X60835Y-18671D02*
X60835Y-18371D01*
X60807Y-18414D01*
X60778Y-18442D01*
X60750Y-18457D01*
X61092Y-18500D02*
X61064Y-18485D01*
X61050Y-18471D01*
X61035Y-18442D01*
X61035Y-18428D01*
X61050Y-18400D01*
X61064Y-18385D01*
X61092Y-18371D01*
X61150Y-18371D01*
X61178Y-18385D01*
X61192Y-18400D01*
X61207Y-18428D01*
X61207Y-18442D01*
X61192Y-18471D01*
X61178Y-18485D01*
X61150Y-18500D01*
X61092Y-18500D01*
X61064Y-18514D01*
X61050Y-18528D01*
X61035Y-18557D01*
X61035Y-18614D01*
X61050Y-18642D01*
X61064Y-18657D01*
X61092Y-18671D01*
X61150Y-18671D01*
X61178Y-18657D01*
X61192Y-18642D01*
X61207Y-18614D01*
X61207Y-18557D01*
X61192Y-18528D01*
X61178Y-18514D01*
X61150Y-18500D01*
X57102Y-18585D02*
X57245Y-18585D01*
X57074Y-18671D02*
X57174Y-18371D01*
X57274Y-18671D01*
X57531Y-18671D02*
X57360Y-18671D01*
X57445Y-18671D02*
X57445Y-18371D01*
X57417Y-18414D01*
X57388Y-18442D01*
X57360Y-18457D01*
X57674Y-18671D02*
X57731Y-18671D01*
X57760Y-18657D01*
X57774Y-18642D01*
X57802Y-18600D01*
X57817Y-18542D01*
X57817Y-18428D01*
X57802Y-18400D01*
X57788Y-18385D01*
X57760Y-18371D01*
X57702Y-18371D01*
X57674Y-18385D01*
X57660Y-18400D01*
X57645Y-18428D01*
X57645Y-18500D01*
X57660Y-18528D01*
X57674Y-18542D01*
X57702Y-18557D01*
X57760Y-18557D01*
X57788Y-18542D01*
X57802Y-18528D01*
X57817Y-18500D01*
X60471Y-17371D02*
X60542Y-17671D01*
X60600Y-17457D01*
X60657Y-17671D01*
X60728Y-17371D01*
X61014Y-17671D02*
X60914Y-17528D01*
X60842Y-17671D02*
X60842Y-17371D01*
X60957Y-17371D01*
X60985Y-17385D01*
X61000Y-17400D01*
X61014Y-17428D01*
X61014Y-17471D01*
X61000Y-17500D01*
X60985Y-17514D01*
X60957Y-17528D01*
X60842Y-17528D01*
X60428Y-17280D02*
X61071Y-17280D01*
X57542Y-17671D02*
X57442Y-17528D01*
X57371Y-17671D02*
X57371Y-17371D01*
X57485Y-17371D01*
X57514Y-17385D01*
X57528Y-17400D01*
X57542Y-17428D01*
X57542Y-17471D01*
X57528Y-17500D01*
X57514Y-17514D01*
X57485Y-17528D01*
X57371Y-17528D01*
X57671Y-17671D02*
X57671Y-17371D01*
X57742Y-17371D01*
X57785Y-17385D01*
X57814Y-17414D01*
X57828Y-17442D01*
X57842Y-17500D01*
X57842Y-17542D01*
X57828Y-17600D01*
X57814Y-17628D01*
X57785Y-17657D01*
X57742Y-17671D01*
X57671Y-17671D01*
X57300Y-17280D02*
X57900Y-17280D01*
X60496Y-16585D02*
X60639Y-16585D01*
X60467Y-16671D02*
X60567Y-16371D01*
X60667Y-16671D01*
X60910Y-16671D02*
X60767Y-16671D01*
X60767Y-16371D01*
X61010Y-16514D02*
X61110Y-16514D01*
X61153Y-16671D02*
X61010Y-16671D01*
X61010Y-16371D01*
X61153Y-16371D01*
X57191Y-16671D02*
X57191Y-16371D01*
X57291Y-16585D01*
X57391Y-16371D01*
X57391Y-16671D01*
X57534Y-16671D02*
X57534Y-16371D01*
X57734Y-16371D02*
X57791Y-16371D01*
X57820Y-16385D01*
X57848Y-16414D01*
X57862Y-16471D01*
X57862Y-16571D01*
X57848Y-16628D01*
X57820Y-16657D01*
X57791Y-16671D01*
X57734Y-16671D01*
X57705Y-16657D01*
X57677Y-16628D01*
X57662Y-16571D01*
X57662Y-16471D01*
X57677Y-16414D01*
X57705Y-16385D01*
X57734Y-16371D01*
X57462Y-16280D02*
X57920Y-16280D01*
X60485Y-15585D02*
X60628Y-15585D01*
X60457Y-15671D02*
X60557Y-15371D01*
X60657Y-15671D01*
X60800Y-15500D02*
X60771Y-15485D01*
X60757Y-15471D01*
X60742Y-15442D01*
X60742Y-15428D01*
X60757Y-15400D01*
X60771Y-15385D01*
X60800Y-15371D01*
X60857Y-15371D01*
X60885Y-15385D01*
X60900Y-15400D01*
X60914Y-15428D01*
X60914Y-15442D01*
X60900Y-15471D01*
X60885Y-15485D01*
X60857Y-15500D01*
X60800Y-15500D01*
X60771Y-15514D01*
X60757Y-15528D01*
X60742Y-15557D01*
X60742Y-15614D01*
X60757Y-15642D01*
X60771Y-15657D01*
X60800Y-15671D01*
X60857Y-15671D01*
X60885Y-15657D01*
X60900Y-15642D01*
X60914Y-15614D01*
X60914Y-15557D01*
X60900Y-15528D01*
X60885Y-15514D01*
X60857Y-15500D01*
X57435Y-15585D02*
X57578Y-15585D01*
X57407Y-15671D02*
X57507Y-15371D01*
X57607Y-15671D01*
X57721Y-15671D02*
X57778Y-15671D01*
X57807Y-15657D01*
X57821Y-15642D01*
X57850Y-15600D01*
X57864Y-15542D01*
X57864Y-15428D01*
X57850Y-15400D01*
X57835Y-15385D01*
X57807Y-15371D01*
X57750Y-15371D01*
X57721Y-15385D01*
X57707Y-15400D01*
X57692Y-15428D01*
X57692Y-15500D01*
X57707Y-15528D01*
X57721Y-15542D01*
X57750Y-15557D01*
X57807Y-15557D01*
X57835Y-15542D01*
X57850Y-15528D01*
X57864Y-15500D01*
X60492Y-14585D02*
X60635Y-14585D01*
X60464Y-14671D02*
X60564Y-14371D01*
X60664Y-14671D01*
X60921Y-14671D02*
X60750Y-14671D01*
X60835Y-14671D02*
X60835Y-14371D01*
X60807Y-14414D01*
X60778Y-14442D01*
X60750Y-14457D01*
X61107Y-14371D02*
X61135Y-14371D01*
X61164Y-14385D01*
X61178Y-14400D01*
X61192Y-14428D01*
X61207Y-14485D01*
X61207Y-14557D01*
X61192Y-14614D01*
X61178Y-14642D01*
X61164Y-14657D01*
X61135Y-14671D01*
X61107Y-14671D01*
X61078Y-14657D01*
X61064Y-14642D01*
X61050Y-14614D01*
X61035Y-14557D01*
X61035Y-14485D01*
X61050Y-14428D01*
X61064Y-14400D01*
X61078Y-14385D01*
X61107Y-14371D01*
X57102Y-14585D02*
X57245Y-14585D01*
X57074Y-14671D02*
X57174Y-14371D01*
X57274Y-14671D01*
X57531Y-14671D02*
X57360Y-14671D01*
X57445Y-14671D02*
X57445Y-14371D01*
X57417Y-14414D01*
X57388Y-14442D01*
X57360Y-14457D01*
X57817Y-14671D02*
X57645Y-14671D01*
X57731Y-14671D02*
X57731Y-14371D01*
X57702Y-14414D01*
X57674Y-14442D01*
X57645Y-14457D01*
X60492Y-13585D02*
X60635Y-13585D01*
X60464Y-13671D02*
X60564Y-13371D01*
X60664Y-13671D01*
X60921Y-13671D02*
X60750Y-13671D01*
X60835Y-13671D02*
X60835Y-13371D01*
X60807Y-13414D01*
X60778Y-13442D01*
X60750Y-13457D01*
X61035Y-13400D02*
X61050Y-13385D01*
X61078Y-13371D01*
X61150Y-13371D01*
X61178Y-13385D01*
X61192Y-13400D01*
X61207Y-13428D01*
X61207Y-13457D01*
X61192Y-13500D01*
X61021Y-13671D01*
X61207Y-13671D01*
X57102Y-13585D02*
X57245Y-13585D01*
X57074Y-13671D02*
X57174Y-13371D01*
X57274Y-13671D01*
X57531Y-13671D02*
X57360Y-13671D01*
X57445Y-13671D02*
X57445Y-13371D01*
X57417Y-13414D01*
X57388Y-13442D01*
X57360Y-13457D01*
X57631Y-13371D02*
X57817Y-13371D01*
X57717Y-13485D01*
X57760Y-13485D01*
X57788Y-13500D01*
X57802Y-13514D01*
X57817Y-13542D01*
X57817Y-13614D01*
X57802Y-13642D01*
X57788Y-13657D01*
X57760Y-13671D01*
X57674Y-13671D01*
X57645Y-13657D01*
X57631Y-13642D01*
X60492Y-12585D02*
X60635Y-12585D01*
X60464Y-12671D02*
X60564Y-12371D01*
X60664Y-12671D01*
X60921Y-12671D02*
X60750Y-12671D01*
X60835Y-12671D02*
X60835Y-12371D01*
X60807Y-12414D01*
X60778Y-12442D01*
X60750Y-12457D01*
X61178Y-12471D02*
X61178Y-12671D01*
X61107Y-12357D02*
X61035Y-12571D01*
X61221Y-12571D01*
X57102Y-12595D02*
X57245Y-12595D01*
X57074Y-12681D02*
X57174Y-12381D01*
X57274Y-12681D01*
X57531Y-12681D02*
X57360Y-12681D01*
X57445Y-12681D02*
X57445Y-12381D01*
X57417Y-12424D01*
X57388Y-12452D01*
X57360Y-12467D01*
X57802Y-12381D02*
X57660Y-12381D01*
X57645Y-12524D01*
X57660Y-12510D01*
X57688Y-12495D01*
X57760Y-12495D01*
X57788Y-12510D01*
X57802Y-12524D01*
X57817Y-12552D01*
X57817Y-12624D01*
X57802Y-12652D01*
X57788Y-12667D01*
X57760Y-12681D01*
X57688Y-12681D01*
X57660Y-12667D01*
X57645Y-12652D01*
X57105Y-11585D02*
X57248Y-11585D01*
X57077Y-11671D02*
X57177Y-11371D01*
X57277Y-11671D01*
X57377Y-11671D02*
X57377Y-11371D01*
X57448Y-11371D01*
X57491Y-11385D01*
X57520Y-11414D01*
X57534Y-11442D01*
X57548Y-11500D01*
X57548Y-11542D01*
X57534Y-11600D01*
X57520Y-11628D01*
X57491Y-11657D01*
X57448Y-11671D01*
X57377Y-11671D01*
X57805Y-11371D02*
X57748Y-11371D01*
X57720Y-11385D01*
X57705Y-11400D01*
X57677Y-11442D01*
X57662Y-11500D01*
X57662Y-11614D01*
X57677Y-11642D01*
X57691Y-11657D01*
X57720Y-11671D01*
X57777Y-11671D01*
X57805Y-11657D01*
X57820Y-11642D01*
X57834Y-11614D01*
X57834Y-11542D01*
X57820Y-11514D01*
X57805Y-11500D01*
X57777Y-11485D01*
X57720Y-11485D01*
X57691Y-11500D01*
X57677Y-11514D01*
X57662Y-11542D01*
X57105Y-10585D02*
X57248Y-10585D01*
X57077Y-10671D02*
X57177Y-10371D01*
X57277Y-10671D01*
X57377Y-10671D02*
X57377Y-10371D01*
X57448Y-10371D01*
X57491Y-10385D01*
X57520Y-10414D01*
X57534Y-10442D01*
X57548Y-10500D01*
X57548Y-10542D01*
X57534Y-10600D01*
X57520Y-10628D01*
X57491Y-10657D01*
X57448Y-10671D01*
X57377Y-10671D01*
X57805Y-10471D02*
X57805Y-10671D01*
X57734Y-10357D02*
X57662Y-10571D01*
X57848Y-10571D01*
X57105Y-9585D02*
X57248Y-9585D01*
X57077Y-9671D02*
X57177Y-9371D01*
X57277Y-9671D01*
X57377Y-9671D02*
X57377Y-9371D01*
X57448Y-9371D01*
X57491Y-9385D01*
X57520Y-9414D01*
X57534Y-9442D01*
X57548Y-9500D01*
X57548Y-9542D01*
X57534Y-9600D01*
X57520Y-9628D01*
X57491Y-9657D01*
X57448Y-9671D01*
X57377Y-9671D01*
X57662Y-9400D02*
X57677Y-9385D01*
X57705Y-9371D01*
X57777Y-9371D01*
X57805Y-9385D01*
X57820Y-9400D01*
X57834Y-9428D01*
X57834Y-9457D01*
X57820Y-9500D01*
X57648Y-9671D01*
X57834Y-9671D01*
X55500Y-8778D02*
X55485Y-8764D01*
X55471Y-8735D01*
X55471Y-8664D01*
X55485Y-8635D01*
X55500Y-8621D01*
X55528Y-8607D01*
X55557Y-8607D01*
X55600Y-8621D01*
X55771Y-8792D01*
X55771Y-8607D01*
X55771Y-8321D02*
X55771Y-8492D01*
X55771Y-8407D02*
X55471Y-8407D01*
X55514Y-8435D01*
X55542Y-8464D01*
X55557Y-8492D01*
X54500Y-8778D02*
X54485Y-8764D01*
X54471Y-8735D01*
X54471Y-8664D01*
X54485Y-8635D01*
X54500Y-8621D01*
X54528Y-8607D01*
X54557Y-8607D01*
X54600Y-8621D01*
X54771Y-8792D01*
X54771Y-8607D01*
X54471Y-8421D02*
X54471Y-8392D01*
X54485Y-8364D01*
X54500Y-8350D01*
X54528Y-8335D01*
X54585Y-8321D01*
X54657Y-8321D01*
X54714Y-8335D01*
X54742Y-8350D01*
X54757Y-8364D01*
X54771Y-8392D01*
X54771Y-8421D01*
X54757Y-8450D01*
X54742Y-8464D01*
X54714Y-8478D01*
X54657Y-8492D01*
X54585Y-8492D01*
X54528Y-8478D01*
X54500Y-8464D01*
X54485Y-8450D01*
X54471Y-8421D01*
X53771Y-8607D02*
X53771Y-8778D01*
X53771Y-8692D02*
X53471Y-8692D01*
X53514Y-8721D01*
X53542Y-8750D01*
X53557Y-8778D01*
X53771Y-8464D02*
X53771Y-8407D01*
X53757Y-8378D01*
X53742Y-8364D01*
X53700Y-8335D01*
X53642Y-8321D01*
X53528Y-8321D01*
X53500Y-8335D01*
X53485Y-8350D01*
X53471Y-8378D01*
X53471Y-8435D01*
X53485Y-8464D01*
X53500Y-8478D01*
X53528Y-8492D01*
X53600Y-8492D01*
X53628Y-8478D01*
X53642Y-8464D01*
X53657Y-8435D01*
X53657Y-8378D01*
X53642Y-8350D01*
X53628Y-8335D01*
X53600Y-8321D01*
X52771Y-8607D02*
X52771Y-8778D01*
X52771Y-8692D02*
X52471Y-8692D01*
X52514Y-8721D01*
X52542Y-8750D01*
X52557Y-8778D01*
X52600Y-8435D02*
X52585Y-8464D01*
X52571Y-8478D01*
X52542Y-8492D01*
X52528Y-8492D01*
X52500Y-8478D01*
X52485Y-8464D01*
X52471Y-8435D01*
X52471Y-8378D01*
X52485Y-8350D01*
X52500Y-8335D01*
X52528Y-8321D01*
X52542Y-8321D01*
X52571Y-8335D01*
X52585Y-8350D01*
X52600Y-8378D01*
X52600Y-8435D01*
X52614Y-8464D01*
X52628Y-8478D01*
X52657Y-8492D01*
X52714Y-8492D01*
X52742Y-8478D01*
X52757Y-8464D01*
X52771Y-8435D01*
X52771Y-8378D01*
X52757Y-8350D01*
X52742Y-8335D01*
X52714Y-8321D01*
X52657Y-8321D01*
X52628Y-8335D01*
X52614Y-8350D01*
X52600Y-8378D01*
X51771Y-8607D02*
X51771Y-8778D01*
X51771Y-8692D02*
X51471Y-8692D01*
X51514Y-8721D01*
X51542Y-8750D01*
X51557Y-8778D01*
X51471Y-8507D02*
X51471Y-8307D01*
X51771Y-8435D01*
X50771Y-8607D02*
X50771Y-8778D01*
X50771Y-8692D02*
X50471Y-8692D01*
X50514Y-8721D01*
X50542Y-8750D01*
X50557Y-8778D01*
X50471Y-8350D02*
X50471Y-8407D01*
X50485Y-8435D01*
X50500Y-8450D01*
X50542Y-8478D01*
X50600Y-8492D01*
X50714Y-8492D01*
X50742Y-8478D01*
X50757Y-8464D01*
X50771Y-8435D01*
X50771Y-8378D01*
X50757Y-8350D01*
X50742Y-8335D01*
X50714Y-8321D01*
X50642Y-8321D01*
X50614Y-8335D01*
X50600Y-8350D01*
X50585Y-8378D01*
X50585Y-8435D01*
X50600Y-8464D01*
X50614Y-8478D01*
X50642Y-8492D01*
X49771Y-8607D02*
X49771Y-8778D01*
X49771Y-8692D02*
X49471Y-8692D01*
X49514Y-8721D01*
X49542Y-8750D01*
X49557Y-8778D01*
X49471Y-8335D02*
X49471Y-8478D01*
X49614Y-8492D01*
X49600Y-8478D01*
X49585Y-8450D01*
X49585Y-8378D01*
X49600Y-8350D01*
X49614Y-8335D01*
X49642Y-8321D01*
X49714Y-8321D01*
X49742Y-8335D01*
X49757Y-8350D01*
X49771Y-8378D01*
X49771Y-8450D01*
X49757Y-8478D01*
X49742Y-8492D01*
X48771Y-8607D02*
X48771Y-8778D01*
X48771Y-8692D02*
X48471Y-8692D01*
X48514Y-8721D01*
X48542Y-8750D01*
X48557Y-8778D01*
X48571Y-8350D02*
X48771Y-8350D01*
X48457Y-8421D02*
X48671Y-8492D01*
X48671Y-8307D01*
X46471Y-8364D02*
X46471Y-8335D01*
X46485Y-8307D01*
X46500Y-8292D01*
X46528Y-8278D01*
X46585Y-8264D01*
X46657Y-8264D01*
X46714Y-8278D01*
X46742Y-8292D01*
X46757Y-8307D01*
X46771Y-8335D01*
X46771Y-8364D01*
X46757Y-8392D01*
X46742Y-8407D01*
X46714Y-8421D01*
X46657Y-8435D01*
X46585Y-8435D01*
X46528Y-8421D01*
X46500Y-8407D01*
X46485Y-8392D01*
X46471Y-8364D01*
X45771Y-8264D02*
X45771Y-8435D01*
X45771Y-8350D02*
X45471Y-8350D01*
X45514Y-8378D01*
X45542Y-8407D01*
X45557Y-8435D01*
X44500Y-8435D02*
X44485Y-8421D01*
X44471Y-8392D01*
X44471Y-8321D01*
X44485Y-8292D01*
X44500Y-8278D01*
X44528Y-8264D01*
X44557Y-8264D01*
X44600Y-8278D01*
X44771Y-8450D01*
X44771Y-8264D01*
X43471Y-8450D02*
X43471Y-8264D01*
X43585Y-8364D01*
X43585Y-8321D01*
X43600Y-8292D01*
X43614Y-8278D01*
X43642Y-8264D01*
X43714Y-8264D01*
X43742Y-8278D01*
X43757Y-8292D01*
X43771Y-8321D01*
X43771Y-8407D01*
X43757Y-8435D01*
X43742Y-8450D01*
X42571Y-8292D02*
X42771Y-8292D01*
X42457Y-8364D02*
X42671Y-8435D01*
X42671Y-8250D01*
X29771Y-9735D02*
X29742Y-9721D01*
X29700Y-9721D01*
X29657Y-9735D01*
X29628Y-9764D01*
X29614Y-9792D01*
X29600Y-9850D01*
X29600Y-9892D01*
X29614Y-9950D01*
X29628Y-9978D01*
X29657Y-10007D01*
X29700Y-10021D01*
X29728Y-10021D01*
X29771Y-10007D01*
X29785Y-9992D01*
X29785Y-9892D01*
X29728Y-9892D01*
X29914Y-10021D02*
X29914Y-9721D01*
X30085Y-10021D01*
X30085Y-9721D01*
X30228Y-10021D02*
X30228Y-9721D01*
X30300Y-9721D01*
X30342Y-9735D01*
X30371Y-9764D01*
X30385Y-9792D01*
X30400Y-9850D01*
X30400Y-9892D01*
X30385Y-9950D01*
X30371Y-9978D01*
X30342Y-10007D01*
X30300Y-10021D01*
X30228Y-10021D01*
X31085Y-9435D02*
X31085Y-9292D01*
X31171Y-9464D02*
X30871Y-9364D01*
X31171Y-9264D01*
X31171Y-8992D02*
X31028Y-9092D01*
X31171Y-9164D02*
X30871Y-9164D01*
X30871Y-9050D01*
X30885Y-9021D01*
X30900Y-9007D01*
X30928Y-8992D01*
X30971Y-8992D01*
X31000Y-9007D01*
X31014Y-9021D01*
X31028Y-9050D01*
X31028Y-9164D01*
X31014Y-8864D02*
X31014Y-8764D01*
X31171Y-8721D02*
X31171Y-8864D01*
X30871Y-8864D01*
X30871Y-8721D01*
X31014Y-8492D02*
X31014Y-8592D01*
X31171Y-8592D02*
X30871Y-8592D01*
X30871Y-8449D01*
X41471Y-8278D02*
X41471Y-8421D01*
X41614Y-8435D01*
X41600Y-8421D01*
X41585Y-8392D01*
X41585Y-8321D01*
X41600Y-8292D01*
X41614Y-8278D01*
X41642Y-8264D01*
X41714Y-8264D01*
X41742Y-8278D01*
X41757Y-8292D01*
X41771Y-8321D01*
X41771Y-8392D01*
X41757Y-8421D01*
X41742Y-8435D01*
X40471Y-8292D02*
X40471Y-8350D01*
X40485Y-8378D01*
X40500Y-8392D01*
X40542Y-8421D01*
X40600Y-8435D01*
X40714Y-8435D01*
X40742Y-8421D01*
X40757Y-8407D01*
X40771Y-8378D01*
X40771Y-8321D01*
X40757Y-8292D01*
X40742Y-8278D01*
X40714Y-8264D01*
X40642Y-8264D01*
X40614Y-8278D01*
X40600Y-8292D01*
X40585Y-8321D01*
X40585Y-8378D01*
X40600Y-8407D01*
X40614Y-8421D01*
X40642Y-8435D01*
X39471Y-8450D02*
X39471Y-8250D01*
X39771Y-8378D01*
X38000Y-8378D02*
X37985Y-8407D01*
X37971Y-8421D01*
X37942Y-8435D01*
X37928Y-8435D01*
X37900Y-8421D01*
X37885Y-8407D01*
X37871Y-8378D01*
X37871Y-8321D01*
X37885Y-8292D01*
X37900Y-8278D01*
X37928Y-8264D01*
X37942Y-8264D01*
X37971Y-8278D01*
X37985Y-8292D01*
X38000Y-8321D01*
X38000Y-8378D01*
X38014Y-8407D01*
X38028Y-8421D01*
X38057Y-8435D01*
X38114Y-8435D01*
X38142Y-8421D01*
X38157Y-8407D01*
X38171Y-8378D01*
X38171Y-8321D01*
X38157Y-8292D01*
X38142Y-8278D01*
X38114Y-8264D01*
X38057Y-8264D01*
X38028Y-8278D01*
X38014Y-8292D01*
X38000Y-8321D01*
X37171Y-8407D02*
X37171Y-8350D01*
X37157Y-8321D01*
X37142Y-8307D01*
X37100Y-8278D01*
X37042Y-8264D01*
X36928Y-8264D01*
X36900Y-8278D01*
X36885Y-8292D01*
X36871Y-8321D01*
X36871Y-8378D01*
X36885Y-8407D01*
X36900Y-8421D01*
X36928Y-8435D01*
X37000Y-8435D01*
X37028Y-8421D01*
X37042Y-8407D01*
X37057Y-8378D01*
X37057Y-8321D01*
X37042Y-8292D01*
X37028Y-8278D01*
X37000Y-8264D01*
X36171Y-8607D02*
X36171Y-8778D01*
X36171Y-8692D02*
X35871Y-8692D01*
X35914Y-8721D01*
X35942Y-8750D01*
X35957Y-8778D01*
X35871Y-8421D02*
X35871Y-8392D01*
X35885Y-8364D01*
X35900Y-8350D01*
X35928Y-8335D01*
X35985Y-8321D01*
X36057Y-8321D01*
X36114Y-8335D01*
X36142Y-8350D01*
X36157Y-8364D01*
X36171Y-8392D01*
X36171Y-8421D01*
X36157Y-8450D01*
X36142Y-8464D01*
X36114Y-8478D01*
X36057Y-8492D01*
X35985Y-8492D01*
X35928Y-8478D01*
X35900Y-8464D01*
X35885Y-8450D01*
X35871Y-8421D01*
X35171Y-8607D02*
X35171Y-8778D01*
X35171Y-8692D02*
X34871Y-8692D01*
X34914Y-8721D01*
X34942Y-8750D01*
X34957Y-8778D01*
X35171Y-8321D02*
X35171Y-8492D01*
X35171Y-8407D02*
X34871Y-8407D01*
X34914Y-8435D01*
X34942Y-8464D01*
X34957Y-8492D01*
X34171Y-8607D02*
X34171Y-8778D01*
X34171Y-8692D02*
X33871Y-8692D01*
X33914Y-8721D01*
X33942Y-8750D01*
X33957Y-8778D01*
X33900Y-8492D02*
X33885Y-8478D01*
X33871Y-8450D01*
X33871Y-8378D01*
X33885Y-8350D01*
X33900Y-8335D01*
X33928Y-8321D01*
X33957Y-8321D01*
X34000Y-8335D01*
X34171Y-8507D01*
X34171Y-8321D01*
X33171Y-8607D02*
X33171Y-8778D01*
X33171Y-8692D02*
X32871Y-8692D01*
X32914Y-8721D01*
X32942Y-8750D01*
X32957Y-8778D01*
X32871Y-8507D02*
X32871Y-8321D01*
X32985Y-8421D01*
X32985Y-8378D01*
X33000Y-8350D01*
X33014Y-8335D01*
X33042Y-8321D01*
X33114Y-8321D01*
X33142Y-8335D01*
X33157Y-8350D01*
X33171Y-8378D01*
X33171Y-8464D01*
X33157Y-8492D01*
X33142Y-8507D01*
X30157Y-9114D02*
X30171Y-9071D01*
X30171Y-8999D01*
X30157Y-8971D01*
X30142Y-8957D01*
X30114Y-8942D01*
X30085Y-8942D01*
X30057Y-8957D01*
X30042Y-8971D01*
X30028Y-8999D01*
X30014Y-9057D01*
X30000Y-9085D01*
X29985Y-9099D01*
X29957Y-9114D01*
X29928Y-9114D01*
X29900Y-9099D01*
X29885Y-9085D01*
X29871Y-9057D01*
X29871Y-8985D01*
X29885Y-8942D01*
X30171Y-8814D02*
X29871Y-8814D01*
X29871Y-8742D01*
X29885Y-8700D01*
X29914Y-8671D01*
X29942Y-8657D01*
X30000Y-8642D01*
X30042Y-8642D01*
X30100Y-8657D01*
X30128Y-8671D01*
X30157Y-8700D01*
X30171Y-8742D01*
X30171Y-8814D01*
X30085Y-8528D02*
X30085Y-8385D01*
X30171Y-8557D02*
X29871Y-8457D01*
X30171Y-8357D01*
X29157Y-9107D02*
X29171Y-9064D01*
X29171Y-8992D01*
X29157Y-8964D01*
X29142Y-8949D01*
X29114Y-8935D01*
X29085Y-8935D01*
X29057Y-8949D01*
X29042Y-8964D01*
X29028Y-8992D01*
X29014Y-9049D01*
X29000Y-9078D01*
X28985Y-9092D01*
X28957Y-9107D01*
X28928Y-9107D01*
X28900Y-9092D01*
X28885Y-9078D01*
X28871Y-9049D01*
X28871Y-8978D01*
X28885Y-8935D01*
X29142Y-8635D02*
X29157Y-8650D01*
X29171Y-8692D01*
X29171Y-8721D01*
X29157Y-8764D01*
X29128Y-8792D01*
X29100Y-8807D01*
X29042Y-8821D01*
X29000Y-8821D01*
X28942Y-8807D01*
X28914Y-8792D01*
X28885Y-8764D01*
X28871Y-8721D01*
X28871Y-8692D01*
X28885Y-8650D01*
X28900Y-8635D01*
X29171Y-8364D02*
X29171Y-8507D01*
X28871Y-8507D01*
X40178Y-34671D02*
X40178Y-34371D01*
X40292Y-34371D01*
X40321Y-34385D01*
X40335Y-34400D01*
X40350Y-34428D01*
X40350Y-34471D01*
X40335Y-34500D01*
X40321Y-34514D01*
X40292Y-34528D01*
X40178Y-34528D01*
X40621Y-34371D02*
X40478Y-34371D01*
X40464Y-34514D01*
X40478Y-34500D01*
X40507Y-34485D01*
X40578Y-34485D01*
X40607Y-34500D01*
X40621Y-34514D01*
X40635Y-34542D01*
X40635Y-34614D01*
X40621Y-34642D01*
X40607Y-34657D01*
X40578Y-34671D01*
X40507Y-34671D01*
X40478Y-34657D01*
X40464Y-34642D01*
X29928Y-25821D02*
X29928Y-25521D01*
X30042Y-25521D01*
X30071Y-25535D01*
X30085Y-25550D01*
X30100Y-25578D01*
X30100Y-25621D01*
X30085Y-25650D01*
X30071Y-25664D01*
X30042Y-25678D01*
X29928Y-25678D01*
X30200Y-25521D02*
X30400Y-25521D01*
X30271Y-25821D01*
X25546Y-23135D02*
X25517Y-23121D01*
X25475Y-23121D01*
X25432Y-23135D01*
X25403Y-23164D01*
X25389Y-23192D01*
X25375Y-23250D01*
X25375Y-23292D01*
X25389Y-23350D01*
X25403Y-23378D01*
X25432Y-23407D01*
X25475Y-23421D01*
X25503Y-23421D01*
X25546Y-23407D01*
X25560Y-23392D01*
X25560Y-23292D01*
X25503Y-23292D01*
X25689Y-23421D02*
X25689Y-23121D01*
X25860Y-23421D01*
X25860Y-23121D01*
X26003Y-23421D02*
X26003Y-23121D01*
X26075Y-23121D01*
X26117Y-23135D01*
X26146Y-23164D01*
X26160Y-23192D01*
X26175Y-23250D01*
X26175Y-23292D01*
X26160Y-23350D01*
X26146Y-23378D01*
X26117Y-23407D01*
X26075Y-23421D01*
X26003Y-23421D01*
X25546Y-12510D02*
X25517Y-12496D01*
X25475Y-12496D01*
X25432Y-12510D01*
X25403Y-12539D01*
X25389Y-12567D01*
X25375Y-12625D01*
X25375Y-12667D01*
X25389Y-12725D01*
X25403Y-12753D01*
X25432Y-12782D01*
X25475Y-12796D01*
X25503Y-12796D01*
X25546Y-12782D01*
X25560Y-12767D01*
X25560Y-12667D01*
X25503Y-12667D01*
X25689Y-12796D02*
X25689Y-12496D01*
X25860Y-12796D01*
X25860Y-12496D01*
X26003Y-12796D02*
X26003Y-12496D01*
X26075Y-12496D01*
X26117Y-12510D01*
X26146Y-12539D01*
X26160Y-12567D01*
X26175Y-12625D01*
X26175Y-12667D01*
X26160Y-12725D01*
X26146Y-12753D01*
X26117Y-12782D01*
X26075Y-12796D01*
X26003Y-12796D01*
X56171Y-16135D02*
X56142Y-16121D01*
X56100Y-16121D01*
X56057Y-16135D01*
X56028Y-16164D01*
X56014Y-16192D01*
X56000Y-16250D01*
X56000Y-16292D01*
X56014Y-16350D01*
X56028Y-16378D01*
X56057Y-16407D01*
X56100Y-16421D01*
X56128Y-16421D01*
X56171Y-16407D01*
X56185Y-16392D01*
X56185Y-16292D01*
X56128Y-16292D01*
X56314Y-16421D02*
X56314Y-16121D01*
X56485Y-16421D01*
X56485Y-16121D01*
X56628Y-16421D02*
X56628Y-16121D01*
X56700Y-16121D01*
X56742Y-16135D01*
X56771Y-16164D01*
X56785Y-16192D01*
X56800Y-16250D01*
X56800Y-16292D01*
X56785Y-16350D01*
X56771Y-16378D01*
X56742Y-16407D01*
X56700Y-16421D01*
X56628Y-16421D01*
X11321Y-32110D02*
X11292Y-32096D01*
X11250Y-32096D01*
X11207Y-32110D01*
X11178Y-32139D01*
X11164Y-32167D01*
X11150Y-32225D01*
X11150Y-32267D01*
X11164Y-32325D01*
X11178Y-32353D01*
X11207Y-32382D01*
X11250Y-32396D01*
X11278Y-32396D01*
X11321Y-32382D01*
X11335Y-32367D01*
X11335Y-32267D01*
X11278Y-32267D01*
X11464Y-32396D02*
X11464Y-32096D01*
X11635Y-32396D01*
X11635Y-32096D01*
X11778Y-32396D02*
X11778Y-32096D01*
X11850Y-32096D01*
X11892Y-32110D01*
X11921Y-32139D01*
X11935Y-32167D01*
X11950Y-32225D01*
X11950Y-32267D01*
X11935Y-32325D01*
X11921Y-32353D01*
X11892Y-32382D01*
X11850Y-32396D01*
X11778Y-32396D01*
X2835Y-18278D02*
X2821Y-18307D01*
X2821Y-18350D01*
X2835Y-18392D01*
X2864Y-18421D01*
X2892Y-18435D01*
X2950Y-18450D01*
X2992Y-18450D01*
X3050Y-18435D01*
X3078Y-18421D01*
X3107Y-18392D01*
X3121Y-18350D01*
X3121Y-18321D01*
X3107Y-18278D01*
X3092Y-18264D01*
X2992Y-18264D01*
X2992Y-18321D01*
X3121Y-18135D02*
X2821Y-18135D01*
X3121Y-17964D01*
X2821Y-17964D01*
X3121Y-17821D02*
X2821Y-17821D01*
X2821Y-17750D01*
X2835Y-17707D01*
X2864Y-17678D01*
X2892Y-17664D01*
X2950Y-17650D01*
X2992Y-17650D01*
X3050Y-17664D01*
X3078Y-17678D01*
X3107Y-17707D01*
X3121Y-17750D01*
X3121Y-17821D01*
X13353Y-7096D02*
X13353Y-7339D01*
X13367Y-7367D01*
X13382Y-7382D01*
X13410Y-7396D01*
X13467Y-7396D01*
X13496Y-7382D01*
X13510Y-7367D01*
X13525Y-7339D01*
X13525Y-7096D01*
X13825Y-7396D02*
X13653Y-7396D01*
X13739Y-7396D02*
X13739Y-7096D01*
X13710Y-7139D01*
X13682Y-7167D01*
X13653Y-7182D01*
X14096Y-7096D02*
X13953Y-7096D01*
X13939Y-7239D01*
X13953Y-7225D01*
X13982Y-7210D01*
X14053Y-7210D01*
X14082Y-7225D01*
X14096Y-7239D01*
X14110Y-7267D01*
X14110Y-7339D01*
X14096Y-7367D01*
X14082Y-7382D01*
X14053Y-7396D01*
X13982Y-7396D01*
X13953Y-7382D01*
X13939Y-7367D01*
X43353Y-30946D02*
X43353Y-30646D01*
X43467Y-30646D01*
X43496Y-30660D01*
X43510Y-30675D01*
X43525Y-30703D01*
X43525Y-30746D01*
X43510Y-30775D01*
X43496Y-30789D01*
X43467Y-30803D01*
X43353Y-30803D01*
X43782Y-30646D02*
X43725Y-30646D01*
X43696Y-30660D01*
X43682Y-30675D01*
X43653Y-30717D01*
X43639Y-30775D01*
X43639Y-30889D01*
X43653Y-30917D01*
X43667Y-30932D01*
X43696Y-30946D01*
X43753Y-30946D01*
X43782Y-30932D01*
X43796Y-30917D01*
X43810Y-30889D01*
X43810Y-30817D01*
X43796Y-30789D01*
X43782Y-30775D01*
X43753Y-30760D01*
X43696Y-30760D01*
X43667Y-30775D01*
X43653Y-30789D01*
X43639Y-30817D01*
X38442Y-31492D02*
X38428Y-31507D01*
X38385Y-31521D01*
X38357Y-31521D01*
X38314Y-31507D01*
X38285Y-31478D01*
X38271Y-31450D01*
X38257Y-31392D01*
X38257Y-31350D01*
X38271Y-31292D01*
X38285Y-31264D01*
X38314Y-31235D01*
X38357Y-31221D01*
X38385Y-31221D01*
X38428Y-31235D01*
X38442Y-31250D01*
X38628Y-31221D02*
X38685Y-31221D01*
X38714Y-31235D01*
X38742Y-31264D01*
X38757Y-31321D01*
X38757Y-31421D01*
X38742Y-31478D01*
X38714Y-31507D01*
X38685Y-31521D01*
X38628Y-31521D01*
X38600Y-31507D01*
X38571Y-31478D01*
X38557Y-31421D01*
X38557Y-31321D01*
X38571Y-31264D01*
X38600Y-31235D01*
X38628Y-31221D01*
X38885Y-31521D02*
X38885Y-31221D01*
X38957Y-31221D01*
X39000Y-31235D01*
X39028Y-31264D01*
X39042Y-31292D01*
X39057Y-31350D01*
X39057Y-31392D01*
X39042Y-31450D01*
X39028Y-31478D01*
X39000Y-31507D01*
X38957Y-31521D01*
X38885Y-31521D01*
X39185Y-31364D02*
X39285Y-31364D01*
X39328Y-31521D02*
X39185Y-31521D01*
X39185Y-31221D01*
X39328Y-31221D01*
X39685Y-31521D02*
X39685Y-31221D01*
X39757Y-31221D01*
X39800Y-31235D01*
X39828Y-31264D01*
X39842Y-31292D01*
X39857Y-31350D01*
X39857Y-31392D01*
X39842Y-31450D01*
X39828Y-31478D01*
X39800Y-31507D01*
X39757Y-31521D01*
X39685Y-31521D01*
X40042Y-31221D02*
X40100Y-31221D01*
X40128Y-31235D01*
X40157Y-31264D01*
X40171Y-31321D01*
X40171Y-31421D01*
X40157Y-31478D01*
X40128Y-31507D01*
X40100Y-31521D01*
X40042Y-31521D01*
X40014Y-31507D01*
X39985Y-31478D01*
X39971Y-31421D01*
X39971Y-31321D01*
X39985Y-31264D01*
X40014Y-31235D01*
X40042Y-31221D01*
X40271Y-31221D02*
X40342Y-31521D01*
X40400Y-31307D01*
X40457Y-31521D01*
X40528Y-31221D01*
X40642Y-31521D02*
X40642Y-31221D01*
X40814Y-31521D01*
X40814Y-31221D01*
X41100Y-31521D02*
X40957Y-31521D01*
X40957Y-31221D01*
X41257Y-31221D02*
X41314Y-31221D01*
X41342Y-31235D01*
X41371Y-31264D01*
X41385Y-31321D01*
X41385Y-31421D01*
X41371Y-31478D01*
X41342Y-31507D01*
X41314Y-31521D01*
X41257Y-31521D01*
X41228Y-31507D01*
X41200Y-31478D01*
X41185Y-31421D01*
X41185Y-31321D01*
X41200Y-31264D01*
X41228Y-31235D01*
X41257Y-31221D01*
X41500Y-31435D02*
X41642Y-31435D01*
X41471Y-31521D02*
X41571Y-31221D01*
X41671Y-31521D01*
X41771Y-31521D02*
X41771Y-31221D01*
X41842Y-31221D01*
X41885Y-31235D01*
X41914Y-31264D01*
X41928Y-31292D01*
X41942Y-31350D01*
X41942Y-31392D01*
X41928Y-31450D01*
X41914Y-31478D01*
X41885Y-31507D01*
X41842Y-31521D01*
X41771Y-31521D01*
X19978Y-27096D02*
X19978Y-27339D01*
X19992Y-27367D01*
X20007Y-27382D01*
X20035Y-27396D01*
X20092Y-27396D01*
X20121Y-27382D01*
X20135Y-27367D01*
X20150Y-27339D01*
X20150Y-27096D01*
X20450Y-27396D02*
X20278Y-27396D01*
X20364Y-27396D02*
X20364Y-27096D01*
X20335Y-27139D01*
X20307Y-27167D01*
X20278Y-27182D01*
X20550Y-27096D02*
X20735Y-27096D01*
X20635Y-27210D01*
X20678Y-27210D01*
X20707Y-27225D01*
X20721Y-27239D01*
X20735Y-27267D01*
X20735Y-27339D01*
X20721Y-27367D01*
X20707Y-27382D01*
X20678Y-27396D01*
X20592Y-27396D01*
X20564Y-27382D01*
X20550Y-27367D01*
X43928Y-20321D02*
X43928Y-20021D01*
X44042Y-20021D01*
X44071Y-20035D01*
X44085Y-20050D01*
X44100Y-20078D01*
X44100Y-20121D01*
X44085Y-20150D01*
X44071Y-20164D01*
X44042Y-20178D01*
X43928Y-20178D01*
X44200Y-20021D02*
X44385Y-20021D01*
X44285Y-20135D01*
X44328Y-20135D01*
X44357Y-20150D01*
X44371Y-20164D01*
X44385Y-20192D01*
X44385Y-20264D01*
X44371Y-20292D01*
X44357Y-20307D01*
X44328Y-20321D01*
X44242Y-20321D01*
X44214Y-20307D01*
X44200Y-20292D01*
X48878Y-27571D02*
X48878Y-27814D01*
X48892Y-27842D01*
X48907Y-27857D01*
X48935Y-27871D01*
X48992Y-27871D01*
X49021Y-27857D01*
X49035Y-27842D01*
X49050Y-27814D01*
X49050Y-27571D01*
X49350Y-27871D02*
X49178Y-27871D01*
X49264Y-27871D02*
X49264Y-27571D01*
X49235Y-27614D01*
X49207Y-27642D01*
X49178Y-27657D01*
X49635Y-27871D02*
X49464Y-27871D01*
X49550Y-27871D02*
X49550Y-27571D01*
X49521Y-27614D01*
X49492Y-27642D01*
X49464Y-27657D01*
X53775Y-13707D02*
X53817Y-13721D01*
X53889Y-13721D01*
X53917Y-13707D01*
X53932Y-13692D01*
X53946Y-13664D01*
X53946Y-13635D01*
X53932Y-13607D01*
X53917Y-13592D01*
X53889Y-13578D01*
X53832Y-13564D01*
X53803Y-13550D01*
X53789Y-13535D01*
X53775Y-13507D01*
X53775Y-13478D01*
X53789Y-13450D01*
X53803Y-13435D01*
X53832Y-13421D01*
X53903Y-13421D01*
X53946Y-13435D01*
X54046Y-13421D02*
X54117Y-13721D01*
X54175Y-13507D01*
X54232Y-13721D01*
X54303Y-13421D01*
X54575Y-13721D02*
X54403Y-13721D01*
X54489Y-13721D02*
X54489Y-13421D01*
X54460Y-13464D01*
X54432Y-13492D01*
X54403Y-13507D01*
X53714Y-18146D02*
X53614Y-18003D01*
X53542Y-18146D02*
X53542Y-17846D01*
X53657Y-17846D01*
X53685Y-17860D01*
X53700Y-17875D01*
X53714Y-17903D01*
X53714Y-17946D01*
X53700Y-17975D01*
X53685Y-17989D01*
X53657Y-18003D01*
X53542Y-18003D01*
X53842Y-17989D02*
X53942Y-17989D01*
X53985Y-18146D02*
X53842Y-18146D01*
X53842Y-17846D01*
X53985Y-17846D01*
X54100Y-18132D02*
X54142Y-18146D01*
X54214Y-18146D01*
X54242Y-18132D01*
X54257Y-18117D01*
X54271Y-18089D01*
X54271Y-18060D01*
X54257Y-18032D01*
X54242Y-18017D01*
X54214Y-18003D01*
X54157Y-17989D01*
X54128Y-17975D01*
X54114Y-17960D01*
X54100Y-17932D01*
X54100Y-17903D01*
X54114Y-17875D01*
X54128Y-17860D01*
X54157Y-17846D01*
X54228Y-17846D01*
X54271Y-17860D01*
X54400Y-17989D02*
X54500Y-17989D01*
X54542Y-18146D02*
X54400Y-18146D01*
X54400Y-17846D01*
X54542Y-17846D01*
X54628Y-17846D02*
X54800Y-17846D01*
X54714Y-18146D02*
X54714Y-17846D01*
X28821Y-10471D02*
X28821Y-10714D01*
X28835Y-10742D01*
X28850Y-10757D01*
X28878Y-10771D01*
X28935Y-10771D01*
X28964Y-10757D01*
X28978Y-10742D01*
X28992Y-10714D01*
X28992Y-10471D01*
X29121Y-10500D02*
X29135Y-10485D01*
X29164Y-10471D01*
X29235Y-10471D01*
X29264Y-10485D01*
X29278Y-10500D01*
X29292Y-10528D01*
X29292Y-10557D01*
X29278Y-10600D01*
X29107Y-10771D01*
X29292Y-10771D01*
X29385Y-23171D02*
X29214Y-23171D01*
X29300Y-23171D02*
X29300Y-22871D01*
X29271Y-22914D01*
X29242Y-22942D01*
X29214Y-22957D01*
X2621Y-13778D02*
X2864Y-13778D01*
X2892Y-13764D01*
X2907Y-13750D01*
X2921Y-13721D01*
X2921Y-13664D01*
X2907Y-13635D01*
X2892Y-13621D01*
X2864Y-13607D01*
X2621Y-13607D01*
X2921Y-13307D02*
X2921Y-13478D01*
X2921Y-13392D02*
X2621Y-13392D01*
X2664Y-13421D01*
X2692Y-13450D01*
X2707Y-13478D01*
X15296Y-34571D02*
X15296Y-34814D01*
X15310Y-34842D01*
X15325Y-34857D01*
X15353Y-34871D01*
X15410Y-34871D01*
X15439Y-34857D01*
X15453Y-34842D01*
X15467Y-34814D01*
X15467Y-34571D01*
X15739Y-34571D02*
X15682Y-34571D01*
X15653Y-34585D01*
X15639Y-34600D01*
X15610Y-34642D01*
X15596Y-34700D01*
X15596Y-34814D01*
X15610Y-34842D01*
X15625Y-34857D01*
X15653Y-34871D01*
X15710Y-34871D01*
X15739Y-34857D01*
X15753Y-34842D01*
X15767Y-34814D01*
X15767Y-34742D01*
X15753Y-34714D01*
X15739Y-34700D01*
X15710Y-34685D01*
X15653Y-34685D01*
X15625Y-34700D01*
X15610Y-34714D01*
X15596Y-34742D01*
X48721Y-24271D02*
X48964Y-24271D01*
X48992Y-24257D01*
X49007Y-24242D01*
X49021Y-24214D01*
X49021Y-24157D01*
X49007Y-24128D01*
X48992Y-24114D01*
X48964Y-24100D01*
X48721Y-24100D01*
X49021Y-23800D02*
X49021Y-23971D01*
X49021Y-23885D02*
X48721Y-23885D01*
X48764Y-23914D01*
X48792Y-23942D01*
X48807Y-23971D01*
X48750Y-23685D02*
X48735Y-23671D01*
X48721Y-23642D01*
X48721Y-23571D01*
X48735Y-23542D01*
X48750Y-23528D01*
X48778Y-23514D01*
X48807Y-23514D01*
X48850Y-23528D01*
X49021Y-23700D01*
X49021Y-23514D01*
X45657Y-24517D02*
X45642Y-24532D01*
X45600Y-24546D01*
X45571Y-24546D01*
X45528Y-24532D01*
X45500Y-24503D01*
X45485Y-24475D01*
X45471Y-24417D01*
X45471Y-24375D01*
X45485Y-24317D01*
X45500Y-24289D01*
X45528Y-24260D01*
X45571Y-24246D01*
X45600Y-24246D01*
X45642Y-24260D01*
X45657Y-24275D01*
X45757Y-24246D02*
X45942Y-24246D01*
X45842Y-24360D01*
X45885Y-24360D01*
X45914Y-24375D01*
X45928Y-24389D01*
X45942Y-24417D01*
X45942Y-24489D01*
X45928Y-24517D01*
X45914Y-24532D01*
X45885Y-24546D01*
X45800Y-24546D01*
X45771Y-24532D01*
X45757Y-24517D01*
X46128Y-24246D02*
X46157Y-24246D01*
X46185Y-24260D01*
X46200Y-24275D01*
X46214Y-24303D01*
X46228Y-24360D01*
X46228Y-24432D01*
X46214Y-24489D01*
X46200Y-24517D01*
X46185Y-24532D01*
X46157Y-24546D01*
X46128Y-24546D01*
X46100Y-24532D01*
X46085Y-24517D01*
X46071Y-24489D01*
X46057Y-24432D01*
X46057Y-24360D01*
X46071Y-24303D01*
X46085Y-24275D01*
X46100Y-24260D01*
X46128Y-24246D01*
X42982Y-20842D02*
X42967Y-20857D01*
X42925Y-20871D01*
X42896Y-20871D01*
X42853Y-20857D01*
X42825Y-20828D01*
X42810Y-20800D01*
X42796Y-20742D01*
X42796Y-20700D01*
X42810Y-20642D01*
X42825Y-20614D01*
X42853Y-20585D01*
X42896Y-20571D01*
X42925Y-20571D01*
X42967Y-20585D01*
X42982Y-20600D01*
X43096Y-20600D02*
X43110Y-20585D01*
X43139Y-20571D01*
X43210Y-20571D01*
X43239Y-20585D01*
X43253Y-20600D01*
X43267Y-20628D01*
X43267Y-20657D01*
X43253Y-20700D01*
X43082Y-20871D01*
X43267Y-20871D01*
X43553Y-20871D02*
X43382Y-20871D01*
X43467Y-20871D02*
X43467Y-20571D01*
X43439Y-20614D01*
X43410Y-20642D01*
X43382Y-20657D01*
X4350Y-31517D02*
X4335Y-31532D01*
X4292Y-31546D01*
X4264Y-31546D01*
X4221Y-31532D01*
X4192Y-31503D01*
X4178Y-31475D01*
X4164Y-31417D01*
X4164Y-31375D01*
X4178Y-31317D01*
X4192Y-31289D01*
X4221Y-31260D01*
X4264Y-31246D01*
X4292Y-31246D01*
X4335Y-31260D01*
X4350Y-31275D01*
X4607Y-31246D02*
X4550Y-31246D01*
X4521Y-31260D01*
X4507Y-31275D01*
X4478Y-31317D01*
X4464Y-31375D01*
X4464Y-31489D01*
X4478Y-31517D01*
X4492Y-31532D01*
X4521Y-31546D01*
X4578Y-31546D01*
X4607Y-31532D01*
X4621Y-31517D01*
X4635Y-31489D01*
X4635Y-31417D01*
X4621Y-31389D01*
X4607Y-31375D01*
X4578Y-31360D01*
X4521Y-31360D01*
X4492Y-31375D01*
X4478Y-31389D01*
X4464Y-31417D01*
X49332Y-23042D02*
X49317Y-23057D01*
X49275Y-23071D01*
X49246Y-23071D01*
X49203Y-23057D01*
X49175Y-23028D01*
X49160Y-23000D01*
X49146Y-22942D01*
X49146Y-22900D01*
X49160Y-22842D01*
X49175Y-22814D01*
X49203Y-22785D01*
X49246Y-22771D01*
X49275Y-22771D01*
X49317Y-22785D01*
X49332Y-22800D01*
X49446Y-22800D02*
X49460Y-22785D01*
X49489Y-22771D01*
X49560Y-22771D01*
X49589Y-22785D01*
X49603Y-22800D01*
X49617Y-22828D01*
X49617Y-22857D01*
X49603Y-22900D01*
X49432Y-23071D01*
X49617Y-23071D01*
X49760Y-23071D02*
X49817Y-23071D01*
X49846Y-23057D01*
X49860Y-23042D01*
X49889Y-23000D01*
X49903Y-22942D01*
X49903Y-22828D01*
X49889Y-22800D01*
X49875Y-22785D01*
X49846Y-22771D01*
X49789Y-22771D01*
X49760Y-22785D01*
X49746Y-22800D01*
X49732Y-22828D01*
X49732Y-22900D01*
X49746Y-22928D01*
X49760Y-22942D01*
X49789Y-22957D01*
X49846Y-22957D01*
X49875Y-22942D01*
X49889Y-22928D01*
X49903Y-22900D01*
X27107Y-20917D02*
X27092Y-20932D01*
X27050Y-20946D01*
X27021Y-20946D01*
X26978Y-20932D01*
X26950Y-20903D01*
X26935Y-20875D01*
X26921Y-20817D01*
X26921Y-20775D01*
X26935Y-20717D01*
X26950Y-20689D01*
X26978Y-20660D01*
X27021Y-20646D01*
X27050Y-20646D01*
X27092Y-20660D01*
X27107Y-20675D01*
X27221Y-20675D02*
X27235Y-20660D01*
X27264Y-20646D01*
X27335Y-20646D01*
X27364Y-20660D01*
X27378Y-20675D01*
X27392Y-20703D01*
X27392Y-20732D01*
X27378Y-20775D01*
X27207Y-20946D01*
X27392Y-20946D01*
X27492Y-20646D02*
X27692Y-20646D01*
X27564Y-20946D01*
X30907Y-25342D02*
X30892Y-25357D01*
X30850Y-25371D01*
X30821Y-25371D01*
X30778Y-25357D01*
X30750Y-25328D01*
X30735Y-25300D01*
X30721Y-25242D01*
X30721Y-25200D01*
X30735Y-25142D01*
X30750Y-25114D01*
X30778Y-25085D01*
X30821Y-25071D01*
X30850Y-25071D01*
X30892Y-25085D01*
X30907Y-25100D01*
X31021Y-25100D02*
X31035Y-25085D01*
X31064Y-25071D01*
X31135Y-25071D01*
X31164Y-25085D01*
X31178Y-25100D01*
X31192Y-25128D01*
X31192Y-25157D01*
X31178Y-25200D01*
X31007Y-25371D01*
X31192Y-25371D01*
X31450Y-25071D02*
X31392Y-25071D01*
X31364Y-25085D01*
X31350Y-25100D01*
X31321Y-25142D01*
X31307Y-25200D01*
X31307Y-25314D01*
X31321Y-25342D01*
X31335Y-25357D01*
X31364Y-25371D01*
X31421Y-25371D01*
X31450Y-25357D01*
X31464Y-25342D01*
X31478Y-25314D01*
X31478Y-25242D01*
X31464Y-25214D01*
X31450Y-25200D01*
X31421Y-25185D01*
X31364Y-25185D01*
X31335Y-25200D01*
X31321Y-25214D01*
X31307Y-25242D01*
X28257Y-23892D02*
X28242Y-23907D01*
X28200Y-23921D01*
X28171Y-23921D01*
X28128Y-23907D01*
X28100Y-23878D01*
X28085Y-23850D01*
X28071Y-23792D01*
X28071Y-23750D01*
X28085Y-23692D01*
X28100Y-23664D01*
X28128Y-23635D01*
X28171Y-23621D01*
X28200Y-23621D01*
X28242Y-23635D01*
X28257Y-23650D01*
X28371Y-23650D02*
X28385Y-23635D01*
X28414Y-23621D01*
X28485Y-23621D01*
X28514Y-23635D01*
X28528Y-23650D01*
X28542Y-23678D01*
X28542Y-23707D01*
X28528Y-23750D01*
X28357Y-23921D01*
X28542Y-23921D01*
X28814Y-23621D02*
X28671Y-23621D01*
X28657Y-23764D01*
X28671Y-23750D01*
X28700Y-23735D01*
X28771Y-23735D01*
X28800Y-23750D01*
X28814Y-23764D01*
X28828Y-23792D01*
X28828Y-23864D01*
X28814Y-23892D01*
X28800Y-23907D01*
X28771Y-23921D01*
X28700Y-23921D01*
X28671Y-23907D01*
X28657Y-23892D01*
X26682Y-16042D02*
X26667Y-16057D01*
X26625Y-16071D01*
X26596Y-16071D01*
X26553Y-16057D01*
X26525Y-16028D01*
X26510Y-16000D01*
X26496Y-15942D01*
X26496Y-15900D01*
X26510Y-15842D01*
X26525Y-15814D01*
X26553Y-15785D01*
X26596Y-15771D01*
X26625Y-15771D01*
X26667Y-15785D01*
X26682Y-15800D01*
X26796Y-15800D02*
X26810Y-15785D01*
X26839Y-15771D01*
X26910Y-15771D01*
X26939Y-15785D01*
X26953Y-15800D01*
X26967Y-15828D01*
X26967Y-15857D01*
X26953Y-15900D01*
X26782Y-16071D01*
X26967Y-16071D01*
X27225Y-15871D02*
X27225Y-16071D01*
X27153Y-15757D02*
X27082Y-15971D01*
X27267Y-15971D01*
X27007Y-12642D02*
X26992Y-12657D01*
X26950Y-12671D01*
X26921Y-12671D01*
X26878Y-12657D01*
X26850Y-12628D01*
X26835Y-12600D01*
X26821Y-12542D01*
X26821Y-12500D01*
X26835Y-12442D01*
X26850Y-12414D01*
X26878Y-12385D01*
X26921Y-12371D01*
X26950Y-12371D01*
X26992Y-12385D01*
X27007Y-12400D01*
X27121Y-12400D02*
X27135Y-12385D01*
X27164Y-12371D01*
X27235Y-12371D01*
X27264Y-12385D01*
X27278Y-12400D01*
X27292Y-12428D01*
X27292Y-12457D01*
X27278Y-12500D01*
X27107Y-12671D01*
X27292Y-12671D01*
X27407Y-12400D02*
X27421Y-12385D01*
X27450Y-12371D01*
X27521Y-12371D01*
X27550Y-12385D01*
X27564Y-12400D01*
X27578Y-12428D01*
X27578Y-12457D01*
X27564Y-12500D01*
X27392Y-12671D01*
X27578Y-12671D01*
X42982Y-22192D02*
X42967Y-22207D01*
X42925Y-22221D01*
X42896Y-22221D01*
X42853Y-22207D01*
X42825Y-22178D01*
X42810Y-22150D01*
X42796Y-22092D01*
X42796Y-22050D01*
X42810Y-21992D01*
X42825Y-21964D01*
X42853Y-21935D01*
X42896Y-21921D01*
X42925Y-21921D01*
X42967Y-21935D01*
X42982Y-21950D01*
X43096Y-21950D02*
X43110Y-21935D01*
X43139Y-21921D01*
X43210Y-21921D01*
X43239Y-21935D01*
X43253Y-21950D01*
X43267Y-21978D01*
X43267Y-22007D01*
X43253Y-22050D01*
X43082Y-22221D01*
X43267Y-22221D01*
X43453Y-21921D02*
X43482Y-21921D01*
X43510Y-21935D01*
X43525Y-21950D01*
X43539Y-21978D01*
X43553Y-22035D01*
X43553Y-22107D01*
X43539Y-22164D01*
X43525Y-22192D01*
X43510Y-22207D01*
X43482Y-22221D01*
X43453Y-22221D01*
X43425Y-22207D01*
X43410Y-22192D01*
X43396Y-22164D01*
X43382Y-22107D01*
X43382Y-22035D01*
X43396Y-21978D01*
X43410Y-21950D01*
X43425Y-21935D01*
X43453Y-21921D01*
X42182Y-16042D02*
X42167Y-16057D01*
X42125Y-16071D01*
X42096Y-16071D01*
X42053Y-16057D01*
X42025Y-16028D01*
X42010Y-16000D01*
X41996Y-15942D01*
X41996Y-15900D01*
X42010Y-15842D01*
X42025Y-15814D01*
X42053Y-15785D01*
X42096Y-15771D01*
X42125Y-15771D01*
X42167Y-15785D01*
X42182Y-15800D01*
X42467Y-16071D02*
X42296Y-16071D01*
X42382Y-16071D02*
X42382Y-15771D01*
X42353Y-15814D01*
X42325Y-15842D01*
X42296Y-15857D01*
X42639Y-15900D02*
X42610Y-15885D01*
X42596Y-15871D01*
X42582Y-15842D01*
X42582Y-15828D01*
X42596Y-15800D01*
X42610Y-15785D01*
X42639Y-15771D01*
X42696Y-15771D01*
X42725Y-15785D01*
X42739Y-15800D01*
X42753Y-15828D01*
X42753Y-15842D01*
X42739Y-15871D01*
X42725Y-15885D01*
X42696Y-15900D01*
X42639Y-15900D01*
X42610Y-15914D01*
X42596Y-15928D01*
X42582Y-15957D01*
X42582Y-16014D01*
X42596Y-16042D01*
X42610Y-16057D01*
X42639Y-16071D01*
X42696Y-16071D01*
X42725Y-16057D01*
X42739Y-16042D01*
X42753Y-16014D01*
X42753Y-15957D01*
X42739Y-15928D01*
X42725Y-15914D01*
X42696Y-15900D01*
X40757Y-10392D02*
X40742Y-10407D01*
X40700Y-10421D01*
X40671Y-10421D01*
X40628Y-10407D01*
X40600Y-10378D01*
X40585Y-10350D01*
X40571Y-10292D01*
X40571Y-10250D01*
X40585Y-10192D01*
X40600Y-10164D01*
X40628Y-10135D01*
X40671Y-10121D01*
X40700Y-10121D01*
X40742Y-10135D01*
X40757Y-10150D01*
X41042Y-10421D02*
X40871Y-10421D01*
X40957Y-10421D02*
X40957Y-10121D01*
X40928Y-10164D01*
X40900Y-10192D01*
X40871Y-10207D01*
X41142Y-10121D02*
X41342Y-10121D01*
X41214Y-10421D01*
X56750Y-23717D02*
X56735Y-23732D01*
X56692Y-23746D01*
X56664Y-23746D01*
X56621Y-23732D01*
X56592Y-23703D01*
X56578Y-23675D01*
X56564Y-23617D01*
X56564Y-23575D01*
X56578Y-23517D01*
X56592Y-23489D01*
X56621Y-23460D01*
X56664Y-23446D01*
X56692Y-23446D01*
X56735Y-23460D01*
X56750Y-23475D01*
X57021Y-23446D02*
X56878Y-23446D01*
X56864Y-23589D01*
X56878Y-23575D01*
X56907Y-23560D01*
X56978Y-23560D01*
X57007Y-23575D01*
X57021Y-23589D01*
X57035Y-23617D01*
X57035Y-23689D01*
X57021Y-23717D01*
X57007Y-23732D01*
X56978Y-23746D01*
X56907Y-23746D01*
X56878Y-23732D01*
X56864Y-23717D01*
X31432Y-34167D02*
X31417Y-34182D01*
X31375Y-34196D01*
X31346Y-34196D01*
X31303Y-34182D01*
X31275Y-34153D01*
X31260Y-34125D01*
X31246Y-34067D01*
X31246Y-34025D01*
X31260Y-33967D01*
X31275Y-33939D01*
X31303Y-33910D01*
X31346Y-33896D01*
X31375Y-33896D01*
X31417Y-33910D01*
X31432Y-33925D01*
X31717Y-34196D02*
X31546Y-34196D01*
X31632Y-34196D02*
X31632Y-33896D01*
X31603Y-33939D01*
X31575Y-33967D01*
X31546Y-33982D01*
X31989Y-33896D02*
X31846Y-33896D01*
X31832Y-34039D01*
X31846Y-34025D01*
X31875Y-34010D01*
X31946Y-34010D01*
X31975Y-34025D01*
X31989Y-34039D01*
X32003Y-34067D01*
X32003Y-34139D01*
X31989Y-34167D01*
X31975Y-34182D01*
X31946Y-34196D01*
X31875Y-34196D01*
X31846Y-34182D01*
X31832Y-34167D01*
X13125Y-34517D02*
X13110Y-34532D01*
X13067Y-34546D01*
X13039Y-34546D01*
X12996Y-34532D01*
X12967Y-34503D01*
X12953Y-34475D01*
X12939Y-34417D01*
X12939Y-34375D01*
X12953Y-34317D01*
X12967Y-34289D01*
X12996Y-34260D01*
X13039Y-34246D01*
X13067Y-34246D01*
X13110Y-34260D01*
X13125Y-34275D01*
X13382Y-34346D02*
X13382Y-34546D01*
X13310Y-34232D02*
X13239Y-34446D01*
X13425Y-34446D01*
X6850Y-7792D02*
X6835Y-7807D01*
X6792Y-7821D01*
X6764Y-7821D01*
X6721Y-7807D01*
X6692Y-7778D01*
X6678Y-7750D01*
X6664Y-7692D01*
X6664Y-7650D01*
X6678Y-7592D01*
X6692Y-7564D01*
X6721Y-7535D01*
X6764Y-7521D01*
X6792Y-7521D01*
X6835Y-7535D01*
X6850Y-7550D01*
X6950Y-7521D02*
X7135Y-7521D01*
X7035Y-7635D01*
X7078Y-7635D01*
X7107Y-7650D01*
X7121Y-7664D01*
X7135Y-7692D01*
X7135Y-7764D01*
X7121Y-7792D01*
X7107Y-7807D01*
X7078Y-7821D01*
X6992Y-7821D01*
X6964Y-7807D01*
X6950Y-7792D01*
X10450Y-29867D02*
X10435Y-29882D01*
X10392Y-29896D01*
X10364Y-29896D01*
X10321Y-29882D01*
X10292Y-29853D01*
X10278Y-29825D01*
X10264Y-29767D01*
X10264Y-29725D01*
X10278Y-29667D01*
X10292Y-29639D01*
X10321Y-29610D01*
X10364Y-29596D01*
X10392Y-29596D01*
X10435Y-29610D01*
X10450Y-29625D01*
X10550Y-29596D02*
X10750Y-29596D01*
X10621Y-29896D01*
X12625Y-30192D02*
X12610Y-30207D01*
X12567Y-30221D01*
X12539Y-30221D01*
X12496Y-30207D01*
X12467Y-30178D01*
X12453Y-30150D01*
X12439Y-30092D01*
X12439Y-30050D01*
X12453Y-29992D01*
X12467Y-29964D01*
X12496Y-29935D01*
X12539Y-29921D01*
X12567Y-29921D01*
X12610Y-29935D01*
X12625Y-29950D01*
X12796Y-30050D02*
X12767Y-30035D01*
X12753Y-30021D01*
X12739Y-29992D01*
X12739Y-29978D01*
X12753Y-29950D01*
X12767Y-29935D01*
X12796Y-29921D01*
X12853Y-29921D01*
X12882Y-29935D01*
X12896Y-29950D01*
X12910Y-29978D01*
X12910Y-29992D01*
X12896Y-30021D01*
X12882Y-30035D01*
X12853Y-30050D01*
X12796Y-30050D01*
X12767Y-30064D01*
X12753Y-30078D01*
X12739Y-30107D01*
X12739Y-30164D01*
X12753Y-30192D01*
X12767Y-30207D01*
X12796Y-30221D01*
X12853Y-30221D01*
X12882Y-30207D01*
X12896Y-30192D01*
X12910Y-30164D01*
X12910Y-30107D01*
X12896Y-30078D01*
X12882Y-30064D01*
X12853Y-30050D01*
X12650Y-27767D02*
X12635Y-27782D01*
X12592Y-27796D01*
X12564Y-27796D01*
X12521Y-27782D01*
X12492Y-27753D01*
X12478Y-27725D01*
X12464Y-27667D01*
X12464Y-27625D01*
X12478Y-27567D01*
X12492Y-27539D01*
X12521Y-27510D01*
X12564Y-27496D01*
X12592Y-27496D01*
X12635Y-27510D01*
X12650Y-27525D01*
X12792Y-27796D02*
X12850Y-27796D01*
X12878Y-27782D01*
X12892Y-27767D01*
X12921Y-27725D01*
X12935Y-27667D01*
X12935Y-27553D01*
X12921Y-27525D01*
X12907Y-27510D01*
X12878Y-27496D01*
X12821Y-27496D01*
X12792Y-27510D01*
X12778Y-27525D01*
X12764Y-27553D01*
X12764Y-27625D01*
X12778Y-27653D01*
X12792Y-27667D01*
X12821Y-27682D01*
X12878Y-27682D01*
X12907Y-27667D01*
X12921Y-27653D01*
X12935Y-27625D01*
X18032Y-27792D02*
X18017Y-27807D01*
X17975Y-27821D01*
X17946Y-27821D01*
X17903Y-27807D01*
X17875Y-27778D01*
X17860Y-27750D01*
X17846Y-27692D01*
X17846Y-27650D01*
X17860Y-27592D01*
X17875Y-27564D01*
X17903Y-27535D01*
X17946Y-27521D01*
X17975Y-27521D01*
X18017Y-27535D01*
X18032Y-27550D01*
X18317Y-27821D02*
X18146Y-27821D01*
X18232Y-27821D02*
X18232Y-27521D01*
X18203Y-27564D01*
X18175Y-27592D01*
X18146Y-27607D01*
X18503Y-27521D02*
X18532Y-27521D01*
X18560Y-27535D01*
X18575Y-27550D01*
X18589Y-27578D01*
X18603Y-27635D01*
X18603Y-27707D01*
X18589Y-27764D01*
X18575Y-27792D01*
X18560Y-27807D01*
X18532Y-27821D01*
X18503Y-27821D01*
X18475Y-27807D01*
X18460Y-27792D01*
X18446Y-27764D01*
X18432Y-27707D01*
X18432Y-27635D01*
X18446Y-27578D01*
X18460Y-27550D01*
X18475Y-27535D01*
X18503Y-27521D01*
X17857Y-29417D02*
X17842Y-29432D01*
X17800Y-29446D01*
X17771Y-29446D01*
X17728Y-29432D01*
X17700Y-29403D01*
X17685Y-29375D01*
X17671Y-29317D01*
X17671Y-29275D01*
X17685Y-29217D01*
X17700Y-29189D01*
X17728Y-29160D01*
X17771Y-29146D01*
X17800Y-29146D01*
X17842Y-29160D01*
X17857Y-29175D01*
X18142Y-29446D02*
X17971Y-29446D01*
X18057Y-29446D02*
X18057Y-29146D01*
X18028Y-29189D01*
X18000Y-29217D01*
X17971Y-29232D01*
X18428Y-29446D02*
X18257Y-29446D01*
X18342Y-29446D02*
X18342Y-29146D01*
X18314Y-29189D01*
X18285Y-29217D01*
X18257Y-29232D01*
X36657Y-33067D02*
X36642Y-33082D01*
X36600Y-33096D01*
X36571Y-33096D01*
X36528Y-33082D01*
X36500Y-33053D01*
X36485Y-33025D01*
X36471Y-32967D01*
X36471Y-32925D01*
X36485Y-32867D01*
X36500Y-32839D01*
X36528Y-32810D01*
X36571Y-32796D01*
X36600Y-32796D01*
X36642Y-32810D01*
X36657Y-32825D01*
X36942Y-33096D02*
X36771Y-33096D01*
X36857Y-33096D02*
X36857Y-32796D01*
X36828Y-32839D01*
X36800Y-32867D01*
X36771Y-32882D01*
X37057Y-32825D02*
X37071Y-32810D01*
X37100Y-32796D01*
X37171Y-32796D01*
X37200Y-32810D01*
X37214Y-32825D01*
X37228Y-32853D01*
X37228Y-32882D01*
X37214Y-32925D01*
X37042Y-33096D01*
X37228Y-33096D01*
X34082Y-27792D02*
X34067Y-27807D01*
X34025Y-27821D01*
X33996Y-27821D01*
X33953Y-27807D01*
X33925Y-27778D01*
X33910Y-27750D01*
X33896Y-27692D01*
X33896Y-27650D01*
X33910Y-27592D01*
X33925Y-27564D01*
X33953Y-27535D01*
X33996Y-27521D01*
X34025Y-27521D01*
X34067Y-27535D01*
X34082Y-27550D01*
X34367Y-27821D02*
X34196Y-27821D01*
X34282Y-27821D02*
X34282Y-27521D01*
X34253Y-27564D01*
X34225Y-27592D01*
X34196Y-27607D01*
X34467Y-27521D02*
X34653Y-27521D01*
X34553Y-27635D01*
X34596Y-27635D01*
X34625Y-27650D01*
X34639Y-27664D01*
X34653Y-27692D01*
X34653Y-27764D01*
X34639Y-27792D01*
X34625Y-27807D01*
X34596Y-27821D01*
X34510Y-27821D01*
X34482Y-27807D01*
X34467Y-27792D01*
X30707Y-30242D02*
X30692Y-30257D01*
X30650Y-30271D01*
X30621Y-30271D01*
X30578Y-30257D01*
X30550Y-30228D01*
X30535Y-30200D01*
X30521Y-30142D01*
X30521Y-30100D01*
X30535Y-30042D01*
X30550Y-30014D01*
X30578Y-29985D01*
X30621Y-29971D01*
X30650Y-29971D01*
X30692Y-29985D01*
X30707Y-30000D01*
X30992Y-30271D02*
X30821Y-30271D01*
X30907Y-30271D02*
X30907Y-29971D01*
X30878Y-30014D01*
X30850Y-30042D01*
X30821Y-30057D01*
X31250Y-30071D02*
X31250Y-30271D01*
X31178Y-29957D02*
X31107Y-30171D01*
X31292Y-30171D01*
X2621Y-22803D02*
X2864Y-22803D01*
X2892Y-22789D01*
X2907Y-22775D01*
X2921Y-22746D01*
X2921Y-22689D01*
X2907Y-22660D01*
X2892Y-22646D01*
X2864Y-22632D01*
X2621Y-22632D01*
X2621Y-22517D02*
X2621Y-22332D01*
X2735Y-22432D01*
X2735Y-22389D01*
X2750Y-22360D01*
X2764Y-22346D01*
X2792Y-22332D01*
X2864Y-22332D01*
X2892Y-22346D01*
X2907Y-22360D01*
X2921Y-22389D01*
X2921Y-22475D01*
X2907Y-22503D01*
X2892Y-22517D01*
X57807Y-32767D02*
X57792Y-32782D01*
X57750Y-32796D01*
X57721Y-32796D01*
X57678Y-32782D01*
X57650Y-32753D01*
X57635Y-32725D01*
X57621Y-32667D01*
X57621Y-32625D01*
X57635Y-32567D01*
X57650Y-32539D01*
X57678Y-32510D01*
X57721Y-32496D01*
X57750Y-32496D01*
X57792Y-32510D01*
X57807Y-32525D01*
X57921Y-32525D02*
X57935Y-32510D01*
X57964Y-32496D01*
X58035Y-32496D01*
X58064Y-32510D01*
X58078Y-32525D01*
X58092Y-32553D01*
X58092Y-32582D01*
X58078Y-32625D01*
X57907Y-32796D01*
X58092Y-32796D01*
X58192Y-32496D02*
X58378Y-32496D01*
X58278Y-32610D01*
X58321Y-32610D01*
X58350Y-32625D01*
X58364Y-32639D01*
X58378Y-32667D01*
X58378Y-32739D01*
X58364Y-32767D01*
X58350Y-32782D01*
X58321Y-32796D01*
X58235Y-32796D01*
X58207Y-32782D01*
X58192Y-32767D01*
X50317Y-34642D02*
X50332Y-34657D01*
X50346Y-34700D01*
X50346Y-34728D01*
X50332Y-34771D01*
X50303Y-34800D01*
X50275Y-34814D01*
X50217Y-34828D01*
X50175Y-34828D01*
X50117Y-34814D01*
X50089Y-34800D01*
X50060Y-34771D01*
X50046Y-34728D01*
X50046Y-34700D01*
X50060Y-34657D01*
X50075Y-34642D01*
X50075Y-34528D02*
X50060Y-34514D01*
X50046Y-34485D01*
X50046Y-34414D01*
X50060Y-34385D01*
X50075Y-34371D01*
X50103Y-34357D01*
X50132Y-34357D01*
X50175Y-34371D01*
X50346Y-34542D01*
X50346Y-34357D01*
X50175Y-34185D02*
X50160Y-34214D01*
X50146Y-34228D01*
X50117Y-34242D01*
X50103Y-34242D01*
X50075Y-34228D01*
X50060Y-34214D01*
X50046Y-34185D01*
X50046Y-34128D01*
X50060Y-34100D01*
X50075Y-34085D01*
X50103Y-34071D01*
X50117Y-34071D01*
X50146Y-34085D01*
X50160Y-34100D01*
X50175Y-34128D01*
X50175Y-34185D01*
X50189Y-34214D01*
X50203Y-34228D01*
X50232Y-34242D01*
X50289Y-34242D01*
X50317Y-34228D01*
X50332Y-34214D01*
X50346Y-34185D01*
X50346Y-34128D01*
X50332Y-34100D01*
X50317Y-34085D01*
X50289Y-34071D01*
X50232Y-34071D01*
X50203Y-34085D01*
X50189Y-34100D01*
X50175Y-34128D01*
X44078Y-32496D02*
X44078Y-32196D01*
X44150Y-32196D01*
X44192Y-32210D01*
X44221Y-32239D01*
X44235Y-32267D01*
X44250Y-32325D01*
X44250Y-32367D01*
X44235Y-32425D01*
X44221Y-32453D01*
X44192Y-32482D01*
X44150Y-32496D01*
X44078Y-32496D01*
X44535Y-32496D02*
X44364Y-32496D01*
X44450Y-32496D02*
X44450Y-32196D01*
X44421Y-32239D01*
X44392Y-32267D01*
X44364Y-32282D01*
X52721Y-22146D02*
X52721Y-22389D01*
X52735Y-22417D01*
X52750Y-22432D01*
X52778Y-22446D01*
X52835Y-22446D01*
X52864Y-22432D01*
X52878Y-22417D01*
X52892Y-22389D01*
X52892Y-22146D01*
X53078Y-22275D02*
X53050Y-22260D01*
X53035Y-22246D01*
X53021Y-22217D01*
X53021Y-22203D01*
X53035Y-22175D01*
X53050Y-22160D01*
X53078Y-22146D01*
X53135Y-22146D01*
X53164Y-22160D01*
X53178Y-22175D01*
X53192Y-22203D01*
X53192Y-22217D01*
X53178Y-22246D01*
X53164Y-22260D01*
X53135Y-22275D01*
X53078Y-22275D01*
X53050Y-22289D01*
X53035Y-22303D01*
X53021Y-22332D01*
X53021Y-22389D01*
X53035Y-22417D01*
X53050Y-22432D01*
X53078Y-22446D01*
X53135Y-22446D01*
X53164Y-22432D01*
X53178Y-22417D01*
X53192Y-22389D01*
X53192Y-22332D01*
X53178Y-22303D01*
X53164Y-22289D01*
X53135Y-22275D01*
X15271Y-26296D02*
X15271Y-26539D01*
X15285Y-26567D01*
X15300Y-26582D01*
X15328Y-26596D01*
X15385Y-26596D01*
X15414Y-26582D01*
X15428Y-26567D01*
X15442Y-26539D01*
X15442Y-26296D01*
X15600Y-26596D02*
X15657Y-26596D01*
X15685Y-26582D01*
X15700Y-26567D01*
X15728Y-26525D01*
X15742Y-26467D01*
X15742Y-26353D01*
X15728Y-26325D01*
X15714Y-26310D01*
X15685Y-26296D01*
X15628Y-26296D01*
X15600Y-26310D01*
X15585Y-26325D01*
X15571Y-26353D01*
X15571Y-26425D01*
X15585Y-26453D01*
X15600Y-26467D01*
X15628Y-26482D01*
X15685Y-26482D01*
X15714Y-26467D01*
X15728Y-26453D01*
X15742Y-26425D01*
X32603Y-27596D02*
X32603Y-27839D01*
X32617Y-27867D01*
X32632Y-27882D01*
X32660Y-27896D01*
X32717Y-27896D01*
X32746Y-27882D01*
X32760Y-27867D01*
X32775Y-27839D01*
X32775Y-27596D01*
X33075Y-27896D02*
X32903Y-27896D01*
X32989Y-27896D02*
X32989Y-27596D01*
X32960Y-27639D01*
X32932Y-27667D01*
X32903Y-27682D01*
X33260Y-27596D02*
X33289Y-27596D01*
X33317Y-27610D01*
X33332Y-27625D01*
X33346Y-27653D01*
X33360Y-27710D01*
X33360Y-27782D01*
X33346Y-27839D01*
X33332Y-27867D01*
X33317Y-27882D01*
X33289Y-27896D01*
X33260Y-27896D01*
X33232Y-27882D01*
X33217Y-27867D01*
X33203Y-27839D01*
X33189Y-27782D01*
X33189Y-27710D01*
X33203Y-27653D01*
X33217Y-27625D01*
X33232Y-27610D01*
X33260Y-27596D01*
X40232Y-29717D02*
X40217Y-29732D01*
X40175Y-29746D01*
X40146Y-29746D01*
X40103Y-29732D01*
X40075Y-29703D01*
X40060Y-29675D01*
X40046Y-29617D01*
X40046Y-29575D01*
X40060Y-29517D01*
X40075Y-29489D01*
X40103Y-29460D01*
X40146Y-29446D01*
X40175Y-29446D01*
X40217Y-29460D01*
X40232Y-29475D01*
X40332Y-29446D02*
X40517Y-29446D01*
X40417Y-29560D01*
X40460Y-29560D01*
X40489Y-29575D01*
X40503Y-29589D01*
X40517Y-29617D01*
X40517Y-29689D01*
X40503Y-29717D01*
X40489Y-29732D01*
X40460Y-29746D01*
X40375Y-29746D01*
X40346Y-29732D01*
X40332Y-29717D01*
X40632Y-29475D02*
X40646Y-29460D01*
X40675Y-29446D01*
X40746Y-29446D01*
X40775Y-29460D01*
X40789Y-29475D01*
X40803Y-29503D01*
X40803Y-29532D01*
X40789Y-29575D01*
X40617Y-29746D01*
X40803Y-29746D01*
X39282Y-29717D02*
X39267Y-29732D01*
X39225Y-29746D01*
X39196Y-29746D01*
X39153Y-29732D01*
X39125Y-29703D01*
X39110Y-29675D01*
X39096Y-29617D01*
X39096Y-29575D01*
X39110Y-29517D01*
X39125Y-29489D01*
X39153Y-29460D01*
X39196Y-29446D01*
X39225Y-29446D01*
X39267Y-29460D01*
X39282Y-29475D01*
X39382Y-29446D02*
X39567Y-29446D01*
X39467Y-29560D01*
X39510Y-29560D01*
X39539Y-29575D01*
X39553Y-29589D01*
X39567Y-29617D01*
X39567Y-29689D01*
X39553Y-29717D01*
X39539Y-29732D01*
X39510Y-29746D01*
X39425Y-29746D01*
X39396Y-29732D01*
X39382Y-29717D01*
X39853Y-29746D02*
X39682Y-29746D01*
X39767Y-29746D02*
X39767Y-29446D01*
X39739Y-29489D01*
X39710Y-29517D01*
X39682Y-29532D01*
X42407Y-27371D02*
X42607Y-27671D01*
X42607Y-27371D02*
X42407Y-27671D01*
X42878Y-27671D02*
X42707Y-27671D01*
X42792Y-27671D02*
X42792Y-27371D01*
X42764Y-27414D01*
X42735Y-27442D01*
X42707Y-27457D01*
X8621Y-7096D02*
X8621Y-7339D01*
X8635Y-7367D01*
X8650Y-7382D01*
X8678Y-7396D01*
X8735Y-7396D01*
X8764Y-7382D01*
X8778Y-7367D01*
X8792Y-7339D01*
X8792Y-7096D01*
X9064Y-7196D02*
X9064Y-7396D01*
X8992Y-7082D02*
X8921Y-7296D01*
X9107Y-7296D01*
X55146Y-29446D02*
X54846Y-29446D01*
X54846Y-29332D01*
X54860Y-29303D01*
X54875Y-29289D01*
X54903Y-29275D01*
X54946Y-29275D01*
X54975Y-29289D01*
X54989Y-29303D01*
X55003Y-29332D01*
X55003Y-29446D01*
X54946Y-29017D02*
X55146Y-29017D01*
X54832Y-29089D02*
X55046Y-29160D01*
X55046Y-28975D01*
X44075Y-28096D02*
X43932Y-28096D01*
X43932Y-27796D01*
X44332Y-28096D02*
X44160Y-28096D01*
X44246Y-28096D02*
X44246Y-27796D01*
X44217Y-27839D01*
X44189Y-27867D01*
X44160Y-27882D01*
X50407Y-14467D02*
X50392Y-14482D01*
X50350Y-14496D01*
X50321Y-14496D01*
X50278Y-14482D01*
X50250Y-14453D01*
X50235Y-14425D01*
X50221Y-14367D01*
X50221Y-14325D01*
X50235Y-14267D01*
X50250Y-14239D01*
X50278Y-14210D01*
X50321Y-14196D01*
X50350Y-14196D01*
X50392Y-14210D01*
X50407Y-14225D01*
X50692Y-14496D02*
X50521Y-14496D01*
X50607Y-14496D02*
X50607Y-14196D01*
X50578Y-14239D01*
X50550Y-14267D01*
X50521Y-14282D01*
X50835Y-14496D02*
X50892Y-14496D01*
X50921Y-14482D01*
X50935Y-14467D01*
X50964Y-14425D01*
X50978Y-14367D01*
X50978Y-14253D01*
X50964Y-14225D01*
X50950Y-14210D01*
X50921Y-14196D01*
X50864Y-14196D01*
X50835Y-14210D01*
X50821Y-14225D01*
X50807Y-14253D01*
X50807Y-14325D01*
X50821Y-14353D01*
X50835Y-14367D01*
X50864Y-14382D01*
X50921Y-14382D01*
X50950Y-14367D01*
X50964Y-14353D01*
X50978Y-14325D01*
X52457Y-32292D02*
X52442Y-32307D01*
X52400Y-32321D01*
X52371Y-32321D01*
X52328Y-32307D01*
X52300Y-32278D01*
X52285Y-32250D01*
X52271Y-32192D01*
X52271Y-32150D01*
X52285Y-32092D01*
X52300Y-32064D01*
X52328Y-32035D01*
X52371Y-32021D01*
X52400Y-32021D01*
X52442Y-32035D01*
X52457Y-32050D01*
X52557Y-32021D02*
X52742Y-32021D01*
X52642Y-32135D01*
X52685Y-32135D01*
X52714Y-32150D01*
X52728Y-32164D01*
X52742Y-32192D01*
X52742Y-32264D01*
X52728Y-32292D01*
X52714Y-32307D01*
X52685Y-32321D01*
X52600Y-32321D01*
X52571Y-32307D01*
X52557Y-32292D01*
X53000Y-32121D02*
X53000Y-32321D01*
X52928Y-32007D02*
X52857Y-32221D01*
X53042Y-32221D01*
X6167Y-7742D02*
X6182Y-7757D01*
X6196Y-7800D01*
X6196Y-7828D01*
X6182Y-7871D01*
X6153Y-7900D01*
X6125Y-7914D01*
X6067Y-7928D01*
X6025Y-7928D01*
X5967Y-7914D01*
X5939Y-7900D01*
X5910Y-7871D01*
X5896Y-7828D01*
X5896Y-7800D01*
X5910Y-7757D01*
X5925Y-7742D01*
X5896Y-7642D02*
X5896Y-7457D01*
X6010Y-7557D01*
X6010Y-7514D01*
X6025Y-7485D01*
X6039Y-7471D01*
X6067Y-7457D01*
X6139Y-7457D01*
X6167Y-7471D01*
X6182Y-7485D01*
X6196Y-7514D01*
X6196Y-7600D01*
X6182Y-7628D01*
X6167Y-7642D01*
X5896Y-7185D02*
X5896Y-7328D01*
X6039Y-7342D01*
X6025Y-7328D01*
X6010Y-7300D01*
X6010Y-7228D01*
X6025Y-7200D01*
X6039Y-7185D01*
X6067Y-7171D01*
X6139Y-7171D01*
X6167Y-7185D01*
X6182Y-7200D01*
X6196Y-7228D01*
X6196Y-7300D01*
X6182Y-7328D01*
X6167Y-7342D01*
X3971Y-30871D02*
X3671Y-30871D01*
X3671Y-30800D01*
X3685Y-30757D01*
X3714Y-30728D01*
X3742Y-30714D01*
X3800Y-30700D01*
X3842Y-30700D01*
X3900Y-30714D01*
X3928Y-30728D01*
X3957Y-30757D01*
X3971Y-30800D01*
X3971Y-30871D01*
X3700Y-30585D02*
X3685Y-30571D01*
X3671Y-30542D01*
X3671Y-30471D01*
X3685Y-30442D01*
X3700Y-30428D01*
X3728Y-30414D01*
X3757Y-30414D01*
X3800Y-30428D01*
X3971Y-30600D01*
X3971Y-30414D01*
X2621Y-31317D02*
X2321Y-31317D01*
X2321Y-31203D01*
X2335Y-31175D01*
X2350Y-31160D01*
X2378Y-31146D01*
X2421Y-31146D01*
X2450Y-31160D01*
X2464Y-31175D01*
X2478Y-31203D01*
X2478Y-31317D01*
X2321Y-30960D02*
X2321Y-30903D01*
X2335Y-30875D01*
X2364Y-30846D01*
X2421Y-30832D01*
X2521Y-30832D01*
X2578Y-30846D01*
X2607Y-30875D01*
X2621Y-30903D01*
X2621Y-30960D01*
X2607Y-30989D01*
X2578Y-31017D01*
X2521Y-31032D01*
X2421Y-31032D01*
X2364Y-31017D01*
X2335Y-30989D01*
X2321Y-30960D01*
X2321Y-30732D02*
X2621Y-30660D01*
X2407Y-30603D01*
X2621Y-30546D01*
X2321Y-30475D01*
X2464Y-30360D02*
X2464Y-30260D01*
X2621Y-30217D02*
X2621Y-30360D01*
X2321Y-30360D01*
X2321Y-30217D01*
X2621Y-29917D02*
X2478Y-30017D01*
X2621Y-30089D02*
X2321Y-30089D01*
X2321Y-29975D01*
X2335Y-29946D01*
X2350Y-29932D01*
X2378Y-29917D01*
X2421Y-29917D01*
X2450Y-29932D01*
X2464Y-29946D01*
X2478Y-29975D01*
X2478Y-30089D01*
X2832Y-28471D02*
X2732Y-28328D01*
X2660Y-28471D02*
X2660Y-28171D01*
X2775Y-28171D01*
X2803Y-28185D01*
X2817Y-28200D01*
X2832Y-28228D01*
X2832Y-28271D01*
X2817Y-28300D01*
X2803Y-28314D01*
X2775Y-28328D01*
X2660Y-28328D01*
X3117Y-28471D02*
X2946Y-28471D01*
X3032Y-28471D02*
X3032Y-28171D01*
X3003Y-28214D01*
X2975Y-28242D01*
X2946Y-28257D01*
X3232Y-28200D02*
X3246Y-28185D01*
X3275Y-28171D01*
X3346Y-28171D01*
X3375Y-28185D01*
X3389Y-28200D01*
X3403Y-28228D01*
X3403Y-28257D01*
X3389Y-28300D01*
X3217Y-28471D01*
X3403Y-28471D01*
X50371Y-17746D02*
X50371Y-17989D01*
X50385Y-18017D01*
X50400Y-18032D01*
X50428Y-18046D01*
X50485Y-18046D01*
X50514Y-18032D01*
X50528Y-18017D01*
X50542Y-17989D01*
X50542Y-17746D01*
X50828Y-17746D02*
X50685Y-17746D01*
X50671Y-17889D01*
X50685Y-17875D01*
X50714Y-17860D01*
X50785Y-17860D01*
X50814Y-17875D01*
X50828Y-17889D01*
X50842Y-17917D01*
X50842Y-17989D01*
X50828Y-18017D01*
X50814Y-18032D01*
X50785Y-18046D01*
X50714Y-18046D01*
X50685Y-18032D01*
X50671Y-18017D01*
X42197Y-17426D02*
X42097Y-17283D01*
X42025Y-17426D02*
X42025Y-17126D01*
X42140Y-17126D01*
X42168Y-17140D01*
X42182Y-17155D01*
X42197Y-17183D01*
X42197Y-17226D01*
X42182Y-17255D01*
X42168Y-17269D01*
X42140Y-17283D01*
X42025Y-17283D01*
X42482Y-17426D02*
X42311Y-17426D01*
X42397Y-17426D02*
X42397Y-17126D01*
X42368Y-17169D01*
X42340Y-17197D01*
X42311Y-17212D01*
X42582Y-17126D02*
X42768Y-17126D01*
X42668Y-17240D01*
X42711Y-17240D01*
X42740Y-17255D01*
X42754Y-17269D01*
X42768Y-17297D01*
X42768Y-17369D01*
X42754Y-17397D01*
X42740Y-17412D01*
X42711Y-17426D01*
X42625Y-17426D01*
X42597Y-17412D01*
X42582Y-17397D01*
X42207Y-19396D02*
X42107Y-19253D01*
X42035Y-19396D02*
X42035Y-19096D01*
X42150Y-19096D01*
X42178Y-19110D01*
X42192Y-19125D01*
X42207Y-19153D01*
X42207Y-19196D01*
X42192Y-19225D01*
X42178Y-19239D01*
X42150Y-19253D01*
X42035Y-19253D01*
X42492Y-19396D02*
X42321Y-19396D01*
X42407Y-19396D02*
X42407Y-19096D01*
X42378Y-19139D01*
X42350Y-19167D01*
X42321Y-19182D01*
X42750Y-19196D02*
X42750Y-19396D01*
X42678Y-19082D02*
X42607Y-19296D01*
X42792Y-19296D01*
X7221Y-26371D02*
X7221Y-26614D01*
X7235Y-26642D01*
X7250Y-26657D01*
X7278Y-26671D01*
X7335Y-26671D01*
X7364Y-26657D01*
X7378Y-26642D01*
X7392Y-26614D01*
X7392Y-26371D01*
X7507Y-26371D02*
X7707Y-26371D01*
X7578Y-26671D01*
X20878Y-33321D02*
X20878Y-33564D01*
X20892Y-33592D01*
X20907Y-33607D01*
X20935Y-33621D01*
X20992Y-33621D01*
X21021Y-33607D01*
X21035Y-33592D01*
X21050Y-33564D01*
X21050Y-33321D01*
X21350Y-33621D02*
X21178Y-33621D01*
X21264Y-33621D02*
X21264Y-33321D01*
X21235Y-33364D01*
X21207Y-33392D01*
X21178Y-33407D01*
X21607Y-33421D02*
X21607Y-33621D01*
X21535Y-33307D02*
X21464Y-33521D01*
X21650Y-33521D01*
X11846Y-9825D02*
X11817Y-9810D01*
X11789Y-9782D01*
X11746Y-9739D01*
X11717Y-9725D01*
X11689Y-9725D01*
X11703Y-9796D02*
X11675Y-9782D01*
X11646Y-9753D01*
X11632Y-9696D01*
X11632Y-9596D01*
X11646Y-9539D01*
X11675Y-9510D01*
X11703Y-9496D01*
X11760Y-9496D01*
X11789Y-9510D01*
X11817Y-9539D01*
X11832Y-9596D01*
X11832Y-9696D01*
X11817Y-9753D01*
X11789Y-9782D01*
X11760Y-9796D01*
X11703Y-9796D01*
X12117Y-9796D02*
X11946Y-9796D01*
X12032Y-9796D02*
X12032Y-9496D01*
X12003Y-9539D01*
X11975Y-9567D01*
X11946Y-9582D01*
X22257Y-26592D02*
X22242Y-26607D01*
X22200Y-26621D01*
X22171Y-26621D01*
X22128Y-26607D01*
X22100Y-26578D01*
X22085Y-26550D01*
X22071Y-26492D01*
X22071Y-26450D01*
X22085Y-26392D01*
X22100Y-26364D01*
X22128Y-26335D01*
X22171Y-26321D01*
X22200Y-26321D01*
X22242Y-26335D01*
X22257Y-26350D01*
X22357Y-26321D02*
X22542Y-26321D01*
X22442Y-26435D01*
X22485Y-26435D01*
X22514Y-26450D01*
X22528Y-26464D01*
X22542Y-26492D01*
X22542Y-26564D01*
X22528Y-26592D01*
X22514Y-26607D01*
X22485Y-26621D01*
X22400Y-26621D01*
X22371Y-26607D01*
X22357Y-26592D01*
X22642Y-26321D02*
X22828Y-26321D01*
X22728Y-26435D01*
X22771Y-26435D01*
X22800Y-26450D01*
X22814Y-26464D01*
X22828Y-26492D01*
X22828Y-26564D01*
X22814Y-26592D01*
X22800Y-26607D01*
X22771Y-26621D01*
X22685Y-26621D01*
X22657Y-26607D01*
X22642Y-26592D01*
X18182Y-31317D02*
X18167Y-31332D01*
X18125Y-31346D01*
X18096Y-31346D01*
X18053Y-31332D01*
X18025Y-31303D01*
X18010Y-31275D01*
X17996Y-31217D01*
X17996Y-31175D01*
X18010Y-31117D01*
X18025Y-31089D01*
X18053Y-31060D01*
X18096Y-31046D01*
X18125Y-31046D01*
X18167Y-31060D01*
X18182Y-31075D01*
X18282Y-31046D02*
X18467Y-31046D01*
X18367Y-31160D01*
X18410Y-31160D01*
X18439Y-31175D01*
X18453Y-31189D01*
X18467Y-31217D01*
X18467Y-31289D01*
X18453Y-31317D01*
X18439Y-31332D01*
X18410Y-31346D01*
X18325Y-31346D01*
X18296Y-31332D01*
X18282Y-31317D01*
X18639Y-31175D02*
X18610Y-31160D01*
X18596Y-31146D01*
X18582Y-31117D01*
X18582Y-31103D01*
X18596Y-31075D01*
X18610Y-31060D01*
X18639Y-31046D01*
X18696Y-31046D01*
X18725Y-31060D01*
X18739Y-31075D01*
X18753Y-31103D01*
X18753Y-31117D01*
X18739Y-31146D01*
X18725Y-31160D01*
X18696Y-31175D01*
X18639Y-31175D01*
X18610Y-31189D01*
X18596Y-31203D01*
X18582Y-31232D01*
X18582Y-31289D01*
X18596Y-31317D01*
X18610Y-31332D01*
X18639Y-31346D01*
X18696Y-31346D01*
X18725Y-31332D01*
X18739Y-31317D01*
X18753Y-31289D01*
X18753Y-31232D01*
X18739Y-31203D01*
X18725Y-31189D01*
X18696Y-31175D01*
X19257Y-31317D02*
X19242Y-31332D01*
X19200Y-31346D01*
X19171Y-31346D01*
X19128Y-31332D01*
X19100Y-31303D01*
X19085Y-31275D01*
X19071Y-31217D01*
X19071Y-31175D01*
X19085Y-31117D01*
X19100Y-31089D01*
X19128Y-31060D01*
X19171Y-31046D01*
X19200Y-31046D01*
X19242Y-31060D01*
X19257Y-31075D01*
X19357Y-31046D02*
X19542Y-31046D01*
X19442Y-31160D01*
X19485Y-31160D01*
X19514Y-31175D01*
X19528Y-31189D01*
X19542Y-31217D01*
X19542Y-31289D01*
X19528Y-31317D01*
X19514Y-31332D01*
X19485Y-31346D01*
X19400Y-31346D01*
X19371Y-31332D01*
X19357Y-31317D01*
X19800Y-31046D02*
X19742Y-31046D01*
X19714Y-31060D01*
X19700Y-31075D01*
X19671Y-31117D01*
X19657Y-31175D01*
X19657Y-31289D01*
X19671Y-31317D01*
X19685Y-31332D01*
X19714Y-31346D01*
X19771Y-31346D01*
X19800Y-31332D01*
X19814Y-31317D01*
X19828Y-31289D01*
X19828Y-31217D01*
X19814Y-31189D01*
X19800Y-31175D01*
X19771Y-31160D01*
X19714Y-31160D01*
X19685Y-31175D01*
X19671Y-31189D01*
X19657Y-31217D01*
X11557Y-7217D02*
X11542Y-7232D01*
X11500Y-7246D01*
X11471Y-7246D01*
X11428Y-7232D01*
X11400Y-7203D01*
X11385Y-7175D01*
X11371Y-7117D01*
X11371Y-7075D01*
X11385Y-7017D01*
X11400Y-6989D01*
X11428Y-6960D01*
X11471Y-6946D01*
X11500Y-6946D01*
X11542Y-6960D01*
X11557Y-6975D01*
X11657Y-6946D02*
X11842Y-6946D01*
X11742Y-7060D01*
X11785Y-7060D01*
X11814Y-7075D01*
X11828Y-7089D01*
X11842Y-7117D01*
X11842Y-7189D01*
X11828Y-7217D01*
X11814Y-7232D01*
X11785Y-7246D01*
X11700Y-7246D01*
X11671Y-7232D01*
X11657Y-7217D01*
X11942Y-6946D02*
X12142Y-6946D01*
X12014Y-7246D01*
X3725Y-28471D02*
X3625Y-28328D01*
X3553Y-28471D02*
X3553Y-28171D01*
X3667Y-28171D01*
X3696Y-28185D01*
X3710Y-28200D01*
X3725Y-28228D01*
X3725Y-28271D01*
X3710Y-28300D01*
X3696Y-28314D01*
X3667Y-28328D01*
X3553Y-28328D01*
X3839Y-28200D02*
X3853Y-28185D01*
X3882Y-28171D01*
X3953Y-28171D01*
X3982Y-28185D01*
X3996Y-28200D01*
X4010Y-28228D01*
X4010Y-28257D01*
X3996Y-28300D01*
X3825Y-28471D01*
X4010Y-28471D01*
X4150Y-27646D02*
X4050Y-27503D01*
X3978Y-27646D02*
X3978Y-27346D01*
X4092Y-27346D01*
X4121Y-27360D01*
X4135Y-27375D01*
X4150Y-27403D01*
X4150Y-27446D01*
X4135Y-27475D01*
X4121Y-27489D01*
X4092Y-27503D01*
X3978Y-27503D01*
X4250Y-27346D02*
X4435Y-27346D01*
X4335Y-27460D01*
X4378Y-27460D01*
X4407Y-27475D01*
X4421Y-27489D01*
X4435Y-27517D01*
X4435Y-27589D01*
X4421Y-27617D01*
X4407Y-27632D01*
X4378Y-27646D01*
X4292Y-27646D01*
X4264Y-27632D01*
X4250Y-27617D01*
X19200Y-7396D02*
X19100Y-7253D01*
X19028Y-7396D02*
X19028Y-7096D01*
X19142Y-7096D01*
X19171Y-7110D01*
X19185Y-7125D01*
X19200Y-7153D01*
X19200Y-7196D01*
X19185Y-7225D01*
X19171Y-7239D01*
X19142Y-7253D01*
X19028Y-7253D01*
X19471Y-7096D02*
X19328Y-7096D01*
X19314Y-7239D01*
X19328Y-7225D01*
X19357Y-7210D01*
X19428Y-7210D01*
X19457Y-7225D01*
X19471Y-7239D01*
X19485Y-7267D01*
X19485Y-7339D01*
X19471Y-7367D01*
X19457Y-7382D01*
X19428Y-7396D01*
X19357Y-7396D01*
X19328Y-7382D01*
X19314Y-7367D01*
X10850Y-7246D02*
X10750Y-7103D01*
X10678Y-7246D02*
X10678Y-6946D01*
X10792Y-6946D01*
X10821Y-6960D01*
X10835Y-6975D01*
X10850Y-7003D01*
X10850Y-7046D01*
X10835Y-7075D01*
X10821Y-7089D01*
X10792Y-7103D01*
X10678Y-7103D01*
X11107Y-6946D02*
X11050Y-6946D01*
X11021Y-6960D01*
X11007Y-6975D01*
X10978Y-7017D01*
X10964Y-7075D01*
X10964Y-7189D01*
X10978Y-7217D01*
X10992Y-7232D01*
X11021Y-7246D01*
X11078Y-7246D01*
X11107Y-7232D01*
X11121Y-7217D01*
X11135Y-7189D01*
X11135Y-7117D01*
X11121Y-7089D01*
X11107Y-7075D01*
X11078Y-7060D01*
X11021Y-7060D01*
X10992Y-7075D01*
X10978Y-7089D01*
X10964Y-7117D01*
X6150Y-9121D02*
X6050Y-8978D01*
X5978Y-9121D02*
X5978Y-8821D01*
X6092Y-8821D01*
X6121Y-8835D01*
X6135Y-8850D01*
X6150Y-8878D01*
X6150Y-8921D01*
X6135Y-8950D01*
X6121Y-8964D01*
X6092Y-8978D01*
X5978Y-8978D01*
X6250Y-8821D02*
X6450Y-8821D01*
X6321Y-9121D01*
X3475Y-9167D02*
X3460Y-9182D01*
X3417Y-9196D01*
X3389Y-9196D01*
X3346Y-9182D01*
X3317Y-9153D01*
X3303Y-9125D01*
X3289Y-9067D01*
X3289Y-9025D01*
X3303Y-8967D01*
X3317Y-8939D01*
X3346Y-8910D01*
X3389Y-8896D01*
X3417Y-8896D01*
X3460Y-8910D01*
X3475Y-8925D01*
X3760Y-9196D02*
X3589Y-9196D01*
X3675Y-9196D02*
X3675Y-8896D01*
X3646Y-8939D01*
X3617Y-8967D01*
X3589Y-8982D01*
X4817Y-18925D02*
X4832Y-18939D01*
X4846Y-18982D01*
X4846Y-19010D01*
X4832Y-19053D01*
X4803Y-19082D01*
X4775Y-19096D01*
X4717Y-19110D01*
X4675Y-19110D01*
X4617Y-19096D01*
X4589Y-19082D01*
X4560Y-19053D01*
X4546Y-19010D01*
X4546Y-18982D01*
X4560Y-18939D01*
X4575Y-18925D01*
X4575Y-18810D02*
X4560Y-18796D01*
X4546Y-18767D01*
X4546Y-18696D01*
X4560Y-18667D01*
X4575Y-18653D01*
X4603Y-18639D01*
X4632Y-18639D01*
X4675Y-18653D01*
X4846Y-18825D01*
X4846Y-18639D01*
X17725Y-7396D02*
X17625Y-7253D01*
X17553Y-7396D02*
X17553Y-7096D01*
X17667Y-7096D01*
X17696Y-7110D01*
X17710Y-7125D01*
X17725Y-7153D01*
X17725Y-7196D01*
X17710Y-7225D01*
X17696Y-7239D01*
X17667Y-7253D01*
X17553Y-7253D01*
X17982Y-7196D02*
X17982Y-7396D01*
X17910Y-7082D02*
X17839Y-7296D01*
X18025Y-7296D01*
X52170Y-14471D02*
X52070Y-14328D01*
X51998Y-14471D02*
X51998Y-14171D01*
X52112Y-14171D01*
X52141Y-14185D01*
X52155Y-14200D01*
X52170Y-14228D01*
X52170Y-14271D01*
X52155Y-14300D01*
X52141Y-14314D01*
X52112Y-14328D01*
X51998Y-14328D01*
X52455Y-14471D02*
X52284Y-14471D01*
X52370Y-14471D02*
X52370Y-14171D01*
X52341Y-14214D01*
X52312Y-14242D01*
X52284Y-14257D01*
X43450Y-31696D02*
X43350Y-31553D01*
X43278Y-31696D02*
X43278Y-31396D01*
X43392Y-31396D01*
X43421Y-31410D01*
X43435Y-31425D01*
X43450Y-31453D01*
X43450Y-31496D01*
X43435Y-31525D01*
X43421Y-31539D01*
X43392Y-31553D01*
X43278Y-31553D01*
X43621Y-31525D02*
X43592Y-31510D01*
X43578Y-31496D01*
X43564Y-31467D01*
X43564Y-31453D01*
X43578Y-31425D01*
X43592Y-31410D01*
X43621Y-31396D01*
X43678Y-31396D01*
X43707Y-31410D01*
X43721Y-31425D01*
X43735Y-31453D01*
X43735Y-31467D01*
X43721Y-31496D01*
X43707Y-31510D01*
X43678Y-31525D01*
X43621Y-31525D01*
X43592Y-31539D01*
X43578Y-31553D01*
X43564Y-31582D01*
X43564Y-31639D01*
X43578Y-31667D01*
X43592Y-31682D01*
X43621Y-31696D01*
X43678Y-31696D01*
X43707Y-31682D01*
X43721Y-31667D01*
X43735Y-31639D01*
X43735Y-31582D01*
X43721Y-31553D01*
X43707Y-31539D01*
X43678Y-31525D01*
X10582Y-33642D02*
X10567Y-33657D01*
X10525Y-33671D01*
X10496Y-33671D01*
X10453Y-33657D01*
X10425Y-33628D01*
X10410Y-33600D01*
X10396Y-33542D01*
X10396Y-33500D01*
X10410Y-33442D01*
X10425Y-33414D01*
X10453Y-33385D01*
X10496Y-33371D01*
X10525Y-33371D01*
X10567Y-33385D01*
X10582Y-33400D01*
X10682Y-33371D02*
X10867Y-33371D01*
X10767Y-33485D01*
X10810Y-33485D01*
X10839Y-33500D01*
X10853Y-33514D01*
X10867Y-33542D01*
X10867Y-33614D01*
X10853Y-33642D01*
X10839Y-33657D01*
X10810Y-33671D01*
X10725Y-33671D01*
X10696Y-33657D01*
X10682Y-33642D01*
X11010Y-33671D02*
X11067Y-33671D01*
X11096Y-33657D01*
X11110Y-33642D01*
X11139Y-33600D01*
X11153Y-33542D01*
X11153Y-33428D01*
X11139Y-33400D01*
X11125Y-33385D01*
X11096Y-33371D01*
X11039Y-33371D01*
X11010Y-33385D01*
X10996Y-33400D01*
X10982Y-33428D01*
X10982Y-33500D01*
X10996Y-33528D01*
X11010Y-33542D01*
X11039Y-33557D01*
X11096Y-33557D01*
X11125Y-33542D01*
X11139Y-33528D01*
X11153Y-33500D01*
X28603Y-27246D02*
X28603Y-27489D01*
X28617Y-27517D01*
X28632Y-27532D01*
X28660Y-27546D01*
X28717Y-27546D01*
X28746Y-27532D01*
X28760Y-27517D01*
X28775Y-27489D01*
X28775Y-27246D01*
X29075Y-27546D02*
X28903Y-27546D01*
X28989Y-27546D02*
X28989Y-27246D01*
X28960Y-27289D01*
X28932Y-27317D01*
X28903Y-27332D01*
X29332Y-27246D02*
X29275Y-27246D01*
X29246Y-27260D01*
X29232Y-27275D01*
X29203Y-27317D01*
X29189Y-27375D01*
X29189Y-27489D01*
X29203Y-27517D01*
X29217Y-27532D01*
X29246Y-27546D01*
X29303Y-27546D01*
X29332Y-27532D01*
X29346Y-27517D01*
X29360Y-27489D01*
X29360Y-27417D01*
X29346Y-27389D01*
X29332Y-27375D01*
X29303Y-27360D01*
X29246Y-27360D01*
X29217Y-27375D01*
X29203Y-27389D01*
X29189Y-27417D01*
X31642Y-28167D02*
X31657Y-28182D01*
X31671Y-28225D01*
X31671Y-28253D01*
X31657Y-28296D01*
X31628Y-28325D01*
X31600Y-28339D01*
X31542Y-28353D01*
X31500Y-28353D01*
X31442Y-28339D01*
X31414Y-28325D01*
X31385Y-28296D01*
X31371Y-28253D01*
X31371Y-28225D01*
X31385Y-28182D01*
X31400Y-28167D01*
X31471Y-27910D02*
X31671Y-27910D01*
X31357Y-27982D02*
X31571Y-28053D01*
X31571Y-27867D01*
X31371Y-27696D02*
X31371Y-27667D01*
X31385Y-27639D01*
X31400Y-27625D01*
X31428Y-27610D01*
X31485Y-27596D01*
X31557Y-27596D01*
X31614Y-27610D01*
X31642Y-27625D01*
X31657Y-27639D01*
X31671Y-27667D01*
X31671Y-27696D01*
X31657Y-27725D01*
X31642Y-27739D01*
X31614Y-27753D01*
X31557Y-27767D01*
X31485Y-27767D01*
X31428Y-27753D01*
X31400Y-27739D01*
X31385Y-27725D01*
X31371Y-27696D01*
X4546Y-9717D02*
X4403Y-9817D01*
X4546Y-9889D02*
X4246Y-9889D01*
X4246Y-9775D01*
X4260Y-9746D01*
X4275Y-9732D01*
X4303Y-9717D01*
X4346Y-9717D01*
X4375Y-9732D01*
X4389Y-9746D01*
X4403Y-9775D01*
X4403Y-9889D01*
X4546Y-9432D02*
X4546Y-9603D01*
X4546Y-9517D02*
X4246Y-9517D01*
X4289Y-9546D01*
X4317Y-9575D01*
X4332Y-9603D01*
X4546Y-9146D02*
X4546Y-9317D01*
X4546Y-9232D02*
X4246Y-9232D01*
X4289Y-9260D01*
X4317Y-9289D01*
X4332Y-9317D01*
X32507Y-10246D02*
X32407Y-10103D01*
X32335Y-10246D02*
X32335Y-9946D01*
X32450Y-9946D01*
X32478Y-9960D01*
X32492Y-9975D01*
X32507Y-10003D01*
X32507Y-10046D01*
X32492Y-10075D01*
X32478Y-10089D01*
X32450Y-10103D01*
X32335Y-10103D01*
X32792Y-10246D02*
X32621Y-10246D01*
X32707Y-10246D02*
X32707Y-9946D01*
X32678Y-9989D01*
X32650Y-10017D01*
X32621Y-10032D01*
X32978Y-9946D02*
X33007Y-9946D01*
X33035Y-9960D01*
X33050Y-9975D01*
X33064Y-10003D01*
X33078Y-10060D01*
X33078Y-10132D01*
X33064Y-10189D01*
X33050Y-10217D01*
X33035Y-10232D01*
X33007Y-10246D01*
X32978Y-10246D01*
X32950Y-10232D01*
X32935Y-10217D01*
X32921Y-10189D01*
X32907Y-10132D01*
X32907Y-10060D01*
X32921Y-10003D01*
X32935Y-9975D01*
X32950Y-9960D01*
X32978Y-9946D01*
X31800Y-10246D02*
X31700Y-10103D01*
X31628Y-10246D02*
X31628Y-9946D01*
X31742Y-9946D01*
X31771Y-9960D01*
X31785Y-9975D01*
X31800Y-10003D01*
X31800Y-10046D01*
X31785Y-10075D01*
X31771Y-10089D01*
X31742Y-10103D01*
X31628Y-10103D01*
X31942Y-10246D02*
X32000Y-10246D01*
X32028Y-10232D01*
X32042Y-10217D01*
X32071Y-10175D01*
X32085Y-10117D01*
X32085Y-10003D01*
X32071Y-9975D01*
X32057Y-9960D01*
X32028Y-9946D01*
X31971Y-9946D01*
X31942Y-9960D01*
X31928Y-9975D01*
X31914Y-10003D01*
X31914Y-10075D01*
X31928Y-10103D01*
X31942Y-10117D01*
X31971Y-10132D01*
X32028Y-10132D01*
X32057Y-10117D01*
X32071Y-10103D01*
X32085Y-10075D01*
X16057Y-7396D02*
X15957Y-7253D01*
X15885Y-7396D02*
X15885Y-7096D01*
X16000Y-7096D01*
X16028Y-7110D01*
X16042Y-7125D01*
X16057Y-7153D01*
X16057Y-7196D01*
X16042Y-7225D01*
X16028Y-7239D01*
X16000Y-7253D01*
X15885Y-7253D01*
X16342Y-7396D02*
X16171Y-7396D01*
X16257Y-7396D02*
X16257Y-7096D01*
X16228Y-7139D01*
X16200Y-7167D01*
X16171Y-7182D01*
X16600Y-7096D02*
X16542Y-7096D01*
X16514Y-7110D01*
X16500Y-7125D01*
X16471Y-7167D01*
X16457Y-7225D01*
X16457Y-7339D01*
X16471Y-7367D01*
X16485Y-7382D01*
X16514Y-7396D01*
X16571Y-7396D01*
X16600Y-7382D01*
X16614Y-7367D01*
X16628Y-7339D01*
X16628Y-7267D01*
X16614Y-7239D01*
X16600Y-7225D01*
X16571Y-7210D01*
X16514Y-7210D01*
X16485Y-7225D01*
X16471Y-7239D01*
X16457Y-7267D01*
X44007Y-21446D02*
X43907Y-21303D01*
X43835Y-21446D02*
X43835Y-21146D01*
X43950Y-21146D01*
X43978Y-21160D01*
X43992Y-21175D01*
X44007Y-21203D01*
X44007Y-21246D01*
X43992Y-21275D01*
X43978Y-21289D01*
X43950Y-21303D01*
X43835Y-21303D01*
X44292Y-21446D02*
X44121Y-21446D01*
X44207Y-21446D02*
X44207Y-21146D01*
X44178Y-21189D01*
X44150Y-21217D01*
X44121Y-21232D01*
X44435Y-21446D02*
X44492Y-21446D01*
X44521Y-21432D01*
X44535Y-21417D01*
X44564Y-21375D01*
X44578Y-21317D01*
X44578Y-21203D01*
X44564Y-21175D01*
X44550Y-21160D01*
X44521Y-21146D01*
X44464Y-21146D01*
X44435Y-21160D01*
X44421Y-21175D01*
X44407Y-21203D01*
X44407Y-21275D01*
X44421Y-21303D01*
X44435Y-21317D01*
X44464Y-21332D01*
X44521Y-21332D01*
X44550Y-21317D01*
X44564Y-21303D01*
X44578Y-21275D01*
X41296Y-25567D02*
X41153Y-25667D01*
X41296Y-25739D02*
X40996Y-25739D01*
X40996Y-25625D01*
X41010Y-25596D01*
X41025Y-25582D01*
X41053Y-25567D01*
X41096Y-25567D01*
X41125Y-25582D01*
X41139Y-25596D01*
X41153Y-25625D01*
X41153Y-25739D01*
X41025Y-25453D02*
X41010Y-25439D01*
X40996Y-25410D01*
X40996Y-25339D01*
X41010Y-25310D01*
X41025Y-25296D01*
X41053Y-25282D01*
X41082Y-25282D01*
X41125Y-25296D01*
X41296Y-25467D01*
X41296Y-25282D01*
X40996Y-25096D02*
X40996Y-25067D01*
X41010Y-25039D01*
X41025Y-25025D01*
X41053Y-25010D01*
X41110Y-24996D01*
X41182Y-24996D01*
X41239Y-25010D01*
X41267Y-25025D01*
X41282Y-25039D01*
X41296Y-25067D01*
X41296Y-25096D01*
X41282Y-25125D01*
X41267Y-25139D01*
X41239Y-25153D01*
X41182Y-25167D01*
X41110Y-25167D01*
X41053Y-25153D01*
X41025Y-25139D01*
X41010Y-25125D01*
X40996Y-25096D01*
X42827Y-24761D02*
X42727Y-24618D01*
X42655Y-24761D02*
X42655Y-24461D01*
X42770Y-24461D01*
X42798Y-24475D01*
X42812Y-24490D01*
X42827Y-24518D01*
X42827Y-24561D01*
X42812Y-24590D01*
X42798Y-24604D01*
X42770Y-24618D01*
X42655Y-24618D01*
X42941Y-24490D02*
X42955Y-24475D01*
X42984Y-24461D01*
X43055Y-24461D01*
X43084Y-24475D01*
X43098Y-24490D01*
X43112Y-24518D01*
X43112Y-24547D01*
X43098Y-24590D01*
X42927Y-24761D01*
X43112Y-24761D01*
X43398Y-24761D02*
X43227Y-24761D01*
X43312Y-24761D02*
X43312Y-24461D01*
X43284Y-24504D01*
X43255Y-24532D01*
X43227Y-24547D01*
X36832Y-9942D02*
X36817Y-9957D01*
X36775Y-9971D01*
X36746Y-9971D01*
X36703Y-9957D01*
X36675Y-9928D01*
X36660Y-9900D01*
X36646Y-9842D01*
X36646Y-9800D01*
X36660Y-9742D01*
X36675Y-9714D01*
X36703Y-9685D01*
X36746Y-9671D01*
X36775Y-9671D01*
X36817Y-9685D01*
X36832Y-9700D01*
X37117Y-9971D02*
X36946Y-9971D01*
X37032Y-9971D02*
X37032Y-9671D01*
X37003Y-9714D01*
X36975Y-9742D01*
X36946Y-9757D01*
X37375Y-9671D02*
X37317Y-9671D01*
X37289Y-9685D01*
X37275Y-9700D01*
X37246Y-9742D01*
X37232Y-9800D01*
X37232Y-9914D01*
X37246Y-9942D01*
X37260Y-9957D01*
X37289Y-9971D01*
X37346Y-9971D01*
X37375Y-9957D01*
X37389Y-9942D01*
X37403Y-9914D01*
X37403Y-9842D01*
X37389Y-9814D01*
X37375Y-9800D01*
X37346Y-9785D01*
X37289Y-9785D01*
X37260Y-9800D01*
X37246Y-9814D01*
X37232Y-9842D01*
X25582Y-16071D02*
X25482Y-15928D01*
X25410Y-16071D02*
X25410Y-15771D01*
X25525Y-15771D01*
X25553Y-15785D01*
X25567Y-15800D01*
X25582Y-15828D01*
X25582Y-15871D01*
X25567Y-15900D01*
X25553Y-15914D01*
X25525Y-15928D01*
X25410Y-15928D01*
X25867Y-16071D02*
X25696Y-16071D01*
X25782Y-16071D02*
X25782Y-15771D01*
X25753Y-15814D01*
X25725Y-15842D01*
X25696Y-15857D01*
X26139Y-15771D02*
X25996Y-15771D01*
X25982Y-15914D01*
X25996Y-15900D01*
X26025Y-15885D01*
X26096Y-15885D01*
X26125Y-15900D01*
X26139Y-15914D01*
X26153Y-15942D01*
X26153Y-16014D01*
X26139Y-16042D01*
X26125Y-16057D01*
X26096Y-16071D01*
X26025Y-16071D01*
X25996Y-16057D01*
X25982Y-16042D01*
M02*
