G04 (created by PCBNEW (2013-07-07 BZR 4022)-stable) date 09/03/2016 16:10:27*
%MOIN*%
G04 Gerber Fmt 3.4, Leading zero omitted, Abs format*
%FSLAX34Y34*%
G01*
G70*
G90*
G04 APERTURE LIST*
%ADD10C,0.00590551*%
%ADD11C,0.055*%
%ADD12C,0.11811*%
%ADD13C,0.06*%
%ADD14R,0.0708661X0.0787402*%
%ADD15R,0.055X0.055*%
%ADD16R,0.025X0.08*%
%ADD17R,0.08X0.025*%
%ADD18R,0.0393701X0.0393701*%
%ADD19C,0.0393701*%
%ADD20R,0.09X0.042*%
%ADD21R,0.35X0.42*%
%ADD22R,0.0394X0.11811*%
%ADD23R,0.015X0.1*%
%ADD24R,0.1X0.015*%
%ADD25R,0.1X0.02*%
%ADD26R,0.0651X0.0236*%
%ADD27R,0.06X0.08*%
%ADD28R,0.025X0.045*%
%ADD29R,0.045X0.025*%
%ADD30R,0.0906X0.1457*%
%ADD31R,0.1181X0.0906*%
%ADD32R,0.0984252X0.129921*%
%ADD33R,0.0165X0.0579*%
%ADD34R,0.0591X0.0118*%
%ADD35R,0.011811X0.0472441*%
%ADD36R,0.0472441X0.011811*%
%ADD37R,0.2165X0.0787*%
%ADD38O,0.0787X0.1595*%
%ADD39R,0.0787X0.1795*%
%ADD40O,0.1595X0.0787*%
%ADD41R,0.181102X0.0708661*%
%ADD42R,0.08X0.06*%
%ADD43R,0.0709X0.0629*%
%ADD44R,0.0594488X0.0187795*%
%ADD45R,0.0579X0.0165*%
%ADD46R,0.036X0.036*%
%ADD47R,0.05X0.02*%
G04 APERTURE END LIST*
G54D10*
G54D11*
X32650Y-26550D03*
X33650Y-26550D03*
X34650Y-26550D03*
X35650Y-26550D03*
X36650Y-26550D03*
X37650Y-26550D03*
X38650Y-26550D03*
X39650Y-26550D03*
X41650Y-26550D03*
X42650Y-26550D03*
X43650Y-26550D03*
X44650Y-26550D03*
X45650Y-26550D03*
X46650Y-26550D03*
X47650Y-26550D03*
X48650Y-26550D03*
X50650Y-26550D03*
X51650Y-26550D03*
X52650Y-26550D03*
X53650Y-26550D03*
X54650Y-26550D03*
X55650Y-26550D03*
X56650Y-26550D03*
X57650Y-26550D03*
X58650Y-24550D03*
X59650Y-24550D03*
X58650Y-23550D03*
X59650Y-23550D03*
X58650Y-22550D03*
X59650Y-22550D03*
X58650Y-21550D03*
X59650Y-21550D03*
X58650Y-20550D03*
X59650Y-20550D03*
X58650Y-19550D03*
X59650Y-19550D03*
X58650Y-18550D03*
X59650Y-18550D03*
X58650Y-17550D03*
X59650Y-17550D03*
X58650Y-16550D03*
X59650Y-16550D03*
X58650Y-15550D03*
X59650Y-15550D03*
X58650Y-14550D03*
X59650Y-14550D03*
X58650Y-13550D03*
X59650Y-13550D03*
X58650Y-12550D03*
X59650Y-12550D03*
X58650Y-11550D03*
X59650Y-11550D03*
X58650Y-10550D03*
X59650Y-10550D03*
X58650Y-9550D03*
X59650Y-9550D03*
X58650Y-8550D03*
X59650Y-8550D03*
X58650Y-7550D03*
X59650Y-7550D03*
X55650Y-7550D03*
X54650Y-7550D03*
X53650Y-7550D03*
X52650Y-7550D03*
X51650Y-7550D03*
X50650Y-7550D03*
X49650Y-7550D03*
X48650Y-7550D03*
X46650Y-7550D03*
X45650Y-7550D03*
X44650Y-7550D03*
X43650Y-7550D03*
X42650Y-7550D03*
X41650Y-7550D03*
X40650Y-7550D03*
X39650Y-7550D03*
X38050Y-7550D03*
X37050Y-7550D03*
X36050Y-7550D03*
X35050Y-7550D03*
X34050Y-7550D03*
X33050Y-7550D03*
X32050Y-7550D03*
X31050Y-7550D03*
X30050Y-7550D03*
X29050Y-7550D03*
X46700Y-15550D03*
X47700Y-15550D03*
X46700Y-16550D03*
X47700Y-16550D03*
X46700Y-17550D03*
X47700Y-17550D03*
G54D12*
X27650Y-7550D03*
X57150Y-7550D03*
X47650Y-13550D03*
X47650Y-24550D03*
X59650Y-26550D03*
X27150Y-26550D03*
G54D13*
X42650Y-32550D03*
X42650Y-33550D03*
X41650Y-32550D03*
X41650Y-33550D03*
X40650Y-32550D03*
X40650Y-33550D03*
X39650Y-32550D03*
X39650Y-33550D03*
X38650Y-32550D03*
X38650Y-33550D03*
G54D11*
X20150Y-23550D03*
X20150Y-22550D03*
X20150Y-21550D03*
X7150Y-23550D03*
X7150Y-22550D03*
X7150Y-21550D03*
X29650Y-26550D03*
X30650Y-26550D03*
X25775Y-22550D03*
X25775Y-11925D03*
X56400Y-15550D03*
X11550Y-32950D03*
X3700Y-18050D03*
G54D14*
X12750Y-9501D03*
X14750Y-9501D03*
X14750Y-7848D03*
X12750Y-7848D03*
G54D15*
X42650Y-30550D03*
G54D11*
X41650Y-30550D03*
X40650Y-30550D03*
X39650Y-30550D03*
X19250Y-8875D03*
X18250Y-8875D03*
X17250Y-8875D03*
X16250Y-8875D03*
G54D16*
X22725Y-27325D03*
X22225Y-27325D03*
X21725Y-27325D03*
X21225Y-27325D03*
G54D17*
X20475Y-28075D03*
X20475Y-28575D03*
X20475Y-29075D03*
X20475Y-29575D03*
X20475Y-30075D03*
X20475Y-30575D03*
X20475Y-31075D03*
G54D16*
X21225Y-31825D03*
X21725Y-31825D03*
X22225Y-31825D03*
X22725Y-31825D03*
X23225Y-31825D03*
X23725Y-31825D03*
X24225Y-31825D03*
G54D17*
X24975Y-31075D03*
X24975Y-30575D03*
X24975Y-30075D03*
X24975Y-29575D03*
X24975Y-29075D03*
X24975Y-28575D03*
X24975Y-28075D03*
G54D16*
X24225Y-27325D03*
X23725Y-27325D03*
X23225Y-27325D03*
G54D12*
X3450Y-33050D03*
G54D18*
X44543Y-19412D03*
G54D19*
X43756Y-19412D03*
X44543Y-18624D03*
X43756Y-18624D03*
X44543Y-17837D03*
X43756Y-17837D03*
X44543Y-17050D03*
X43756Y-17050D03*
X44543Y-16262D03*
X43756Y-16262D03*
X44543Y-15475D03*
X43756Y-15475D03*
X44543Y-14687D03*
X43756Y-14687D03*
G54D20*
X49000Y-28335D03*
G54D21*
X52450Y-29675D03*
G54D20*
X49000Y-29675D03*
X49000Y-29005D03*
X49000Y-30345D03*
X49000Y-31015D03*
G54D22*
X53289Y-17060D03*
X53289Y-14540D03*
X55061Y-17060D03*
X55061Y-14540D03*
G54D12*
X59650Y-34550D03*
X2650Y-34550D03*
X2650Y-7550D03*
G54D23*
X29650Y-23150D03*
X29900Y-23150D03*
X30160Y-23150D03*
X30410Y-23150D03*
X30670Y-23150D03*
X30930Y-23150D03*
X31180Y-23150D03*
X31440Y-23150D03*
X31690Y-23150D03*
X31950Y-23150D03*
X32210Y-23150D03*
X32460Y-23150D03*
X32720Y-23150D03*
X32970Y-23150D03*
X33230Y-23150D03*
X33490Y-23150D03*
X33740Y-23150D03*
X34000Y-23150D03*
X34250Y-23150D03*
X34510Y-23150D03*
X34770Y-23150D03*
X35020Y-23150D03*
X35280Y-23150D03*
X35530Y-23150D03*
X35790Y-23150D03*
X36050Y-23150D03*
X36300Y-23150D03*
X36560Y-23150D03*
X36810Y-23150D03*
X37070Y-23150D03*
X37330Y-23150D03*
X37580Y-23150D03*
X37840Y-23150D03*
X38090Y-23150D03*
X38350Y-23150D03*
X38610Y-23150D03*
X38860Y-23150D03*
X39120Y-23150D03*
X39370Y-23150D03*
X39630Y-23150D03*
G54D24*
X40780Y-22000D03*
X40780Y-21750D03*
X40780Y-21490D03*
X40780Y-21240D03*
X40780Y-20980D03*
X40780Y-20720D03*
X40780Y-20470D03*
X40780Y-20210D03*
X40780Y-19960D03*
X40780Y-19700D03*
X40780Y-19440D03*
X40780Y-19190D03*
X40780Y-18930D03*
X40780Y-18680D03*
X40780Y-18420D03*
X40780Y-18160D03*
X40780Y-17910D03*
X40780Y-17650D03*
X40780Y-17400D03*
X40780Y-17140D03*
X40780Y-16880D03*
X40780Y-16630D03*
X40780Y-16370D03*
X40780Y-16120D03*
X40780Y-15860D03*
X40780Y-15600D03*
X40780Y-15350D03*
X40780Y-15090D03*
X40780Y-14840D03*
X40780Y-14580D03*
X40780Y-14320D03*
X40780Y-14070D03*
X40780Y-13810D03*
X40780Y-13560D03*
X40780Y-13300D03*
X40780Y-13040D03*
X40780Y-12790D03*
X40780Y-12530D03*
X40780Y-12280D03*
X40780Y-12020D03*
X28500Y-12020D03*
X28500Y-12280D03*
X28500Y-12530D03*
X28500Y-12790D03*
X28500Y-13040D03*
X28500Y-13300D03*
X28500Y-13560D03*
X28500Y-13810D03*
X28500Y-14070D03*
X28500Y-14320D03*
X28500Y-14580D03*
X28500Y-14840D03*
X28500Y-15090D03*
X28500Y-15350D03*
X28500Y-15600D03*
X28500Y-15860D03*
X28500Y-16120D03*
X28500Y-16370D03*
X28500Y-16630D03*
X28500Y-16880D03*
X28500Y-17140D03*
X28500Y-17400D03*
X28500Y-17650D03*
X28500Y-17910D03*
X28500Y-18160D03*
X28500Y-18420D03*
X28500Y-18680D03*
X28500Y-18930D03*
X28500Y-19190D03*
X28500Y-19440D03*
X28500Y-19700D03*
X28500Y-19960D03*
X28500Y-20210D03*
X28500Y-20470D03*
X28500Y-20720D03*
X28500Y-20980D03*
X28500Y-21240D03*
X28500Y-21490D03*
X28500Y-21750D03*
X28500Y-22000D03*
G54D23*
X39630Y-10870D03*
X39370Y-10870D03*
X39120Y-10870D03*
X38860Y-10870D03*
X38610Y-10870D03*
X38350Y-10870D03*
X38090Y-10870D03*
X37840Y-10870D03*
X37580Y-10870D03*
X37330Y-10870D03*
X37070Y-10870D03*
X36810Y-10870D03*
X36560Y-10870D03*
X36300Y-10870D03*
X36050Y-10870D03*
X35790Y-10870D03*
X35530Y-10870D03*
X35280Y-10870D03*
X35020Y-10870D03*
X34770Y-10870D03*
X34510Y-10870D03*
X34250Y-10870D03*
X34000Y-10870D03*
X33740Y-10870D03*
X33490Y-10870D03*
X33230Y-10870D03*
X32970Y-10870D03*
X32720Y-10870D03*
X32460Y-10870D03*
X32210Y-10870D03*
X31950Y-10870D03*
X31690Y-10870D03*
X31440Y-10870D03*
X31180Y-10870D03*
X30930Y-10870D03*
X30670Y-10870D03*
X30410Y-10870D03*
X30160Y-10870D03*
X29900Y-10870D03*
X29650Y-10870D03*
G54D15*
X4150Y-16550D03*
G54D11*
X5150Y-16550D03*
X6150Y-16550D03*
X7150Y-16550D03*
X8150Y-16550D03*
X9150Y-16550D03*
X10150Y-16550D03*
X11150Y-16550D03*
X12150Y-16550D03*
X13150Y-16550D03*
X14150Y-16550D03*
X15150Y-16550D03*
X16150Y-16550D03*
X17150Y-16550D03*
X18150Y-16550D03*
X19150Y-16550D03*
X20150Y-16550D03*
X21150Y-16550D03*
X22150Y-16550D03*
X23150Y-16550D03*
X23150Y-10550D03*
X22150Y-10550D03*
X21150Y-10550D03*
X20150Y-10550D03*
X19150Y-10550D03*
X18150Y-10550D03*
X17150Y-10550D03*
X16150Y-10550D03*
X15150Y-10550D03*
X14150Y-10550D03*
X13150Y-10550D03*
X12150Y-10550D03*
X11150Y-10550D03*
X10150Y-10550D03*
X9150Y-10550D03*
X8150Y-10550D03*
X7150Y-10550D03*
X6150Y-10550D03*
X5150Y-10550D03*
X4150Y-10550D03*
G54D25*
X14275Y-34100D03*
X14275Y-33600D03*
X14275Y-33100D03*
X14275Y-32600D03*
X16775Y-32600D03*
X16775Y-33100D03*
X16775Y-33600D03*
X16775Y-34100D03*
G54D26*
X51650Y-23975D03*
X49550Y-23975D03*
X51650Y-24475D03*
X51650Y-24975D03*
X51650Y-25475D03*
X49550Y-24475D03*
X49550Y-24975D03*
X49550Y-25475D03*
G54D27*
X44550Y-25225D03*
X45850Y-25225D03*
G54D28*
X41800Y-20749D03*
X42400Y-20749D03*
G54D29*
X4395Y-30245D03*
X4395Y-30845D03*
G54D28*
X50900Y-23275D03*
X50300Y-23275D03*
G54D29*
X27300Y-21325D03*
X27300Y-21925D03*
G54D28*
X31400Y-24600D03*
X30800Y-24600D03*
X28750Y-23150D03*
X28150Y-23150D03*
G54D29*
X26700Y-16475D03*
X26700Y-17075D03*
G54D28*
X27500Y-11900D03*
X26900Y-11900D03*
X41800Y-22100D03*
X42400Y-22100D03*
X42090Y-16560D03*
X42690Y-16560D03*
X40625Y-10900D03*
X41225Y-10900D03*
G54D29*
X56790Y-22460D03*
X56790Y-23060D03*
G54D28*
X31925Y-33425D03*
X31325Y-33425D03*
G54D29*
X13175Y-33850D03*
X13175Y-33250D03*
X6900Y-8200D03*
X6900Y-8800D03*
X10500Y-30900D03*
X10500Y-30300D03*
X12675Y-30625D03*
X12675Y-31225D03*
G54D28*
X13000Y-28275D03*
X12400Y-28275D03*
X17925Y-28300D03*
X18525Y-28300D03*
G54D29*
X18050Y-30450D03*
X18050Y-29850D03*
X36850Y-31800D03*
X36850Y-32400D03*
G54D28*
X35025Y-27750D03*
X35625Y-27750D03*
G54D29*
X30900Y-29575D03*
X30900Y-28975D03*
G54D15*
X4150Y-25550D03*
G54D11*
X5150Y-25550D03*
X6150Y-25550D03*
X7150Y-25550D03*
X8150Y-25550D03*
X9150Y-25550D03*
X10150Y-25550D03*
X11150Y-25550D03*
X12150Y-25550D03*
X13150Y-25550D03*
X14150Y-25550D03*
X15150Y-25550D03*
X16150Y-25550D03*
X17150Y-25550D03*
X18150Y-25550D03*
X19150Y-25550D03*
X20150Y-25550D03*
X21150Y-25550D03*
X22150Y-25550D03*
X23150Y-25550D03*
X23150Y-19550D03*
X22150Y-19550D03*
X21150Y-19550D03*
X20150Y-19550D03*
X19150Y-19550D03*
X18150Y-19550D03*
X17150Y-19550D03*
X16150Y-19550D03*
X15150Y-19550D03*
X14150Y-19550D03*
X13150Y-19550D03*
X12150Y-19550D03*
X11150Y-19550D03*
X10150Y-19550D03*
X9150Y-19550D03*
X8150Y-19550D03*
X7150Y-19550D03*
X6150Y-19550D03*
X5150Y-19550D03*
X4150Y-19550D03*
G54D30*
X54828Y-33675D03*
X57072Y-33675D03*
G54D31*
X49025Y-32303D03*
X49025Y-34547D03*
G54D32*
X47388Y-33450D03*
X44711Y-33450D03*
G54D33*
X54272Y-25232D03*
X54528Y-25232D03*
X54784Y-25232D03*
X55040Y-25232D03*
X53508Y-23030D03*
X53504Y-25232D03*
X53760Y-25232D03*
X54016Y-25232D03*
X55296Y-23028D03*
X55040Y-23028D03*
X54784Y-23028D03*
X54528Y-23028D03*
X54272Y-23028D03*
X54016Y-23028D03*
X55296Y-25232D03*
X53760Y-23030D03*
X53248Y-25232D03*
X55552Y-25232D03*
X55552Y-23028D03*
X53248Y-23028D03*
X52993Y-25232D03*
X55807Y-25232D03*
X55807Y-23028D03*
X52993Y-23028D03*
X52737Y-25232D03*
X56063Y-25232D03*
X56063Y-23028D03*
X52737Y-23028D03*
G54D34*
X13925Y-29670D03*
X13925Y-29867D03*
X13925Y-30064D03*
X13925Y-30261D03*
X13925Y-30458D03*
X13925Y-30655D03*
X13925Y-30851D03*
X13925Y-31048D03*
X13925Y-31245D03*
X13925Y-31442D03*
X13925Y-31639D03*
X13925Y-27111D03*
X13925Y-27308D03*
X13925Y-27505D03*
X13925Y-27702D03*
X13925Y-27899D03*
X13925Y-28095D03*
X13925Y-28292D03*
X17075Y-28489D03*
X13925Y-28686D03*
X13925Y-28883D03*
X13925Y-29080D03*
X13925Y-29277D03*
X13925Y-29473D03*
X17075Y-29473D03*
X17075Y-29277D03*
X17075Y-29080D03*
X17075Y-28883D03*
X17075Y-28686D03*
X13925Y-28489D03*
X17075Y-28292D03*
X17075Y-28095D03*
X17075Y-27899D03*
X17075Y-27702D03*
X17075Y-27505D03*
X17075Y-27308D03*
X17075Y-27111D03*
X17075Y-31639D03*
X17075Y-31442D03*
X17075Y-31245D03*
X17075Y-31048D03*
X17075Y-30851D03*
X17075Y-30655D03*
X17075Y-30458D03*
X17075Y-30261D03*
X17075Y-30064D03*
X17075Y-29867D03*
X17075Y-29670D03*
G54D35*
X34023Y-32913D03*
X33826Y-32913D03*
X34220Y-32913D03*
X33629Y-32913D03*
X33432Y-32913D03*
X33236Y-32913D03*
X33039Y-32913D03*
X32842Y-32913D03*
X34417Y-32913D03*
X34613Y-32913D03*
X34810Y-32913D03*
X35007Y-32913D03*
X34023Y-28386D03*
X33826Y-28386D03*
X34220Y-28386D03*
X34417Y-28386D03*
X34613Y-28386D03*
X34810Y-28386D03*
X35007Y-28386D03*
X33629Y-28386D03*
X33432Y-28386D03*
X33236Y-28386D03*
X33039Y-28386D03*
X32842Y-28386D03*
G54D36*
X31661Y-30551D03*
X31661Y-30354D03*
X31661Y-30157D03*
X31661Y-29961D03*
X31661Y-29764D03*
X31661Y-29567D03*
X31661Y-30748D03*
X31661Y-30945D03*
X31661Y-31142D03*
X31661Y-31338D03*
X31661Y-31535D03*
X31661Y-31732D03*
X36188Y-30551D03*
X36188Y-30354D03*
X36188Y-30157D03*
X36188Y-29961D03*
X36188Y-29764D03*
X36188Y-29567D03*
X36188Y-30748D03*
X36188Y-30945D03*
X36188Y-31142D03*
X36188Y-31338D03*
X36188Y-31535D03*
X36188Y-31732D03*
X31661Y-29370D03*
X31661Y-29173D03*
X31661Y-31929D03*
X31661Y-32126D03*
X36188Y-29370D03*
X36188Y-31929D03*
X36188Y-29173D03*
X36188Y-32126D03*
G54D35*
X35204Y-32913D03*
X35401Y-32913D03*
X32645Y-32913D03*
X32448Y-32913D03*
X32645Y-28386D03*
X32448Y-28386D03*
X35204Y-28386D03*
X35401Y-28386D03*
G54D28*
X41800Y-29600D03*
X41200Y-29600D03*
X38700Y-29600D03*
X38100Y-29600D03*
G54D37*
X38100Y-28250D03*
X41800Y-28250D03*
G54D14*
X7850Y-9501D03*
X9850Y-9501D03*
X9850Y-7848D03*
X7850Y-7848D03*
G54D38*
X57550Y-30550D03*
G54D39*
X55150Y-30550D03*
G54D40*
X56369Y-28550D03*
G54D41*
X46025Y-27878D03*
X46025Y-31421D03*
G54D28*
X50900Y-14950D03*
X50300Y-14950D03*
G54D30*
X53372Y-33675D03*
X51128Y-33675D03*
G54D42*
X5225Y-8825D03*
X5225Y-7525D03*
G54D43*
X3150Y-30066D03*
X3150Y-31184D03*
G54D29*
X3025Y-28850D03*
X3025Y-29450D03*
G54D26*
X51650Y-15700D03*
X49550Y-15700D03*
X51650Y-16200D03*
X51650Y-16700D03*
X51650Y-17200D03*
X49550Y-16200D03*
X49550Y-16700D03*
X49550Y-17200D03*
G54D28*
X42690Y-17930D03*
X42090Y-17930D03*
X42690Y-18590D03*
X42090Y-18590D03*
G54D44*
X9721Y-33832D03*
X9721Y-33517D03*
X9721Y-33202D03*
X9721Y-32887D03*
X9721Y-32572D03*
X9721Y-32257D03*
X9721Y-31942D03*
X9721Y-31627D03*
X9721Y-31312D03*
X9721Y-30997D03*
X9721Y-30682D03*
X9721Y-30367D03*
X9721Y-30052D03*
X9721Y-29737D03*
X9721Y-29422D03*
X9721Y-29107D03*
X9721Y-28792D03*
X9721Y-28477D03*
X9721Y-28162D03*
X9721Y-27847D03*
X9721Y-27532D03*
X9721Y-27217D03*
X5228Y-27217D03*
X5228Y-27532D03*
X5228Y-27847D03*
X5228Y-28162D03*
X5228Y-28477D03*
X5228Y-28792D03*
X5228Y-29107D03*
X5228Y-29422D03*
X5228Y-29737D03*
X5228Y-30052D03*
X5228Y-30367D03*
X5228Y-30682D03*
X5228Y-30997D03*
X5228Y-31312D03*
X5228Y-31627D03*
X5228Y-31942D03*
X5228Y-32257D03*
X5228Y-32572D03*
X5228Y-32887D03*
X5228Y-33202D03*
X5228Y-33517D03*
X5228Y-33832D03*
G54D45*
X18148Y-33272D03*
X18148Y-33528D03*
X18148Y-33784D03*
X18148Y-34040D03*
X20350Y-32508D03*
X18148Y-32504D03*
X18148Y-32760D03*
X18148Y-33016D03*
X20352Y-34296D03*
X20352Y-34040D03*
X20352Y-33784D03*
X20352Y-33528D03*
X20352Y-33272D03*
X20352Y-33016D03*
X18148Y-34296D03*
X20350Y-32760D03*
G54D46*
X10850Y-8750D03*
X11550Y-8750D03*
X11200Y-9550D03*
G54D28*
X23225Y-26450D03*
X23825Y-26450D03*
X18675Y-31825D03*
X18075Y-31825D03*
X19750Y-31825D03*
X19150Y-31825D03*
G54D29*
X11750Y-7625D03*
X11750Y-8225D03*
X3675Y-28850D03*
X3675Y-29450D03*
X4150Y-26950D03*
X4150Y-26350D03*
G54D28*
X19550Y-7900D03*
X18950Y-7900D03*
G54D29*
X10900Y-7625D03*
X10900Y-8225D03*
G54D28*
X6375Y-9600D03*
X6975Y-9600D03*
X3825Y-9675D03*
X3225Y-9675D03*
X4150Y-18875D03*
X3550Y-18875D03*
G54D12*
X58150Y-27900D03*
G54D28*
X18050Y-7900D03*
X17450Y-7900D03*
X52025Y-14950D03*
X52625Y-14950D03*
X42875Y-31575D03*
X42275Y-31575D03*
G54D27*
X12050Y-34350D03*
X10750Y-34350D03*
G54D47*
X30100Y-32550D03*
X30100Y-32050D03*
X30100Y-31550D03*
X30100Y-31050D03*
X30100Y-30550D03*
X30100Y-30050D03*
X30100Y-29550D03*
X30100Y-29050D03*
X30100Y-28550D03*
X30100Y-28050D03*
X26300Y-28050D03*
X26300Y-28550D03*
X26300Y-29050D03*
X26300Y-29550D03*
X26300Y-30050D03*
X26300Y-30550D03*
X26300Y-31050D03*
X26300Y-31550D03*
X26300Y-32050D03*
X26300Y-32550D03*
G54D29*
X30900Y-27850D03*
X30900Y-28450D03*
G54D28*
X5550Y-9600D03*
X4950Y-9600D03*
G54D29*
X32550Y-8950D03*
X32550Y-9550D03*
X31875Y-8950D03*
X31875Y-9550D03*
G54D28*
X15950Y-7900D03*
X16550Y-7900D03*
G54D29*
X44175Y-21825D03*
X44175Y-22425D03*
G54D28*
X41675Y-25300D03*
X42275Y-25300D03*
X41675Y-24650D03*
X42275Y-24650D03*
G54D29*
X36175Y-9800D03*
X36175Y-9200D03*
X25975Y-16475D03*
X25975Y-17075D03*
M02*
