G04 (created by PCBNEW (2013-07-07 BZR 4022)-stable) date 09/03/2016 16:10:27*
%MOIN*%
G04 Gerber Fmt 3.4, Leading zero omitted, Abs format*
%FSLAX34Y34*%
G01*
G70*
G90*
G04 APERTURE LIST*
%ADD10C,0.00590551*%
%ADD11C,0.055*%
%ADD12C,0.11811*%
%ADD13C,0.06*%
%ADD14R,0.055X0.055*%
%ADD15R,0.0393701X0.0393701*%
%ADD16C,0.0393701*%
%ADD17O,0.0787X0.1595*%
%ADD18R,0.0787X0.1795*%
%ADD19O,0.1595X0.0787*%
%ADD20R,0.045X0.045*%
G04 APERTURE END LIST*
G54D10*
G54D11*
X32650Y-26550D03*
X33650Y-26550D03*
X34650Y-26550D03*
X35650Y-26550D03*
X36650Y-26550D03*
X37650Y-26550D03*
X38650Y-26550D03*
X39650Y-26550D03*
X41650Y-26550D03*
X42650Y-26550D03*
X43650Y-26550D03*
X44650Y-26550D03*
X45650Y-26550D03*
X46650Y-26550D03*
X47650Y-26550D03*
X48650Y-26550D03*
X50650Y-26550D03*
X51650Y-26550D03*
X52650Y-26550D03*
X53650Y-26550D03*
X54650Y-26550D03*
X55650Y-26550D03*
X56650Y-26550D03*
X57650Y-26550D03*
X58650Y-24550D03*
X59650Y-24550D03*
X58650Y-23550D03*
X59650Y-23550D03*
X58650Y-22550D03*
X59650Y-22550D03*
X58650Y-21550D03*
X59650Y-21550D03*
X58650Y-20550D03*
X59650Y-20550D03*
X58650Y-19550D03*
X59650Y-19550D03*
X58650Y-18550D03*
X59650Y-18550D03*
X58650Y-17550D03*
X59650Y-17550D03*
X58650Y-16550D03*
X59650Y-16550D03*
X58650Y-15550D03*
X59650Y-15550D03*
X58650Y-14550D03*
X59650Y-14550D03*
X58650Y-13550D03*
X59650Y-13550D03*
X58650Y-12550D03*
X59650Y-12550D03*
X58650Y-11550D03*
X59650Y-11550D03*
X58650Y-10550D03*
X59650Y-10550D03*
X58650Y-9550D03*
X59650Y-9550D03*
X58650Y-8550D03*
X59650Y-8550D03*
X58650Y-7550D03*
X59650Y-7550D03*
X55650Y-7550D03*
X54650Y-7550D03*
X53650Y-7550D03*
X52650Y-7550D03*
X51650Y-7550D03*
X50650Y-7550D03*
X49650Y-7550D03*
X48650Y-7550D03*
X46650Y-7550D03*
X45650Y-7550D03*
X44650Y-7550D03*
X43650Y-7550D03*
X42650Y-7550D03*
X41650Y-7550D03*
X40650Y-7550D03*
X39650Y-7550D03*
X38050Y-7550D03*
X37050Y-7550D03*
X36050Y-7550D03*
X35050Y-7550D03*
X34050Y-7550D03*
X33050Y-7550D03*
X32050Y-7550D03*
X31050Y-7550D03*
X30050Y-7550D03*
X29050Y-7550D03*
X46700Y-15550D03*
X47700Y-15550D03*
X46700Y-16550D03*
X47700Y-16550D03*
X46700Y-17550D03*
X47700Y-17550D03*
G54D12*
X27650Y-7550D03*
X57150Y-7550D03*
X47650Y-13550D03*
X47650Y-24550D03*
X59650Y-26550D03*
X27150Y-26550D03*
G54D13*
X42650Y-32550D03*
X42650Y-33550D03*
X41650Y-32550D03*
X41650Y-33550D03*
X40650Y-32550D03*
X40650Y-33550D03*
X39650Y-32550D03*
X39650Y-33550D03*
X38650Y-32550D03*
X38650Y-33550D03*
G54D11*
X20150Y-23550D03*
X20150Y-22550D03*
X20150Y-21550D03*
X7150Y-23550D03*
X7150Y-22550D03*
X7150Y-21550D03*
X29650Y-26550D03*
X30650Y-26550D03*
X25775Y-22550D03*
X25775Y-11925D03*
X56400Y-15550D03*
X11550Y-32950D03*
X3700Y-18050D03*
G54D14*
X42650Y-30550D03*
G54D11*
X41650Y-30550D03*
X40650Y-30550D03*
X39650Y-30550D03*
X19250Y-8875D03*
X18250Y-8875D03*
X17250Y-8875D03*
X16250Y-8875D03*
G54D15*
X44543Y-19412D03*
G54D16*
X43756Y-19412D03*
X44543Y-18624D03*
X43756Y-18624D03*
X44543Y-17837D03*
X43756Y-17837D03*
X44543Y-17050D03*
X43756Y-17050D03*
X44543Y-16262D03*
X43756Y-16262D03*
X44543Y-15475D03*
X43756Y-15475D03*
X44543Y-14687D03*
X43756Y-14687D03*
G54D12*
X59650Y-34550D03*
X2650Y-34550D03*
X2650Y-7550D03*
G54D14*
X4150Y-16550D03*
G54D11*
X5150Y-16550D03*
X6150Y-16550D03*
X7150Y-16550D03*
X8150Y-16550D03*
X9150Y-16550D03*
X10150Y-16550D03*
X11150Y-16550D03*
X12150Y-16550D03*
X13150Y-16550D03*
X14150Y-16550D03*
X15150Y-16550D03*
X16150Y-16550D03*
X17150Y-16550D03*
X18150Y-16550D03*
X19150Y-16550D03*
X20150Y-16550D03*
X21150Y-16550D03*
X22150Y-16550D03*
X23150Y-16550D03*
X23150Y-10550D03*
X22150Y-10550D03*
X21150Y-10550D03*
X20150Y-10550D03*
X19150Y-10550D03*
X18150Y-10550D03*
X17150Y-10550D03*
X16150Y-10550D03*
X15150Y-10550D03*
X14150Y-10550D03*
X13150Y-10550D03*
X12150Y-10550D03*
X11150Y-10550D03*
X10150Y-10550D03*
X9150Y-10550D03*
X8150Y-10550D03*
X7150Y-10550D03*
X6150Y-10550D03*
X5150Y-10550D03*
X4150Y-10550D03*
G54D14*
X4150Y-25550D03*
G54D11*
X5150Y-25550D03*
X6150Y-25550D03*
X7150Y-25550D03*
X8150Y-25550D03*
X9150Y-25550D03*
X10150Y-25550D03*
X11150Y-25550D03*
X12150Y-25550D03*
X13150Y-25550D03*
X14150Y-25550D03*
X15150Y-25550D03*
X16150Y-25550D03*
X17150Y-25550D03*
X18150Y-25550D03*
X19150Y-25550D03*
X20150Y-25550D03*
X21150Y-25550D03*
X22150Y-25550D03*
X23150Y-25550D03*
X23150Y-19550D03*
X22150Y-19550D03*
X21150Y-19550D03*
X20150Y-19550D03*
X19150Y-19550D03*
X18150Y-19550D03*
X17150Y-19550D03*
X16150Y-19550D03*
X15150Y-19550D03*
X14150Y-19550D03*
X13150Y-19550D03*
X12150Y-19550D03*
X11150Y-19550D03*
X10150Y-19550D03*
X9150Y-19550D03*
X8150Y-19550D03*
X7150Y-19550D03*
X6150Y-19550D03*
X5150Y-19550D03*
X4150Y-19550D03*
G54D17*
X57550Y-30550D03*
G54D18*
X55150Y-30550D03*
G54D19*
X56369Y-28550D03*
G54D20*
X34875Y-12700D03*
X31525Y-12700D03*
X36575Y-21425D03*
X37225Y-21425D03*
X34775Y-20775D03*
X35925Y-21425D03*
X32825Y-21425D03*
X31525Y-21425D03*
X39950Y-24450D03*
X35925Y-20775D03*
X36575Y-20775D03*
X34775Y-20125D03*
X32825Y-20775D03*
X27800Y-24475D03*
X28450Y-24475D03*
X27150Y-24475D03*
X21400Y-31950D03*
X32175Y-21425D03*
M02*
