G04 #@! TF.FileFunction,Legend,Top*
%FSLAX46Y46*%
G04 Gerber Fmt 4.6, Leading zero omitted, Abs format (unit mm)*
G04 Created by KiCad (PCBNEW 4.0.1-stable) date 09/03/2016 14:26:41*
%MOMM*%
G01*
G04 APERTURE LIST*
%ADD10C,0.150000*%
%ADD11C,0.127000*%
%ADD12C,0.152400*%
G04 APERTURE END LIST*
D10*
X199898000Y-104076500D02*
X199263000Y-104711500D01*
X200723500Y-104076500D02*
X199898000Y-104076500D01*
D11*
X209931000Y-108077000D02*
X209931000Y-110617000D01*
X209931000Y-110617000D02*
X189611000Y-110617000D01*
X189611000Y-110617000D02*
X189611000Y-108077000D01*
X189611000Y-108077000D02*
X209931000Y-108077000D01*
X215011000Y-59817000D02*
X215011000Y-105537000D01*
X215011000Y-105537000D02*
X209931000Y-105537000D01*
X209931000Y-105537000D02*
X209931000Y-59817000D01*
X209931000Y-59817000D02*
X215011000Y-59817000D01*
X184531000Y-62357000D02*
X204851000Y-62357000D01*
X204851000Y-62357000D02*
X204851000Y-59817000D01*
X204851000Y-59817000D02*
X184531000Y-59817000D01*
D10*
X200791065Y-65258083D02*
X201680065Y-66147083D01*
X202569065Y-65258083D02*
X200791065Y-65258083D01*
X201680065Y-66147083D02*
X202569065Y-65258083D01*
D11*
X205486000Y-66167000D02*
X200406000Y-66167000D01*
X200406000Y-66167000D02*
X200406000Y-89027000D01*
X200406000Y-89027000D02*
X205486000Y-89027000D01*
X205486000Y-89027000D02*
X205486000Y-66167000D01*
D10*
X194691000Y-64897000D02*
X192151000Y-64897000D01*
X192151000Y-64897000D02*
X192151000Y-67437000D01*
X192151000Y-67437000D02*
X194691000Y-67437000D01*
X194691000Y-64897000D02*
X197231000Y-64897000D01*
X194691000Y-67437000D02*
X197231000Y-67437000D01*
X197231000Y-67437000D02*
X197231000Y-64897000D01*
D11*
X207645000Y-102743000D02*
G75*
G03X207645000Y-102743000I-1270000J0D01*
G01*
X204125000Y-100493000D02*
X208625000Y-100493000D01*
X204125000Y-104993000D02*
X204125000Y-100493000D01*
X208625000Y-104993000D02*
X204125000Y-104993000D01*
X208625000Y-100493000D02*
X208625000Y-104993000D01*
D10*
X201136000Y-102457000D02*
X201136000Y-101782000D01*
X190786000Y-102457000D02*
X190786000Y-101782000D01*
X190786000Y-92107000D02*
X190786000Y-92782000D01*
X201136000Y-92107000D02*
X201136000Y-92782000D01*
X201136000Y-102457000D02*
X200461000Y-102457000D01*
X201136000Y-92107000D02*
X200461000Y-92107000D01*
X190786000Y-92107000D02*
X191461000Y-92107000D01*
X190786000Y-102457000D02*
X191461000Y-102457000D01*
X201136000Y-101782000D02*
X202411000Y-101782000D01*
X194073635Y-86475017D02*
X194962635Y-85586017D01*
X194962635Y-87364017D02*
X194073635Y-86475017D01*
X194962635Y-87364017D02*
X194962635Y-85586017D01*
D11*
X194056000Y-87757000D02*
X194056000Y-75057000D01*
X194056000Y-75057000D02*
X188976000Y-75057000D01*
X188976000Y-75057000D02*
X188976000Y-87757000D01*
X188976000Y-87757000D02*
X194056000Y-87757000D01*
X197231000Y-107442000D02*
X189611000Y-107442000D01*
X189611000Y-104902000D02*
X189611000Y-107442000D01*
X197231000Y-104902000D02*
X189611000Y-104902000D01*
X197231000Y-107442000D02*
X197231000Y-104902000D01*
D10*
X189412500Y-72239500D02*
X188412500Y-72239500D01*
X188412500Y-70889500D02*
X189412500Y-70889500D01*
X203044500Y-92361500D02*
X203044500Y-91661500D01*
X204244500Y-91661500D02*
X204244500Y-92361500D01*
X194521000Y-90135000D02*
X193821000Y-90135000D01*
X193821000Y-88935000D02*
X194521000Y-88935000D01*
X187741000Y-97505000D02*
X187741000Y-96805000D01*
X188941000Y-96805000D02*
X188941000Y-97505000D01*
X199355000Y-105822000D02*
X199355000Y-106522000D01*
X198155000Y-106522000D02*
X198155000Y-105822000D01*
X188857000Y-88479000D02*
X189857000Y-88479000D01*
X189857000Y-89829000D02*
X188857000Y-89829000D01*
X192194500Y-74081000D02*
X191194500Y-74081000D01*
X191194500Y-72731000D02*
X192194500Y-72731000D01*
X188412500Y-72731000D02*
X189412500Y-72731000D01*
X189412500Y-74081000D02*
X188412500Y-74081000D01*
X192370660Y-68247260D02*
X192322400Y-68247260D01*
X189571680Y-68948300D02*
X189571680Y-68247260D01*
X189571680Y-68247260D02*
X189820600Y-68247260D01*
X192370660Y-68247260D02*
X192571320Y-68247260D01*
X192571320Y-68247260D02*
X192571320Y-68948300D01*
X192206500Y-72239500D02*
X191206500Y-72239500D01*
X191206500Y-70889500D02*
X192206500Y-70889500D01*
X187666000Y-103612000D02*
X187666000Y-102612000D01*
X189016000Y-102612000D02*
X189016000Y-103612000D01*
X188751160Y-68247260D02*
X188702900Y-68247260D01*
X185952180Y-68948300D02*
X185952180Y-68247260D01*
X185952180Y-68247260D02*
X186201100Y-68247260D01*
X188751160Y-68247260D02*
X188951820Y-68247260D01*
X188951820Y-68247260D02*
X188951820Y-68948300D01*
X200112000Y-106672000D02*
X200112000Y-105672000D01*
X201462000Y-105672000D02*
X201462000Y-106672000D01*
X199128000Y-71398000D02*
X198128000Y-71398000D01*
X199128000Y-68048000D02*
X198128000Y-68048000D01*
X199128000Y-75462000D02*
X198128000Y-75462000D01*
X199128000Y-72112000D02*
X198128000Y-72112000D01*
X199128000Y-80796000D02*
X198128000Y-80796000D01*
X199128000Y-77446000D02*
X198128000Y-77446000D01*
X206989514Y-63920667D02*
X207465705Y-63920667D01*
X206894276Y-64206381D02*
X207227609Y-63206381D01*
X207560943Y-64206381D01*
X207894276Y-64206381D02*
X207894276Y-63206381D01*
X208132371Y-63206381D01*
X208275229Y-63254000D01*
X208370467Y-63349238D01*
X208418086Y-63444476D01*
X208465705Y-63634952D01*
X208465705Y-63777810D01*
X208418086Y-63968286D01*
X208370467Y-64063524D01*
X208275229Y-64158762D01*
X208132371Y-64206381D01*
X207894276Y-64206381D01*
X209084752Y-63206381D02*
X209179991Y-63206381D01*
X209275229Y-63254000D01*
X209322848Y-63301619D01*
X209370467Y-63396857D01*
X209418086Y-63587333D01*
X209418086Y-63825429D01*
X209370467Y-64015905D01*
X209322848Y-64111143D01*
X209275229Y-64158762D01*
X209179991Y-64206381D01*
X209084752Y-64206381D01*
X208989514Y-64158762D01*
X208941895Y-64111143D01*
X208894276Y-64015905D01*
X208846657Y-63825429D01*
X208846657Y-63587333D01*
X208894276Y-63396857D01*
X208941895Y-63301619D01*
X208989514Y-63254000D01*
X209084752Y-63206381D01*
D11*
X185425443Y-67016086D02*
X185425443Y-66624200D01*
X186111243Y-66820143D02*
X185425443Y-66820143D01*
X185425443Y-66460915D02*
X186111243Y-66003715D01*
X185425443Y-66003715D02*
X186111243Y-66460915D01*
X185425443Y-65807772D02*
X185425443Y-65383229D01*
X185686700Y-65611829D01*
X185686700Y-65513857D01*
X185719357Y-65448543D01*
X185752014Y-65415886D01*
X185817329Y-65383229D01*
X185980614Y-65383229D01*
X186045929Y-65415886D01*
X186078586Y-65448543D01*
X186111243Y-65513857D01*
X186111243Y-65709800D01*
X186078586Y-65775114D01*
X186045929Y-65807772D01*
X188651243Y-66607872D02*
X188324671Y-66836472D01*
X188651243Y-66999757D02*
X187965443Y-66999757D01*
X187965443Y-66738500D01*
X187998100Y-66673186D01*
X188030757Y-66640529D01*
X188096071Y-66607872D01*
X188194043Y-66607872D01*
X188259357Y-66640529D01*
X188292014Y-66673186D01*
X188324671Y-66738500D01*
X188324671Y-66999757D01*
X187965443Y-66379272D02*
X188651243Y-65922072D01*
X187965443Y-65922072D02*
X188651243Y-66379272D01*
X187965443Y-65726129D02*
X187965443Y-65301586D01*
X188226700Y-65530186D01*
X188226700Y-65432214D01*
X188259357Y-65366900D01*
X188292014Y-65334243D01*
X188357329Y-65301586D01*
X188520614Y-65301586D01*
X188585929Y-65334243D01*
X188618586Y-65366900D01*
X188651243Y-65432214D01*
X188651243Y-65628157D01*
X188618586Y-65693471D01*
X188585929Y-65726129D01*
X190505443Y-67016086D02*
X190505443Y-66624200D01*
X191191243Y-66820143D02*
X190505443Y-66820143D01*
X190505443Y-66460915D02*
X191191243Y-66003715D01*
X190505443Y-66003715D02*
X191191243Y-66460915D01*
X190570757Y-65775114D02*
X190538100Y-65742457D01*
X190505443Y-65677143D01*
X190505443Y-65513857D01*
X190538100Y-65448543D01*
X190570757Y-65415886D01*
X190636071Y-65383229D01*
X190701386Y-65383229D01*
X190799357Y-65415886D01*
X191191243Y-65807772D01*
X191191243Y-65383229D01*
D10*
X216027096Y-103830500D02*
X215931858Y-103782881D01*
X215789001Y-103782881D01*
X215646143Y-103830500D01*
X215550905Y-103925738D01*
X215503286Y-104020976D01*
X215455667Y-104211452D01*
X215455667Y-104354310D01*
X215503286Y-104544786D01*
X215550905Y-104640024D01*
X215646143Y-104735262D01*
X215789001Y-104782881D01*
X215884239Y-104782881D01*
X216027096Y-104735262D01*
X216074715Y-104687643D01*
X216074715Y-104354310D01*
X215884239Y-104354310D01*
X216503286Y-104782881D02*
X216503286Y-103782881D01*
X217074715Y-104782881D01*
X217074715Y-103782881D01*
X217550905Y-104782881D02*
X217550905Y-103782881D01*
X217789000Y-103782881D01*
X217931858Y-103830500D01*
X218027096Y-103925738D01*
X218074715Y-104020976D01*
X218122334Y-104211452D01*
X218122334Y-104354310D01*
X218074715Y-104544786D01*
X218027096Y-104640024D01*
X217931858Y-104735262D01*
X217789000Y-104782881D01*
X217550905Y-104782881D01*
X216066762Y-102084143D02*
X216019143Y-102131762D01*
X215876286Y-102179381D01*
X215781048Y-102179381D01*
X215638190Y-102131762D01*
X215542952Y-102036524D01*
X215495333Y-101941286D01*
X215447714Y-101750810D01*
X215447714Y-101607952D01*
X215495333Y-101417476D01*
X215542952Y-101322238D01*
X215638190Y-101227000D01*
X215781048Y-101179381D01*
X215876286Y-101179381D01*
X216019143Y-101227000D01*
X216066762Y-101274619D01*
X216971524Y-102179381D02*
X216495333Y-102179381D01*
X216495333Y-101179381D01*
X217304857Y-102179381D02*
X217304857Y-101179381D01*
X217876286Y-102179381D02*
X217447714Y-101607952D01*
X217876286Y-101179381D02*
X217304857Y-101750810D01*
X216114381Y-97099381D02*
X215781047Y-96623190D01*
X215542952Y-97099381D02*
X215542952Y-96099381D01*
X215923905Y-96099381D01*
X216019143Y-96147000D01*
X216066762Y-96194619D01*
X216114381Y-96289857D01*
X216114381Y-96432714D01*
X216066762Y-96527952D01*
X216019143Y-96575571D01*
X215923905Y-96623190D01*
X215542952Y-96623190D01*
X216495333Y-97051762D02*
X216638190Y-97099381D01*
X216876286Y-97099381D01*
X216971524Y-97051762D01*
X217019143Y-97004143D01*
X217066762Y-96908905D01*
X217066762Y-96813667D01*
X217019143Y-96718429D01*
X216971524Y-96670810D01*
X216876286Y-96623190D01*
X216685809Y-96575571D01*
X216590571Y-96527952D01*
X216542952Y-96480333D01*
X216495333Y-96385095D01*
X216495333Y-96289857D01*
X216542952Y-96194619D01*
X216590571Y-96147000D01*
X216685809Y-96099381D01*
X216923905Y-96099381D01*
X217066762Y-96147000D01*
X217352476Y-96099381D02*
X217923905Y-96099381D01*
X217638190Y-97099381D02*
X217638190Y-96099381D01*
X215304857Y-95927000D02*
X218019143Y-95927000D01*
X215519143Y-94559381D02*
X215519143Y-93559381D01*
X215757238Y-93559381D01*
X215900096Y-93607000D01*
X215995334Y-93702238D01*
X216042953Y-93797476D01*
X216090572Y-93987952D01*
X216090572Y-94130810D01*
X216042953Y-94321286D01*
X215995334Y-94416524D01*
X215900096Y-94511762D01*
X215757238Y-94559381D01*
X215519143Y-94559381D01*
X216376286Y-93559381D02*
X216947715Y-93559381D01*
X216662000Y-94559381D02*
X216662000Y-93559381D01*
X217852477Y-94559381D02*
X217519143Y-94083190D01*
X217281048Y-94559381D02*
X217281048Y-93559381D01*
X217662001Y-93559381D01*
X217757239Y-93607000D01*
X217804858Y-93654619D01*
X217852477Y-93749857D01*
X217852477Y-93892714D01*
X217804858Y-93987952D01*
X217757239Y-94035571D01*
X217662001Y-94083190D01*
X217281048Y-94083190D01*
X217042953Y-93387000D02*
X218042953Y-93387000D01*
X206533929Y-97162881D02*
X206533929Y-96162881D01*
X207581548Y-97162881D02*
X207248214Y-96686690D01*
X207010119Y-97162881D02*
X207010119Y-96162881D01*
X207391072Y-96162881D01*
X207486310Y-96210500D01*
X207533929Y-96258119D01*
X207581548Y-96353357D01*
X207581548Y-96496214D01*
X207533929Y-96591452D01*
X207486310Y-96639071D01*
X207391072Y-96686690D01*
X207010119Y-96686690D01*
X208010119Y-97162881D02*
X208010119Y-96162881D01*
X208248214Y-96162881D01*
X208391072Y-96210500D01*
X208486310Y-96305738D01*
X208533929Y-96400976D01*
X208581548Y-96591452D01*
X208581548Y-96734310D01*
X208533929Y-96924786D01*
X208486310Y-97020024D01*
X208391072Y-97115262D01*
X208248214Y-97162881D01*
X208010119Y-97162881D01*
X209200595Y-96686690D02*
X209200595Y-97162881D01*
X208867262Y-96162881D02*
X209200595Y-96686690D01*
X209533929Y-96162881D01*
X215542929Y-85939381D02*
X215781024Y-86939381D01*
X215971501Y-86225095D01*
X216161977Y-86939381D01*
X216400072Y-85939381D01*
X217352453Y-86939381D02*
X217019119Y-86463190D01*
X216781024Y-86939381D02*
X216781024Y-85939381D01*
X217161977Y-85939381D01*
X217257215Y-85987000D01*
X217304834Y-86034619D01*
X217352453Y-86129857D01*
X217352453Y-86272714D01*
X217304834Y-86367952D01*
X217257215Y-86415571D01*
X217161977Y-86463190D01*
X216781024Y-86463190D01*
X215400072Y-85767000D02*
X217542929Y-85767000D01*
X208343524Y-86939381D02*
X208010190Y-86463190D01*
X207772095Y-86939381D02*
X207772095Y-85939381D01*
X208153048Y-85939381D01*
X208248286Y-85987000D01*
X208295905Y-86034619D01*
X208343524Y-86129857D01*
X208343524Y-86272714D01*
X208295905Y-86367952D01*
X208248286Y-86415571D01*
X208153048Y-86463190D01*
X207772095Y-86463190D01*
X208772095Y-86939381D02*
X208772095Y-85939381D01*
X209010190Y-85939381D01*
X209153048Y-85987000D01*
X209248286Y-86082238D01*
X209295905Y-86177476D01*
X209343524Y-86367952D01*
X209343524Y-86510810D01*
X209295905Y-86701286D01*
X209248286Y-86796524D01*
X209153048Y-86891762D01*
X209010190Y-86939381D01*
X208772095Y-86939381D01*
X207534000Y-85767000D02*
X209534000Y-85767000D01*
X215592162Y-84113667D02*
X216068353Y-84113667D01*
X215496924Y-84399381D02*
X215830257Y-83399381D01*
X216163591Y-84399381D01*
X216973115Y-84399381D02*
X216496924Y-84399381D01*
X216496924Y-83399381D01*
X217306448Y-83875571D02*
X217639782Y-83875571D01*
X217782639Y-84399381D02*
X217306448Y-84399381D01*
X217306448Y-83399381D01*
X217782639Y-83399381D01*
X215592114Y-81573667D02*
X216068305Y-81573667D01*
X215496876Y-81859381D02*
X215830209Y-80859381D01*
X216163543Y-81859381D01*
X216639733Y-81287952D02*
X216544495Y-81240333D01*
X216496876Y-81192714D01*
X216449257Y-81097476D01*
X216449257Y-81049857D01*
X216496876Y-80954619D01*
X216544495Y-80907000D01*
X216639733Y-80859381D01*
X216830210Y-80859381D01*
X216925448Y-80907000D01*
X216973067Y-80954619D01*
X217020686Y-81049857D01*
X217020686Y-81097476D01*
X216973067Y-81192714D01*
X216925448Y-81240333D01*
X216830210Y-81287952D01*
X216639733Y-81287952D01*
X216544495Y-81335571D01*
X216496876Y-81383190D01*
X216449257Y-81478429D01*
X216449257Y-81668905D01*
X216496876Y-81764143D01*
X216544495Y-81811762D01*
X216639733Y-81859381D01*
X216830210Y-81859381D01*
X216925448Y-81811762D01*
X216973067Y-81764143D01*
X217020686Y-81668905D01*
X217020686Y-81478429D01*
X216973067Y-81383190D01*
X216925448Y-81335571D01*
X216830210Y-81287952D01*
X207946714Y-81573667D02*
X208422905Y-81573667D01*
X207851476Y-81859381D02*
X208184809Y-80859381D01*
X208518143Y-81859381D01*
X208899095Y-81859381D02*
X209089571Y-81859381D01*
X209184810Y-81811762D01*
X209232429Y-81764143D01*
X209327667Y-81621286D01*
X209375286Y-81430810D01*
X209375286Y-81049857D01*
X209327667Y-80954619D01*
X209280048Y-80907000D01*
X209184810Y-80859381D01*
X208994333Y-80859381D01*
X208899095Y-80907000D01*
X208851476Y-80954619D01*
X208803857Y-81049857D01*
X208803857Y-81287952D01*
X208851476Y-81383190D01*
X208899095Y-81430810D01*
X208994333Y-81478429D01*
X209184810Y-81478429D01*
X209280048Y-81430810D01*
X209327667Y-81383190D01*
X209375286Y-81287952D01*
X215598524Y-79033667D02*
X216074715Y-79033667D01*
X215503286Y-79319381D02*
X215836619Y-78319381D01*
X216169953Y-79319381D01*
X217027096Y-79319381D02*
X216455667Y-79319381D01*
X216741381Y-79319381D02*
X216741381Y-78319381D01*
X216646143Y-78462238D01*
X216550905Y-78557476D01*
X216455667Y-78605095D01*
X217646143Y-78319381D02*
X217741382Y-78319381D01*
X217836620Y-78367000D01*
X217884239Y-78414619D01*
X217931858Y-78509857D01*
X217979477Y-78700333D01*
X217979477Y-78938429D01*
X217931858Y-79128905D01*
X217884239Y-79224143D01*
X217836620Y-79271762D01*
X217741382Y-79319381D01*
X217646143Y-79319381D01*
X217550905Y-79271762D01*
X217503286Y-79224143D01*
X217455667Y-79128905D01*
X217408048Y-78938429D01*
X217408048Y-78700333D01*
X217455667Y-78509857D01*
X217503286Y-78414619D01*
X217550905Y-78367000D01*
X217646143Y-78319381D01*
X206987924Y-79033667D02*
X207464115Y-79033667D01*
X206892686Y-79319381D02*
X207226019Y-78319381D01*
X207559353Y-79319381D01*
X208416496Y-79319381D02*
X207845067Y-79319381D01*
X208130781Y-79319381D02*
X208130781Y-78319381D01*
X208035543Y-78462238D01*
X207940305Y-78557476D01*
X207845067Y-78605095D01*
X209368877Y-79319381D02*
X208797448Y-79319381D01*
X209083162Y-79319381D02*
X209083162Y-78319381D01*
X208987924Y-78462238D01*
X208892686Y-78557476D01*
X208797448Y-78605095D01*
X215598524Y-76493667D02*
X216074715Y-76493667D01*
X215503286Y-76779381D02*
X215836619Y-75779381D01*
X216169953Y-76779381D01*
X217027096Y-76779381D02*
X216455667Y-76779381D01*
X216741381Y-76779381D02*
X216741381Y-75779381D01*
X216646143Y-75922238D01*
X216550905Y-76017476D01*
X216455667Y-76065095D01*
X217408048Y-75874619D02*
X217455667Y-75827000D01*
X217550905Y-75779381D01*
X217789001Y-75779381D01*
X217884239Y-75827000D01*
X217931858Y-75874619D01*
X217979477Y-75969857D01*
X217979477Y-76065095D01*
X217931858Y-76207952D01*
X217360429Y-76779381D01*
X217979477Y-76779381D01*
X206987924Y-76493667D02*
X207464115Y-76493667D01*
X206892686Y-76779381D02*
X207226019Y-75779381D01*
X207559353Y-76779381D01*
X208416496Y-76779381D02*
X207845067Y-76779381D01*
X208130781Y-76779381D02*
X208130781Y-75779381D01*
X208035543Y-75922238D01*
X207940305Y-76017476D01*
X207845067Y-76065095D01*
X208749829Y-75779381D02*
X209368877Y-75779381D01*
X209035543Y-76160333D01*
X209178401Y-76160333D01*
X209273639Y-76207952D01*
X209321258Y-76255571D01*
X209368877Y-76350810D01*
X209368877Y-76588905D01*
X209321258Y-76684143D01*
X209273639Y-76731762D01*
X209178401Y-76779381D01*
X208892686Y-76779381D01*
X208797448Y-76731762D01*
X208749829Y-76684143D01*
X215598524Y-73953667D02*
X216074715Y-73953667D01*
X215503286Y-74239381D02*
X215836619Y-73239381D01*
X216169953Y-74239381D01*
X217027096Y-74239381D02*
X216455667Y-74239381D01*
X216741381Y-74239381D02*
X216741381Y-73239381D01*
X216646143Y-73382238D01*
X216550905Y-73477476D01*
X216455667Y-73525095D01*
X217884239Y-73572714D02*
X217884239Y-74239381D01*
X217646143Y-73191762D02*
X217408048Y-73906048D01*
X218027096Y-73906048D01*
X206987924Y-73979067D02*
X207464115Y-73979067D01*
X206892686Y-74264781D02*
X207226019Y-73264781D01*
X207559353Y-74264781D01*
X208416496Y-74264781D02*
X207845067Y-74264781D01*
X208130781Y-74264781D02*
X208130781Y-73264781D01*
X208035543Y-73407638D01*
X207940305Y-73502876D01*
X207845067Y-73550495D01*
X209321258Y-73264781D02*
X208845067Y-73264781D01*
X208797448Y-73740971D01*
X208845067Y-73693352D01*
X208940305Y-73645733D01*
X209178401Y-73645733D01*
X209273639Y-73693352D01*
X209321258Y-73740971D01*
X209368877Y-73836210D01*
X209368877Y-74074305D01*
X209321258Y-74169543D01*
X209273639Y-74217162D01*
X209178401Y-74264781D01*
X208940305Y-74264781D01*
X208845067Y-74217162D01*
X208797448Y-74169543D01*
X206989514Y-71413667D02*
X207465705Y-71413667D01*
X206894276Y-71699381D02*
X207227609Y-70699381D01*
X207560943Y-71699381D01*
X207894276Y-71699381D02*
X207894276Y-70699381D01*
X208132371Y-70699381D01*
X208275229Y-70747000D01*
X208370467Y-70842238D01*
X208418086Y-70937476D01*
X208465705Y-71127952D01*
X208465705Y-71270810D01*
X208418086Y-71461286D01*
X208370467Y-71556524D01*
X208275229Y-71651762D01*
X208132371Y-71699381D01*
X207894276Y-71699381D01*
X209322848Y-70699381D02*
X209132371Y-70699381D01*
X209037133Y-70747000D01*
X208989514Y-70794619D01*
X208894276Y-70937476D01*
X208846657Y-71127952D01*
X208846657Y-71508905D01*
X208894276Y-71604143D01*
X208941895Y-71651762D01*
X209037133Y-71699381D01*
X209227610Y-71699381D01*
X209322848Y-71651762D01*
X209370467Y-71604143D01*
X209418086Y-71508905D01*
X209418086Y-71270810D01*
X209370467Y-71175571D01*
X209322848Y-71127952D01*
X209227610Y-71080333D01*
X209037133Y-71080333D01*
X208941895Y-71127952D01*
X208894276Y-71175571D01*
X208846657Y-71270810D01*
X206989514Y-68873667D02*
X207465705Y-68873667D01*
X206894276Y-69159381D02*
X207227609Y-68159381D01*
X207560943Y-69159381D01*
X207894276Y-69159381D02*
X207894276Y-68159381D01*
X208132371Y-68159381D01*
X208275229Y-68207000D01*
X208370467Y-68302238D01*
X208418086Y-68397476D01*
X208465705Y-68587952D01*
X208465705Y-68730810D01*
X208418086Y-68921286D01*
X208370467Y-69016524D01*
X208275229Y-69111762D01*
X208132371Y-69159381D01*
X207894276Y-69159381D01*
X209322848Y-68492714D02*
X209322848Y-69159381D01*
X209084752Y-68111762D02*
X208846657Y-68826048D01*
X209465705Y-68826048D01*
X206989514Y-66333667D02*
X207465705Y-66333667D01*
X206894276Y-66619381D02*
X207227609Y-65619381D01*
X207560943Y-66619381D01*
X207894276Y-66619381D02*
X207894276Y-65619381D01*
X208132371Y-65619381D01*
X208275229Y-65667000D01*
X208370467Y-65762238D01*
X208418086Y-65857476D01*
X208465705Y-66047952D01*
X208465705Y-66190810D01*
X208418086Y-66381286D01*
X208370467Y-66476524D01*
X208275229Y-66571762D01*
X208132371Y-66619381D01*
X207894276Y-66619381D01*
X208846657Y-65714619D02*
X208894276Y-65667000D01*
X208989514Y-65619381D01*
X209227610Y-65619381D01*
X209322848Y-65667000D01*
X209370467Y-65714619D01*
X209418086Y-65809857D01*
X209418086Y-65905095D01*
X209370467Y-66047952D01*
X208799038Y-66619381D01*
X209418086Y-66619381D01*
X203128619Y-64388905D02*
X203081000Y-64341286D01*
X203033381Y-64246048D01*
X203033381Y-64007952D01*
X203081000Y-63912714D01*
X203128619Y-63865095D01*
X203223857Y-63817476D01*
X203319095Y-63817476D01*
X203461952Y-63865095D01*
X204033381Y-64436524D01*
X204033381Y-63817476D01*
X204033381Y-62865095D02*
X204033381Y-63436524D01*
X204033381Y-63150810D02*
X203033381Y-63150810D01*
X203176238Y-63246048D01*
X203271476Y-63341286D01*
X203319095Y-63436524D01*
X200588619Y-64388905D02*
X200541000Y-64341286D01*
X200493381Y-64246048D01*
X200493381Y-64007952D01*
X200541000Y-63912714D01*
X200588619Y-63865095D01*
X200683857Y-63817476D01*
X200779095Y-63817476D01*
X200921952Y-63865095D01*
X201493381Y-64436524D01*
X201493381Y-63817476D01*
X200493381Y-63198429D02*
X200493381Y-63103190D01*
X200541000Y-63007952D01*
X200588619Y-62960333D01*
X200683857Y-62912714D01*
X200874333Y-62865095D01*
X201112429Y-62865095D01*
X201302905Y-62912714D01*
X201398143Y-62960333D01*
X201445762Y-63007952D01*
X201493381Y-63103190D01*
X201493381Y-63198429D01*
X201445762Y-63293667D01*
X201398143Y-63341286D01*
X201302905Y-63388905D01*
X201112429Y-63436524D01*
X200874333Y-63436524D01*
X200683857Y-63388905D01*
X200588619Y-63341286D01*
X200541000Y-63293667D01*
X200493381Y-63198429D01*
X198953381Y-63817476D02*
X198953381Y-64388905D01*
X198953381Y-64103191D02*
X197953381Y-64103191D01*
X198096238Y-64198429D01*
X198191476Y-64293667D01*
X198239095Y-64388905D01*
X198953381Y-63341286D02*
X198953381Y-63150810D01*
X198905762Y-63055571D01*
X198858143Y-63007952D01*
X198715286Y-62912714D01*
X198524810Y-62865095D01*
X198143857Y-62865095D01*
X198048619Y-62912714D01*
X198001000Y-62960333D01*
X197953381Y-63055571D01*
X197953381Y-63246048D01*
X198001000Y-63341286D01*
X198048619Y-63388905D01*
X198143857Y-63436524D01*
X198381952Y-63436524D01*
X198477190Y-63388905D01*
X198524810Y-63341286D01*
X198572429Y-63246048D01*
X198572429Y-63055571D01*
X198524810Y-62960333D01*
X198477190Y-62912714D01*
X198381952Y-62865095D01*
X196413381Y-63817476D02*
X196413381Y-64388905D01*
X196413381Y-64103191D02*
X195413381Y-64103191D01*
X195556238Y-64198429D01*
X195651476Y-64293667D01*
X195699095Y-64388905D01*
X195841952Y-63246048D02*
X195794333Y-63341286D01*
X195746714Y-63388905D01*
X195651476Y-63436524D01*
X195603857Y-63436524D01*
X195508619Y-63388905D01*
X195461000Y-63341286D01*
X195413381Y-63246048D01*
X195413381Y-63055571D01*
X195461000Y-62960333D01*
X195508619Y-62912714D01*
X195603857Y-62865095D01*
X195651476Y-62865095D01*
X195746714Y-62912714D01*
X195794333Y-62960333D01*
X195841952Y-63055571D01*
X195841952Y-63246048D01*
X195889571Y-63341286D01*
X195937190Y-63388905D01*
X196032429Y-63436524D01*
X196222905Y-63436524D01*
X196318143Y-63388905D01*
X196365762Y-63341286D01*
X196413381Y-63246048D01*
X196413381Y-63055571D01*
X196365762Y-62960333D01*
X196318143Y-62912714D01*
X196222905Y-62865095D01*
X196032429Y-62865095D01*
X195937190Y-62912714D01*
X195889571Y-62960333D01*
X195841952Y-63055571D01*
X193873381Y-63817476D02*
X193873381Y-64388905D01*
X193873381Y-64103191D02*
X192873381Y-64103191D01*
X193016238Y-64198429D01*
X193111476Y-64293667D01*
X193159095Y-64388905D01*
X192873381Y-63484143D02*
X192873381Y-62817476D01*
X193873381Y-63246048D01*
X191333381Y-63817476D02*
X191333381Y-64388905D01*
X191333381Y-64103191D02*
X190333381Y-64103191D01*
X190476238Y-64198429D01*
X190571476Y-64293667D01*
X190619095Y-64388905D01*
X190333381Y-62960333D02*
X190333381Y-63150810D01*
X190381000Y-63246048D01*
X190428619Y-63293667D01*
X190571476Y-63388905D01*
X190761952Y-63436524D01*
X191142905Y-63436524D01*
X191238143Y-63388905D01*
X191285762Y-63341286D01*
X191333381Y-63246048D01*
X191333381Y-63055571D01*
X191285762Y-62960333D01*
X191238143Y-62912714D01*
X191142905Y-62865095D01*
X190904810Y-62865095D01*
X190809571Y-62912714D01*
X190761952Y-62960333D01*
X190714333Y-63055571D01*
X190714333Y-63246048D01*
X190761952Y-63341286D01*
X190809571Y-63388905D01*
X190904810Y-63436524D01*
X188793381Y-63817476D02*
X188793381Y-64388905D01*
X188793381Y-64103191D02*
X187793381Y-64103191D01*
X187936238Y-64198429D01*
X188031476Y-64293667D01*
X188079095Y-64388905D01*
X187793381Y-62912714D02*
X187793381Y-63388905D01*
X188269571Y-63436524D01*
X188221952Y-63388905D01*
X188174333Y-63293667D01*
X188174333Y-63055571D01*
X188221952Y-62960333D01*
X188269571Y-62912714D01*
X188364810Y-62865095D01*
X188602905Y-62865095D01*
X188698143Y-62912714D01*
X188745762Y-62960333D01*
X188793381Y-63055571D01*
X188793381Y-63293667D01*
X188745762Y-63388905D01*
X188698143Y-63436524D01*
X186253381Y-63817476D02*
X186253381Y-64388905D01*
X186253381Y-64103191D02*
X185253381Y-64103191D01*
X185396238Y-64198429D01*
X185491476Y-64293667D01*
X185539095Y-64388905D01*
X185586714Y-62960333D02*
X186253381Y-62960333D01*
X185205762Y-63198429D02*
X185920048Y-63436524D01*
X185920048Y-62817476D01*
D12*
X199887114Y-88954428D02*
X199125114Y-88954428D01*
X199125114Y-88664143D01*
X199161400Y-88591571D01*
X199197686Y-88555286D01*
X199270257Y-88519000D01*
X199379114Y-88519000D01*
X199451686Y-88555286D01*
X199487971Y-88591571D01*
X199524257Y-88664143D01*
X199524257Y-88954428D01*
X199887114Y-87793286D02*
X199887114Y-88228714D01*
X199887114Y-88011000D02*
X199125114Y-88011000D01*
X199233971Y-88083571D01*
X199306543Y-88156143D01*
X199342829Y-88228714D01*
X203571929Y-99785714D02*
X203317929Y-99422857D01*
X203136501Y-99785714D02*
X203136501Y-99023714D01*
X203426786Y-99023714D01*
X203499358Y-99060000D01*
X203535643Y-99096286D01*
X203571929Y-99168857D01*
X203571929Y-99277714D01*
X203535643Y-99350286D01*
X203499358Y-99386571D01*
X203426786Y-99422857D01*
X203136501Y-99422857D01*
X203789643Y-99023714D02*
X204043643Y-99785714D01*
X204297643Y-99023714D01*
X204950786Y-99785714D02*
X204515358Y-99785714D01*
X204733072Y-99785714D02*
X204733072Y-99023714D01*
X204660501Y-99132571D01*
X204587929Y-99205143D01*
X204515358Y-99241429D01*
X203508429Y-94451714D02*
X203508429Y-95068571D01*
X203544714Y-95141143D01*
X203581000Y-95177429D01*
X203653571Y-95213714D01*
X203798714Y-95213714D01*
X203871286Y-95177429D01*
X203907571Y-95141143D01*
X203943857Y-95068571D01*
X203943857Y-94451714D01*
X204705857Y-95213714D02*
X204270429Y-95213714D01*
X204488143Y-95213714D02*
X204488143Y-94451714D01*
X204415572Y-94560571D01*
X204343000Y-94633143D01*
X204270429Y-94669429D01*
X188558714Y-87049428D02*
X187796714Y-87049428D01*
X187796714Y-86759143D01*
X187833000Y-86686571D01*
X187869286Y-86650286D01*
X187941857Y-86614000D01*
X188050714Y-86614000D01*
X188123286Y-86650286D01*
X188159571Y-86686571D01*
X188195857Y-86759143D01*
X188195857Y-87049428D01*
X187796714Y-86360000D02*
X187796714Y-85888286D01*
X188087000Y-86142286D01*
X188087000Y-86033428D01*
X188123286Y-85960857D01*
X188159571Y-85924571D01*
X188232143Y-85888286D01*
X188413571Y-85888286D01*
X188486143Y-85924571D01*
X188522429Y-85960857D01*
X188558714Y-86033428D01*
X188558714Y-86251143D01*
X188522429Y-86323714D01*
X188486143Y-86360000D01*
X189066714Y-106861428D02*
X188304714Y-106861428D01*
X188304714Y-106571143D01*
X188341000Y-106498571D01*
X188377286Y-106462286D01*
X188449857Y-106426000D01*
X188558714Y-106426000D01*
X188631286Y-106462286D01*
X188667571Y-106498571D01*
X188703857Y-106571143D01*
X188703857Y-106861428D01*
X188558714Y-105772857D02*
X189066714Y-105772857D01*
X188268429Y-105954286D02*
X188812714Y-106135714D01*
X188812714Y-105664000D01*
X195569114Y-71704200D02*
X195206257Y-71958200D01*
X195569114Y-72139628D02*
X194807114Y-72139628D01*
X194807114Y-71849343D01*
X194843400Y-71776771D01*
X194879686Y-71740486D01*
X194952257Y-71704200D01*
X195061114Y-71704200D01*
X195133686Y-71740486D01*
X195169971Y-71776771D01*
X195206257Y-71849343D01*
X195206257Y-72139628D01*
X194807114Y-71014771D02*
X194807114Y-71377628D01*
X195169971Y-71413914D01*
X195133686Y-71377628D01*
X195097400Y-71305057D01*
X195097400Y-71123628D01*
X195133686Y-71051057D01*
X195169971Y-71014771D01*
X195242543Y-70978486D01*
X195423971Y-70978486D01*
X195496543Y-71014771D01*
X195532829Y-71051057D01*
X195569114Y-71123628D01*
X195569114Y-71305057D01*
X195532829Y-71377628D01*
X195496543Y-71413914D01*
X205504143Y-92138500D02*
X205540429Y-92174786D01*
X205576714Y-92283643D01*
X205576714Y-92356214D01*
X205540429Y-92465071D01*
X205467857Y-92537643D01*
X205395286Y-92573928D01*
X205250143Y-92610214D01*
X205141286Y-92610214D01*
X204996143Y-92573928D01*
X204923571Y-92537643D01*
X204851000Y-92465071D01*
X204814714Y-92356214D01*
X204814714Y-92283643D01*
X204851000Y-92174786D01*
X204887286Y-92138500D01*
X205576714Y-91412786D02*
X205576714Y-91848214D01*
X205576714Y-91630500D02*
X204814714Y-91630500D01*
X204923571Y-91703071D01*
X204996143Y-91775643D01*
X205032429Y-91848214D01*
X192169143Y-89662000D02*
X192205429Y-89698286D01*
X192241714Y-89807143D01*
X192241714Y-89879714D01*
X192205429Y-89988571D01*
X192132857Y-90061143D01*
X192060286Y-90097428D01*
X191915143Y-90133714D01*
X191806286Y-90133714D01*
X191661143Y-90097428D01*
X191588571Y-90061143D01*
X191516000Y-89988571D01*
X191479714Y-89879714D01*
X191479714Y-89807143D01*
X191516000Y-89698286D01*
X191552286Y-89662000D01*
X191552286Y-89371714D02*
X191516000Y-89335428D01*
X191479714Y-89262857D01*
X191479714Y-89081428D01*
X191516000Y-89008857D01*
X191552286Y-88972571D01*
X191624857Y-88936286D01*
X191697429Y-88936286D01*
X191806286Y-88972571D01*
X192241714Y-89408000D01*
X192241714Y-88936286D01*
X188613143Y-99822000D02*
X188649429Y-99858286D01*
X188685714Y-99967143D01*
X188685714Y-100039714D01*
X188649429Y-100148571D01*
X188576857Y-100221143D01*
X188504286Y-100257428D01*
X188359143Y-100293714D01*
X188250286Y-100293714D01*
X188105143Y-100257428D01*
X188032571Y-100221143D01*
X187960000Y-100148571D01*
X187923714Y-100039714D01*
X187923714Y-99967143D01*
X187960000Y-99858286D01*
X187996286Y-99822000D01*
X187923714Y-99568000D02*
X187923714Y-99096286D01*
X188214000Y-99350286D01*
X188214000Y-99241428D01*
X188250286Y-99168857D01*
X188286571Y-99132571D01*
X188359143Y-99096286D01*
X188540571Y-99096286D01*
X188613143Y-99132571D01*
X188649429Y-99168857D01*
X188685714Y-99241428D01*
X188685714Y-99459143D01*
X188649429Y-99531714D01*
X188613143Y-99568000D01*
X201549000Y-104412143D02*
X201512714Y-104448429D01*
X201403857Y-104484714D01*
X201331286Y-104484714D01*
X201222429Y-104448429D01*
X201149857Y-104375857D01*
X201113572Y-104303286D01*
X201077286Y-104158143D01*
X201077286Y-104049286D01*
X201113572Y-103904143D01*
X201149857Y-103831571D01*
X201222429Y-103759000D01*
X201331286Y-103722714D01*
X201403857Y-103722714D01*
X201512714Y-103759000D01*
X201549000Y-103795286D01*
X202202143Y-103976714D02*
X202202143Y-104484714D01*
X202020714Y-103686429D02*
X201839286Y-104230714D01*
X202311000Y-104230714D01*
X189484000Y-91213214D02*
X189230000Y-90850357D01*
X189048572Y-91213214D02*
X189048572Y-90451214D01*
X189338857Y-90451214D01*
X189411429Y-90487500D01*
X189447714Y-90523786D01*
X189484000Y-90596357D01*
X189484000Y-90705214D01*
X189447714Y-90777786D01*
X189411429Y-90814071D01*
X189338857Y-90850357D01*
X189048572Y-90850357D01*
X189774286Y-90523786D02*
X189810572Y-90487500D01*
X189883143Y-90451214D01*
X190064572Y-90451214D01*
X190137143Y-90487500D01*
X190173429Y-90523786D01*
X190209714Y-90596357D01*
X190209714Y-90668929D01*
X190173429Y-90777786D01*
X189738000Y-91213214D01*
X190209714Y-91213214D01*
X194248314Y-73533000D02*
X193885457Y-73787000D01*
X194248314Y-73968428D02*
X193486314Y-73968428D01*
X193486314Y-73678143D01*
X193522600Y-73605571D01*
X193558886Y-73569286D01*
X193631457Y-73533000D01*
X193740314Y-73533000D01*
X193812886Y-73569286D01*
X193849171Y-73605571D01*
X193885457Y-73678143D01*
X193885457Y-73968428D01*
X193486314Y-73279000D02*
X193486314Y-72807286D01*
X193776600Y-73061286D01*
X193776600Y-72952428D01*
X193812886Y-72879857D01*
X193849171Y-72843571D01*
X193921743Y-72807286D01*
X194103171Y-72807286D01*
X194175743Y-72843571D01*
X194212029Y-72879857D01*
X194248314Y-72952428D01*
X194248314Y-73170143D01*
X194212029Y-73242714D01*
X194175743Y-73279000D01*
X188431714Y-75501500D02*
X188068857Y-75755500D01*
X188431714Y-75936928D02*
X187669714Y-75936928D01*
X187669714Y-75646643D01*
X187706000Y-75574071D01*
X187742286Y-75537786D01*
X187814857Y-75501500D01*
X187923714Y-75501500D01*
X187996286Y-75537786D01*
X188032571Y-75574071D01*
X188068857Y-75646643D01*
X188068857Y-75936928D01*
X187923714Y-74848357D02*
X188431714Y-74848357D01*
X187633429Y-75029786D02*
X188177714Y-75211214D01*
X188177714Y-74739500D01*
X195362286Y-69605071D02*
X195326000Y-69677643D01*
X195253429Y-69750214D01*
X195144571Y-69859071D01*
X195108286Y-69931643D01*
X195108286Y-70004214D01*
X195289714Y-69967929D02*
X195253429Y-70040500D01*
X195180857Y-70113071D01*
X195035714Y-70149357D01*
X194781714Y-70149357D01*
X194636571Y-70113071D01*
X194564000Y-70040500D01*
X194527714Y-69967929D01*
X194527714Y-69822786D01*
X194564000Y-69750214D01*
X194636571Y-69677643D01*
X194781714Y-69641357D01*
X195035714Y-69641357D01*
X195180857Y-69677643D01*
X195253429Y-69750214D01*
X195289714Y-69822786D01*
X195289714Y-69967929D01*
X194600286Y-69351071D02*
X194564000Y-69314785D01*
X194527714Y-69242214D01*
X194527714Y-69060785D01*
X194564000Y-68988214D01*
X194600286Y-68951928D01*
X194672857Y-68915643D01*
X194745429Y-68915643D01*
X194854286Y-68951928D01*
X195289714Y-69387357D01*
X195289714Y-68915643D01*
X194273714Y-71704200D02*
X193910857Y-71958200D01*
X194273714Y-72139628D02*
X193511714Y-72139628D01*
X193511714Y-71849343D01*
X193548000Y-71776771D01*
X193584286Y-71740486D01*
X193656857Y-71704200D01*
X193765714Y-71704200D01*
X193838286Y-71740486D01*
X193874571Y-71776771D01*
X193910857Y-71849343D01*
X193910857Y-72139628D01*
X193511714Y-71051057D02*
X193511714Y-71196200D01*
X193548000Y-71268771D01*
X193584286Y-71305057D01*
X193693143Y-71377628D01*
X193838286Y-71413914D01*
X194128571Y-71413914D01*
X194201143Y-71377628D01*
X194237429Y-71341343D01*
X194273714Y-71268771D01*
X194273714Y-71123628D01*
X194237429Y-71051057D01*
X194201143Y-71014771D01*
X194128571Y-70978486D01*
X193947143Y-70978486D01*
X193874571Y-71014771D01*
X193838286Y-71051057D01*
X193802000Y-71123628D01*
X193802000Y-71268771D01*
X193838286Y-71341343D01*
X193874571Y-71377628D01*
X193947143Y-71413914D01*
X190311314Y-103239000D02*
X189948457Y-103493000D01*
X190311314Y-103674428D02*
X189549314Y-103674428D01*
X189549314Y-103384143D01*
X189585600Y-103311571D01*
X189621886Y-103275286D01*
X189694457Y-103239000D01*
X189803314Y-103239000D01*
X189875886Y-103275286D01*
X189912171Y-103311571D01*
X189948457Y-103384143D01*
X189948457Y-103674428D01*
X189549314Y-102985000D02*
X189549314Y-102477000D01*
X190311314Y-102803571D01*
X194041486Y-69605071D02*
X194005200Y-69677643D01*
X193932629Y-69750214D01*
X193823771Y-69859071D01*
X193787486Y-69931643D01*
X193787486Y-70004214D01*
X193968914Y-69967929D02*
X193932629Y-70040500D01*
X193860057Y-70113071D01*
X193714914Y-70149357D01*
X193460914Y-70149357D01*
X193315771Y-70113071D01*
X193243200Y-70040500D01*
X193206914Y-69967929D01*
X193206914Y-69822786D01*
X193243200Y-69750214D01*
X193315771Y-69677643D01*
X193460914Y-69641357D01*
X193714914Y-69641357D01*
X193860057Y-69677643D01*
X193932629Y-69750214D01*
X193968914Y-69822786D01*
X193968914Y-69967929D01*
X193968914Y-68915643D02*
X193968914Y-69351071D01*
X193968914Y-69133357D02*
X193206914Y-69133357D01*
X193315771Y-69205928D01*
X193388343Y-69278500D01*
X193424629Y-69351071D01*
X202846214Y-106616500D02*
X202483357Y-106870500D01*
X202846214Y-107051928D02*
X202084214Y-107051928D01*
X202084214Y-106761643D01*
X202120500Y-106689071D01*
X202156786Y-106652786D01*
X202229357Y-106616500D01*
X202338214Y-106616500D01*
X202410786Y-106652786D01*
X202447071Y-106689071D01*
X202483357Y-106761643D01*
X202483357Y-107051928D01*
X202410786Y-106181071D02*
X202374500Y-106253643D01*
X202338214Y-106289928D01*
X202265643Y-106326214D01*
X202229357Y-106326214D01*
X202156786Y-106289928D01*
X202120500Y-106253643D01*
X202084214Y-106181071D01*
X202084214Y-106035928D01*
X202120500Y-105963357D01*
X202156786Y-105927071D01*
X202229357Y-105890786D01*
X202265643Y-105890786D01*
X202338214Y-105927071D01*
X202374500Y-105963357D01*
X202410786Y-106035928D01*
X202410786Y-106181071D01*
X202447071Y-106253643D01*
X202483357Y-106289928D01*
X202555929Y-106326214D01*
X202701071Y-106326214D01*
X202773643Y-106289928D01*
X202809929Y-106253643D01*
X202846214Y-106181071D01*
X202846214Y-106035928D01*
X202809929Y-105963357D01*
X202773643Y-105927071D01*
X202701071Y-105890786D01*
X202555929Y-105890786D01*
X202483357Y-105927071D01*
X202447071Y-105963357D01*
X202410786Y-106035928D01*
X198174429Y-82513714D02*
X197920429Y-82150857D01*
X197739001Y-82513714D02*
X197739001Y-81751714D01*
X198029286Y-81751714D01*
X198101858Y-81788000D01*
X198138143Y-81824286D01*
X198174429Y-81896857D01*
X198174429Y-82005714D01*
X198138143Y-82078286D01*
X198101858Y-82114571D01*
X198029286Y-82150857D01*
X197739001Y-82150857D01*
X198464715Y-82296000D02*
X198827572Y-82296000D01*
X198392143Y-82513714D02*
X198646143Y-81751714D01*
X198900143Y-82513714D01*
X199553286Y-82513714D02*
X199117858Y-82513714D01*
X199335572Y-82513714D02*
X199335572Y-81751714D01*
X199263001Y-81860571D01*
X199190429Y-81933143D01*
X199117858Y-81969429D01*
X198174429Y-83783714D02*
X197920429Y-83420857D01*
X197739001Y-83783714D02*
X197739001Y-83021714D01*
X198029286Y-83021714D01*
X198101858Y-83058000D01*
X198138143Y-83094286D01*
X198174429Y-83166857D01*
X198174429Y-83275714D01*
X198138143Y-83348286D01*
X198101858Y-83384571D01*
X198029286Y-83420857D01*
X197739001Y-83420857D01*
X198464715Y-83566000D02*
X198827572Y-83566000D01*
X198392143Y-83783714D02*
X198646143Y-83021714D01*
X198900143Y-83783714D01*
X199117858Y-83094286D02*
X199154144Y-83058000D01*
X199226715Y-83021714D01*
X199408144Y-83021714D01*
X199480715Y-83058000D01*
X199517001Y-83094286D01*
X199553286Y-83166857D01*
X199553286Y-83239429D01*
X199517001Y-83348286D01*
X199081572Y-83783714D01*
X199553286Y-83783714D01*
X198174429Y-85053714D02*
X197920429Y-84690857D01*
X197739001Y-85053714D02*
X197739001Y-84291714D01*
X198029286Y-84291714D01*
X198101858Y-84328000D01*
X198138143Y-84364286D01*
X198174429Y-84436857D01*
X198174429Y-84545714D01*
X198138143Y-84618286D01*
X198101858Y-84654571D01*
X198029286Y-84690857D01*
X197739001Y-84690857D01*
X198464715Y-84836000D02*
X198827572Y-84836000D01*
X198392143Y-85053714D02*
X198646143Y-84291714D01*
X198900143Y-85053714D01*
X199081572Y-84291714D02*
X199553286Y-84291714D01*
X199299286Y-84582000D01*
X199408144Y-84582000D01*
X199480715Y-84618286D01*
X199517001Y-84654571D01*
X199553286Y-84727143D01*
X199553286Y-84908571D01*
X199517001Y-84981143D01*
X199480715Y-85017429D01*
X199408144Y-85053714D01*
X199190429Y-85053714D01*
X199117858Y-85017429D01*
X199081572Y-84981143D01*
M02*
