M48
;DRILL file {KiCad 4.0.1-stable} date 09/03/2016 14:26:44
;FORMAT={-:-/ absolute / inch / decimal}
FMAT,2
INCH,TZ
T1C0.020
T2C0.032
%
G90
G05
M72
T1
X7.32Y-4.3425
X7.36Y-2.625
X7.36Y-2.5125
X7.3675Y-2.8475
X7.3875Y-4.3425
X7.395Y-3.4575
X7.4025Y-3.0164
X7.4075Y-2.9275
X7.424Y-3.5959
X7.424Y-3.7571
X7.425Y-3.5629
X7.4375Y-3.7875
X7.439Y-3.9748
X7.465Y-3.469
X7.48Y-2.9275
X7.48Y-2.67
X7.485Y-3.55
X7.5116Y-4.102
X7.535Y-3.893
X7.5375Y-3.4375
X7.545Y-3.704
X7.545Y-2.9275
X7.548Y-3.8365
X7.5529Y-3.8039
X7.555Y-3.94
X7.56Y-3.7539
X7.5725Y-2.95
X7.5885Y-3.525
X7.59Y-3.6625
X7.6152Y-3.8327
X7.6275Y-3.6625
X7.6621Y-3.8796
X7.6655Y-3.6625
X7.6756Y-3.9127
X7.681Y-4.103
X7.6925Y-3.32
X7.6925Y-3.3575
X7.6925Y-3.3975
X7.6975Y-3.435
X7.7075Y-3.9211
X7.7125Y-3.75
X7.7125Y-3.8575
X7.714Y-4.1026
X7.715Y-2.6978
X7.73Y-3.67
X7.735Y-2.7293
X7.745Y-2.8893
X7.748Y-4.102
X7.755Y-2.7607
X7.76Y-2.8578
X7.76Y-2.9207
X7.7625Y-2.9675
X7.765Y-3.3575
X7.765Y-3.4275
X7.7774Y-3.5576
X7.78Y-3.035
X7.78Y-3.205
X7.78Y-3.52
X7.78Y-3.66
X7.78Y-3.745
X7.7825Y-3.4575
X7.795Y-4.215
X7.81Y-3.235
X7.81Y-4.11
X7.82Y-3.035
X7.8325Y-3.66
X7.85Y-2.65
X7.8608Y-4.1338
X7.87Y-2.61
X7.8775Y-3.895
X7.9Y-2.58
X7.9075Y-4.0475
X7.9275Y-3.53
X7.937Y-4.063
X7.9625Y-3.63
X7.9715Y-4.1941
X8.0078Y-4.1356
X8.0275Y-3.5675
X8.0425Y-3.8875
X8.055Y-3.5675
X8.055Y-3.622
X8.065Y-2.405
X8.076Y-3.798
X8.09Y-2.33
X8.09Y-2.48
X8.0903Y-3.8626
X8.115Y-2.65
X8.1241Y-3.8641
X8.1325Y-2.96
X8.1325Y-3.02
X8.145Y-3.8019
X8.155Y-2.65
X8.155Y-3.8358
X8.165Y-2.505
X8.1738Y-2.7937
X8.175Y-3.862
X8.19Y-3.935
X8.205Y-2.7625
X8.205Y-2.825
X8.24Y-2.33
X8.24Y-2.48
X8.265Y-2.405
X8.315Y-4.305
X8.34Y-4.23
X8.415Y-4.205
X8.49Y-4.23
X8.495Y-2.955
X8.495Y-3.055
X8.495Y-3.155
X8.495Y-3.3505
X8.495Y-3.455
X8.495Y-3.555
X8.515Y-4.305
T2
X7.315Y-2.405
X7.415Y-2.405
X7.49Y-3.005
X7.49Y-3.105
X7.49Y-3.205
X7.49Y-3.305
X7.49Y-3.405
X7.515Y-2.405
X7.515Y-4.18
X7.515Y-4.305
X7.59Y-3.005
X7.59Y-3.105
X7.59Y-3.205
X7.59Y-3.305
X7.59Y-3.405
X7.615Y-2.405
X7.615Y-2.605
X7.615Y-4.18
X7.615Y-4.305
X7.715Y-2.405
X7.715Y-2.605
X7.715Y-4.18
X7.715Y-4.305
X7.815Y-2.405
X7.815Y-4.305
X7.915Y-2.405
X7.915Y-4.305
X7.94Y-2.655
X7.94Y-2.755
X7.94Y-2.855
X7.94Y-2.955
X7.94Y-3.055
X7.94Y-3.155
X7.94Y-3.255
X7.94Y-3.355
X7.94Y-3.455
X8.015Y-2.405
X8.015Y-4.305
X8.04Y-2.655
X8.04Y-2.755
X8.04Y-2.855
X8.04Y-2.955
X8.04Y-3.055
X8.04Y-3.155
X8.04Y-3.255
X8.04Y-3.355
X8.04Y-3.455
X8.115Y-4.305
X8.215Y-4.305
X8.315Y-2.405
X8.315Y-2.505
X8.315Y-2.605
X8.315Y-2.705
X8.315Y-2.805
X8.315Y-2.905
X8.315Y-3.005
X8.315Y-3.105
X8.315Y-3.205
X8.315Y-3.305
X8.315Y-3.405
X8.315Y-3.505
X8.315Y-3.605
X8.315Y-3.705
X8.315Y-3.805
X8.315Y-3.905
X8.315Y-4.005
X8.315Y-4.105
X8.415Y-2.405
X8.415Y-2.505
X8.415Y-2.605
X8.415Y-2.705
X8.415Y-2.805
X8.415Y-2.905
X8.415Y-3.005
X8.415Y-3.105
X8.415Y-3.205
X8.415Y-3.305
X8.415Y-3.405
X8.415Y-3.505
X8.415Y-3.605
X8.415Y-3.705
X8.415Y-3.805
X8.415Y-3.905
X8.415Y-4.005
X8.415Y-4.105
T0
M30
