G04 #@! TF.FileFunction,Soldermask,Top*
%FSLAX46Y46*%
G04 Gerber Fmt 4.6, Leading zero omitted, Abs format (unit mm)*
G04 Created by KiCad (PCBNEW 4.0.1-stable) date 09/03/2016 14:26:41*
%MOMM*%
G01*
G04 APERTURE LIST*
%ADD10C,0.150000*%
%ADD11C,1.397000*%
%ADD12C,3.000000*%
%ADD13R,1.397000X1.397000*%
%ADD14R,1.300000X1.300000*%
%ADD15R,2.000000X1.300000*%
%ADD16R,1.500000X0.550000*%
%ADD17R,0.550000X1.500000*%
%ADD18R,0.500000X0.900000*%
%ADD19R,0.750000X0.800000*%
%ADD20R,0.800000X0.750000*%
%ADD21R,0.800100X0.800100*%
%ADD22R,0.900000X0.500000*%
%ADD23R,0.800000X0.500000*%
%ADD24R,0.800000X0.400000*%
G04 APERTURE END LIST*
D10*
D11*
X190881000Y-109347000D03*
X193421000Y-109347000D03*
X195961000Y-109347000D03*
X198501000Y-109347000D03*
X201041000Y-109347000D03*
X203581000Y-109347000D03*
X206121000Y-109347000D03*
X208661000Y-109347000D03*
X211201000Y-104267000D03*
X213741000Y-104267000D03*
X211201000Y-101727000D03*
X213741000Y-101727000D03*
X211201000Y-99187000D03*
X213741000Y-99187000D03*
X211201000Y-96647000D03*
X213741000Y-96647000D03*
X211201000Y-94107000D03*
X213741000Y-94107000D03*
X211201000Y-91567000D03*
X213741000Y-91567000D03*
X211201000Y-89027000D03*
X213741000Y-89027000D03*
X211201000Y-86487000D03*
X213741000Y-86487000D03*
X211201000Y-83947000D03*
X213741000Y-83947000D03*
X211201000Y-81407000D03*
X213741000Y-81407000D03*
X211201000Y-78867000D03*
X213741000Y-78867000D03*
X211201000Y-76327000D03*
X213741000Y-76327000D03*
X211201000Y-73787000D03*
X213741000Y-73787000D03*
X211201000Y-71247000D03*
X213741000Y-71247000D03*
X211201000Y-68707000D03*
X213741000Y-68707000D03*
X211201000Y-66167000D03*
X213741000Y-66167000D03*
X211201000Y-63627000D03*
X213741000Y-63627000D03*
X211201000Y-61087000D03*
X213741000Y-61087000D03*
X203581000Y-61087000D03*
X201041000Y-61087000D03*
X198501000Y-61087000D03*
X195961000Y-61087000D03*
X193421000Y-61087000D03*
X190881000Y-61087000D03*
X188341000Y-61087000D03*
X185801000Y-61087000D03*
D12*
X207391000Y-61087000D03*
X213741000Y-109347000D03*
D13*
X201676000Y-67437000D03*
D11*
X204216000Y-67437000D03*
X201676000Y-69977000D03*
X204216000Y-69977000D03*
X201676000Y-72517000D03*
X204216000Y-72517000D03*
X201676000Y-75057000D03*
X204216000Y-75057000D03*
X201676000Y-77597000D03*
X204216000Y-77597000D03*
X201676000Y-80137000D03*
X204216000Y-80137000D03*
X201676000Y-82677000D03*
X204216000Y-82677000D03*
X201676000Y-85217000D03*
X204216000Y-85217000D03*
X201676000Y-87757000D03*
X204216000Y-87757000D03*
D13*
X193421000Y-66167000D03*
D11*
X195961000Y-66167000D03*
D14*
X205225000Y-105493000D03*
D15*
X206375000Y-99993000D03*
D14*
X207525000Y-105493000D03*
D16*
X201661000Y-101282000D03*
X201661000Y-100482000D03*
X201661000Y-99682000D03*
X201661000Y-98882000D03*
X201661000Y-98082000D03*
X201661000Y-97282000D03*
X201661000Y-96482000D03*
X201661000Y-95682000D03*
X201661000Y-94882000D03*
X201661000Y-94082000D03*
X201661000Y-93282000D03*
D17*
X199961000Y-91582000D03*
X199161000Y-91582000D03*
X198361000Y-91582000D03*
X197561000Y-91582000D03*
X196761000Y-91582000D03*
X195961000Y-91582000D03*
X195161000Y-91582000D03*
X194361000Y-91582000D03*
X193561000Y-91582000D03*
X192761000Y-91582000D03*
X191961000Y-91582000D03*
D16*
X190261000Y-93282000D03*
X190261000Y-94082000D03*
X190261000Y-94882000D03*
X190261000Y-95682000D03*
X190261000Y-96482000D03*
X190261000Y-97282000D03*
X190261000Y-98082000D03*
X190261000Y-98882000D03*
X190261000Y-99682000D03*
X190261000Y-100482000D03*
X190261000Y-101282000D03*
D17*
X191961000Y-102982000D03*
X192761000Y-102982000D03*
X193561000Y-102982000D03*
X194361000Y-102982000D03*
X195161000Y-102982000D03*
X195961000Y-102982000D03*
X196761000Y-102982000D03*
X197561000Y-102982000D03*
X198361000Y-102982000D03*
X199161000Y-102982000D03*
X199961000Y-102982000D03*
D13*
X192786000Y-86487000D03*
D11*
X190246000Y-86487000D03*
X192786000Y-83947000D03*
X190246000Y-83947000D03*
X192786000Y-81407000D03*
X190246000Y-81407000D03*
X192786000Y-78867000D03*
X190246000Y-78867000D03*
X192786000Y-76327000D03*
X190246000Y-76327000D03*
X195961000Y-106172000D03*
X193421000Y-106172000D03*
X190881000Y-106172000D03*
D18*
X188162500Y-71564500D03*
X189662500Y-71564500D03*
D19*
X203644500Y-92761500D03*
X203644500Y-91261500D03*
D20*
X194921000Y-89535000D03*
X193421000Y-89535000D03*
D19*
X188341000Y-97905000D03*
X188341000Y-96405000D03*
X198755000Y-105422000D03*
X198755000Y-106922000D03*
D18*
X190107000Y-89154000D03*
X188607000Y-89154000D03*
X190944500Y-73406000D03*
X192444500Y-73406000D03*
X189662500Y-73406000D03*
X188162500Y-73406000D03*
D21*
X190121500Y-69898260D03*
X192021500Y-69898260D03*
X191071500Y-67899280D03*
D18*
X190956500Y-71564500D03*
X192456500Y-71564500D03*
D22*
X188341000Y-102362000D03*
X188341000Y-103862000D03*
D21*
X186502000Y-69898260D03*
X188402000Y-69898260D03*
X187452000Y-67899280D03*
D22*
X200787000Y-105422000D03*
X200787000Y-106922000D03*
D23*
X197728000Y-68523000D03*
D24*
X197728000Y-70123000D03*
X197728000Y-69323000D03*
D23*
X197728000Y-70923000D03*
D24*
X199528000Y-69323000D03*
D23*
X199528000Y-68523000D03*
D24*
X199528000Y-70123000D03*
D23*
X199528000Y-70923000D03*
X197728000Y-72587000D03*
D24*
X197728000Y-74187000D03*
X197728000Y-73387000D03*
D23*
X197728000Y-74987000D03*
D24*
X199528000Y-73387000D03*
D23*
X199528000Y-72587000D03*
D24*
X199528000Y-74187000D03*
D23*
X199528000Y-74987000D03*
X197728000Y-77921000D03*
D24*
X197728000Y-79521000D03*
X197728000Y-78721000D03*
D23*
X197728000Y-80321000D03*
D24*
X199528000Y-78721000D03*
D23*
X199528000Y-77921000D03*
D24*
X199528000Y-79521000D03*
D23*
X199528000Y-80321000D03*
M02*
