G04 #@! TF.FileFunction,Copper,L2,Bot,Signal*
%FSLAX46Y46*%
G04 Gerber Fmt 4.6, Leading zero omitted, Abs format (unit mm)*
G04 Created by KiCad (PCBNEW 4.0.1-stable) date 09/03/2016 14:26:41*
%MOMM*%
G01*
G04 APERTURE LIST*
%ADD10C,0.150000*%
%ADD11C,1.397000*%
%ADD12R,1.397000X1.397000*%
%ADD13C,0.660400*%
%ADD14C,0.254000*%
%ADD15C,0.508000*%
G04 APERTURE END LIST*
D10*
D11*
X190881000Y-109347000D03*
X193421000Y-109347000D03*
X195961000Y-109347000D03*
X198501000Y-109347000D03*
X201041000Y-109347000D03*
X203581000Y-109347000D03*
X206121000Y-109347000D03*
X208661000Y-109347000D03*
X211201000Y-104267000D03*
X213741000Y-104267000D03*
X211201000Y-101727000D03*
X213741000Y-101727000D03*
X211201000Y-99187000D03*
X213741000Y-99187000D03*
X211201000Y-96647000D03*
X213741000Y-96647000D03*
X211201000Y-94107000D03*
X213741000Y-94107000D03*
X211201000Y-91567000D03*
X213741000Y-91567000D03*
X211201000Y-89027000D03*
X213741000Y-89027000D03*
X211201000Y-86487000D03*
X213741000Y-86487000D03*
X211201000Y-83947000D03*
X213741000Y-83947000D03*
X211201000Y-81407000D03*
X213741000Y-81407000D03*
X211201000Y-78867000D03*
X213741000Y-78867000D03*
X211201000Y-76327000D03*
X213741000Y-76327000D03*
X211201000Y-73787000D03*
X213741000Y-73787000D03*
X211201000Y-71247000D03*
X213741000Y-71247000D03*
X211201000Y-68707000D03*
X213741000Y-68707000D03*
X211201000Y-66167000D03*
X213741000Y-66167000D03*
X211201000Y-63627000D03*
X213741000Y-63627000D03*
X211201000Y-61087000D03*
X213741000Y-61087000D03*
X203581000Y-61087000D03*
X201041000Y-61087000D03*
X198501000Y-61087000D03*
X195961000Y-61087000D03*
X193421000Y-61087000D03*
X190881000Y-61087000D03*
X188341000Y-61087000D03*
X185801000Y-61087000D03*
D12*
X201676000Y-67437000D03*
D11*
X204216000Y-67437000D03*
X201676000Y-69977000D03*
X204216000Y-69977000D03*
X201676000Y-72517000D03*
X204216000Y-72517000D03*
X201676000Y-75057000D03*
X204216000Y-75057000D03*
X201676000Y-77597000D03*
X204216000Y-77597000D03*
X201676000Y-80137000D03*
X204216000Y-80137000D03*
X201676000Y-82677000D03*
X204216000Y-82677000D03*
X201676000Y-85217000D03*
X204216000Y-85217000D03*
X201676000Y-87757000D03*
X204216000Y-87757000D03*
D12*
X193421000Y-66167000D03*
D11*
X195961000Y-66167000D03*
D12*
X192786000Y-86487000D03*
D11*
X190246000Y-86487000D03*
X192786000Y-83947000D03*
X190246000Y-83947000D03*
X192786000Y-81407000D03*
X190246000Y-81407000D03*
X192786000Y-78867000D03*
X190246000Y-78867000D03*
X192786000Y-76327000D03*
X190246000Y-76327000D03*
X195961000Y-106172000D03*
X193421000Y-106172000D03*
X190881000Y-106172000D03*
D13*
X197612000Y-81407000D03*
X197612000Y-77089000D03*
X198374000Y-82169000D03*
X198628000Y-77089000D03*
X204279500Y-98742500D03*
X204597000Y-91998800D03*
X206565500Y-75184000D03*
X215773000Y-77597000D03*
X204597000Y-90614500D03*
X203898500Y-90614500D03*
X201358500Y-89662000D03*
X202247500Y-92202000D03*
X198945500Y-92964000D03*
X207613250Y-70961250D03*
X186943998Y-66675000D03*
X215773000Y-85102696D03*
X215773000Y-87757000D03*
X215773000Y-90297000D03*
X197231000Y-85280500D03*
X197231000Y-87058500D03*
X197612000Y-92964000D03*
X197612000Y-95123000D03*
X215773000Y-80137000D03*
X215773000Y-75057000D03*
X208407000Y-71755000D03*
X206121000Y-67310000D03*
X207391000Y-63627000D03*
X209296000Y-62992000D03*
X209931000Y-61087000D03*
X209296000Y-59182000D03*
X207137000Y-67310000D03*
X208407000Y-70167500D03*
X206565500Y-76708000D03*
X187134500Y-72326500D03*
X208026000Y-99949000D03*
X192747954Y-89535000D03*
X188023480Y-76617365D03*
X188595020Y-90496857D03*
X187642500Y-110299500D03*
X185928004Y-110299500D03*
X190794735Y-104189789D03*
X197993000Y-107061000D03*
X191642265Y-94082539D03*
X216281000Y-109347000D03*
X215646000Y-107442000D03*
X213741000Y-106807000D03*
X211836000Y-107442000D03*
X211201000Y-109347000D03*
X205486000Y-59182000D03*
X204851000Y-61087000D03*
X205486000Y-62992000D03*
X186944000Y-63817500D03*
X194959509Y-99383428D03*
X200850500Y-102806500D03*
X188912500Y-96202500D03*
X187833000Y-87820500D03*
X200088500Y-98933000D03*
X192341500Y-74930000D03*
X196342000Y-93218000D03*
X195897500Y-95249980D03*
X195897500Y-97980520D03*
X195516500Y-87249000D03*
X197612000Y-89408000D03*
X194617025Y-98541955D03*
X189992000Y-67818000D03*
X195961000Y-68523000D03*
X200660000Y-65532000D03*
X199898000Y-66294000D03*
X196469000Y-69323000D03*
X196977000Y-70123000D03*
X199390000Y-67310000D03*
X192786000Y-93027500D03*
X195389500Y-84328000D03*
X193738500Y-93027494D03*
X195389500Y-85280500D03*
X197104000Y-72587000D03*
X195389500Y-86296500D03*
X194703713Y-93027500D03*
X196723000Y-73387000D03*
X197675500Y-87820500D03*
X197546182Y-90362197D03*
X197104000Y-74187000D03*
X197167500Y-75374500D03*
X198374000Y-104393980D03*
X202475629Y-106530237D03*
X195935742Y-104206867D03*
X199663059Y-104997691D03*
X207644980Y-98095461D03*
X196799200Y-104190800D03*
X195097586Y-104216488D03*
X201599800Y-103200180D03*
X195770480Y-99595385D03*
X205130400Y-96469200D03*
X205492791Y-98109465D03*
X191842616Y-96617904D03*
X191719200Y-97446980D03*
X206351112Y-98146960D03*
X207137592Y-97428260D03*
X191389000Y-98882200D03*
X191897000Y-100076000D03*
X203398799Y-105043559D03*
X206883000Y-96568658D03*
X190119000Y-90170000D03*
X188950620Y-100960052D03*
X189611000Y-88112600D03*
X191452500Y-87312500D03*
X192024000Y-95347882D03*
X188569632Y-95429764D03*
X191643000Y-74358500D03*
X188150500Y-74358490D03*
X189991994Y-74358500D03*
X193425915Y-97350846D03*
X188569632Y-91334972D03*
D14*
X197612000Y-81407000D02*
X197612000Y-77089000D01*
X198374000Y-82169000D02*
X198374000Y-80899000D01*
X198374000Y-80899000D02*
X198120000Y-80645000D01*
X198120000Y-80645000D02*
X198120000Y-77597000D01*
X198120000Y-77597000D02*
X198628000Y-77089000D01*
X204279500Y-98742500D02*
X204279500Y-98183700D01*
X206095600Y-93497400D02*
X204597000Y-91998800D01*
X206095600Y-96977200D02*
X206095600Y-93497400D01*
X205892400Y-97180400D02*
X206095600Y-96977200D01*
X205282800Y-97180400D02*
X205892400Y-97180400D01*
X204279500Y-98183700D02*
X205282800Y-97180400D01*
X208407000Y-71755000D02*
X206565500Y-73596500D01*
X206565500Y-73596500D02*
X206565500Y-75184000D01*
X207010000Y-81470500D02*
X206565500Y-81026000D01*
X206565500Y-81026000D02*
X206565500Y-76708000D01*
X206565500Y-76708000D02*
X207454500Y-77597000D01*
X207454500Y-77597000D02*
X207899000Y-77597000D01*
X207899000Y-77597000D02*
X215773000Y-77597000D01*
X204597000Y-90843462D02*
X204597000Y-90614500D01*
X206590538Y-92837000D02*
X204597000Y-90843462D01*
X213741000Y-104267000D02*
X217043000Y-100965000D01*
X217043000Y-95924114D02*
X213955886Y-92837000D01*
X217043000Y-100965000D02*
X217043000Y-95924114D01*
X213955886Y-92837000D02*
X206590538Y-92837000D01*
X203200000Y-91630500D02*
X203200000Y-91313000D01*
X202374500Y-92456000D02*
X203200000Y-91630500D01*
X203200000Y-91313000D02*
X203898500Y-90614500D01*
X204597000Y-90614500D02*
X203898500Y-90614500D01*
X202374500Y-92329000D02*
X202374500Y-92456000D01*
X202438000Y-92392500D02*
X202374500Y-92329000D01*
X202247500Y-92202000D02*
X202438000Y-92392500D01*
X201358500Y-89662000D02*
X198945500Y-92075000D01*
X202501500Y-88646000D02*
X202374500Y-88646000D01*
X203898500Y-87757000D02*
X203009500Y-88646000D01*
X203009500Y-88646000D02*
X202501500Y-88646000D01*
X202374500Y-88646000D02*
X201358500Y-89662000D01*
X198945500Y-92075000D02*
X198945500Y-92964000D01*
X186943998Y-66675000D02*
X189166498Y-64452500D01*
X204279500Y-64452500D02*
X207137000Y-67310000D01*
X189166498Y-64452500D02*
X204279500Y-64452500D01*
X200214892Y-94615608D02*
X202374500Y-92456000D01*
X200214892Y-94615608D02*
X199707500Y-95123000D01*
X197612000Y-95123000D02*
X199707500Y-95123000D01*
X215773000Y-87757000D02*
X215773000Y-85102696D01*
X197739000Y-83058000D02*
X197231000Y-83566000D01*
X197231000Y-83566000D02*
X197231000Y-85280500D01*
X197231000Y-87058500D02*
X197231000Y-87249000D01*
X197231000Y-87249000D02*
X196977000Y-87503000D01*
X196977000Y-87503000D02*
X196977000Y-88011000D01*
X196977000Y-88011000D02*
X196469000Y-88519000D01*
X196469000Y-88519000D02*
X196469000Y-91122500D01*
X196469000Y-91122500D02*
X197612000Y-92265500D01*
X197612000Y-92265500D02*
X197612000Y-92964000D01*
X200088500Y-97094558D02*
X198116942Y-95123000D01*
X198116942Y-95123000D02*
X197612000Y-95123000D01*
X200088500Y-98933000D02*
X200088500Y-97094558D01*
X204216000Y-87757000D02*
X203898500Y-87757000D01*
X215773000Y-80137000D02*
X208343500Y-80137000D01*
X208343500Y-80137000D02*
X207010000Y-81470500D01*
X215773000Y-75057000D02*
X209740500Y-75057000D01*
X209740500Y-75057000D02*
X209042000Y-74358500D01*
X208407000Y-71755000D02*
X208407000Y-73723500D01*
X208407000Y-73723500D02*
X209042000Y-74358500D01*
X207137000Y-67310000D02*
X206121000Y-67310000D01*
X207391000Y-63627000D02*
X207137000Y-63881000D01*
X208661000Y-63627000D02*
X209296000Y-62992000D01*
X207391000Y-63627000D02*
X208661000Y-63627000D01*
X209931000Y-59817000D02*
X209296000Y-59182000D01*
X209931000Y-61087000D02*
X209931000Y-59817000D01*
X207137000Y-63881000D02*
X207137000Y-67310000D01*
X207010000Y-71564500D02*
X207613250Y-70961250D01*
X207613250Y-70961250D02*
X208407000Y-70167500D01*
X201676000Y-82677000D02*
X199771000Y-82677000D01*
X192024000Y-72326500D02*
X187134500Y-72326500D01*
X196596000Y-76898500D02*
X192024000Y-72326500D01*
X196596000Y-81915000D02*
X196596000Y-76898500D01*
X197739000Y-83058000D02*
X196596000Y-81915000D01*
X199390000Y-83058000D02*
X197739000Y-83058000D01*
X199771000Y-82677000D02*
X199390000Y-83058000D01*
X204216000Y-87757000D02*
X205232000Y-87757000D01*
X205232000Y-87757000D02*
X207010000Y-85979000D01*
X207010000Y-85979000D02*
X207010000Y-81470500D01*
X211877027Y-104267000D02*
X208026000Y-100415973D01*
X212753172Y-104267000D02*
X211877027Y-104267000D01*
X208026000Y-100415973D02*
X208026000Y-99949000D01*
X192417755Y-89865199D02*
X192747954Y-89535000D01*
X191642265Y-90640689D02*
X192417755Y-89865199D01*
X188595020Y-90496857D02*
X189506053Y-90496857D01*
X191642265Y-94082539D02*
X191642265Y-90640689D01*
X189506053Y-90496857D02*
X189814198Y-90805002D01*
X191477952Y-90805002D02*
X192417755Y-89865199D01*
X189814198Y-90805002D02*
X191477952Y-90805002D01*
X190246000Y-76327000D02*
X188313845Y-76327000D01*
X188313845Y-76327000D02*
X188023480Y-76617365D01*
X191157473Y-107632500D02*
X190309500Y-107632500D01*
X190309500Y-107632500D02*
X187642500Y-110299500D01*
X192201809Y-106588164D02*
X191157473Y-107632500D01*
X211010500Y-110744000D02*
X188087000Y-110744000D01*
X188087000Y-110744000D02*
X187642500Y-110299500D01*
X185928004Y-110299500D02*
X187642500Y-110299500D01*
X187642500Y-110426500D02*
X187642500Y-110299500D01*
X200850500Y-102806500D02*
X195111172Y-102806500D01*
X195111172Y-102806500D02*
X192201809Y-105715863D01*
X192201809Y-105715863D02*
X192201809Y-106588164D01*
X211137500Y-110617000D02*
X211010500Y-110744000D01*
X186258203Y-109969301D02*
X185928004Y-110299500D01*
X187502801Y-108724703D02*
X186258203Y-109969301D01*
X187502801Y-106319234D02*
X187502801Y-108724703D01*
X190464536Y-104519988D02*
X190794735Y-104189789D01*
X188665290Y-106319234D02*
X190464536Y-104519988D01*
X187502801Y-106319234D02*
X188665290Y-106319234D01*
X192786022Y-96621506D02*
X192786022Y-97609006D01*
X192786022Y-97609006D02*
X194560444Y-99383428D01*
X194560444Y-99383428D02*
X194959509Y-99383428D01*
X192147418Y-95982902D02*
X192786022Y-96621506D01*
X189599071Y-95982902D02*
X192147418Y-95982902D01*
X189379473Y-96202500D02*
X189599071Y-95982902D01*
X188912500Y-96202500D02*
X189379473Y-96202500D01*
X216281000Y-108077000D02*
X216281000Y-109347000D01*
X215646000Y-107442000D02*
X216281000Y-108077000D01*
X211836000Y-107442000D02*
X213106000Y-107442000D01*
X213106000Y-107442000D02*
X213741000Y-106807000D01*
X211137500Y-110617000D02*
X211137500Y-109410500D01*
X211137500Y-109410500D02*
X211201000Y-109347000D01*
X205486000Y-60452000D02*
X204851000Y-61087000D01*
X205486000Y-59182000D02*
X205486000Y-60452000D01*
X195409937Y-98933000D02*
X195289708Y-99053229D01*
X200088500Y-98933000D02*
X195409937Y-98933000D01*
X195289708Y-99053229D02*
X194959509Y-99383428D01*
X187502801Y-88150699D02*
X187502801Y-106319234D01*
X211137500Y-110617000D02*
X211137500Y-106870500D01*
X211137500Y-106870500D02*
X213741000Y-104267000D01*
X187833000Y-87820500D02*
X187502801Y-88150699D01*
X213741000Y-104267000D02*
X212753172Y-104267000D01*
X212753172Y-104267000D02*
X211201000Y-104267000D01*
X192913000Y-74930000D02*
X193865500Y-75882500D01*
X192913000Y-74930000D02*
X192341500Y-74930000D01*
X193865500Y-75882500D02*
X193865500Y-82677000D01*
X193865500Y-82677000D02*
X193865500Y-82486500D01*
X193865500Y-82486500D02*
X193865500Y-82677000D01*
D15*
X204216000Y-82677000D02*
X202946000Y-83947000D01*
X202946000Y-83947000D02*
X201168000Y-83947000D01*
X201168000Y-83947000D02*
X198882000Y-86233000D01*
X198882000Y-86233000D02*
X196342000Y-86233000D01*
X201803000Y-91313000D02*
X203288888Y-89827112D01*
X201803000Y-91313000D02*
X200215500Y-92900500D01*
X213741000Y-61087000D02*
X215138000Y-62484000D01*
X208661000Y-83820000D02*
X208661000Y-85766769D01*
X208661000Y-85766769D02*
X204600657Y-89827112D01*
X209804000Y-82677000D02*
X208661000Y-83820000D01*
X215392000Y-82677000D02*
X209804000Y-82677000D01*
X216916000Y-81153000D02*
X215392000Y-82677000D01*
X216916000Y-73660000D02*
X216916000Y-81153000D01*
X215138000Y-71882000D02*
X216916000Y-73660000D01*
X215138000Y-62484000D02*
X215138000Y-71882000D01*
X199326500Y-93789500D02*
X196342000Y-93789500D01*
X200215500Y-92900500D02*
X199326500Y-93789500D01*
X203288888Y-89827112D02*
X204600657Y-89827112D01*
X196342000Y-86233000D02*
X196342000Y-87630000D01*
X196342000Y-92329000D02*
X196342000Y-93218000D01*
X195897500Y-91884500D02*
X196342000Y-92329000D01*
X195897500Y-88074500D02*
X195897500Y-91884500D01*
X196342000Y-87630000D02*
X195897500Y-88074500D01*
X195580000Y-82677000D02*
X196342000Y-83439000D01*
X194056000Y-82677000D02*
X193865500Y-82677000D01*
X195285626Y-82677000D02*
X195580000Y-82677000D01*
X196342000Y-84455000D02*
X196342000Y-86233000D01*
X196342000Y-83439000D02*
X196342000Y-84455000D01*
X195285626Y-82677000D02*
X194056000Y-82677000D01*
X196342000Y-93789500D02*
X196532500Y-93789500D01*
X196532500Y-93789500D02*
X196342000Y-93789500D01*
X195897500Y-95249980D02*
X196342000Y-94805480D01*
X196342000Y-94805480D02*
X196342000Y-93789500D01*
X196342000Y-93789500D02*
X196342000Y-93218000D01*
X213741000Y-61087000D02*
X211201000Y-61087000D01*
X193865500Y-82677000D02*
X191516000Y-82677000D01*
X191516000Y-82677000D02*
X190246000Y-83947000D01*
X195897500Y-97980520D02*
X195897500Y-95249980D01*
D14*
X195262500Y-92329000D02*
X195389500Y-92456000D01*
X195516500Y-87249000D02*
X195262500Y-87503000D01*
X195262500Y-87503000D02*
X195262500Y-88328500D01*
X195262500Y-88455500D02*
X195262500Y-88328500D01*
X200533000Y-86487000D02*
X197612000Y-89408000D01*
X203708000Y-85217000D02*
X202438000Y-86487000D01*
X202438000Y-86487000D02*
X200533000Y-86487000D01*
X195262500Y-92329000D02*
X195262500Y-88455500D01*
X194617025Y-98541955D02*
X194617025Y-94206255D01*
X195389500Y-93433780D02*
X194617025Y-94206255D01*
X195389500Y-92456000D02*
X195389500Y-93433780D01*
X204216000Y-85217000D02*
X203708000Y-85217000D01*
D15*
X201104500Y-76390500D02*
X204838301Y-76390500D01*
X203581000Y-86487000D02*
X202311000Y-87757000D01*
X205105000Y-86487000D02*
X203581000Y-86487000D01*
X205486000Y-86106000D02*
X205105000Y-86487000D01*
X205486000Y-77038199D02*
X205486000Y-86106000D01*
X204838301Y-76390500D02*
X205486000Y-77038199D01*
X202311000Y-87757000D02*
X201676000Y-87757000D01*
X201117199Y-76403199D02*
X201104500Y-76390500D01*
X201104500Y-76390500D02*
X200914000Y-76200000D01*
X200914000Y-76200000D02*
X196850000Y-76200000D01*
X189992000Y-69342000D02*
X189992000Y-67818000D01*
X196850000Y-76200000D02*
X189992000Y-69342000D01*
D14*
X198698000Y-65786000D02*
X195961000Y-68523000D01*
X198698000Y-65786000D02*
X198952000Y-65532000D01*
X200660000Y-65532000D02*
X198952000Y-65532000D01*
X199898000Y-66294000D02*
X199498000Y-66294000D01*
X199498000Y-66294000D02*
X199244000Y-66548000D01*
X196469000Y-69323000D02*
X199244000Y-66548000D01*
X199390000Y-67710000D02*
X199390000Y-67310000D01*
X199390000Y-67710000D02*
X196977000Y-70123000D01*
X192786000Y-93027500D02*
X192786000Y-91893984D01*
X193967067Y-90712917D02*
X193967067Y-86481746D01*
X192786000Y-91893984D02*
X193967067Y-90712917D01*
X193967067Y-85750433D02*
X193967067Y-86481746D01*
X195389500Y-84328000D02*
X193967067Y-85750433D01*
X194398878Y-87316581D02*
X194398878Y-86334622D01*
X193738500Y-91552156D02*
X194398878Y-90891778D01*
X194398878Y-90891778D02*
X194398878Y-87316581D01*
X193738500Y-93027494D02*
X193738500Y-91552156D01*
X195389500Y-85344000D02*
X195389500Y-85280500D01*
X194398878Y-86334622D02*
X195389500Y-85344000D01*
X212471000Y-67437000D02*
X210121500Y-67437000D01*
X213741000Y-66167000D02*
X212471000Y-67437000D01*
X206375000Y-72072500D02*
X204660500Y-73787000D01*
X206375000Y-71183500D02*
X206375000Y-72072500D01*
X210121500Y-67437000D02*
X206375000Y-71183500D01*
X200660000Y-73787000D02*
X204660500Y-73787000D01*
X199460000Y-72587000D02*
X200660000Y-73787000D01*
X199460000Y-72587000D02*
X197104000Y-72587000D01*
X194830680Y-87820507D02*
X194830689Y-87820507D01*
X194830680Y-86855320D02*
X194830680Y-87820507D01*
X195389500Y-86296500D02*
X194830680Y-86855320D01*
X204597000Y-71247000D02*
X205613000Y-71247000D01*
X205613000Y-71247000D02*
X210693000Y-66167000D01*
X210693000Y-66167000D02*
X211201000Y-66167000D01*
X194830689Y-91070639D02*
X194830689Y-87820507D01*
X194703713Y-93027500D02*
X194703713Y-91197615D01*
X194703713Y-91197615D02*
X194830689Y-91070639D01*
X194830689Y-87820507D02*
X194830689Y-87820507D01*
X211201000Y-66167000D02*
X210756500Y-66167000D01*
X200406000Y-71247000D02*
X204597000Y-71247000D01*
X199771000Y-71882000D02*
X200406000Y-71247000D01*
X196723000Y-71882000D02*
X199771000Y-71882000D01*
X196342000Y-72263000D02*
X196723000Y-71882000D01*
X196342000Y-73006000D02*
X196342000Y-72263000D01*
X196342000Y-73006000D02*
X196723000Y-73387000D01*
X207137000Y-68707000D02*
X207454500Y-68707000D01*
X207454500Y-68707000D02*
X209867500Y-66294000D01*
X209867500Y-66294000D02*
X209867500Y-65722500D01*
X209867500Y-65722500D02*
X210693000Y-64897000D01*
X210693000Y-64897000D02*
X210947000Y-64897000D01*
X197546182Y-90362197D02*
X196913500Y-89729515D01*
X196913500Y-89729515D02*
X196913500Y-89027000D01*
X196913500Y-89027000D02*
X197675500Y-88265000D01*
X197675500Y-88265000D02*
X197675500Y-87820500D01*
X201168000Y-68707000D02*
X207137000Y-68707000D01*
X212471000Y-64897000D02*
X210947000Y-64897000D01*
X200406000Y-69469000D02*
X201168000Y-68707000D01*
X200406000Y-70485000D02*
X200406000Y-69469000D01*
X199517000Y-71374000D02*
X200406000Y-70485000D01*
X196596000Y-71374000D02*
X199517000Y-71374000D01*
X195834000Y-72136000D02*
X196596000Y-71374000D01*
X195834000Y-73533000D02*
X195834000Y-72136000D01*
X196488000Y-74187000D02*
X195834000Y-73533000D01*
X197104000Y-74187000D02*
X196488000Y-74187000D01*
X212471000Y-64897000D02*
X213741000Y-63627000D01*
X196596000Y-75057000D02*
X196913500Y-75374500D01*
X195326000Y-71882000D02*
X195326000Y-73787000D01*
X196342000Y-70866000D02*
X195326000Y-71882000D01*
X198247000Y-70866000D02*
X196342000Y-70866000D01*
X199898000Y-69215000D02*
X198247000Y-70866000D01*
X199898000Y-69215000D02*
X199898000Y-69215000D01*
X200533000Y-68580000D02*
X199898000Y-69215000D01*
X200533000Y-66548000D02*
X200533000Y-68580000D01*
X200787000Y-66294000D02*
X200533000Y-66548000D01*
X195326000Y-73787000D02*
X196596000Y-75057000D01*
X211201000Y-63627000D02*
X209423000Y-65405000D01*
X209423000Y-66040000D02*
X209423000Y-65405000D01*
X207264000Y-68199000D02*
X209423000Y-66040000D01*
X205994000Y-68199000D02*
X207264000Y-68199000D01*
X205422500Y-67627500D02*
X205994000Y-68199000D01*
X205422500Y-66992500D02*
X205422500Y-67627500D01*
X204724000Y-66294000D02*
X205422500Y-66992500D01*
X200787000Y-66294000D02*
X204724000Y-66294000D01*
X196913500Y-75374500D02*
X197167500Y-75374500D01*
X211201000Y-63627000D02*
X210947000Y-63881000D01*
X198840973Y-104393980D02*
X198374000Y-104393980D01*
X202475629Y-106530237D02*
X200308082Y-104362690D01*
X198872263Y-104362690D02*
X198840973Y-104393980D01*
X200308082Y-104362690D02*
X198872263Y-104362690D01*
X196290902Y-105029000D02*
X199631750Y-105029000D01*
X195935742Y-104673840D02*
X196290902Y-105029000D01*
X195935742Y-104206867D02*
X195935742Y-104673840D01*
X199631750Y-105029000D02*
X199663059Y-104997691D01*
X199537551Y-103930879D02*
X202276535Y-103930879D01*
X197231021Y-103758979D02*
X199365651Y-103758979D01*
X199365651Y-103758979D02*
X199537551Y-103930879D01*
X196799200Y-104190800D02*
X197231021Y-103758979D01*
X207644980Y-98562434D02*
X207644980Y-98095461D01*
X202276535Y-103930879D02*
X207644980Y-98562434D01*
X195097586Y-103749515D02*
X195097586Y-104216488D01*
X201300912Y-103499068D02*
X199716412Y-103499068D01*
X195519933Y-103327168D02*
X195097586Y-103749515D01*
X199544512Y-103327168D02*
X195519933Y-103327168D01*
X199716412Y-103499068D02*
X199544512Y-103327168D01*
X201599800Y-103200180D02*
X201300912Y-103499068D01*
X205130400Y-96469200D02*
X202004215Y-99595385D01*
X202004215Y-99595385D02*
X195770480Y-99595385D01*
X205492791Y-98109465D02*
X205492791Y-98545209D01*
X196147563Y-100230386D02*
X194796730Y-100230386D01*
X203373880Y-100228376D02*
X196149573Y-100228376D01*
X196149573Y-100228376D02*
X196147563Y-100230386D01*
X194796730Y-100230386D02*
X192354201Y-97787857D01*
X192354201Y-97787857D02*
X192354201Y-97129489D01*
X192354201Y-97129489D02*
X192172815Y-96948103D01*
X192172815Y-96948103D02*
X191842616Y-96617904D01*
X203809624Y-100228376D02*
X203373880Y-100228376D01*
X205492791Y-98545209D02*
X203809624Y-100228376D01*
X206351112Y-98146960D02*
X206351112Y-98398084D01*
X203841537Y-100660196D02*
X203841537Y-100660187D01*
X204089000Y-100660196D02*
X203841537Y-100660196D01*
X206351112Y-98398084D02*
X204089000Y-100660196D01*
X191719200Y-97763528D02*
X191719200Y-97446980D01*
X194617869Y-100662197D02*
X191719200Y-97763528D01*
X196326424Y-100662197D02*
X194617869Y-100662197D01*
X203841537Y-100660187D02*
X196328434Y-100660187D01*
X196328434Y-100660187D02*
X196326424Y-100662197D01*
X203841537Y-100660187D02*
X203841537Y-100660187D01*
X206374998Y-98123074D02*
X206351112Y-98146960D01*
X196507295Y-101091998D02*
X204316530Y-101091998D01*
X196505285Y-101094008D02*
X196507295Y-101091998D01*
X194439008Y-101094008D02*
X196505285Y-101094008D01*
X191389000Y-98882200D02*
X192227200Y-98882200D01*
X207009979Y-98398549D02*
X207009979Y-97555873D01*
X207009979Y-97555873D02*
X207137592Y-97428260D01*
X204316530Y-101091998D02*
X207009979Y-98398549D01*
X192227200Y-98882200D02*
X194439008Y-101094008D01*
X191579499Y-100393501D02*
X191897000Y-100076000D01*
X191579499Y-104076499D02*
X191579499Y-100393501D01*
X191579499Y-105473501D02*
X191579499Y-104076499D01*
X190881000Y-106172000D02*
X191579499Y-105473501D01*
X206883000Y-96568658D02*
X207566658Y-96568658D01*
X207566658Y-96568658D02*
X208280000Y-97282000D01*
X208280000Y-97282000D02*
X208280000Y-98615500D01*
X208280000Y-98615500D02*
X203398799Y-103496701D01*
X203398799Y-103496701D02*
X203398799Y-105043559D01*
X192786000Y-87503000D02*
X190449199Y-89839801D01*
X190449199Y-89839801D02*
X190119000Y-90170000D01*
X192786000Y-86487000D02*
X192786000Y-87503000D01*
X188950620Y-100960052D02*
X187934612Y-99944044D01*
X187934612Y-99944044D02*
X187934612Y-88671388D01*
X187934612Y-88671388D02*
X188963301Y-87642699D01*
X188963301Y-87642699D02*
X188963301Y-85610699D01*
X188963301Y-85610699D02*
X189420500Y-85153500D01*
X189420500Y-85153500D02*
X190690500Y-85153500D01*
X190690500Y-85153500D02*
X191198501Y-84645499D01*
X191198501Y-84645499D02*
X192087501Y-84645499D01*
X192087501Y-84645499D02*
X192786000Y-83947000D01*
X190652400Y-88112600D02*
X190077973Y-88112600D01*
X190077973Y-88112600D02*
X189611000Y-88112600D01*
X191452500Y-87312500D02*
X190652400Y-88112600D01*
X191942118Y-95429764D02*
X192024000Y-95347882D01*
X188569632Y-95429764D02*
X191942118Y-95429764D01*
X192786000Y-81407000D02*
X191579500Y-80200500D01*
X191579500Y-80200500D02*
X191579500Y-74888973D01*
X191579500Y-74888973D02*
X191643000Y-74825473D01*
X191643000Y-74825473D02*
X191643000Y-74358500D01*
X189991984Y-74358490D02*
X189991994Y-74358500D01*
X188150500Y-74358490D02*
X189991984Y-74358490D01*
X193425915Y-95809995D02*
X193425915Y-96883873D01*
X189293500Y-94996000D02*
X191436080Y-94996000D01*
X192328801Y-94712881D02*
X193425915Y-95809995D01*
X191719199Y-94712881D02*
X192328801Y-94712881D01*
X188569632Y-94272132D02*
X189293500Y-94996000D01*
X188569632Y-91334972D02*
X188569632Y-94272132D01*
X191436080Y-94996000D02*
X191719199Y-94712881D01*
X193425915Y-96883873D02*
X193425915Y-97350846D01*
G36*
X215900800Y-61244484D02*
X215900800Y-71247000D01*
X215929741Y-71392496D01*
X216012158Y-71515842D01*
X218440800Y-73944484D01*
X218440800Y-107919516D01*
X216012158Y-110348158D01*
X215929741Y-110471504D01*
X215900800Y-110617000D01*
X215900800Y-110706551D01*
X215835853Y-111033062D01*
X215672114Y-111278114D01*
X215427059Y-111441854D01*
X215100551Y-111506800D01*
X184911200Y-111506800D01*
X184911200Y-110139484D01*
X185499961Y-109550723D01*
X189852122Y-109550723D01*
X190008402Y-109928950D01*
X190297528Y-110218581D01*
X190675481Y-110375521D01*
X191084723Y-110375878D01*
X191462950Y-110219598D01*
X191752581Y-109930472D01*
X191909521Y-109552519D01*
X191909522Y-109550723D01*
X192392122Y-109550723D01*
X192548402Y-109928950D01*
X192837528Y-110218581D01*
X193215481Y-110375521D01*
X193624723Y-110375878D01*
X194002950Y-110219598D01*
X194292581Y-109930472D01*
X194449521Y-109552519D01*
X194449522Y-109550723D01*
X194932122Y-109550723D01*
X195088402Y-109928950D01*
X195377528Y-110218581D01*
X195755481Y-110375521D01*
X196164723Y-110375878D01*
X196542950Y-110219598D01*
X196832581Y-109930472D01*
X196989521Y-109552519D01*
X196989522Y-109550723D01*
X197472122Y-109550723D01*
X197628402Y-109928950D01*
X197917528Y-110218581D01*
X198295481Y-110375521D01*
X198704723Y-110375878D01*
X199082950Y-110219598D01*
X199372581Y-109930472D01*
X199529521Y-109552519D01*
X199529522Y-109550723D01*
X200012122Y-109550723D01*
X200168402Y-109928950D01*
X200457528Y-110218581D01*
X200835481Y-110375521D01*
X201244723Y-110375878D01*
X201622950Y-110219598D01*
X201912581Y-109930472D01*
X202069521Y-109552519D01*
X202069522Y-109550723D01*
X202552122Y-109550723D01*
X202708402Y-109928950D01*
X202997528Y-110218581D01*
X203375481Y-110375521D01*
X203784723Y-110375878D01*
X204162950Y-110219598D01*
X204452581Y-109930472D01*
X204609521Y-109552519D01*
X204609522Y-109550723D01*
X205092122Y-109550723D01*
X205248402Y-109928950D01*
X205537528Y-110218581D01*
X205915481Y-110375521D01*
X206324723Y-110375878D01*
X206702950Y-110219598D01*
X206992581Y-109930472D01*
X207149521Y-109552519D01*
X207149522Y-109550723D01*
X207632122Y-109550723D01*
X207788402Y-109928950D01*
X208077528Y-110218581D01*
X208455481Y-110375521D01*
X208864723Y-110375878D01*
X209242950Y-110219598D01*
X209532581Y-109930472D01*
X209624356Y-109709452D01*
X211910483Y-109709452D01*
X212188527Y-110382371D01*
X212702921Y-110897664D01*
X213375354Y-111176882D01*
X214103452Y-111177517D01*
X214776371Y-110899473D01*
X215291664Y-110385079D01*
X215570882Y-109712646D01*
X215571517Y-108984548D01*
X215293473Y-108311629D01*
X214779079Y-107796336D01*
X214106646Y-107517118D01*
X213378548Y-107516483D01*
X212705629Y-107794527D01*
X212190336Y-108308921D01*
X211911118Y-108981354D01*
X211910483Y-109709452D01*
X209624356Y-109709452D01*
X209689521Y-109552519D01*
X209689878Y-109143277D01*
X209533598Y-108765050D01*
X209244472Y-108475419D01*
X208866519Y-108318479D01*
X208457277Y-108318122D01*
X208079050Y-108474402D01*
X207789419Y-108763528D01*
X207632479Y-109141481D01*
X207632122Y-109550723D01*
X207149522Y-109550723D01*
X207149878Y-109143277D01*
X206993598Y-108765050D01*
X206704472Y-108475419D01*
X206326519Y-108318479D01*
X205917277Y-108318122D01*
X205539050Y-108474402D01*
X205249419Y-108763528D01*
X205092479Y-109141481D01*
X205092122Y-109550723D01*
X204609522Y-109550723D01*
X204609878Y-109143277D01*
X204453598Y-108765050D01*
X204164472Y-108475419D01*
X203786519Y-108318479D01*
X203377277Y-108318122D01*
X202999050Y-108474402D01*
X202709419Y-108763528D01*
X202552479Y-109141481D01*
X202552122Y-109550723D01*
X202069522Y-109550723D01*
X202069878Y-109143277D01*
X201913598Y-108765050D01*
X201624472Y-108475419D01*
X201246519Y-108318479D01*
X200837277Y-108318122D01*
X200459050Y-108474402D01*
X200169419Y-108763528D01*
X200012479Y-109141481D01*
X200012122Y-109550723D01*
X199529522Y-109550723D01*
X199529878Y-109143277D01*
X199373598Y-108765050D01*
X199084472Y-108475419D01*
X198706519Y-108318479D01*
X198297277Y-108318122D01*
X197919050Y-108474402D01*
X197629419Y-108763528D01*
X197472479Y-109141481D01*
X197472122Y-109550723D01*
X196989522Y-109550723D01*
X196989878Y-109143277D01*
X196833598Y-108765050D01*
X196544472Y-108475419D01*
X196166519Y-108318479D01*
X195757277Y-108318122D01*
X195379050Y-108474402D01*
X195089419Y-108763528D01*
X194932479Y-109141481D01*
X194932122Y-109550723D01*
X194449522Y-109550723D01*
X194449878Y-109143277D01*
X194293598Y-108765050D01*
X194004472Y-108475419D01*
X193626519Y-108318479D01*
X193217277Y-108318122D01*
X192839050Y-108474402D01*
X192549419Y-108763528D01*
X192392479Y-109141481D01*
X192392122Y-109550723D01*
X191909522Y-109550723D01*
X191909878Y-109143277D01*
X191753598Y-108765050D01*
X191464472Y-108475419D01*
X191086519Y-108318479D01*
X190677277Y-108318122D01*
X190299050Y-108474402D01*
X190009419Y-108763528D01*
X189852479Y-109141481D01*
X189852122Y-109550723D01*
X185499961Y-109550723D01*
X187339842Y-107710842D01*
X187422259Y-107587497D01*
X187451200Y-107442000D01*
X187451200Y-88671388D01*
X187477412Y-88671388D01*
X187477412Y-99944044D01*
X187512214Y-100119007D01*
X187611323Y-100267333D01*
X188290232Y-100946242D01*
X188290106Y-101090837D01*
X188390434Y-101333650D01*
X188576045Y-101519585D01*
X188818682Y-101620337D01*
X189081405Y-101620566D01*
X189324218Y-101520238D01*
X189510153Y-101334627D01*
X189610905Y-101091990D01*
X189611134Y-100829267D01*
X189510806Y-100586454D01*
X189325195Y-100400519D01*
X189082558Y-100299767D01*
X188936786Y-100299640D01*
X188391812Y-99754666D01*
X188391812Y-96070997D01*
X188437694Y-96090049D01*
X188700417Y-96090278D01*
X188943230Y-95989950D01*
X189046396Y-95886964D01*
X191629010Y-95886964D01*
X191649425Y-95907415D01*
X191769900Y-95957441D01*
X191711831Y-95957390D01*
X191469018Y-96057718D01*
X191283083Y-96243329D01*
X191182331Y-96485966D01*
X191182102Y-96748689D01*
X191270247Y-96962017D01*
X191159667Y-97072405D01*
X191058915Y-97315042D01*
X191058686Y-97577765D01*
X191159014Y-97820578D01*
X191337452Y-97999327D01*
X191395911Y-98086817D01*
X191538160Y-98229066D01*
X191520938Y-98221915D01*
X191258215Y-98221686D01*
X191015402Y-98322014D01*
X190829467Y-98507625D01*
X190728715Y-98750262D01*
X190728486Y-99012985D01*
X190828814Y-99255798D01*
X191014425Y-99441733D01*
X191257062Y-99542485D01*
X191496475Y-99542694D01*
X191337467Y-99701425D01*
X191236715Y-99944062D01*
X191236579Y-100099591D01*
X191157101Y-100218538D01*
X191122299Y-100393501D01*
X191122299Y-105158336D01*
X191086519Y-105143479D01*
X190677277Y-105143122D01*
X190299050Y-105299402D01*
X190009419Y-105588528D01*
X189852479Y-105966481D01*
X189852122Y-106375723D01*
X190008402Y-106753950D01*
X190297528Y-107043581D01*
X190675481Y-107200521D01*
X191084723Y-107200878D01*
X191462950Y-107044598D01*
X191752581Y-106755472D01*
X191909521Y-106377519D01*
X191909522Y-106375723D01*
X192392122Y-106375723D01*
X192548402Y-106753950D01*
X192837528Y-107043581D01*
X193215481Y-107200521D01*
X193624723Y-107200878D01*
X194002950Y-107044598D01*
X194292581Y-106755472D01*
X194449521Y-106377519D01*
X194449878Y-105968277D01*
X194293598Y-105590050D01*
X194004472Y-105300419D01*
X193626519Y-105143479D01*
X193217277Y-105143122D01*
X192839050Y-105299402D01*
X192549419Y-105588528D01*
X192392479Y-105966481D01*
X192392122Y-106375723D01*
X191909522Y-106375723D01*
X191909878Y-105968277D01*
X191857665Y-105841913D01*
X191902788Y-105796790D01*
X192001897Y-105648464D01*
X192036699Y-105473501D01*
X192036699Y-100732831D01*
X192270598Y-100636186D01*
X192456533Y-100450575D01*
X192557285Y-100207938D01*
X192557514Y-99945215D01*
X192496872Y-99798450D01*
X194115719Y-101417297D01*
X194264045Y-101516406D01*
X194439008Y-101551208D01*
X196505285Y-101551208D01*
X196515390Y-101549198D01*
X204011638Y-101549198D01*
X202260112Y-103300724D01*
X202260314Y-103069395D01*
X202159986Y-102826582D01*
X201974375Y-102640647D01*
X201731738Y-102539895D01*
X201469015Y-102539666D01*
X201226202Y-102639994D01*
X201040267Y-102825605D01*
X200950466Y-103041868D01*
X199905790Y-103041868D01*
X199867801Y-103003879D01*
X199719475Y-102904770D01*
X199544512Y-102869968D01*
X195519933Y-102869968D01*
X195344970Y-102904770D01*
X195196644Y-103003879D01*
X194774297Y-103426226D01*
X194675188Y-103574552D01*
X194642808Y-103737341D01*
X194538053Y-103841913D01*
X194437301Y-104084550D01*
X194437072Y-104347273D01*
X194537400Y-104590086D01*
X194723011Y-104776021D01*
X194965648Y-104876773D01*
X195228371Y-104877002D01*
X195471184Y-104776674D01*
X195494389Y-104753509D01*
X195513344Y-104848803D01*
X195612453Y-104997129D01*
X195758447Y-105143123D01*
X195757277Y-105143122D01*
X195379050Y-105299402D01*
X195089419Y-105588528D01*
X194932479Y-105966481D01*
X194932122Y-106375723D01*
X195088402Y-106753950D01*
X195377528Y-107043581D01*
X195755481Y-107200521D01*
X196164723Y-107200878D01*
X196542950Y-107044598D01*
X196832581Y-106755472D01*
X196989521Y-106377519D01*
X196989878Y-105968277D01*
X196833598Y-105590050D01*
X196729929Y-105486200D01*
X199217584Y-105486200D01*
X199288484Y-105557224D01*
X199531121Y-105657976D01*
X199793844Y-105658205D01*
X200036657Y-105557877D01*
X200222592Y-105372266D01*
X200323344Y-105129629D01*
X200323436Y-105024622D01*
X201815241Y-106516427D01*
X201815115Y-106661022D01*
X201915443Y-106903835D01*
X202101054Y-107089770D01*
X202343691Y-107190522D01*
X202606414Y-107190751D01*
X202849227Y-107090423D01*
X203035162Y-106904812D01*
X203135914Y-106662175D01*
X203136143Y-106399452D01*
X203035815Y-106156639D01*
X202850204Y-105970704D01*
X202607567Y-105869952D01*
X202461795Y-105869825D01*
X200980049Y-104388079D01*
X202276535Y-104388079D01*
X202451498Y-104353277D01*
X202599824Y-104254168D01*
X202941599Y-103912393D01*
X202941599Y-104566829D01*
X202839266Y-104668984D01*
X202738514Y-104911621D01*
X202738285Y-105174344D01*
X202838613Y-105417157D01*
X203024224Y-105603092D01*
X203266861Y-105703844D01*
X203529584Y-105704073D01*
X203772397Y-105603745D01*
X203958332Y-105418134D01*
X204059084Y-105175497D01*
X204059313Y-104912774D01*
X203958985Y-104669961D01*
X203855999Y-104566795D01*
X203855999Y-103686079D01*
X205611355Y-101930723D01*
X210172122Y-101930723D01*
X210328402Y-102308950D01*
X210617528Y-102598581D01*
X210995481Y-102755521D01*
X211404723Y-102755878D01*
X211782950Y-102599598D01*
X212072581Y-102310472D01*
X212229521Y-101932519D01*
X212229522Y-101930723D01*
X212712122Y-101930723D01*
X212868402Y-102308950D01*
X213157528Y-102598581D01*
X213535481Y-102755521D01*
X213944723Y-102755878D01*
X214322950Y-102599598D01*
X214612581Y-102310472D01*
X214769521Y-101932519D01*
X214769878Y-101523277D01*
X214613598Y-101145050D01*
X214324472Y-100855419D01*
X213946519Y-100698479D01*
X213537277Y-100698122D01*
X213159050Y-100854402D01*
X212869419Y-101143528D01*
X212712479Y-101521481D01*
X212712122Y-101930723D01*
X212229522Y-101930723D01*
X212229878Y-101523277D01*
X212073598Y-101145050D01*
X211784472Y-100855419D01*
X211406519Y-100698479D01*
X210997277Y-100698122D01*
X210619050Y-100854402D01*
X210329419Y-101143528D01*
X210172479Y-101521481D01*
X210172122Y-101930723D01*
X205611355Y-101930723D01*
X208151355Y-99390723D01*
X210172122Y-99390723D01*
X210328402Y-99768950D01*
X210617528Y-100058581D01*
X210995481Y-100215521D01*
X211404723Y-100215878D01*
X211782950Y-100059598D01*
X212072581Y-99770472D01*
X212229521Y-99392519D01*
X212229522Y-99390723D01*
X212712122Y-99390723D01*
X212868402Y-99768950D01*
X213157528Y-100058581D01*
X213535481Y-100215521D01*
X213944723Y-100215878D01*
X214322950Y-100059598D01*
X214612581Y-99770472D01*
X214769521Y-99392519D01*
X214769878Y-98983277D01*
X214613598Y-98605050D01*
X214324472Y-98315419D01*
X213946519Y-98158479D01*
X213537277Y-98158122D01*
X213159050Y-98314402D01*
X212869419Y-98603528D01*
X212712479Y-98981481D01*
X212712122Y-99390723D01*
X212229522Y-99390723D01*
X212229878Y-98983277D01*
X212073598Y-98605050D01*
X211784472Y-98315419D01*
X211406519Y-98158479D01*
X210997277Y-98158122D01*
X210619050Y-98314402D01*
X210329419Y-98603528D01*
X210172479Y-98981481D01*
X210172122Y-99390723D01*
X208151355Y-99390723D01*
X208603289Y-98938789D01*
X208702398Y-98790463D01*
X208737200Y-98615500D01*
X208737200Y-97282000D01*
X208702398Y-97107037D01*
X208603289Y-96958711D01*
X208495301Y-96850723D01*
X210172122Y-96850723D01*
X210328402Y-97228950D01*
X210617528Y-97518581D01*
X210995481Y-97675521D01*
X211404723Y-97675878D01*
X211782950Y-97519598D01*
X212072581Y-97230472D01*
X212229521Y-96852519D01*
X212229522Y-96850723D01*
X212712122Y-96850723D01*
X212868402Y-97228950D01*
X213157528Y-97518581D01*
X213535481Y-97675521D01*
X213944723Y-97675878D01*
X214322950Y-97519598D01*
X214612581Y-97230472D01*
X214769521Y-96852519D01*
X214769878Y-96443277D01*
X214613598Y-96065050D01*
X214324472Y-95775419D01*
X213946519Y-95618479D01*
X213537277Y-95618122D01*
X213159050Y-95774402D01*
X212869419Y-96063528D01*
X212712479Y-96441481D01*
X212712122Y-96850723D01*
X212229522Y-96850723D01*
X212229878Y-96443277D01*
X212073598Y-96065050D01*
X211784472Y-95775419D01*
X211406519Y-95618479D01*
X210997277Y-95618122D01*
X210619050Y-95774402D01*
X210329419Y-96063528D01*
X210172479Y-96441481D01*
X210172122Y-96850723D01*
X208495301Y-96850723D01*
X207889947Y-96245369D01*
X207741621Y-96146260D01*
X207566658Y-96111458D01*
X207359730Y-96111458D01*
X207257575Y-96009125D01*
X207014938Y-95908373D01*
X206752215Y-95908144D01*
X206552800Y-95990540D01*
X206552800Y-94310723D01*
X210172122Y-94310723D01*
X210328402Y-94688950D01*
X210617528Y-94978581D01*
X210995481Y-95135521D01*
X211404723Y-95135878D01*
X211782950Y-94979598D01*
X212072581Y-94690472D01*
X212229521Y-94312519D01*
X212229522Y-94310723D01*
X212712122Y-94310723D01*
X212868402Y-94688950D01*
X213157528Y-94978581D01*
X213535481Y-95135521D01*
X213944723Y-95135878D01*
X214322950Y-94979598D01*
X214612581Y-94690472D01*
X214769521Y-94312519D01*
X214769878Y-93903277D01*
X214613598Y-93525050D01*
X214324472Y-93235419D01*
X213946519Y-93078479D01*
X213537277Y-93078122D01*
X213159050Y-93234402D01*
X212869419Y-93523528D01*
X212712479Y-93901481D01*
X212712122Y-94310723D01*
X212229522Y-94310723D01*
X212229878Y-93903277D01*
X212073598Y-93525050D01*
X211784472Y-93235419D01*
X211406519Y-93078479D01*
X210997277Y-93078122D01*
X210619050Y-93234402D01*
X210329419Y-93523528D01*
X210172479Y-93901481D01*
X210172122Y-94310723D01*
X206552800Y-94310723D01*
X206552800Y-93497400D01*
X206517998Y-93322437D01*
X206459854Y-93235419D01*
X206418889Y-93174110D01*
X205257388Y-92012610D01*
X205257514Y-91868015D01*
X205217314Y-91770723D01*
X210172122Y-91770723D01*
X210328402Y-92148950D01*
X210617528Y-92438581D01*
X210995481Y-92595521D01*
X211404723Y-92595878D01*
X211782950Y-92439598D01*
X212072581Y-92150472D01*
X212229521Y-91772519D01*
X212229522Y-91770723D01*
X212712122Y-91770723D01*
X212868402Y-92148950D01*
X213157528Y-92438581D01*
X213535481Y-92595521D01*
X213944723Y-92595878D01*
X214322950Y-92439598D01*
X214612581Y-92150472D01*
X214769521Y-91772519D01*
X214769878Y-91363277D01*
X214613598Y-90985050D01*
X214324472Y-90695419D01*
X213946519Y-90538479D01*
X213537277Y-90538122D01*
X213159050Y-90694402D01*
X212869419Y-90983528D01*
X212712479Y-91361481D01*
X212712122Y-91770723D01*
X212229522Y-91770723D01*
X212229878Y-91363277D01*
X212073598Y-90985050D01*
X211784472Y-90695419D01*
X211406519Y-90538479D01*
X210997277Y-90538122D01*
X210619050Y-90694402D01*
X210329419Y-90983528D01*
X210172479Y-91361481D01*
X210172122Y-91770723D01*
X205217314Y-91770723D01*
X205157186Y-91625202D01*
X204971575Y-91439267D01*
X204728938Y-91338515D01*
X204466215Y-91338286D01*
X204223402Y-91438614D01*
X204037467Y-91624225D01*
X203936715Y-91866862D01*
X203936486Y-92129585D01*
X204036814Y-92372398D01*
X204222425Y-92558333D01*
X204465062Y-92659085D01*
X204610834Y-92659212D01*
X205638400Y-93686779D01*
X205638400Y-96043325D01*
X205504975Y-95909667D01*
X205262338Y-95808915D01*
X204999615Y-95808686D01*
X204756802Y-95909014D01*
X204570867Y-96094625D01*
X204470115Y-96337262D01*
X204469988Y-96483034D01*
X201814837Y-99138185D01*
X196247210Y-99138185D01*
X196145055Y-99035852D01*
X195902418Y-98935100D01*
X195639695Y-98934871D01*
X195396882Y-99035199D01*
X195210947Y-99220810D01*
X195110195Y-99463447D01*
X195109966Y-99726170D01*
X195129393Y-99773186D01*
X194986108Y-99773186D01*
X194365509Y-99152587D01*
X194485087Y-99202240D01*
X194747810Y-99202469D01*
X194990623Y-99102141D01*
X195176558Y-98916530D01*
X195277310Y-98673893D01*
X195277539Y-98411170D01*
X195177211Y-98168357D01*
X195074225Y-98065191D01*
X195074225Y-94395633D01*
X195712789Y-93757069D01*
X195757800Y-93689706D01*
X195757800Y-94563496D01*
X195707266Y-94614030D01*
X195523902Y-94689794D01*
X195337967Y-94875405D01*
X195237215Y-95118042D01*
X195236986Y-95380765D01*
X195313300Y-95565460D01*
X195313300Y-97665350D01*
X195237215Y-97848582D01*
X195236986Y-98111305D01*
X195337314Y-98354118D01*
X195522925Y-98540053D01*
X195765562Y-98640805D01*
X196028285Y-98641034D01*
X196271098Y-98540706D01*
X196457033Y-98355095D01*
X196557785Y-98112458D01*
X196558014Y-97849735D01*
X196481700Y-97665040D01*
X196481700Y-95565150D01*
X196533669Y-95439995D01*
X196755092Y-95218572D01*
X196786903Y-95170963D01*
X196881730Y-95029044D01*
X196926200Y-94805480D01*
X196926200Y-94373700D01*
X199326500Y-94373700D01*
X199550064Y-94329230D01*
X199739592Y-94202592D01*
X203530872Y-90411312D01*
X204600657Y-90411312D01*
X204824221Y-90366842D01*
X205013749Y-90240204D01*
X206023230Y-89230723D01*
X210172122Y-89230723D01*
X210328402Y-89608950D01*
X210617528Y-89898581D01*
X210995481Y-90055521D01*
X211404723Y-90055878D01*
X211782950Y-89899598D01*
X212072581Y-89610472D01*
X212229521Y-89232519D01*
X212229522Y-89230723D01*
X212712122Y-89230723D01*
X212868402Y-89608950D01*
X213157528Y-89898581D01*
X213535481Y-90055521D01*
X213944723Y-90055878D01*
X214322950Y-89899598D01*
X214612581Y-89610472D01*
X214769521Y-89232519D01*
X214769878Y-88823277D01*
X214613598Y-88445050D01*
X214324472Y-88155419D01*
X213946519Y-87998479D01*
X213537277Y-87998122D01*
X213159050Y-88154402D01*
X212869419Y-88443528D01*
X212712479Y-88821481D01*
X212712122Y-89230723D01*
X212229522Y-89230723D01*
X212229878Y-88823277D01*
X212073598Y-88445050D01*
X211784472Y-88155419D01*
X211406519Y-87998479D01*
X210997277Y-87998122D01*
X210619050Y-88154402D01*
X210329419Y-88443528D01*
X210172479Y-88821481D01*
X210172122Y-89230723D01*
X206023230Y-89230723D01*
X208563230Y-86690723D01*
X210172122Y-86690723D01*
X210328402Y-87068950D01*
X210617528Y-87358581D01*
X210995481Y-87515521D01*
X211404723Y-87515878D01*
X211782950Y-87359598D01*
X212072581Y-87070472D01*
X212229521Y-86692519D01*
X212229522Y-86690723D01*
X212712122Y-86690723D01*
X212868402Y-87068950D01*
X213157528Y-87358581D01*
X213535481Y-87515521D01*
X213944723Y-87515878D01*
X214322950Y-87359598D01*
X214612581Y-87070472D01*
X214769521Y-86692519D01*
X214769878Y-86283277D01*
X214613598Y-85905050D01*
X214324472Y-85615419D01*
X213946519Y-85458479D01*
X213537277Y-85458122D01*
X213159050Y-85614402D01*
X212869419Y-85903528D01*
X212712479Y-86281481D01*
X212712122Y-86690723D01*
X212229522Y-86690723D01*
X212229878Y-86283277D01*
X212073598Y-85905050D01*
X211784472Y-85615419D01*
X211406519Y-85458479D01*
X210997277Y-85458122D01*
X210619050Y-85614402D01*
X210329419Y-85903528D01*
X210172479Y-86281481D01*
X210172122Y-86690723D01*
X208563230Y-86690723D01*
X209074092Y-86179861D01*
X209088394Y-86158457D01*
X209200730Y-85990333D01*
X209245200Y-85766769D01*
X209245200Y-84061984D01*
X210045984Y-83261200D01*
X210431926Y-83261200D01*
X210329419Y-83363528D01*
X210172479Y-83741481D01*
X210172122Y-84150723D01*
X210328402Y-84528950D01*
X210617528Y-84818581D01*
X210995481Y-84975521D01*
X211404723Y-84975878D01*
X211782950Y-84819598D01*
X212072581Y-84530472D01*
X212229521Y-84152519D01*
X212229878Y-83743277D01*
X212073598Y-83365050D01*
X211969929Y-83261200D01*
X212971926Y-83261200D01*
X212869419Y-83363528D01*
X212712479Y-83741481D01*
X212712122Y-84150723D01*
X212868402Y-84528950D01*
X213157528Y-84818581D01*
X213535481Y-84975521D01*
X213944723Y-84975878D01*
X214322950Y-84819598D01*
X214612581Y-84530472D01*
X214769521Y-84152519D01*
X214769878Y-83743277D01*
X214613598Y-83365050D01*
X214509929Y-83261200D01*
X215392000Y-83261200D01*
X215615564Y-83216730D01*
X215805092Y-83090092D01*
X217329089Y-81566094D01*
X217329092Y-81566092D01*
X217455730Y-81376564D01*
X217500200Y-81153000D01*
X217500200Y-73660005D01*
X217500201Y-73660000D01*
X217455731Y-73436437D01*
X217329092Y-73246908D01*
X215722200Y-71640016D01*
X215722200Y-62484000D01*
X215677730Y-62260436D01*
X215551092Y-62070908D01*
X214769524Y-61289340D01*
X214769878Y-60883277D01*
X214613598Y-60505050D01*
X214324472Y-60215419D01*
X213946519Y-60058479D01*
X213537277Y-60058122D01*
X213159050Y-60214402D01*
X212870148Y-60502800D01*
X212071352Y-60502800D01*
X211784472Y-60215419D01*
X211406519Y-60058479D01*
X210997277Y-60058122D01*
X210619050Y-60214402D01*
X210329419Y-60503528D01*
X210172479Y-60881481D01*
X210172122Y-61290723D01*
X210328402Y-61668950D01*
X210617528Y-61958581D01*
X210995481Y-62115521D01*
X211404723Y-62115878D01*
X211782950Y-61959598D01*
X212071852Y-61671200D01*
X212870648Y-61671200D01*
X213157528Y-61958581D01*
X213535481Y-62115521D01*
X213943693Y-62115877D01*
X214553800Y-62725984D01*
X214553800Y-62985148D01*
X214324472Y-62755419D01*
X213946519Y-62598479D01*
X213537277Y-62598122D01*
X213159050Y-62754402D01*
X212869419Y-63043528D01*
X212712479Y-63421481D01*
X212712122Y-63830723D01*
X212764335Y-63957087D01*
X212281622Y-64439800D01*
X211842852Y-64439800D01*
X212072581Y-64210472D01*
X212229521Y-63832519D01*
X212229878Y-63423277D01*
X212073598Y-63045050D01*
X211784472Y-62755419D01*
X211406519Y-62598479D01*
X210997277Y-62598122D01*
X210619050Y-62754402D01*
X210329419Y-63043528D01*
X210172479Y-63421481D01*
X210172122Y-63830723D01*
X210224335Y-63957087D01*
X209099711Y-65081711D01*
X209000602Y-65230037D01*
X208965800Y-65405000D01*
X208965800Y-65850622D01*
X207074622Y-67741800D01*
X206183378Y-67741800D01*
X205879700Y-67438122D01*
X205879700Y-66992500D01*
X205844898Y-66817537D01*
X205745789Y-66669211D01*
X205047289Y-65970711D01*
X204898963Y-65871602D01*
X204724000Y-65836800D01*
X201248506Y-65836800D01*
X201320285Y-65663938D01*
X201320514Y-65401215D01*
X201220186Y-65158402D01*
X201034575Y-64972467D01*
X200791938Y-64871715D01*
X200529215Y-64871486D01*
X200286402Y-64971814D01*
X200183236Y-65074800D01*
X198952000Y-65074800D01*
X198777037Y-65109602D01*
X198628711Y-65208711D01*
X198374714Y-65462708D01*
X198374711Y-65462710D01*
X195974810Y-67862612D01*
X195830215Y-67862486D01*
X195587402Y-67962814D01*
X195401467Y-68148425D01*
X195300715Y-68391062D01*
X195300486Y-68653785D01*
X195400814Y-68896598D01*
X195586425Y-69082533D01*
X195814462Y-69177222D01*
X195808715Y-69191062D01*
X195808486Y-69453785D01*
X195908814Y-69696598D01*
X196094425Y-69882533D01*
X196322462Y-69977222D01*
X196316715Y-69991062D01*
X196316486Y-70253785D01*
X196380537Y-70408800D01*
X196342000Y-70408800D01*
X196167037Y-70443602D01*
X196018711Y-70542711D01*
X195002711Y-71558711D01*
X194903602Y-71707037D01*
X194868800Y-71882000D01*
X194868800Y-73392616D01*
X190576200Y-69100016D01*
X190576200Y-68133170D01*
X190652285Y-67949938D01*
X190652514Y-67687215D01*
X190552186Y-67444402D01*
X190366575Y-67258467D01*
X190123938Y-67157715D01*
X189861215Y-67157486D01*
X189618402Y-67257814D01*
X189432467Y-67443425D01*
X189331715Y-67686062D01*
X189331486Y-67948785D01*
X189407800Y-68133480D01*
X189407800Y-69342000D01*
X189452270Y-69565564D01*
X189523522Y-69672200D01*
X189578908Y-69755092D01*
X196436908Y-76613092D01*
X196626437Y-76739731D01*
X196850000Y-76784201D01*
X196850005Y-76784200D01*
X197023494Y-76784200D01*
X196951715Y-76957062D01*
X196951486Y-77219785D01*
X197051814Y-77462598D01*
X197154800Y-77565764D01*
X197154800Y-80930270D01*
X197052467Y-81032425D01*
X196951715Y-81275062D01*
X196951486Y-81537785D01*
X197051814Y-81780598D01*
X197237425Y-81966533D01*
X197480062Y-82067285D01*
X197713688Y-82067489D01*
X197713486Y-82299785D01*
X197813814Y-82542598D01*
X197999425Y-82728533D01*
X198242062Y-82829285D01*
X198504785Y-82829514D01*
X198747598Y-82729186D01*
X198933533Y-82543575D01*
X199034285Y-82300938D01*
X199034514Y-82038215D01*
X198934186Y-81795402D01*
X198831200Y-81692236D01*
X198831200Y-80899000D01*
X198796398Y-80724037D01*
X198697289Y-80575711D01*
X198577200Y-80455622D01*
X198577200Y-80340723D01*
X200647122Y-80340723D01*
X200803402Y-80718950D01*
X201092528Y-81008581D01*
X201470481Y-81165521D01*
X201879723Y-81165878D01*
X202257950Y-81009598D01*
X202547581Y-80720472D01*
X202704521Y-80342519D01*
X202704878Y-79933277D01*
X202548598Y-79555050D01*
X202259472Y-79265419D01*
X201881519Y-79108479D01*
X201472277Y-79108122D01*
X201094050Y-79264402D01*
X200804419Y-79553528D01*
X200647479Y-79931481D01*
X200647122Y-80340723D01*
X198577200Y-80340723D01*
X198577200Y-77786378D01*
X198614190Y-77749388D01*
X198758785Y-77749514D01*
X199001598Y-77649186D01*
X199187533Y-77463575D01*
X199288285Y-77220938D01*
X199288514Y-76958215D01*
X199216613Y-76784200D01*
X200672016Y-76784200D01*
X200704107Y-76816291D01*
X200882557Y-76935526D01*
X200804419Y-77013528D01*
X200647479Y-77391481D01*
X200647122Y-77800723D01*
X200803402Y-78178950D01*
X201092528Y-78468581D01*
X201470481Y-78625521D01*
X201879723Y-78625878D01*
X202257950Y-78469598D01*
X202547581Y-78180472D01*
X202704521Y-77802519D01*
X202704878Y-77393277D01*
X202548598Y-77015050D01*
X202508318Y-76974700D01*
X203383315Y-76974700D01*
X203344419Y-77013528D01*
X203187479Y-77391481D01*
X203187122Y-77800723D01*
X203343402Y-78178950D01*
X203632528Y-78468581D01*
X204010481Y-78625521D01*
X204419723Y-78625878D01*
X204797950Y-78469598D01*
X204901800Y-78365929D01*
X204901800Y-79367926D01*
X204799472Y-79265419D01*
X204421519Y-79108479D01*
X204012277Y-79108122D01*
X203634050Y-79264402D01*
X203344419Y-79553528D01*
X203187479Y-79931481D01*
X203187122Y-80340723D01*
X203343402Y-80718950D01*
X203632528Y-81008581D01*
X204010481Y-81165521D01*
X204419723Y-81165878D01*
X204797950Y-81009598D01*
X204901800Y-80905929D01*
X204901800Y-81907926D01*
X204799472Y-81805419D01*
X204421519Y-81648479D01*
X204012277Y-81648122D01*
X203634050Y-81804402D01*
X203344419Y-82093528D01*
X203187479Y-82471481D01*
X203187123Y-82879693D01*
X202704016Y-83362800D01*
X201168000Y-83362800D01*
X200944436Y-83407270D01*
X200754908Y-83533908D01*
X198640016Y-85648800D01*
X196926200Y-85648800D01*
X196926200Y-83439000D01*
X196881731Y-83215437D01*
X196755092Y-83025908D01*
X195993092Y-82263908D01*
X195803564Y-82137270D01*
X195580000Y-82092800D01*
X194322700Y-82092800D01*
X194322700Y-75882500D01*
X194287898Y-75707537D01*
X194281385Y-75697789D01*
X194188789Y-75559210D01*
X193236289Y-74606711D01*
X193087963Y-74507602D01*
X192913000Y-74472800D01*
X192818230Y-74472800D01*
X192716075Y-74370467D01*
X192473438Y-74269715D01*
X192303478Y-74269567D01*
X192303514Y-74227715D01*
X192203186Y-73984902D01*
X192017575Y-73798967D01*
X191774938Y-73698215D01*
X191512215Y-73697986D01*
X191269402Y-73798314D01*
X191083467Y-73983925D01*
X190982715Y-74226562D01*
X190982486Y-74489285D01*
X191082814Y-74732098D01*
X191141759Y-74791146D01*
X191122300Y-74888973D01*
X191122300Y-78294010D01*
X191118598Y-78285050D01*
X190829472Y-77995419D01*
X190451519Y-77838479D01*
X190042277Y-77838122D01*
X189664050Y-77994402D01*
X189374419Y-78283528D01*
X189217479Y-78661481D01*
X189217122Y-79070723D01*
X189373402Y-79448950D01*
X189662528Y-79738581D01*
X190040481Y-79895521D01*
X190449723Y-79895878D01*
X190827950Y-79739598D01*
X191117581Y-79450472D01*
X191122300Y-79439107D01*
X191122300Y-80200500D01*
X191157102Y-80375463D01*
X191256211Y-80523789D01*
X191809243Y-81076821D01*
X191757479Y-81201481D01*
X191757122Y-81610723D01*
X191913402Y-81988950D01*
X192017071Y-82092800D01*
X191516000Y-82092800D01*
X191292436Y-82137270D01*
X191102908Y-82263908D01*
X190448340Y-82918476D01*
X190042277Y-82918122D01*
X189664050Y-83074402D01*
X189374419Y-83363528D01*
X189217479Y-83741481D01*
X189217122Y-84150723D01*
X189373402Y-84528950D01*
X189540460Y-84696300D01*
X189420500Y-84696300D01*
X189245537Y-84731102D01*
X189097211Y-84830211D01*
X188640012Y-85287410D01*
X188540903Y-85435736D01*
X188506101Y-85610699D01*
X188506101Y-87453321D01*
X187611323Y-88348099D01*
X187512214Y-88496425D01*
X187477412Y-88671388D01*
X187451200Y-88671388D01*
X187451200Y-81610723D01*
X189217122Y-81610723D01*
X189373402Y-81988950D01*
X189662528Y-82278581D01*
X190040481Y-82435521D01*
X190449723Y-82435878D01*
X190827950Y-82279598D01*
X191117581Y-81990472D01*
X191274521Y-81612519D01*
X191274878Y-81203277D01*
X191118598Y-80825050D01*
X190829472Y-80535419D01*
X190451519Y-80378479D01*
X190042277Y-80378122D01*
X189664050Y-80534402D01*
X189374419Y-80823528D01*
X189217479Y-81201481D01*
X189217122Y-81610723D01*
X187451200Y-81610723D01*
X187451200Y-74489275D01*
X187489986Y-74489275D01*
X187590314Y-74732088D01*
X187775925Y-74918023D01*
X188018562Y-75018775D01*
X188281285Y-75019004D01*
X188524098Y-74918676D01*
X188627264Y-74815690D01*
X189515254Y-74815690D01*
X189617419Y-74918033D01*
X189860056Y-75018785D01*
X190122779Y-75019014D01*
X190365592Y-74918686D01*
X190551527Y-74733075D01*
X190652279Y-74490438D01*
X190652508Y-74227715D01*
X190552180Y-73984902D01*
X190366569Y-73798967D01*
X190123932Y-73698215D01*
X189861209Y-73697986D01*
X189618396Y-73798314D01*
X189515240Y-73901290D01*
X188627230Y-73901290D01*
X188525075Y-73798957D01*
X188282438Y-73698205D01*
X188019715Y-73697976D01*
X187776902Y-73798304D01*
X187590967Y-73983915D01*
X187490215Y-74226552D01*
X187489986Y-74489275D01*
X187451200Y-74489275D01*
X187451200Y-73152000D01*
X187422259Y-73006504D01*
X187422259Y-73006503D01*
X187339842Y-72883158D01*
X184911200Y-70454516D01*
X184911200Y-65468500D01*
X192385831Y-65468500D01*
X192385831Y-66865500D01*
X192408856Y-66987865D01*
X192481173Y-67100249D01*
X192591517Y-67175644D01*
X192722500Y-67202169D01*
X194119500Y-67202169D01*
X194241865Y-67179144D01*
X194354249Y-67106827D01*
X194429644Y-66996483D01*
X194456169Y-66865500D01*
X194456169Y-66370723D01*
X194932122Y-66370723D01*
X195088402Y-66748950D01*
X195377528Y-67038581D01*
X195755481Y-67195521D01*
X196164723Y-67195878D01*
X196542950Y-67039598D01*
X196832581Y-66750472D01*
X196989521Y-66372519D01*
X196989878Y-65963277D01*
X196833598Y-65585050D01*
X196544472Y-65295419D01*
X196166519Y-65138479D01*
X195757277Y-65138122D01*
X195379050Y-65294402D01*
X195089419Y-65583528D01*
X194932479Y-65961481D01*
X194932122Y-66370723D01*
X194456169Y-66370723D01*
X194456169Y-65468500D01*
X194433144Y-65346135D01*
X194360827Y-65233751D01*
X194250483Y-65158356D01*
X194119500Y-65131831D01*
X192722500Y-65131831D01*
X192600135Y-65154856D01*
X192487751Y-65227173D01*
X192412356Y-65337517D01*
X192385831Y-65468500D01*
X184911200Y-65468500D01*
X184911200Y-61627318D01*
X184928402Y-61668950D01*
X185217528Y-61958581D01*
X185595481Y-62115521D01*
X186004723Y-62115878D01*
X186382950Y-61959598D01*
X186672581Y-61670472D01*
X186829521Y-61292519D01*
X186829522Y-61290723D01*
X187312122Y-61290723D01*
X187468402Y-61668950D01*
X187757528Y-61958581D01*
X188135481Y-62115521D01*
X188544723Y-62115878D01*
X188922950Y-61959598D01*
X189212581Y-61670472D01*
X189369521Y-61292519D01*
X189369522Y-61290723D01*
X189852122Y-61290723D01*
X190008402Y-61668950D01*
X190297528Y-61958581D01*
X190675481Y-62115521D01*
X191084723Y-62115878D01*
X191462950Y-61959598D01*
X191752581Y-61670472D01*
X191909521Y-61292519D01*
X191909522Y-61290723D01*
X192392122Y-61290723D01*
X192548402Y-61668950D01*
X192837528Y-61958581D01*
X193215481Y-62115521D01*
X193624723Y-62115878D01*
X194002950Y-61959598D01*
X194292581Y-61670472D01*
X194449521Y-61292519D01*
X194449522Y-61290723D01*
X194932122Y-61290723D01*
X195088402Y-61668950D01*
X195377528Y-61958581D01*
X195755481Y-62115521D01*
X196164723Y-62115878D01*
X196542950Y-61959598D01*
X196832581Y-61670472D01*
X196989521Y-61292519D01*
X196989522Y-61290723D01*
X197472122Y-61290723D01*
X197628402Y-61668950D01*
X197917528Y-61958581D01*
X198295481Y-62115521D01*
X198704723Y-62115878D01*
X199082950Y-61959598D01*
X199372581Y-61670472D01*
X199529521Y-61292519D01*
X199529522Y-61290723D01*
X200012122Y-61290723D01*
X200168402Y-61668950D01*
X200457528Y-61958581D01*
X200835481Y-62115521D01*
X201244723Y-62115878D01*
X201622950Y-61959598D01*
X201912581Y-61670472D01*
X202069521Y-61292519D01*
X202069522Y-61290723D01*
X202552122Y-61290723D01*
X202708402Y-61668950D01*
X202997528Y-61958581D01*
X203375481Y-62115521D01*
X203784723Y-62115878D01*
X204162950Y-61959598D01*
X204452581Y-61670472D01*
X204544356Y-61449452D01*
X205560483Y-61449452D01*
X205838527Y-62122371D01*
X206352921Y-62637664D01*
X207025354Y-62916882D01*
X207753452Y-62917517D01*
X208426371Y-62639473D01*
X208941664Y-62125079D01*
X209220882Y-61452646D01*
X209221517Y-60724548D01*
X208943473Y-60051629D01*
X208429079Y-59536336D01*
X207756646Y-59257118D01*
X207028548Y-59256483D01*
X206355629Y-59534527D01*
X205840336Y-60048921D01*
X205561118Y-60721354D01*
X205560483Y-61449452D01*
X204544356Y-61449452D01*
X204609521Y-61292519D01*
X204609878Y-60883277D01*
X204453598Y-60505050D01*
X204164472Y-60215419D01*
X203786519Y-60058479D01*
X203377277Y-60058122D01*
X202999050Y-60214402D01*
X202709419Y-60503528D01*
X202552479Y-60881481D01*
X202552122Y-61290723D01*
X202069522Y-61290723D01*
X202069878Y-60883277D01*
X201913598Y-60505050D01*
X201624472Y-60215419D01*
X201246519Y-60058479D01*
X200837277Y-60058122D01*
X200459050Y-60214402D01*
X200169419Y-60503528D01*
X200012479Y-60881481D01*
X200012122Y-61290723D01*
X199529522Y-61290723D01*
X199529878Y-60883277D01*
X199373598Y-60505050D01*
X199084472Y-60215419D01*
X198706519Y-60058479D01*
X198297277Y-60058122D01*
X197919050Y-60214402D01*
X197629419Y-60503528D01*
X197472479Y-60881481D01*
X197472122Y-61290723D01*
X196989522Y-61290723D01*
X196989878Y-60883277D01*
X196833598Y-60505050D01*
X196544472Y-60215419D01*
X196166519Y-60058479D01*
X195757277Y-60058122D01*
X195379050Y-60214402D01*
X195089419Y-60503528D01*
X194932479Y-60881481D01*
X194932122Y-61290723D01*
X194449522Y-61290723D01*
X194449878Y-60883277D01*
X194293598Y-60505050D01*
X194004472Y-60215419D01*
X193626519Y-60058479D01*
X193217277Y-60058122D01*
X192839050Y-60214402D01*
X192549419Y-60503528D01*
X192392479Y-60881481D01*
X192392122Y-61290723D01*
X191909522Y-61290723D01*
X191909878Y-60883277D01*
X191753598Y-60505050D01*
X191464472Y-60215419D01*
X191086519Y-60058479D01*
X190677277Y-60058122D01*
X190299050Y-60214402D01*
X190009419Y-60503528D01*
X189852479Y-60881481D01*
X189852122Y-61290723D01*
X189369522Y-61290723D01*
X189369878Y-60883277D01*
X189213598Y-60505050D01*
X188924472Y-60215419D01*
X188546519Y-60058479D01*
X188137277Y-60058122D01*
X187759050Y-60214402D01*
X187469419Y-60503528D01*
X187312479Y-60881481D01*
X187312122Y-61290723D01*
X186829522Y-61290723D01*
X186829878Y-60883277D01*
X186673598Y-60505050D01*
X186384472Y-60215419D01*
X186006519Y-60058479D01*
X185597277Y-60058122D01*
X185219050Y-60214402D01*
X184929419Y-60503528D01*
X184911200Y-60547404D01*
X184911200Y-58927200D01*
X213583516Y-58927200D01*
X215900800Y-61244484D01*
X215900800Y-61244484D01*
G37*
X215900800Y-61244484D02*
X215900800Y-71247000D01*
X215929741Y-71392496D01*
X216012158Y-71515842D01*
X218440800Y-73944484D01*
X218440800Y-107919516D01*
X216012158Y-110348158D01*
X215929741Y-110471504D01*
X215900800Y-110617000D01*
X215900800Y-110706551D01*
X215835853Y-111033062D01*
X215672114Y-111278114D01*
X215427059Y-111441854D01*
X215100551Y-111506800D01*
X184911200Y-111506800D01*
X184911200Y-110139484D01*
X185499961Y-109550723D01*
X189852122Y-109550723D01*
X190008402Y-109928950D01*
X190297528Y-110218581D01*
X190675481Y-110375521D01*
X191084723Y-110375878D01*
X191462950Y-110219598D01*
X191752581Y-109930472D01*
X191909521Y-109552519D01*
X191909522Y-109550723D01*
X192392122Y-109550723D01*
X192548402Y-109928950D01*
X192837528Y-110218581D01*
X193215481Y-110375521D01*
X193624723Y-110375878D01*
X194002950Y-110219598D01*
X194292581Y-109930472D01*
X194449521Y-109552519D01*
X194449522Y-109550723D01*
X194932122Y-109550723D01*
X195088402Y-109928950D01*
X195377528Y-110218581D01*
X195755481Y-110375521D01*
X196164723Y-110375878D01*
X196542950Y-110219598D01*
X196832581Y-109930472D01*
X196989521Y-109552519D01*
X196989522Y-109550723D01*
X197472122Y-109550723D01*
X197628402Y-109928950D01*
X197917528Y-110218581D01*
X198295481Y-110375521D01*
X198704723Y-110375878D01*
X199082950Y-110219598D01*
X199372581Y-109930472D01*
X199529521Y-109552519D01*
X199529522Y-109550723D01*
X200012122Y-109550723D01*
X200168402Y-109928950D01*
X200457528Y-110218581D01*
X200835481Y-110375521D01*
X201244723Y-110375878D01*
X201622950Y-110219598D01*
X201912581Y-109930472D01*
X202069521Y-109552519D01*
X202069522Y-109550723D01*
X202552122Y-109550723D01*
X202708402Y-109928950D01*
X202997528Y-110218581D01*
X203375481Y-110375521D01*
X203784723Y-110375878D01*
X204162950Y-110219598D01*
X204452581Y-109930472D01*
X204609521Y-109552519D01*
X204609522Y-109550723D01*
X205092122Y-109550723D01*
X205248402Y-109928950D01*
X205537528Y-110218581D01*
X205915481Y-110375521D01*
X206324723Y-110375878D01*
X206702950Y-110219598D01*
X206992581Y-109930472D01*
X207149521Y-109552519D01*
X207149522Y-109550723D01*
X207632122Y-109550723D01*
X207788402Y-109928950D01*
X208077528Y-110218581D01*
X208455481Y-110375521D01*
X208864723Y-110375878D01*
X209242950Y-110219598D01*
X209532581Y-109930472D01*
X209624356Y-109709452D01*
X211910483Y-109709452D01*
X212188527Y-110382371D01*
X212702921Y-110897664D01*
X213375354Y-111176882D01*
X214103452Y-111177517D01*
X214776371Y-110899473D01*
X215291664Y-110385079D01*
X215570882Y-109712646D01*
X215571517Y-108984548D01*
X215293473Y-108311629D01*
X214779079Y-107796336D01*
X214106646Y-107517118D01*
X213378548Y-107516483D01*
X212705629Y-107794527D01*
X212190336Y-108308921D01*
X211911118Y-108981354D01*
X211910483Y-109709452D01*
X209624356Y-109709452D01*
X209689521Y-109552519D01*
X209689878Y-109143277D01*
X209533598Y-108765050D01*
X209244472Y-108475419D01*
X208866519Y-108318479D01*
X208457277Y-108318122D01*
X208079050Y-108474402D01*
X207789419Y-108763528D01*
X207632479Y-109141481D01*
X207632122Y-109550723D01*
X207149522Y-109550723D01*
X207149878Y-109143277D01*
X206993598Y-108765050D01*
X206704472Y-108475419D01*
X206326519Y-108318479D01*
X205917277Y-108318122D01*
X205539050Y-108474402D01*
X205249419Y-108763528D01*
X205092479Y-109141481D01*
X205092122Y-109550723D01*
X204609522Y-109550723D01*
X204609878Y-109143277D01*
X204453598Y-108765050D01*
X204164472Y-108475419D01*
X203786519Y-108318479D01*
X203377277Y-108318122D01*
X202999050Y-108474402D01*
X202709419Y-108763528D01*
X202552479Y-109141481D01*
X202552122Y-109550723D01*
X202069522Y-109550723D01*
X202069878Y-109143277D01*
X201913598Y-108765050D01*
X201624472Y-108475419D01*
X201246519Y-108318479D01*
X200837277Y-108318122D01*
X200459050Y-108474402D01*
X200169419Y-108763528D01*
X200012479Y-109141481D01*
X200012122Y-109550723D01*
X199529522Y-109550723D01*
X199529878Y-109143277D01*
X199373598Y-108765050D01*
X199084472Y-108475419D01*
X198706519Y-108318479D01*
X198297277Y-108318122D01*
X197919050Y-108474402D01*
X197629419Y-108763528D01*
X197472479Y-109141481D01*
X197472122Y-109550723D01*
X196989522Y-109550723D01*
X196989878Y-109143277D01*
X196833598Y-108765050D01*
X196544472Y-108475419D01*
X196166519Y-108318479D01*
X195757277Y-108318122D01*
X195379050Y-108474402D01*
X195089419Y-108763528D01*
X194932479Y-109141481D01*
X194932122Y-109550723D01*
X194449522Y-109550723D01*
X194449878Y-109143277D01*
X194293598Y-108765050D01*
X194004472Y-108475419D01*
X193626519Y-108318479D01*
X193217277Y-108318122D01*
X192839050Y-108474402D01*
X192549419Y-108763528D01*
X192392479Y-109141481D01*
X192392122Y-109550723D01*
X191909522Y-109550723D01*
X191909878Y-109143277D01*
X191753598Y-108765050D01*
X191464472Y-108475419D01*
X191086519Y-108318479D01*
X190677277Y-108318122D01*
X190299050Y-108474402D01*
X190009419Y-108763528D01*
X189852479Y-109141481D01*
X189852122Y-109550723D01*
X185499961Y-109550723D01*
X187339842Y-107710842D01*
X187422259Y-107587497D01*
X187451200Y-107442000D01*
X187451200Y-88671388D01*
X187477412Y-88671388D01*
X187477412Y-99944044D01*
X187512214Y-100119007D01*
X187611323Y-100267333D01*
X188290232Y-100946242D01*
X188290106Y-101090837D01*
X188390434Y-101333650D01*
X188576045Y-101519585D01*
X188818682Y-101620337D01*
X189081405Y-101620566D01*
X189324218Y-101520238D01*
X189510153Y-101334627D01*
X189610905Y-101091990D01*
X189611134Y-100829267D01*
X189510806Y-100586454D01*
X189325195Y-100400519D01*
X189082558Y-100299767D01*
X188936786Y-100299640D01*
X188391812Y-99754666D01*
X188391812Y-96070997D01*
X188437694Y-96090049D01*
X188700417Y-96090278D01*
X188943230Y-95989950D01*
X189046396Y-95886964D01*
X191629010Y-95886964D01*
X191649425Y-95907415D01*
X191769900Y-95957441D01*
X191711831Y-95957390D01*
X191469018Y-96057718D01*
X191283083Y-96243329D01*
X191182331Y-96485966D01*
X191182102Y-96748689D01*
X191270247Y-96962017D01*
X191159667Y-97072405D01*
X191058915Y-97315042D01*
X191058686Y-97577765D01*
X191159014Y-97820578D01*
X191337452Y-97999327D01*
X191395911Y-98086817D01*
X191538160Y-98229066D01*
X191520938Y-98221915D01*
X191258215Y-98221686D01*
X191015402Y-98322014D01*
X190829467Y-98507625D01*
X190728715Y-98750262D01*
X190728486Y-99012985D01*
X190828814Y-99255798D01*
X191014425Y-99441733D01*
X191257062Y-99542485D01*
X191496475Y-99542694D01*
X191337467Y-99701425D01*
X191236715Y-99944062D01*
X191236579Y-100099591D01*
X191157101Y-100218538D01*
X191122299Y-100393501D01*
X191122299Y-105158336D01*
X191086519Y-105143479D01*
X190677277Y-105143122D01*
X190299050Y-105299402D01*
X190009419Y-105588528D01*
X189852479Y-105966481D01*
X189852122Y-106375723D01*
X190008402Y-106753950D01*
X190297528Y-107043581D01*
X190675481Y-107200521D01*
X191084723Y-107200878D01*
X191462950Y-107044598D01*
X191752581Y-106755472D01*
X191909521Y-106377519D01*
X191909522Y-106375723D01*
X192392122Y-106375723D01*
X192548402Y-106753950D01*
X192837528Y-107043581D01*
X193215481Y-107200521D01*
X193624723Y-107200878D01*
X194002950Y-107044598D01*
X194292581Y-106755472D01*
X194449521Y-106377519D01*
X194449878Y-105968277D01*
X194293598Y-105590050D01*
X194004472Y-105300419D01*
X193626519Y-105143479D01*
X193217277Y-105143122D01*
X192839050Y-105299402D01*
X192549419Y-105588528D01*
X192392479Y-105966481D01*
X192392122Y-106375723D01*
X191909522Y-106375723D01*
X191909878Y-105968277D01*
X191857665Y-105841913D01*
X191902788Y-105796790D01*
X192001897Y-105648464D01*
X192036699Y-105473501D01*
X192036699Y-100732831D01*
X192270598Y-100636186D01*
X192456533Y-100450575D01*
X192557285Y-100207938D01*
X192557514Y-99945215D01*
X192496872Y-99798450D01*
X194115719Y-101417297D01*
X194264045Y-101516406D01*
X194439008Y-101551208D01*
X196505285Y-101551208D01*
X196515390Y-101549198D01*
X204011638Y-101549198D01*
X202260112Y-103300724D01*
X202260314Y-103069395D01*
X202159986Y-102826582D01*
X201974375Y-102640647D01*
X201731738Y-102539895D01*
X201469015Y-102539666D01*
X201226202Y-102639994D01*
X201040267Y-102825605D01*
X200950466Y-103041868D01*
X199905790Y-103041868D01*
X199867801Y-103003879D01*
X199719475Y-102904770D01*
X199544512Y-102869968D01*
X195519933Y-102869968D01*
X195344970Y-102904770D01*
X195196644Y-103003879D01*
X194774297Y-103426226D01*
X194675188Y-103574552D01*
X194642808Y-103737341D01*
X194538053Y-103841913D01*
X194437301Y-104084550D01*
X194437072Y-104347273D01*
X194537400Y-104590086D01*
X194723011Y-104776021D01*
X194965648Y-104876773D01*
X195228371Y-104877002D01*
X195471184Y-104776674D01*
X195494389Y-104753509D01*
X195513344Y-104848803D01*
X195612453Y-104997129D01*
X195758447Y-105143123D01*
X195757277Y-105143122D01*
X195379050Y-105299402D01*
X195089419Y-105588528D01*
X194932479Y-105966481D01*
X194932122Y-106375723D01*
X195088402Y-106753950D01*
X195377528Y-107043581D01*
X195755481Y-107200521D01*
X196164723Y-107200878D01*
X196542950Y-107044598D01*
X196832581Y-106755472D01*
X196989521Y-106377519D01*
X196989878Y-105968277D01*
X196833598Y-105590050D01*
X196729929Y-105486200D01*
X199217584Y-105486200D01*
X199288484Y-105557224D01*
X199531121Y-105657976D01*
X199793844Y-105658205D01*
X200036657Y-105557877D01*
X200222592Y-105372266D01*
X200323344Y-105129629D01*
X200323436Y-105024622D01*
X201815241Y-106516427D01*
X201815115Y-106661022D01*
X201915443Y-106903835D01*
X202101054Y-107089770D01*
X202343691Y-107190522D01*
X202606414Y-107190751D01*
X202849227Y-107090423D01*
X203035162Y-106904812D01*
X203135914Y-106662175D01*
X203136143Y-106399452D01*
X203035815Y-106156639D01*
X202850204Y-105970704D01*
X202607567Y-105869952D01*
X202461795Y-105869825D01*
X200980049Y-104388079D01*
X202276535Y-104388079D01*
X202451498Y-104353277D01*
X202599824Y-104254168D01*
X202941599Y-103912393D01*
X202941599Y-104566829D01*
X202839266Y-104668984D01*
X202738514Y-104911621D01*
X202738285Y-105174344D01*
X202838613Y-105417157D01*
X203024224Y-105603092D01*
X203266861Y-105703844D01*
X203529584Y-105704073D01*
X203772397Y-105603745D01*
X203958332Y-105418134D01*
X204059084Y-105175497D01*
X204059313Y-104912774D01*
X203958985Y-104669961D01*
X203855999Y-104566795D01*
X203855999Y-103686079D01*
X205611355Y-101930723D01*
X210172122Y-101930723D01*
X210328402Y-102308950D01*
X210617528Y-102598581D01*
X210995481Y-102755521D01*
X211404723Y-102755878D01*
X211782950Y-102599598D01*
X212072581Y-102310472D01*
X212229521Y-101932519D01*
X212229522Y-101930723D01*
X212712122Y-101930723D01*
X212868402Y-102308950D01*
X213157528Y-102598581D01*
X213535481Y-102755521D01*
X213944723Y-102755878D01*
X214322950Y-102599598D01*
X214612581Y-102310472D01*
X214769521Y-101932519D01*
X214769878Y-101523277D01*
X214613598Y-101145050D01*
X214324472Y-100855419D01*
X213946519Y-100698479D01*
X213537277Y-100698122D01*
X213159050Y-100854402D01*
X212869419Y-101143528D01*
X212712479Y-101521481D01*
X212712122Y-101930723D01*
X212229522Y-101930723D01*
X212229878Y-101523277D01*
X212073598Y-101145050D01*
X211784472Y-100855419D01*
X211406519Y-100698479D01*
X210997277Y-100698122D01*
X210619050Y-100854402D01*
X210329419Y-101143528D01*
X210172479Y-101521481D01*
X210172122Y-101930723D01*
X205611355Y-101930723D01*
X208151355Y-99390723D01*
X210172122Y-99390723D01*
X210328402Y-99768950D01*
X210617528Y-100058581D01*
X210995481Y-100215521D01*
X211404723Y-100215878D01*
X211782950Y-100059598D01*
X212072581Y-99770472D01*
X212229521Y-99392519D01*
X212229522Y-99390723D01*
X212712122Y-99390723D01*
X212868402Y-99768950D01*
X213157528Y-100058581D01*
X213535481Y-100215521D01*
X213944723Y-100215878D01*
X214322950Y-100059598D01*
X214612581Y-99770472D01*
X214769521Y-99392519D01*
X214769878Y-98983277D01*
X214613598Y-98605050D01*
X214324472Y-98315419D01*
X213946519Y-98158479D01*
X213537277Y-98158122D01*
X213159050Y-98314402D01*
X212869419Y-98603528D01*
X212712479Y-98981481D01*
X212712122Y-99390723D01*
X212229522Y-99390723D01*
X212229878Y-98983277D01*
X212073598Y-98605050D01*
X211784472Y-98315419D01*
X211406519Y-98158479D01*
X210997277Y-98158122D01*
X210619050Y-98314402D01*
X210329419Y-98603528D01*
X210172479Y-98981481D01*
X210172122Y-99390723D01*
X208151355Y-99390723D01*
X208603289Y-98938789D01*
X208702398Y-98790463D01*
X208737200Y-98615500D01*
X208737200Y-97282000D01*
X208702398Y-97107037D01*
X208603289Y-96958711D01*
X208495301Y-96850723D01*
X210172122Y-96850723D01*
X210328402Y-97228950D01*
X210617528Y-97518581D01*
X210995481Y-97675521D01*
X211404723Y-97675878D01*
X211782950Y-97519598D01*
X212072581Y-97230472D01*
X212229521Y-96852519D01*
X212229522Y-96850723D01*
X212712122Y-96850723D01*
X212868402Y-97228950D01*
X213157528Y-97518581D01*
X213535481Y-97675521D01*
X213944723Y-97675878D01*
X214322950Y-97519598D01*
X214612581Y-97230472D01*
X214769521Y-96852519D01*
X214769878Y-96443277D01*
X214613598Y-96065050D01*
X214324472Y-95775419D01*
X213946519Y-95618479D01*
X213537277Y-95618122D01*
X213159050Y-95774402D01*
X212869419Y-96063528D01*
X212712479Y-96441481D01*
X212712122Y-96850723D01*
X212229522Y-96850723D01*
X212229878Y-96443277D01*
X212073598Y-96065050D01*
X211784472Y-95775419D01*
X211406519Y-95618479D01*
X210997277Y-95618122D01*
X210619050Y-95774402D01*
X210329419Y-96063528D01*
X210172479Y-96441481D01*
X210172122Y-96850723D01*
X208495301Y-96850723D01*
X207889947Y-96245369D01*
X207741621Y-96146260D01*
X207566658Y-96111458D01*
X207359730Y-96111458D01*
X207257575Y-96009125D01*
X207014938Y-95908373D01*
X206752215Y-95908144D01*
X206552800Y-95990540D01*
X206552800Y-94310723D01*
X210172122Y-94310723D01*
X210328402Y-94688950D01*
X210617528Y-94978581D01*
X210995481Y-95135521D01*
X211404723Y-95135878D01*
X211782950Y-94979598D01*
X212072581Y-94690472D01*
X212229521Y-94312519D01*
X212229522Y-94310723D01*
X212712122Y-94310723D01*
X212868402Y-94688950D01*
X213157528Y-94978581D01*
X213535481Y-95135521D01*
X213944723Y-95135878D01*
X214322950Y-94979598D01*
X214612581Y-94690472D01*
X214769521Y-94312519D01*
X214769878Y-93903277D01*
X214613598Y-93525050D01*
X214324472Y-93235419D01*
X213946519Y-93078479D01*
X213537277Y-93078122D01*
X213159050Y-93234402D01*
X212869419Y-93523528D01*
X212712479Y-93901481D01*
X212712122Y-94310723D01*
X212229522Y-94310723D01*
X212229878Y-93903277D01*
X212073598Y-93525050D01*
X211784472Y-93235419D01*
X211406519Y-93078479D01*
X210997277Y-93078122D01*
X210619050Y-93234402D01*
X210329419Y-93523528D01*
X210172479Y-93901481D01*
X210172122Y-94310723D01*
X206552800Y-94310723D01*
X206552800Y-93497400D01*
X206517998Y-93322437D01*
X206459854Y-93235419D01*
X206418889Y-93174110D01*
X205257388Y-92012610D01*
X205257514Y-91868015D01*
X205217314Y-91770723D01*
X210172122Y-91770723D01*
X210328402Y-92148950D01*
X210617528Y-92438581D01*
X210995481Y-92595521D01*
X211404723Y-92595878D01*
X211782950Y-92439598D01*
X212072581Y-92150472D01*
X212229521Y-91772519D01*
X212229522Y-91770723D01*
X212712122Y-91770723D01*
X212868402Y-92148950D01*
X213157528Y-92438581D01*
X213535481Y-92595521D01*
X213944723Y-92595878D01*
X214322950Y-92439598D01*
X214612581Y-92150472D01*
X214769521Y-91772519D01*
X214769878Y-91363277D01*
X214613598Y-90985050D01*
X214324472Y-90695419D01*
X213946519Y-90538479D01*
X213537277Y-90538122D01*
X213159050Y-90694402D01*
X212869419Y-90983528D01*
X212712479Y-91361481D01*
X212712122Y-91770723D01*
X212229522Y-91770723D01*
X212229878Y-91363277D01*
X212073598Y-90985050D01*
X211784472Y-90695419D01*
X211406519Y-90538479D01*
X210997277Y-90538122D01*
X210619050Y-90694402D01*
X210329419Y-90983528D01*
X210172479Y-91361481D01*
X210172122Y-91770723D01*
X205217314Y-91770723D01*
X205157186Y-91625202D01*
X204971575Y-91439267D01*
X204728938Y-91338515D01*
X204466215Y-91338286D01*
X204223402Y-91438614D01*
X204037467Y-91624225D01*
X203936715Y-91866862D01*
X203936486Y-92129585D01*
X204036814Y-92372398D01*
X204222425Y-92558333D01*
X204465062Y-92659085D01*
X204610834Y-92659212D01*
X205638400Y-93686779D01*
X205638400Y-96043325D01*
X205504975Y-95909667D01*
X205262338Y-95808915D01*
X204999615Y-95808686D01*
X204756802Y-95909014D01*
X204570867Y-96094625D01*
X204470115Y-96337262D01*
X204469988Y-96483034D01*
X201814837Y-99138185D01*
X196247210Y-99138185D01*
X196145055Y-99035852D01*
X195902418Y-98935100D01*
X195639695Y-98934871D01*
X195396882Y-99035199D01*
X195210947Y-99220810D01*
X195110195Y-99463447D01*
X195109966Y-99726170D01*
X195129393Y-99773186D01*
X194986108Y-99773186D01*
X194365509Y-99152587D01*
X194485087Y-99202240D01*
X194747810Y-99202469D01*
X194990623Y-99102141D01*
X195176558Y-98916530D01*
X195277310Y-98673893D01*
X195277539Y-98411170D01*
X195177211Y-98168357D01*
X195074225Y-98065191D01*
X195074225Y-94395633D01*
X195712789Y-93757069D01*
X195757800Y-93689706D01*
X195757800Y-94563496D01*
X195707266Y-94614030D01*
X195523902Y-94689794D01*
X195337967Y-94875405D01*
X195237215Y-95118042D01*
X195236986Y-95380765D01*
X195313300Y-95565460D01*
X195313300Y-97665350D01*
X195237215Y-97848582D01*
X195236986Y-98111305D01*
X195337314Y-98354118D01*
X195522925Y-98540053D01*
X195765562Y-98640805D01*
X196028285Y-98641034D01*
X196271098Y-98540706D01*
X196457033Y-98355095D01*
X196557785Y-98112458D01*
X196558014Y-97849735D01*
X196481700Y-97665040D01*
X196481700Y-95565150D01*
X196533669Y-95439995D01*
X196755092Y-95218572D01*
X196786903Y-95170963D01*
X196881730Y-95029044D01*
X196926200Y-94805480D01*
X196926200Y-94373700D01*
X199326500Y-94373700D01*
X199550064Y-94329230D01*
X199739592Y-94202592D01*
X203530872Y-90411312D01*
X204600657Y-90411312D01*
X204824221Y-90366842D01*
X205013749Y-90240204D01*
X206023230Y-89230723D01*
X210172122Y-89230723D01*
X210328402Y-89608950D01*
X210617528Y-89898581D01*
X210995481Y-90055521D01*
X211404723Y-90055878D01*
X211782950Y-89899598D01*
X212072581Y-89610472D01*
X212229521Y-89232519D01*
X212229522Y-89230723D01*
X212712122Y-89230723D01*
X212868402Y-89608950D01*
X213157528Y-89898581D01*
X213535481Y-90055521D01*
X213944723Y-90055878D01*
X214322950Y-89899598D01*
X214612581Y-89610472D01*
X214769521Y-89232519D01*
X214769878Y-88823277D01*
X214613598Y-88445050D01*
X214324472Y-88155419D01*
X213946519Y-87998479D01*
X213537277Y-87998122D01*
X213159050Y-88154402D01*
X212869419Y-88443528D01*
X212712479Y-88821481D01*
X212712122Y-89230723D01*
X212229522Y-89230723D01*
X212229878Y-88823277D01*
X212073598Y-88445050D01*
X211784472Y-88155419D01*
X211406519Y-87998479D01*
X210997277Y-87998122D01*
X210619050Y-88154402D01*
X210329419Y-88443528D01*
X210172479Y-88821481D01*
X210172122Y-89230723D01*
X206023230Y-89230723D01*
X208563230Y-86690723D01*
X210172122Y-86690723D01*
X210328402Y-87068950D01*
X210617528Y-87358581D01*
X210995481Y-87515521D01*
X211404723Y-87515878D01*
X211782950Y-87359598D01*
X212072581Y-87070472D01*
X212229521Y-86692519D01*
X212229522Y-86690723D01*
X212712122Y-86690723D01*
X212868402Y-87068950D01*
X213157528Y-87358581D01*
X213535481Y-87515521D01*
X213944723Y-87515878D01*
X214322950Y-87359598D01*
X214612581Y-87070472D01*
X214769521Y-86692519D01*
X214769878Y-86283277D01*
X214613598Y-85905050D01*
X214324472Y-85615419D01*
X213946519Y-85458479D01*
X213537277Y-85458122D01*
X213159050Y-85614402D01*
X212869419Y-85903528D01*
X212712479Y-86281481D01*
X212712122Y-86690723D01*
X212229522Y-86690723D01*
X212229878Y-86283277D01*
X212073598Y-85905050D01*
X211784472Y-85615419D01*
X211406519Y-85458479D01*
X210997277Y-85458122D01*
X210619050Y-85614402D01*
X210329419Y-85903528D01*
X210172479Y-86281481D01*
X210172122Y-86690723D01*
X208563230Y-86690723D01*
X209074092Y-86179861D01*
X209088394Y-86158457D01*
X209200730Y-85990333D01*
X209245200Y-85766769D01*
X209245200Y-84061984D01*
X210045984Y-83261200D01*
X210431926Y-83261200D01*
X210329419Y-83363528D01*
X210172479Y-83741481D01*
X210172122Y-84150723D01*
X210328402Y-84528950D01*
X210617528Y-84818581D01*
X210995481Y-84975521D01*
X211404723Y-84975878D01*
X211782950Y-84819598D01*
X212072581Y-84530472D01*
X212229521Y-84152519D01*
X212229878Y-83743277D01*
X212073598Y-83365050D01*
X211969929Y-83261200D01*
X212971926Y-83261200D01*
X212869419Y-83363528D01*
X212712479Y-83741481D01*
X212712122Y-84150723D01*
X212868402Y-84528950D01*
X213157528Y-84818581D01*
X213535481Y-84975521D01*
X213944723Y-84975878D01*
X214322950Y-84819598D01*
X214612581Y-84530472D01*
X214769521Y-84152519D01*
X214769878Y-83743277D01*
X214613598Y-83365050D01*
X214509929Y-83261200D01*
X215392000Y-83261200D01*
X215615564Y-83216730D01*
X215805092Y-83090092D01*
X217329089Y-81566094D01*
X217329092Y-81566092D01*
X217455730Y-81376564D01*
X217500200Y-81153000D01*
X217500200Y-73660005D01*
X217500201Y-73660000D01*
X217455731Y-73436437D01*
X217329092Y-73246908D01*
X215722200Y-71640016D01*
X215722200Y-62484000D01*
X215677730Y-62260436D01*
X215551092Y-62070908D01*
X214769524Y-61289340D01*
X214769878Y-60883277D01*
X214613598Y-60505050D01*
X214324472Y-60215419D01*
X213946519Y-60058479D01*
X213537277Y-60058122D01*
X213159050Y-60214402D01*
X212870148Y-60502800D01*
X212071352Y-60502800D01*
X211784472Y-60215419D01*
X211406519Y-60058479D01*
X210997277Y-60058122D01*
X210619050Y-60214402D01*
X210329419Y-60503528D01*
X210172479Y-60881481D01*
X210172122Y-61290723D01*
X210328402Y-61668950D01*
X210617528Y-61958581D01*
X210995481Y-62115521D01*
X211404723Y-62115878D01*
X211782950Y-61959598D01*
X212071852Y-61671200D01*
X212870648Y-61671200D01*
X213157528Y-61958581D01*
X213535481Y-62115521D01*
X213943693Y-62115877D01*
X214553800Y-62725984D01*
X214553800Y-62985148D01*
X214324472Y-62755419D01*
X213946519Y-62598479D01*
X213537277Y-62598122D01*
X213159050Y-62754402D01*
X212869419Y-63043528D01*
X212712479Y-63421481D01*
X212712122Y-63830723D01*
X212764335Y-63957087D01*
X212281622Y-64439800D01*
X211842852Y-64439800D01*
X212072581Y-64210472D01*
X212229521Y-63832519D01*
X212229878Y-63423277D01*
X212073598Y-63045050D01*
X211784472Y-62755419D01*
X211406519Y-62598479D01*
X210997277Y-62598122D01*
X210619050Y-62754402D01*
X210329419Y-63043528D01*
X210172479Y-63421481D01*
X210172122Y-63830723D01*
X210224335Y-63957087D01*
X209099711Y-65081711D01*
X209000602Y-65230037D01*
X208965800Y-65405000D01*
X208965800Y-65850622D01*
X207074622Y-67741800D01*
X206183378Y-67741800D01*
X205879700Y-67438122D01*
X205879700Y-66992500D01*
X205844898Y-66817537D01*
X205745789Y-66669211D01*
X205047289Y-65970711D01*
X204898963Y-65871602D01*
X204724000Y-65836800D01*
X201248506Y-65836800D01*
X201320285Y-65663938D01*
X201320514Y-65401215D01*
X201220186Y-65158402D01*
X201034575Y-64972467D01*
X200791938Y-64871715D01*
X200529215Y-64871486D01*
X200286402Y-64971814D01*
X200183236Y-65074800D01*
X198952000Y-65074800D01*
X198777037Y-65109602D01*
X198628711Y-65208711D01*
X198374714Y-65462708D01*
X198374711Y-65462710D01*
X195974810Y-67862612D01*
X195830215Y-67862486D01*
X195587402Y-67962814D01*
X195401467Y-68148425D01*
X195300715Y-68391062D01*
X195300486Y-68653785D01*
X195400814Y-68896598D01*
X195586425Y-69082533D01*
X195814462Y-69177222D01*
X195808715Y-69191062D01*
X195808486Y-69453785D01*
X195908814Y-69696598D01*
X196094425Y-69882533D01*
X196322462Y-69977222D01*
X196316715Y-69991062D01*
X196316486Y-70253785D01*
X196380537Y-70408800D01*
X196342000Y-70408800D01*
X196167037Y-70443602D01*
X196018711Y-70542711D01*
X195002711Y-71558711D01*
X194903602Y-71707037D01*
X194868800Y-71882000D01*
X194868800Y-73392616D01*
X190576200Y-69100016D01*
X190576200Y-68133170D01*
X190652285Y-67949938D01*
X190652514Y-67687215D01*
X190552186Y-67444402D01*
X190366575Y-67258467D01*
X190123938Y-67157715D01*
X189861215Y-67157486D01*
X189618402Y-67257814D01*
X189432467Y-67443425D01*
X189331715Y-67686062D01*
X189331486Y-67948785D01*
X189407800Y-68133480D01*
X189407800Y-69342000D01*
X189452270Y-69565564D01*
X189523522Y-69672200D01*
X189578908Y-69755092D01*
X196436908Y-76613092D01*
X196626437Y-76739731D01*
X196850000Y-76784201D01*
X196850005Y-76784200D01*
X197023494Y-76784200D01*
X196951715Y-76957062D01*
X196951486Y-77219785D01*
X197051814Y-77462598D01*
X197154800Y-77565764D01*
X197154800Y-80930270D01*
X197052467Y-81032425D01*
X196951715Y-81275062D01*
X196951486Y-81537785D01*
X197051814Y-81780598D01*
X197237425Y-81966533D01*
X197480062Y-82067285D01*
X197713688Y-82067489D01*
X197713486Y-82299785D01*
X197813814Y-82542598D01*
X197999425Y-82728533D01*
X198242062Y-82829285D01*
X198504785Y-82829514D01*
X198747598Y-82729186D01*
X198933533Y-82543575D01*
X199034285Y-82300938D01*
X199034514Y-82038215D01*
X198934186Y-81795402D01*
X198831200Y-81692236D01*
X198831200Y-80899000D01*
X198796398Y-80724037D01*
X198697289Y-80575711D01*
X198577200Y-80455622D01*
X198577200Y-80340723D01*
X200647122Y-80340723D01*
X200803402Y-80718950D01*
X201092528Y-81008581D01*
X201470481Y-81165521D01*
X201879723Y-81165878D01*
X202257950Y-81009598D01*
X202547581Y-80720472D01*
X202704521Y-80342519D01*
X202704878Y-79933277D01*
X202548598Y-79555050D01*
X202259472Y-79265419D01*
X201881519Y-79108479D01*
X201472277Y-79108122D01*
X201094050Y-79264402D01*
X200804419Y-79553528D01*
X200647479Y-79931481D01*
X200647122Y-80340723D01*
X198577200Y-80340723D01*
X198577200Y-77786378D01*
X198614190Y-77749388D01*
X198758785Y-77749514D01*
X199001598Y-77649186D01*
X199187533Y-77463575D01*
X199288285Y-77220938D01*
X199288514Y-76958215D01*
X199216613Y-76784200D01*
X200672016Y-76784200D01*
X200704107Y-76816291D01*
X200882557Y-76935526D01*
X200804419Y-77013528D01*
X200647479Y-77391481D01*
X200647122Y-77800723D01*
X200803402Y-78178950D01*
X201092528Y-78468581D01*
X201470481Y-78625521D01*
X201879723Y-78625878D01*
X202257950Y-78469598D01*
X202547581Y-78180472D01*
X202704521Y-77802519D01*
X202704878Y-77393277D01*
X202548598Y-77015050D01*
X202508318Y-76974700D01*
X203383315Y-76974700D01*
X203344419Y-77013528D01*
X203187479Y-77391481D01*
X203187122Y-77800723D01*
X203343402Y-78178950D01*
X203632528Y-78468581D01*
X204010481Y-78625521D01*
X204419723Y-78625878D01*
X204797950Y-78469598D01*
X204901800Y-78365929D01*
X204901800Y-79367926D01*
X204799472Y-79265419D01*
X204421519Y-79108479D01*
X204012277Y-79108122D01*
X203634050Y-79264402D01*
X203344419Y-79553528D01*
X203187479Y-79931481D01*
X203187122Y-80340723D01*
X203343402Y-80718950D01*
X203632528Y-81008581D01*
X204010481Y-81165521D01*
X204419723Y-81165878D01*
X204797950Y-81009598D01*
X204901800Y-80905929D01*
X204901800Y-81907926D01*
X204799472Y-81805419D01*
X204421519Y-81648479D01*
X204012277Y-81648122D01*
X203634050Y-81804402D01*
X203344419Y-82093528D01*
X203187479Y-82471481D01*
X203187123Y-82879693D01*
X202704016Y-83362800D01*
X201168000Y-83362800D01*
X200944436Y-83407270D01*
X200754908Y-83533908D01*
X198640016Y-85648800D01*
X196926200Y-85648800D01*
X196926200Y-83439000D01*
X196881731Y-83215437D01*
X196755092Y-83025908D01*
X195993092Y-82263908D01*
X195803564Y-82137270D01*
X195580000Y-82092800D01*
X194322700Y-82092800D01*
X194322700Y-75882500D01*
X194287898Y-75707537D01*
X194281385Y-75697789D01*
X194188789Y-75559210D01*
X193236289Y-74606711D01*
X193087963Y-74507602D01*
X192913000Y-74472800D01*
X192818230Y-74472800D01*
X192716075Y-74370467D01*
X192473438Y-74269715D01*
X192303478Y-74269567D01*
X192303514Y-74227715D01*
X192203186Y-73984902D01*
X192017575Y-73798967D01*
X191774938Y-73698215D01*
X191512215Y-73697986D01*
X191269402Y-73798314D01*
X191083467Y-73983925D01*
X190982715Y-74226562D01*
X190982486Y-74489285D01*
X191082814Y-74732098D01*
X191141759Y-74791146D01*
X191122300Y-74888973D01*
X191122300Y-78294010D01*
X191118598Y-78285050D01*
X190829472Y-77995419D01*
X190451519Y-77838479D01*
X190042277Y-77838122D01*
X189664050Y-77994402D01*
X189374419Y-78283528D01*
X189217479Y-78661481D01*
X189217122Y-79070723D01*
X189373402Y-79448950D01*
X189662528Y-79738581D01*
X190040481Y-79895521D01*
X190449723Y-79895878D01*
X190827950Y-79739598D01*
X191117581Y-79450472D01*
X191122300Y-79439107D01*
X191122300Y-80200500D01*
X191157102Y-80375463D01*
X191256211Y-80523789D01*
X191809243Y-81076821D01*
X191757479Y-81201481D01*
X191757122Y-81610723D01*
X191913402Y-81988950D01*
X192017071Y-82092800D01*
X191516000Y-82092800D01*
X191292436Y-82137270D01*
X191102908Y-82263908D01*
X190448340Y-82918476D01*
X190042277Y-82918122D01*
X189664050Y-83074402D01*
X189374419Y-83363528D01*
X189217479Y-83741481D01*
X189217122Y-84150723D01*
X189373402Y-84528950D01*
X189540460Y-84696300D01*
X189420500Y-84696300D01*
X189245537Y-84731102D01*
X189097211Y-84830211D01*
X188640012Y-85287410D01*
X188540903Y-85435736D01*
X188506101Y-85610699D01*
X188506101Y-87453321D01*
X187611323Y-88348099D01*
X187512214Y-88496425D01*
X187477412Y-88671388D01*
X187451200Y-88671388D01*
X187451200Y-81610723D01*
X189217122Y-81610723D01*
X189373402Y-81988950D01*
X189662528Y-82278581D01*
X190040481Y-82435521D01*
X190449723Y-82435878D01*
X190827950Y-82279598D01*
X191117581Y-81990472D01*
X191274521Y-81612519D01*
X191274878Y-81203277D01*
X191118598Y-80825050D01*
X190829472Y-80535419D01*
X190451519Y-80378479D01*
X190042277Y-80378122D01*
X189664050Y-80534402D01*
X189374419Y-80823528D01*
X189217479Y-81201481D01*
X189217122Y-81610723D01*
X187451200Y-81610723D01*
X187451200Y-74489275D01*
X187489986Y-74489275D01*
X187590314Y-74732088D01*
X187775925Y-74918023D01*
X188018562Y-75018775D01*
X188281285Y-75019004D01*
X188524098Y-74918676D01*
X188627264Y-74815690D01*
X189515254Y-74815690D01*
X189617419Y-74918033D01*
X189860056Y-75018785D01*
X190122779Y-75019014D01*
X190365592Y-74918686D01*
X190551527Y-74733075D01*
X190652279Y-74490438D01*
X190652508Y-74227715D01*
X190552180Y-73984902D01*
X190366569Y-73798967D01*
X190123932Y-73698215D01*
X189861209Y-73697986D01*
X189618396Y-73798314D01*
X189515240Y-73901290D01*
X188627230Y-73901290D01*
X188525075Y-73798957D01*
X188282438Y-73698205D01*
X188019715Y-73697976D01*
X187776902Y-73798304D01*
X187590967Y-73983915D01*
X187490215Y-74226552D01*
X187489986Y-74489275D01*
X187451200Y-74489275D01*
X187451200Y-73152000D01*
X187422259Y-73006504D01*
X187422259Y-73006503D01*
X187339842Y-72883158D01*
X184911200Y-70454516D01*
X184911200Y-65468500D01*
X192385831Y-65468500D01*
X192385831Y-66865500D01*
X192408856Y-66987865D01*
X192481173Y-67100249D01*
X192591517Y-67175644D01*
X192722500Y-67202169D01*
X194119500Y-67202169D01*
X194241865Y-67179144D01*
X194354249Y-67106827D01*
X194429644Y-66996483D01*
X194456169Y-66865500D01*
X194456169Y-66370723D01*
X194932122Y-66370723D01*
X195088402Y-66748950D01*
X195377528Y-67038581D01*
X195755481Y-67195521D01*
X196164723Y-67195878D01*
X196542950Y-67039598D01*
X196832581Y-66750472D01*
X196989521Y-66372519D01*
X196989878Y-65963277D01*
X196833598Y-65585050D01*
X196544472Y-65295419D01*
X196166519Y-65138479D01*
X195757277Y-65138122D01*
X195379050Y-65294402D01*
X195089419Y-65583528D01*
X194932479Y-65961481D01*
X194932122Y-66370723D01*
X194456169Y-66370723D01*
X194456169Y-65468500D01*
X194433144Y-65346135D01*
X194360827Y-65233751D01*
X194250483Y-65158356D01*
X194119500Y-65131831D01*
X192722500Y-65131831D01*
X192600135Y-65154856D01*
X192487751Y-65227173D01*
X192412356Y-65337517D01*
X192385831Y-65468500D01*
X184911200Y-65468500D01*
X184911200Y-61627318D01*
X184928402Y-61668950D01*
X185217528Y-61958581D01*
X185595481Y-62115521D01*
X186004723Y-62115878D01*
X186382950Y-61959598D01*
X186672581Y-61670472D01*
X186829521Y-61292519D01*
X186829522Y-61290723D01*
X187312122Y-61290723D01*
X187468402Y-61668950D01*
X187757528Y-61958581D01*
X188135481Y-62115521D01*
X188544723Y-62115878D01*
X188922950Y-61959598D01*
X189212581Y-61670472D01*
X189369521Y-61292519D01*
X189369522Y-61290723D01*
X189852122Y-61290723D01*
X190008402Y-61668950D01*
X190297528Y-61958581D01*
X190675481Y-62115521D01*
X191084723Y-62115878D01*
X191462950Y-61959598D01*
X191752581Y-61670472D01*
X191909521Y-61292519D01*
X191909522Y-61290723D01*
X192392122Y-61290723D01*
X192548402Y-61668950D01*
X192837528Y-61958581D01*
X193215481Y-62115521D01*
X193624723Y-62115878D01*
X194002950Y-61959598D01*
X194292581Y-61670472D01*
X194449521Y-61292519D01*
X194449522Y-61290723D01*
X194932122Y-61290723D01*
X195088402Y-61668950D01*
X195377528Y-61958581D01*
X195755481Y-62115521D01*
X196164723Y-62115878D01*
X196542950Y-61959598D01*
X196832581Y-61670472D01*
X196989521Y-61292519D01*
X196989522Y-61290723D01*
X197472122Y-61290723D01*
X197628402Y-61668950D01*
X197917528Y-61958581D01*
X198295481Y-62115521D01*
X198704723Y-62115878D01*
X199082950Y-61959598D01*
X199372581Y-61670472D01*
X199529521Y-61292519D01*
X199529522Y-61290723D01*
X200012122Y-61290723D01*
X200168402Y-61668950D01*
X200457528Y-61958581D01*
X200835481Y-62115521D01*
X201244723Y-62115878D01*
X201622950Y-61959598D01*
X201912581Y-61670472D01*
X202069521Y-61292519D01*
X202069522Y-61290723D01*
X202552122Y-61290723D01*
X202708402Y-61668950D01*
X202997528Y-61958581D01*
X203375481Y-62115521D01*
X203784723Y-62115878D01*
X204162950Y-61959598D01*
X204452581Y-61670472D01*
X204544356Y-61449452D01*
X205560483Y-61449452D01*
X205838527Y-62122371D01*
X206352921Y-62637664D01*
X207025354Y-62916882D01*
X207753452Y-62917517D01*
X208426371Y-62639473D01*
X208941664Y-62125079D01*
X209220882Y-61452646D01*
X209221517Y-60724548D01*
X208943473Y-60051629D01*
X208429079Y-59536336D01*
X207756646Y-59257118D01*
X207028548Y-59256483D01*
X206355629Y-59534527D01*
X205840336Y-60048921D01*
X205561118Y-60721354D01*
X205560483Y-61449452D01*
X204544356Y-61449452D01*
X204609521Y-61292519D01*
X204609878Y-60883277D01*
X204453598Y-60505050D01*
X204164472Y-60215419D01*
X203786519Y-60058479D01*
X203377277Y-60058122D01*
X202999050Y-60214402D01*
X202709419Y-60503528D01*
X202552479Y-60881481D01*
X202552122Y-61290723D01*
X202069522Y-61290723D01*
X202069878Y-60883277D01*
X201913598Y-60505050D01*
X201624472Y-60215419D01*
X201246519Y-60058479D01*
X200837277Y-60058122D01*
X200459050Y-60214402D01*
X200169419Y-60503528D01*
X200012479Y-60881481D01*
X200012122Y-61290723D01*
X199529522Y-61290723D01*
X199529878Y-60883277D01*
X199373598Y-60505050D01*
X199084472Y-60215419D01*
X198706519Y-60058479D01*
X198297277Y-60058122D01*
X197919050Y-60214402D01*
X197629419Y-60503528D01*
X197472479Y-60881481D01*
X197472122Y-61290723D01*
X196989522Y-61290723D01*
X196989878Y-60883277D01*
X196833598Y-60505050D01*
X196544472Y-60215419D01*
X196166519Y-60058479D01*
X195757277Y-60058122D01*
X195379050Y-60214402D01*
X195089419Y-60503528D01*
X194932479Y-60881481D01*
X194932122Y-61290723D01*
X194449522Y-61290723D01*
X194449878Y-60883277D01*
X194293598Y-60505050D01*
X194004472Y-60215419D01*
X193626519Y-60058479D01*
X193217277Y-60058122D01*
X192839050Y-60214402D01*
X192549419Y-60503528D01*
X192392479Y-60881481D01*
X192392122Y-61290723D01*
X191909522Y-61290723D01*
X191909878Y-60883277D01*
X191753598Y-60505050D01*
X191464472Y-60215419D01*
X191086519Y-60058479D01*
X190677277Y-60058122D01*
X190299050Y-60214402D01*
X190009419Y-60503528D01*
X189852479Y-60881481D01*
X189852122Y-61290723D01*
X189369522Y-61290723D01*
X189369878Y-60883277D01*
X189213598Y-60505050D01*
X188924472Y-60215419D01*
X188546519Y-60058479D01*
X188137277Y-60058122D01*
X187759050Y-60214402D01*
X187469419Y-60503528D01*
X187312479Y-60881481D01*
X187312122Y-61290723D01*
X186829522Y-61290723D01*
X186829878Y-60883277D01*
X186673598Y-60505050D01*
X186384472Y-60215419D01*
X186006519Y-60058479D01*
X185597277Y-60058122D01*
X185219050Y-60214402D01*
X184929419Y-60503528D01*
X184911200Y-60547404D01*
X184911200Y-58927200D01*
X213583516Y-58927200D01*
X215900800Y-61244484D01*
G36*
X193509867Y-90523539D02*
X192462711Y-91570695D01*
X192363602Y-91719021D01*
X192328800Y-91893984D01*
X192328800Y-92550770D01*
X192226467Y-92652925D01*
X192125715Y-92895562D01*
X192125486Y-93158285D01*
X192225814Y-93401098D01*
X192411425Y-93587033D01*
X192654062Y-93687785D01*
X192916785Y-93688014D01*
X193159598Y-93587686D01*
X193262269Y-93485194D01*
X193363925Y-93587027D01*
X193606562Y-93687779D01*
X193869285Y-93688008D01*
X194112098Y-93587680D01*
X194221131Y-93478837D01*
X194329138Y-93587033D01*
X194513228Y-93663474D01*
X194293736Y-93882966D01*
X194194627Y-94031292D01*
X194159825Y-94206255D01*
X194159825Y-98065225D01*
X194057492Y-98167380D01*
X193956740Y-98410017D01*
X193956511Y-98672740D01*
X194006398Y-98793476D01*
X193174400Y-97961478D01*
X193293977Y-98011131D01*
X193556700Y-98011360D01*
X193799513Y-97911032D01*
X193985448Y-97725421D01*
X194086200Y-97482784D01*
X194086429Y-97220061D01*
X193986101Y-96977248D01*
X193883115Y-96874082D01*
X193883115Y-95809995D01*
X193848313Y-95635032D01*
X193798545Y-95560549D01*
X193749204Y-95486705D01*
X192652090Y-94389592D01*
X192503764Y-94290483D01*
X192328801Y-94255681D01*
X191719199Y-94255681D01*
X191544236Y-94290483D01*
X191395910Y-94389592D01*
X191246702Y-94538800D01*
X189482878Y-94538800D01*
X189026832Y-94082754D01*
X189026832Y-91811702D01*
X189129165Y-91709547D01*
X189229917Y-91466910D01*
X189230146Y-91204187D01*
X189129818Y-90961374D01*
X188944207Y-90775439D01*
X188701570Y-90674687D01*
X188438847Y-90674458D01*
X188391812Y-90693892D01*
X188391812Y-88860766D01*
X188967651Y-88284927D01*
X189050814Y-88486198D01*
X189236425Y-88672133D01*
X189479062Y-88772885D01*
X189741785Y-88773114D01*
X189984598Y-88672786D01*
X190087764Y-88569800D01*
X190652400Y-88569800D01*
X190827363Y-88534998D01*
X190975689Y-88435889D01*
X191438690Y-87972888D01*
X191583285Y-87973014D01*
X191730050Y-87912372D01*
X190132810Y-89509612D01*
X189988215Y-89509486D01*
X189745402Y-89609814D01*
X189559467Y-89795425D01*
X189458715Y-90038062D01*
X189458486Y-90300785D01*
X189558814Y-90543598D01*
X189744425Y-90729533D01*
X189987062Y-90830285D01*
X190249785Y-90830514D01*
X190492598Y-90730186D01*
X190678533Y-90544575D01*
X190779285Y-90301938D01*
X190779412Y-90156166D01*
X193109289Y-87826289D01*
X193208398Y-87677963D01*
X193239387Y-87522169D01*
X193484500Y-87522169D01*
X193509867Y-87517396D01*
X193509867Y-90523539D01*
X193509867Y-90523539D01*
G37*
X193509867Y-90523539D02*
X192462711Y-91570695D01*
X192363602Y-91719021D01*
X192328800Y-91893984D01*
X192328800Y-92550770D01*
X192226467Y-92652925D01*
X192125715Y-92895562D01*
X192125486Y-93158285D01*
X192225814Y-93401098D01*
X192411425Y-93587033D01*
X192654062Y-93687785D01*
X192916785Y-93688014D01*
X193159598Y-93587686D01*
X193262269Y-93485194D01*
X193363925Y-93587027D01*
X193606562Y-93687779D01*
X193869285Y-93688008D01*
X194112098Y-93587680D01*
X194221131Y-93478837D01*
X194329138Y-93587033D01*
X194513228Y-93663474D01*
X194293736Y-93882966D01*
X194194627Y-94031292D01*
X194159825Y-94206255D01*
X194159825Y-98065225D01*
X194057492Y-98167380D01*
X193956740Y-98410017D01*
X193956511Y-98672740D01*
X194006398Y-98793476D01*
X193174400Y-97961478D01*
X193293977Y-98011131D01*
X193556700Y-98011360D01*
X193799513Y-97911032D01*
X193985448Y-97725421D01*
X194086200Y-97482784D01*
X194086429Y-97220061D01*
X193986101Y-96977248D01*
X193883115Y-96874082D01*
X193883115Y-95809995D01*
X193848313Y-95635032D01*
X193798545Y-95560549D01*
X193749204Y-95486705D01*
X192652090Y-94389592D01*
X192503764Y-94290483D01*
X192328801Y-94255681D01*
X191719199Y-94255681D01*
X191544236Y-94290483D01*
X191395910Y-94389592D01*
X191246702Y-94538800D01*
X189482878Y-94538800D01*
X189026832Y-94082754D01*
X189026832Y-91811702D01*
X189129165Y-91709547D01*
X189229917Y-91466910D01*
X189230146Y-91204187D01*
X189129818Y-90961374D01*
X188944207Y-90775439D01*
X188701570Y-90674687D01*
X188438847Y-90674458D01*
X188391812Y-90693892D01*
X188391812Y-88860766D01*
X188967651Y-88284927D01*
X189050814Y-88486198D01*
X189236425Y-88672133D01*
X189479062Y-88772885D01*
X189741785Y-88773114D01*
X189984598Y-88672786D01*
X190087764Y-88569800D01*
X190652400Y-88569800D01*
X190827363Y-88534998D01*
X190975689Y-88435889D01*
X191438690Y-87972888D01*
X191583285Y-87973014D01*
X191730050Y-87912372D01*
X190132810Y-89509612D01*
X189988215Y-89509486D01*
X189745402Y-89609814D01*
X189559467Y-89795425D01*
X189458715Y-90038062D01*
X189458486Y-90300785D01*
X189558814Y-90543598D01*
X189744425Y-90729533D01*
X189987062Y-90830285D01*
X190249785Y-90830514D01*
X190492598Y-90730186D01*
X190678533Y-90544575D01*
X190779285Y-90301938D01*
X190779412Y-90156166D01*
X193109289Y-87826289D01*
X193208398Y-87677963D01*
X193239387Y-87522169D01*
X193484500Y-87522169D01*
X193509867Y-87517396D01*
X193509867Y-90523539D01*
G36*
X192968715Y-95999374D02*
X192968715Y-96874116D01*
X192866382Y-96976271D01*
X192808602Y-97115419D01*
X192776599Y-96954526D01*
X192719270Y-96868727D01*
X192677491Y-96806200D01*
X192503004Y-96631714D01*
X192503130Y-96487119D01*
X192402802Y-96244306D01*
X192217191Y-96058371D01*
X192096716Y-96008345D01*
X192154785Y-96008396D01*
X192397598Y-95908068D01*
X192583533Y-95722457D01*
X192615299Y-95645957D01*
X192968715Y-95999374D01*
X192968715Y-95999374D01*
G37*
X192968715Y-95999374D02*
X192968715Y-96874116D01*
X192866382Y-96976271D01*
X192808602Y-97115419D01*
X192776599Y-96954526D01*
X192719270Y-96868727D01*
X192677491Y-96806200D01*
X192503004Y-96631714D01*
X192503130Y-96487119D01*
X192402802Y-96244306D01*
X192217191Y-96058371D01*
X192096716Y-96008345D01*
X192154785Y-96008396D01*
X192397598Y-95908068D01*
X192583533Y-95722457D01*
X192615299Y-95645957D01*
X192968715Y-95999374D01*
G36*
X214553800Y-68065148D02*
X214324472Y-67835419D01*
X213946519Y-67678479D01*
X213537277Y-67678122D01*
X213159050Y-67834402D01*
X212869419Y-68123528D01*
X212712479Y-68501481D01*
X212712122Y-68910723D01*
X212868402Y-69288950D01*
X213157528Y-69578581D01*
X213535481Y-69735521D01*
X213944723Y-69735878D01*
X214322950Y-69579598D01*
X214553800Y-69349151D01*
X214553800Y-70605148D01*
X214324472Y-70375419D01*
X213946519Y-70218479D01*
X213537277Y-70218122D01*
X213159050Y-70374402D01*
X212869419Y-70663528D01*
X212712479Y-71041481D01*
X212712122Y-71450723D01*
X212868402Y-71828950D01*
X213157528Y-72118581D01*
X213535481Y-72275521D01*
X213944723Y-72275878D01*
X214322950Y-72119598D01*
X214554987Y-71887966D01*
X214598270Y-72105564D01*
X214703465Y-72263000D01*
X214724908Y-72295092D01*
X216331800Y-73901984D01*
X216331800Y-80911017D01*
X215150016Y-82092800D01*
X214510074Y-82092800D01*
X214612581Y-81990472D01*
X214769521Y-81612519D01*
X214769878Y-81203277D01*
X214613598Y-80825050D01*
X214324472Y-80535419D01*
X213946519Y-80378479D01*
X213537277Y-80378122D01*
X213159050Y-80534402D01*
X212869419Y-80823528D01*
X212712479Y-81201481D01*
X212712122Y-81610723D01*
X212868402Y-81988950D01*
X212972071Y-82092800D01*
X211970074Y-82092800D01*
X212072581Y-81990472D01*
X212229521Y-81612519D01*
X212229878Y-81203277D01*
X212073598Y-80825050D01*
X211784472Y-80535419D01*
X211406519Y-80378479D01*
X210997277Y-80378122D01*
X210619050Y-80534402D01*
X210329419Y-80823528D01*
X210172479Y-81201481D01*
X210172122Y-81610723D01*
X210328402Y-81988950D01*
X210432071Y-82092800D01*
X209804000Y-82092800D01*
X209580436Y-82137270D01*
X209390908Y-82263908D01*
X208247908Y-83406908D01*
X208121270Y-83596436D01*
X208076800Y-83820000D01*
X208076800Y-85524785D01*
X204358673Y-89242912D01*
X203288888Y-89242912D01*
X203065324Y-89287382D01*
X202971177Y-89350289D01*
X202875796Y-89414020D01*
X199084516Y-93205300D01*
X197002411Y-93205300D01*
X197002514Y-93087215D01*
X196926200Y-92902520D01*
X196926200Y-92329000D01*
X196881730Y-92105436D01*
X196755092Y-91915908D01*
X196481700Y-91642516D01*
X196481700Y-89857211D01*
X196491102Y-89904478D01*
X196590211Y-90052804D01*
X196885794Y-90348388D01*
X196885668Y-90492982D01*
X196985996Y-90735795D01*
X197171607Y-90921730D01*
X197414244Y-91022482D01*
X197676967Y-91022711D01*
X197919780Y-90922383D01*
X198105715Y-90736772D01*
X198206467Y-90494135D01*
X198206696Y-90231412D01*
X198106368Y-89988599D01*
X198035882Y-89917990D01*
X198171533Y-89782575D01*
X198272285Y-89539938D01*
X198272412Y-89394166D01*
X200722378Y-86944200D01*
X201034148Y-86944200D01*
X200804419Y-87173528D01*
X200647479Y-87551481D01*
X200647122Y-87960723D01*
X200803402Y-88338950D01*
X201092528Y-88628581D01*
X201470481Y-88785521D01*
X201879723Y-88785878D01*
X202257950Y-88629598D01*
X202547581Y-88340472D01*
X202577717Y-88267896D01*
X202724092Y-88170092D01*
X203822984Y-87071200D01*
X205105000Y-87071200D01*
X205328564Y-87026730D01*
X205518092Y-86900092D01*
X205899092Y-86519092D01*
X205924046Y-86481746D01*
X206025730Y-86329564D01*
X206070200Y-86106000D01*
X206070200Y-79070723D01*
X210172122Y-79070723D01*
X210328402Y-79448950D01*
X210617528Y-79738581D01*
X210995481Y-79895521D01*
X211404723Y-79895878D01*
X211782950Y-79739598D01*
X212072581Y-79450472D01*
X212229521Y-79072519D01*
X212229522Y-79070723D01*
X212712122Y-79070723D01*
X212868402Y-79448950D01*
X213157528Y-79738581D01*
X213535481Y-79895521D01*
X213944723Y-79895878D01*
X214322950Y-79739598D01*
X214612581Y-79450472D01*
X214769521Y-79072519D01*
X214769878Y-78663277D01*
X214613598Y-78285050D01*
X214324472Y-77995419D01*
X213946519Y-77838479D01*
X213537277Y-77838122D01*
X213159050Y-77994402D01*
X212869419Y-78283528D01*
X212712479Y-78661481D01*
X212712122Y-79070723D01*
X212229522Y-79070723D01*
X212229878Y-78663277D01*
X212073598Y-78285050D01*
X211784472Y-77995419D01*
X211406519Y-77838479D01*
X210997277Y-77838122D01*
X210619050Y-77994402D01*
X210329419Y-78283528D01*
X210172479Y-78661481D01*
X210172122Y-79070723D01*
X206070200Y-79070723D01*
X206070200Y-77038204D01*
X206070201Y-77038199D01*
X206025731Y-76814636D01*
X205899092Y-76625107D01*
X205804708Y-76530723D01*
X210172122Y-76530723D01*
X210328402Y-76908950D01*
X210617528Y-77198581D01*
X210995481Y-77355521D01*
X211404723Y-77355878D01*
X211782950Y-77199598D01*
X212072581Y-76910472D01*
X212229521Y-76532519D01*
X212229522Y-76530723D01*
X212712122Y-76530723D01*
X212868402Y-76908950D01*
X213157528Y-77198581D01*
X213535481Y-77355521D01*
X213944723Y-77355878D01*
X214322950Y-77199598D01*
X214612581Y-76910472D01*
X214769521Y-76532519D01*
X214769878Y-76123277D01*
X214613598Y-75745050D01*
X214324472Y-75455419D01*
X213946519Y-75298479D01*
X213537277Y-75298122D01*
X213159050Y-75454402D01*
X212869419Y-75743528D01*
X212712479Y-76121481D01*
X212712122Y-76530723D01*
X212229522Y-76530723D01*
X212229878Y-76123277D01*
X212073598Y-75745050D01*
X211784472Y-75455419D01*
X211406519Y-75298479D01*
X210997277Y-75298122D01*
X210619050Y-75454402D01*
X210329419Y-75743528D01*
X210172479Y-76121481D01*
X210172122Y-76530723D01*
X205804708Y-76530723D01*
X205251393Y-75977408D01*
X205226600Y-75960842D01*
X205061865Y-75850770D01*
X204907646Y-75820094D01*
X205087581Y-75640472D01*
X205244521Y-75262519D01*
X205244878Y-74853277D01*
X205088598Y-74475050D01*
X204825406Y-74211398D01*
X204835463Y-74209398D01*
X204983789Y-74110289D01*
X205103355Y-73990723D01*
X210172122Y-73990723D01*
X210328402Y-74368950D01*
X210617528Y-74658581D01*
X210995481Y-74815521D01*
X211404723Y-74815878D01*
X211782950Y-74659598D01*
X212072581Y-74370472D01*
X212229521Y-73992519D01*
X212229522Y-73990723D01*
X212712122Y-73990723D01*
X212868402Y-74368950D01*
X213157528Y-74658581D01*
X213535481Y-74815521D01*
X213944723Y-74815878D01*
X214322950Y-74659598D01*
X214612581Y-74370472D01*
X214769521Y-73992519D01*
X214769878Y-73583277D01*
X214613598Y-73205050D01*
X214324472Y-72915419D01*
X213946519Y-72758479D01*
X213537277Y-72758122D01*
X213159050Y-72914402D01*
X212869419Y-73203528D01*
X212712479Y-73581481D01*
X212712122Y-73990723D01*
X212229522Y-73990723D01*
X212229878Y-73583277D01*
X212073598Y-73205050D01*
X211784472Y-72915419D01*
X211406519Y-72758479D01*
X210997277Y-72758122D01*
X210619050Y-72914402D01*
X210329419Y-73203528D01*
X210172479Y-73581481D01*
X210172122Y-73990723D01*
X205103355Y-73990723D01*
X206698289Y-72395789D01*
X206797398Y-72247463D01*
X206832200Y-72072500D01*
X206832200Y-71450723D01*
X210172122Y-71450723D01*
X210328402Y-71828950D01*
X210617528Y-72118581D01*
X210995481Y-72275521D01*
X211404723Y-72275878D01*
X211782950Y-72119598D01*
X212072581Y-71830472D01*
X212229521Y-71452519D01*
X212229878Y-71043277D01*
X212073598Y-70665050D01*
X211784472Y-70375419D01*
X211406519Y-70218479D01*
X210997277Y-70218122D01*
X210619050Y-70374402D01*
X210329419Y-70663528D01*
X210172479Y-71041481D01*
X210172122Y-71450723D01*
X206832200Y-71450723D01*
X206832200Y-71372878D01*
X210310878Y-67894200D01*
X210559148Y-67894200D01*
X210329419Y-68123528D01*
X210172479Y-68501481D01*
X210172122Y-68910723D01*
X210328402Y-69288950D01*
X210617528Y-69578581D01*
X210995481Y-69735521D01*
X211404723Y-69735878D01*
X211782950Y-69579598D01*
X212072581Y-69290472D01*
X212229521Y-68912519D01*
X212229878Y-68503277D01*
X212073598Y-68125050D01*
X211843151Y-67894200D01*
X212471000Y-67894200D01*
X212645963Y-67859398D01*
X212794289Y-67760289D01*
X213410821Y-67143757D01*
X213535481Y-67195521D01*
X213944723Y-67195878D01*
X214322950Y-67039598D01*
X214553800Y-66809151D01*
X214553800Y-68065148D01*
X214553800Y-68065148D01*
G37*
X214553800Y-68065148D02*
X214324472Y-67835419D01*
X213946519Y-67678479D01*
X213537277Y-67678122D01*
X213159050Y-67834402D01*
X212869419Y-68123528D01*
X212712479Y-68501481D01*
X212712122Y-68910723D01*
X212868402Y-69288950D01*
X213157528Y-69578581D01*
X213535481Y-69735521D01*
X213944723Y-69735878D01*
X214322950Y-69579598D01*
X214553800Y-69349151D01*
X214553800Y-70605148D01*
X214324472Y-70375419D01*
X213946519Y-70218479D01*
X213537277Y-70218122D01*
X213159050Y-70374402D01*
X212869419Y-70663528D01*
X212712479Y-71041481D01*
X212712122Y-71450723D01*
X212868402Y-71828950D01*
X213157528Y-72118581D01*
X213535481Y-72275521D01*
X213944723Y-72275878D01*
X214322950Y-72119598D01*
X214554987Y-71887966D01*
X214598270Y-72105564D01*
X214703465Y-72263000D01*
X214724908Y-72295092D01*
X216331800Y-73901984D01*
X216331800Y-80911017D01*
X215150016Y-82092800D01*
X214510074Y-82092800D01*
X214612581Y-81990472D01*
X214769521Y-81612519D01*
X214769878Y-81203277D01*
X214613598Y-80825050D01*
X214324472Y-80535419D01*
X213946519Y-80378479D01*
X213537277Y-80378122D01*
X213159050Y-80534402D01*
X212869419Y-80823528D01*
X212712479Y-81201481D01*
X212712122Y-81610723D01*
X212868402Y-81988950D01*
X212972071Y-82092800D01*
X211970074Y-82092800D01*
X212072581Y-81990472D01*
X212229521Y-81612519D01*
X212229878Y-81203277D01*
X212073598Y-80825050D01*
X211784472Y-80535419D01*
X211406519Y-80378479D01*
X210997277Y-80378122D01*
X210619050Y-80534402D01*
X210329419Y-80823528D01*
X210172479Y-81201481D01*
X210172122Y-81610723D01*
X210328402Y-81988950D01*
X210432071Y-82092800D01*
X209804000Y-82092800D01*
X209580436Y-82137270D01*
X209390908Y-82263908D01*
X208247908Y-83406908D01*
X208121270Y-83596436D01*
X208076800Y-83820000D01*
X208076800Y-85524785D01*
X204358673Y-89242912D01*
X203288888Y-89242912D01*
X203065324Y-89287382D01*
X202971177Y-89350289D01*
X202875796Y-89414020D01*
X199084516Y-93205300D01*
X197002411Y-93205300D01*
X197002514Y-93087215D01*
X196926200Y-92902520D01*
X196926200Y-92329000D01*
X196881730Y-92105436D01*
X196755092Y-91915908D01*
X196481700Y-91642516D01*
X196481700Y-89857211D01*
X196491102Y-89904478D01*
X196590211Y-90052804D01*
X196885794Y-90348388D01*
X196885668Y-90492982D01*
X196985996Y-90735795D01*
X197171607Y-90921730D01*
X197414244Y-91022482D01*
X197676967Y-91022711D01*
X197919780Y-90922383D01*
X198105715Y-90736772D01*
X198206467Y-90494135D01*
X198206696Y-90231412D01*
X198106368Y-89988599D01*
X198035882Y-89917990D01*
X198171533Y-89782575D01*
X198272285Y-89539938D01*
X198272412Y-89394166D01*
X200722378Y-86944200D01*
X201034148Y-86944200D01*
X200804419Y-87173528D01*
X200647479Y-87551481D01*
X200647122Y-87960723D01*
X200803402Y-88338950D01*
X201092528Y-88628581D01*
X201470481Y-88785521D01*
X201879723Y-88785878D01*
X202257950Y-88629598D01*
X202547581Y-88340472D01*
X202577717Y-88267896D01*
X202724092Y-88170092D01*
X203822984Y-87071200D01*
X205105000Y-87071200D01*
X205328564Y-87026730D01*
X205518092Y-86900092D01*
X205899092Y-86519092D01*
X205924046Y-86481746D01*
X206025730Y-86329564D01*
X206070200Y-86106000D01*
X206070200Y-79070723D01*
X210172122Y-79070723D01*
X210328402Y-79448950D01*
X210617528Y-79738581D01*
X210995481Y-79895521D01*
X211404723Y-79895878D01*
X211782950Y-79739598D01*
X212072581Y-79450472D01*
X212229521Y-79072519D01*
X212229522Y-79070723D01*
X212712122Y-79070723D01*
X212868402Y-79448950D01*
X213157528Y-79738581D01*
X213535481Y-79895521D01*
X213944723Y-79895878D01*
X214322950Y-79739598D01*
X214612581Y-79450472D01*
X214769521Y-79072519D01*
X214769878Y-78663277D01*
X214613598Y-78285050D01*
X214324472Y-77995419D01*
X213946519Y-77838479D01*
X213537277Y-77838122D01*
X213159050Y-77994402D01*
X212869419Y-78283528D01*
X212712479Y-78661481D01*
X212712122Y-79070723D01*
X212229522Y-79070723D01*
X212229878Y-78663277D01*
X212073598Y-78285050D01*
X211784472Y-77995419D01*
X211406519Y-77838479D01*
X210997277Y-77838122D01*
X210619050Y-77994402D01*
X210329419Y-78283528D01*
X210172479Y-78661481D01*
X210172122Y-79070723D01*
X206070200Y-79070723D01*
X206070200Y-77038204D01*
X206070201Y-77038199D01*
X206025731Y-76814636D01*
X205899092Y-76625107D01*
X205804708Y-76530723D01*
X210172122Y-76530723D01*
X210328402Y-76908950D01*
X210617528Y-77198581D01*
X210995481Y-77355521D01*
X211404723Y-77355878D01*
X211782950Y-77199598D01*
X212072581Y-76910472D01*
X212229521Y-76532519D01*
X212229522Y-76530723D01*
X212712122Y-76530723D01*
X212868402Y-76908950D01*
X213157528Y-77198581D01*
X213535481Y-77355521D01*
X213944723Y-77355878D01*
X214322950Y-77199598D01*
X214612581Y-76910472D01*
X214769521Y-76532519D01*
X214769878Y-76123277D01*
X214613598Y-75745050D01*
X214324472Y-75455419D01*
X213946519Y-75298479D01*
X213537277Y-75298122D01*
X213159050Y-75454402D01*
X212869419Y-75743528D01*
X212712479Y-76121481D01*
X212712122Y-76530723D01*
X212229522Y-76530723D01*
X212229878Y-76123277D01*
X212073598Y-75745050D01*
X211784472Y-75455419D01*
X211406519Y-75298479D01*
X210997277Y-75298122D01*
X210619050Y-75454402D01*
X210329419Y-75743528D01*
X210172479Y-76121481D01*
X210172122Y-76530723D01*
X205804708Y-76530723D01*
X205251393Y-75977408D01*
X205226600Y-75960842D01*
X205061865Y-75850770D01*
X204907646Y-75820094D01*
X205087581Y-75640472D01*
X205244521Y-75262519D01*
X205244878Y-74853277D01*
X205088598Y-74475050D01*
X204825406Y-74211398D01*
X204835463Y-74209398D01*
X204983789Y-74110289D01*
X205103355Y-73990723D01*
X210172122Y-73990723D01*
X210328402Y-74368950D01*
X210617528Y-74658581D01*
X210995481Y-74815521D01*
X211404723Y-74815878D01*
X211782950Y-74659598D01*
X212072581Y-74370472D01*
X212229521Y-73992519D01*
X212229522Y-73990723D01*
X212712122Y-73990723D01*
X212868402Y-74368950D01*
X213157528Y-74658581D01*
X213535481Y-74815521D01*
X213944723Y-74815878D01*
X214322950Y-74659598D01*
X214612581Y-74370472D01*
X214769521Y-73992519D01*
X214769878Y-73583277D01*
X214613598Y-73205050D01*
X214324472Y-72915419D01*
X213946519Y-72758479D01*
X213537277Y-72758122D01*
X213159050Y-72914402D01*
X212869419Y-73203528D01*
X212712479Y-73581481D01*
X212712122Y-73990723D01*
X212229522Y-73990723D01*
X212229878Y-73583277D01*
X212073598Y-73205050D01*
X211784472Y-72915419D01*
X211406519Y-72758479D01*
X210997277Y-72758122D01*
X210619050Y-72914402D01*
X210329419Y-73203528D01*
X210172479Y-73581481D01*
X210172122Y-73990723D01*
X205103355Y-73990723D01*
X206698289Y-72395789D01*
X206797398Y-72247463D01*
X206832200Y-72072500D01*
X206832200Y-71450723D01*
X210172122Y-71450723D01*
X210328402Y-71828950D01*
X210617528Y-72118581D01*
X210995481Y-72275521D01*
X211404723Y-72275878D01*
X211782950Y-72119598D01*
X212072581Y-71830472D01*
X212229521Y-71452519D01*
X212229878Y-71043277D01*
X212073598Y-70665050D01*
X211784472Y-70375419D01*
X211406519Y-70218479D01*
X210997277Y-70218122D01*
X210619050Y-70374402D01*
X210329419Y-70663528D01*
X210172479Y-71041481D01*
X210172122Y-71450723D01*
X206832200Y-71450723D01*
X206832200Y-71372878D01*
X210310878Y-67894200D01*
X210559148Y-67894200D01*
X210329419Y-68123528D01*
X210172479Y-68501481D01*
X210172122Y-68910723D01*
X210328402Y-69288950D01*
X210617528Y-69578581D01*
X210995481Y-69735521D01*
X211404723Y-69735878D01*
X211782950Y-69579598D01*
X212072581Y-69290472D01*
X212229521Y-68912519D01*
X212229878Y-68503277D01*
X212073598Y-68125050D01*
X211843151Y-67894200D01*
X212471000Y-67894200D01*
X212645963Y-67859398D01*
X212794289Y-67760289D01*
X213410821Y-67143757D01*
X213535481Y-67195521D01*
X213944723Y-67195878D01*
X214322950Y-67039598D01*
X214553800Y-66809151D01*
X214553800Y-68065148D01*
G36*
X200647122Y-85420723D02*
X200803402Y-85798950D01*
X201033849Y-86029800D01*
X200533000Y-86029800D01*
X200358037Y-86064602D01*
X200209711Y-86163711D01*
X198275286Y-88098136D01*
X198335785Y-87952438D01*
X198336014Y-87689715D01*
X198235686Y-87446902D01*
X198050075Y-87260967D01*
X197807438Y-87160215D01*
X197544715Y-87159986D01*
X197301902Y-87260314D01*
X197115967Y-87445925D01*
X197015215Y-87688562D01*
X197014986Y-87951285D01*
X197110785Y-88183137D01*
X196590211Y-88703711D01*
X196491102Y-88852037D01*
X196481700Y-88899304D01*
X196481700Y-88316484D01*
X196755092Y-88043092D01*
X196796806Y-87980662D01*
X196881730Y-87853564D01*
X196926200Y-87630000D01*
X196926200Y-86817200D01*
X198882000Y-86817200D01*
X199105564Y-86772730D01*
X199295092Y-86646092D01*
X200647233Y-85293951D01*
X200647122Y-85420723D01*
X200647122Y-85420723D01*
G37*
X200647122Y-85420723D02*
X200803402Y-85798950D01*
X201033849Y-86029800D01*
X200533000Y-86029800D01*
X200358037Y-86064602D01*
X200209711Y-86163711D01*
X198275286Y-88098136D01*
X198335785Y-87952438D01*
X198336014Y-87689715D01*
X198235686Y-87446902D01*
X198050075Y-87260967D01*
X197807438Y-87160215D01*
X197544715Y-87159986D01*
X197301902Y-87260314D01*
X197115967Y-87445925D01*
X197015215Y-87688562D01*
X197014986Y-87951285D01*
X197110785Y-88183137D01*
X196590211Y-88703711D01*
X196491102Y-88852037D01*
X196481700Y-88899304D01*
X196481700Y-88316484D01*
X196755092Y-88043092D01*
X196796806Y-87980662D01*
X196881730Y-87853564D01*
X196926200Y-87630000D01*
X196926200Y-86817200D01*
X198882000Y-86817200D01*
X199105564Y-86772730D01*
X199295092Y-86646092D01*
X200647233Y-85293951D01*
X200647122Y-85420723D01*
G36*
X195757800Y-83680984D02*
X195757800Y-83765861D01*
X195521438Y-83667715D01*
X195258715Y-83667486D01*
X195015902Y-83767814D01*
X194829967Y-83953425D01*
X194729215Y-84196062D01*
X194729088Y-84341834D01*
X193643778Y-85427144D01*
X193610265Y-85477299D01*
X193484500Y-85451831D01*
X192087500Y-85451831D01*
X191965135Y-85474856D01*
X191852751Y-85547173D01*
X191777356Y-85657517D01*
X191750831Y-85788500D01*
X191750831Y-86721308D01*
X191584438Y-86652215D01*
X191321715Y-86651986D01*
X191078902Y-86752314D01*
X190892967Y-86937925D01*
X190792215Y-87180562D01*
X190792088Y-87326334D01*
X190463022Y-87655400D01*
X190087730Y-87655400D01*
X189985575Y-87553067D01*
X189742938Y-87452315D01*
X189480215Y-87452086D01*
X189420501Y-87476759D01*
X189420501Y-85800077D01*
X189609878Y-85610700D01*
X190690500Y-85610700D01*
X190865463Y-85575898D01*
X191013789Y-85476789D01*
X191387879Y-85102699D01*
X192087501Y-85102699D01*
X192262464Y-85067897D01*
X192410790Y-84968788D01*
X192455821Y-84923757D01*
X192580481Y-84975521D01*
X192989723Y-84975878D01*
X193367950Y-84819598D01*
X193657581Y-84530472D01*
X193814521Y-84152519D01*
X193814878Y-83743277D01*
X193658598Y-83365050D01*
X193554929Y-83261200D01*
X195338016Y-83261200D01*
X195757800Y-83680984D01*
X195757800Y-83680984D01*
G37*
X195757800Y-83680984D02*
X195757800Y-83765861D01*
X195521438Y-83667715D01*
X195258715Y-83667486D01*
X195015902Y-83767814D01*
X194829967Y-83953425D01*
X194729215Y-84196062D01*
X194729088Y-84341834D01*
X193643778Y-85427144D01*
X193610265Y-85477299D01*
X193484500Y-85451831D01*
X192087500Y-85451831D01*
X191965135Y-85474856D01*
X191852751Y-85547173D01*
X191777356Y-85657517D01*
X191750831Y-85788500D01*
X191750831Y-86721308D01*
X191584438Y-86652215D01*
X191321715Y-86651986D01*
X191078902Y-86752314D01*
X190892967Y-86937925D01*
X190792215Y-87180562D01*
X190792088Y-87326334D01*
X190463022Y-87655400D01*
X190087730Y-87655400D01*
X189985575Y-87553067D01*
X189742938Y-87452315D01*
X189480215Y-87452086D01*
X189420501Y-87476759D01*
X189420501Y-85800077D01*
X189609878Y-85610700D01*
X190690500Y-85610700D01*
X190865463Y-85575898D01*
X191013789Y-85476789D01*
X191387879Y-85102699D01*
X192087501Y-85102699D01*
X192262464Y-85067897D01*
X192410790Y-84968788D01*
X192455821Y-84923757D01*
X192580481Y-84975521D01*
X192989723Y-84975878D01*
X193367950Y-84819598D01*
X193657581Y-84530472D01*
X193814521Y-84152519D01*
X193814878Y-83743277D01*
X193658598Y-83365050D01*
X193554929Y-83261200D01*
X195338016Y-83261200D01*
X195757800Y-83680984D01*
M02*
