G04 #@! TF.FileFunction,Soldermask,Bot*
%FSLAX46Y46*%
G04 Gerber Fmt 4.6, Leading zero omitted, Abs format (unit mm)*
G04 Created by KiCad (PCBNEW 4.0.1-stable) date 09/03/2016 14:26:41*
%MOMM*%
G01*
G04 APERTURE LIST*
%ADD10C,0.150000*%
%ADD11C,1.397000*%
%ADD12C,3.000000*%
%ADD13R,1.397000X1.397000*%
G04 APERTURE END LIST*
D10*
D11*
X190881000Y-109347000D03*
X193421000Y-109347000D03*
X195961000Y-109347000D03*
X198501000Y-109347000D03*
X201041000Y-109347000D03*
X203581000Y-109347000D03*
X206121000Y-109347000D03*
X208661000Y-109347000D03*
X211201000Y-104267000D03*
X213741000Y-104267000D03*
X211201000Y-101727000D03*
X213741000Y-101727000D03*
X211201000Y-99187000D03*
X213741000Y-99187000D03*
X211201000Y-96647000D03*
X213741000Y-96647000D03*
X211201000Y-94107000D03*
X213741000Y-94107000D03*
X211201000Y-91567000D03*
X213741000Y-91567000D03*
X211201000Y-89027000D03*
X213741000Y-89027000D03*
X211201000Y-86487000D03*
X213741000Y-86487000D03*
X211201000Y-83947000D03*
X213741000Y-83947000D03*
X211201000Y-81407000D03*
X213741000Y-81407000D03*
X211201000Y-78867000D03*
X213741000Y-78867000D03*
X211201000Y-76327000D03*
X213741000Y-76327000D03*
X211201000Y-73787000D03*
X213741000Y-73787000D03*
X211201000Y-71247000D03*
X213741000Y-71247000D03*
X211201000Y-68707000D03*
X213741000Y-68707000D03*
X211201000Y-66167000D03*
X213741000Y-66167000D03*
X211201000Y-63627000D03*
X213741000Y-63627000D03*
X211201000Y-61087000D03*
X213741000Y-61087000D03*
X203581000Y-61087000D03*
X201041000Y-61087000D03*
X198501000Y-61087000D03*
X195961000Y-61087000D03*
X193421000Y-61087000D03*
X190881000Y-61087000D03*
X188341000Y-61087000D03*
X185801000Y-61087000D03*
D12*
X207391000Y-61087000D03*
X213741000Y-109347000D03*
D13*
X201676000Y-67437000D03*
D11*
X204216000Y-67437000D03*
X201676000Y-69977000D03*
X204216000Y-69977000D03*
X201676000Y-72517000D03*
X204216000Y-72517000D03*
X201676000Y-75057000D03*
X204216000Y-75057000D03*
X201676000Y-77597000D03*
X204216000Y-77597000D03*
X201676000Y-80137000D03*
X204216000Y-80137000D03*
X201676000Y-82677000D03*
X204216000Y-82677000D03*
X201676000Y-85217000D03*
X204216000Y-85217000D03*
X201676000Y-87757000D03*
X204216000Y-87757000D03*
D13*
X193421000Y-66167000D03*
D11*
X195961000Y-66167000D03*
D13*
X192786000Y-86487000D03*
D11*
X190246000Y-86487000D03*
X192786000Y-83947000D03*
X190246000Y-83947000D03*
X192786000Y-81407000D03*
X190246000Y-81407000D03*
X192786000Y-78867000D03*
X190246000Y-78867000D03*
X192786000Y-76327000D03*
X190246000Y-76327000D03*
X195961000Y-106172000D03*
X193421000Y-106172000D03*
X190881000Y-106172000D03*
M02*
